<svg width="52" height="52" viewBox="0 0 52 52" fill="none" xmlns="http://www.w3.org/2000/svg">
<g clip-path="url(#clip0_84_2340)">
<path d="M25.9999 0C11.6629 0 0 11.6639 0 25.9999C0 40.3359 11.6629 51.9998 25.9999 51.9998C40.337 51.9998 51.9998 40.3359 51.9998 25.9999C51.9998 11.6639 40.3371 0 25.9999 0ZM34.6745 27.0612H27.0613V34.6733C27.0613 35.2602 26.587 35.7345 26.0001 35.7345C25.4132 35.7345 24.9388 35.2602 24.9388 34.6733V27.0612H17.3255C16.7397 27.0612 16.2643 26.5858 16.2643 25.9999C16.2643 25.4141 16.7397 24.9387 17.3255 24.9387H24.9387V17.3255C24.9387 16.7397 25.413 16.2643 25.9999 16.2643C26.5868 16.2643 27.0612 16.7397 27.0612 17.3255V24.9387H34.6743C35.2612 24.9387 35.7356 25.4141 35.7356 25.9999C35.7356 26.5858 35.2612 27.0612 34.6745 27.0612Z" fill="#A45EFF"/>
</g>
<defs>
<clipPath id="clip0_84_2340">
<rect width="52" height="52" fill="white"/>
</clipPath>
</defs>
</svg>
