<svg width="51" height="44" viewBox="0 0 51 44" fill="none" xmlns="http://www.w3.org/2000/svg">
<g filter="url(#filter0_i_115_8983)">
<path d="M32 19.5609V36.4281C32.001 37.4221 31.806 38.4066 31.4263 39.3252C31.0466 40.2438 30.4895 41.0786 29.787 41.7818C29.0844 42.485 28.2502 43.0429 27.332 43.4235C26.4137 43.8041 25.4294 44 24.4354 44H7.56824C5.56195 43.999 3.63806 43.2019 2.21906 41.7835C0.800053 40.3652 0.00194646 38.4417 3.55772e-06 36.4354V19.5682C-0.000960514 18.5744 0.194018 17.5901 0.573787 16.6717C0.953555 15.7533 1.51066 14.9188 2.21324 14.2158C2.91582 13.5129 3.75009 12.9554 4.66832 12.5752C5.58655 12.195 6.57073 11.9995 7.56457 12H24.4318C25.4252 11.9995 26.4089 12.1947 27.3269 12.5744C28.2448 12.9541 29.079 13.5109 29.7818 14.213C30.4846 14.9151 31.0422 15.7488 31.4228 16.6663C31.8034 17.5839 31.9995 18.5675 32 19.5609V19.5609Z" fill="#FF7878"/>
</g>
<path fill-rule="evenodd" clip-rule="evenodd" d="M11.25 37C12.55 31.6558 19.7072 31.6776 21 37C18.5697 35.0481 13.3986 35.1388 11.25 37Z" fill="#2B1607"/>
<path d="M11.145 37.1346C11.1187 37.1346 11.093 37.1271 11.0711 37.113C11.044 37.097 11.023 37.073 11.011 37.0446C10.999 37.0161 10.9968 36.9847 11.0045 36.9548C11.6257 34.4819 13.6406 32.9004 16.1325 32.9004C18.6281 32.9004 20.6357 34.5035 21.2458 36.9692C21.253 36.9981 21.2509 37.0285 21.2396 37.0562C21.2284 37.0839 21.2086 37.1075 21.1829 37.1238C21.1574 37.1411 21.1271 37.1504 21.096 37.1504C21.0649 37.1504 21.0346 37.1411 21.0091 37.1238C18.6577 35.2655 13.4484 35.2655 11.2301 37.1238C11.2034 37.1355 11.1738 37.1392 11.145 37.1346V37.1346ZM16.0808 35.4344C17.848 35.4344 19.6338 35.8334 20.8576 36.6278C20.5689 35.6295 19.9516 34.7509 19.1002 34.1263C18.2487 33.5018 17.2102 33.1659 16.1436 33.17V33.17C15.0783 33.1658 14.0407 33.4998 13.1886 34.1214C12.3364 34.7429 11.7162 35.6179 11.4223 36.6134C12.5684 35.8262 14.3246 35.4344 16.0808 35.4344Z" fill="black"/>
<path d="M23.5 29C22.638 29 21.8114 28.6576 21.2019 28.0481C20.5924 27.4386 20.25 26.612 20.25 25.75V25.5853C20.25 22.9722 23.1377 21.2813 24.9823 21.5229C26.6182 21.7315 26.75 22.7782 26.75 24.3337V25.75C26.749 26.6117 26.4063 27.4378 25.797 28.047C25.1877 28.6563 24.3617 28.999 23.5 29Z" fill="black"/>
<path d="M22.4563 23.9175C22.7722 23.9175 23.0283 23.6614 23.0283 23.3455C23.0283 23.0295 22.7722 22.7734 22.4563 22.7734C22.1404 22.7734 21.8843 23.0295 21.8843 23.3455C21.8843 23.6614 22.1404 23.9175 22.4563 23.9175Z" fill="white"/>
<path opacity="0.1" d="M23.5159 26.1211C24.251 26.1211 24.8469 25.5251 24.8469 24.79C24.8469 24.0549 24.251 23.459 23.5159 23.459C22.7807 23.459 22.1848 24.0549 22.1848 24.79C22.1848 25.5251 22.7807 26.1211 23.5159 26.1211Z" fill="white"/>
<path d="M8.25183 29C9.11363 28.999 9.93981 28.6562 10.5489 28.0468C11.1579 27.4374 11.5 26.6113 11.5 25.75V25.5853C11.5 22.9722 8.61437 21.2813 6.76873 21.5229C5.12817 21.7315 5 22.7782 5 24.3337V25.75C5 26.612 5.3426 27.4386 5.95244 28.0481C6.56228 28.6576 7.38939 29 8.25183 29V29Z" fill="black"/>
<path d="M7.20996 23.9175C7.52587 23.9175 7.78197 23.6614 7.78197 23.3455C7.78197 23.0295 7.52587 22.7734 7.20996 22.7734C6.89404 22.7734 6.63794 23.0295 6.63794 23.3455C6.63794 23.6614 6.89404 23.9175 7.20996 23.9175Z" fill="white"/>
<path opacity="0.1" d="M8.26952 26.1211C9.00463 26.1211 9.60056 25.5251 9.60056 24.79C9.60056 24.0549 9.00463 23.459 8.26952 23.459C7.5344 23.459 6.93848 24.0549 6.93848 24.79C6.93848 25.5251 7.5344 26.1211 8.26952 26.1211Z" fill="white"/>
<circle cx="37.5" cy="13.5" r="13.5" fill="white"/>
<path d="M48.549 13.3511C48.549 16.3111 47.3731 19.1499 45.2801 21.243C43.187 23.336 40.3483 24.5118 37.3883 24.5118C34.4282 24.5118 31.5895 23.336 29.4964 21.243C27.4034 19.1499 26.2275 16.3111 26.2275 13.3511C26.2275 10.3911 27.4034 7.55237 29.4964 5.45933C31.5895 3.36629 34.4282 2.19043 37.3883 2.19043C40.3483 2.19043 43.187 3.36629 45.2801 5.45933C47.3731 7.55237 48.549 10.3911 48.549 13.3511ZM33.3109 12.8485C33.3109 12.4485 33.152 12.0649 32.8692 11.7821C32.5864 11.4993 32.2028 11.3404 31.8028 11.3404C31.6048 11.3404 31.4087 11.3794 31.2257 11.4552C31.0427 11.531 30.8765 11.642 30.7365 11.7821C30.5964 11.9221 30.4853 12.0884 30.4095 12.2713C30.3338 12.4543 30.2948 12.6504 30.2948 12.8485C30.2948 13.0465 30.3338 13.2426 30.4095 13.4256C30.4853 13.6085 30.5964 13.7748 30.7365 13.9148C30.8765 14.0549 31.0427 14.1659 31.2257 14.2417C31.4087 14.3175 31.6048 14.3565 31.8028 14.3565C32.2028 14.3565 32.5864 14.1976 32.8692 13.9148C33.152 13.632 33.3109 13.2484 33.3109 12.8485ZM44.4818 12.8485C44.4818 12.4485 44.3229 12.0649 44.04 11.7821C43.7572 11.4993 43.3736 11.3404 42.9737 11.3404C42.5737 11.3404 42.1901 11.4993 41.9073 11.7821C41.6245 12.0649 41.4656 12.4485 41.4656 12.8485C41.4656 13.2484 41.6245 13.632 41.9073 13.9148C42.1901 14.1976 42.5737 14.3565 42.9737 14.3565C43.3736 14.3565 43.7572 14.1976 44.04 13.9148C44.3229 13.632 44.4818 13.2484 44.4818 12.8485ZM42.4457 17.3561C42.4459 17.2314 42.4216 17.1079 42.3741 16.9926C42.3266 16.8773 42.2568 16.7725 42.1688 16.6842C42.0808 16.5959 41.9762 16.5257 41.8611 16.4778C41.746 16.4299 41.6226 16.4051 41.4979 16.4049L33.272 16.3906C33.1473 16.3904 33.0238 16.4147 32.9086 16.4622C32.7933 16.5097 32.6885 16.5795 32.6001 16.6675C32.5118 16.7555 32.4417 16.8601 32.3938 16.9752C32.3458 17.0903 32.3211 17.2137 32.3208 17.3384L32.3206 17.4704C32.3204 17.5951 32.3448 17.7187 32.3923 17.8339C32.4398 17.9492 32.5096 18.054 32.5976 18.1424C32.6856 18.2307 32.7901 18.3008 32.9053 18.3487C33.0204 18.3966 33.1438 18.4214 33.2685 18.4216L41.4943 18.436C41.619 18.4362 41.7425 18.4118 41.8578 18.3643C41.9731 18.3168 42.0779 18.2471 42.1662 18.159C42.2545 18.071 42.3247 17.9665 42.3726 17.8514C42.4205 17.7362 42.4453 17.6128 42.4455 17.4881L42.4457 17.3561Z" fill="#FFC22D"/>
<path d="M31.8027 14.3565C32.6356 14.3565 33.3108 13.6813 33.3108 12.8484C33.3108 12.0155 32.6356 11.3403 31.8027 11.3403C30.9699 11.3403 30.2947 12.0155 30.2947 12.8484C30.2947 13.6813 30.9699 14.3565 31.8027 14.3565Z" fill="#020202"/>
<path d="M42.9736 14.3565C43.8065 14.3565 44.4817 13.6813 44.4817 12.8484C44.4817 12.0155 43.8065 11.3403 42.9736 11.3403C42.1408 11.3403 41.4656 12.0155 41.4656 12.8484C41.4656 13.6813 42.1408 14.3565 42.9736 14.3565Z" fill="#020202"/>
<path d="M41.4978 16.4047L33.272 16.3903C32.7476 16.3894 32.3218 16.8138 32.3209 17.3382L32.3206 17.4702C32.3197 17.9946 32.7441 18.4205 33.2685 18.4214L41.4943 18.4357C42.0187 18.4367 42.4446 18.0123 42.4455 17.4879L42.4457 17.3559C42.4466 16.8315 42.0222 16.4056 41.4978 16.4047Z" fill="#020202"/>
<defs>
<filter id="filter0_i_115_8983" x="0" y="12" width="32" height="32" filterUnits="userSpaceOnUse" color-interpolation-filters="sRGB">
<feFlood flood-opacity="0" result="BackgroundImageFix"/>
<feBlend mode="normal" in="SourceGraphic" in2="BackgroundImageFix" result="shape"/>
<feColorMatrix in="SourceAlpha" type="matrix" values="0 0 0 0 0 0 0 0 0 0 0 0 0 0 0 0 0 0 127 0" result="hardAlpha"/>
<feOffset dx="-6" dy="-6"/>
<feComposite in2="hardAlpha" operator="arithmetic" k2="-1" k3="1"/>
<feColorMatrix type="matrix" values="0 0 0 0 0 0 0 0 0 0 0 0 0 0 0 0 0 0 0.04 0"/>
<feBlend mode="normal" in2="shape" result="effect1_innerShadow_115_8983"/>
</filter>
</defs>
</svg>
