<svg width="51" height="44" viewBox="0 0 51 44" fill="none" xmlns="http://www.w3.org/2000/svg">
<g filter="url(#filter0_i_115_8992)">
<path d="M32 19.5609V36.4281C32.001 37.4221 31.806 38.4066 31.4263 39.3252C31.0466 40.2438 30.4895 41.0786 29.787 41.7818C29.0844 42.485 28.2502 43.0429 27.332 43.4235C26.4137 43.8041 25.4294 44 24.4354 44H7.56824C5.56195 43.999 3.63806 43.2019 2.21906 41.7835C0.800053 40.3652 0.00194646 38.4417 3.55772e-06 36.4354V19.5682C-0.000960514 18.5744 0.194018 17.5901 0.573787 16.6717C0.953555 15.7533 1.51066 14.9188 2.21324 14.2158C2.91582 13.5129 3.75009 12.9554 4.66832 12.5752C5.58655 12.195 6.57073 11.9995 7.56457 12H24.4318C25.4252 11.9995 26.4089 12.1947 27.3269 12.5744C28.2448 12.9541 29.079 13.5109 29.7818 14.213C30.4846 14.9151 31.0422 15.7488 31.4228 16.6663C31.8034 17.5839 31.9995 18.5675 32 19.5609V19.5609Z" fill="#FF7878"/>
</g>
<path fill-rule="evenodd" clip-rule="evenodd" d="M11.25 37C12.55 31.6558 19.7072 31.6776 21 37C18.5697 35.0481 13.3986 35.1388 11.25 37Z" fill="#2B1607"/>
<path d="M11.145 37.1346C11.1187 37.1346 11.093 37.1271 11.0711 37.113C11.044 37.097 11.023 37.073 11.011 37.0446C10.999 37.0161 10.9968 36.9847 11.0045 36.9548C11.6257 34.4819 13.6406 32.9004 16.1325 32.9004C18.6281 32.9004 20.6357 34.5035 21.2458 36.9692C21.253 36.9981 21.2509 37.0285 21.2396 37.0562C21.2284 37.0839 21.2086 37.1075 21.1829 37.1238C21.1574 37.1411 21.1271 37.1504 21.096 37.1504C21.0649 37.1504 21.0346 37.1411 21.0091 37.1238C18.6577 35.2655 13.4484 35.2655 11.2301 37.1238C11.2034 37.1355 11.1738 37.1392 11.145 37.1346V37.1346ZM16.0808 35.4344C17.848 35.4344 19.6338 35.8334 20.8576 36.6278C20.5689 35.6295 19.9516 34.7509 19.1002 34.1263C18.2487 33.5018 17.2102 33.1659 16.1436 33.17V33.17C15.0783 33.1658 14.0407 33.4998 13.1886 34.1214C12.3364 34.7429 11.7162 35.6179 11.4223 36.6134C12.5684 35.8262 14.3246 35.4344 16.0808 35.4344Z" fill="black"/>
<path d="M23.5 29C22.638 29 21.8114 28.6576 21.2019 28.0481C20.5924 27.4386 20.25 26.612 20.25 25.75V25.5853C20.25 22.9722 23.1377 21.2813 24.9823 21.5229C26.6182 21.7315 26.75 22.7782 26.75 24.3337V25.75C26.749 26.6117 26.4063 27.4378 25.797 28.047C25.1877 28.6563 24.3617 28.999 23.5 29Z" fill="black"/>
<path d="M22.4563 23.9175C22.7722 23.9175 23.0283 23.6614 23.0283 23.3455C23.0283 23.0295 22.7722 22.7734 22.4563 22.7734C22.1404 22.7734 21.8843 23.0295 21.8843 23.3455C21.8843 23.6614 22.1404 23.9175 22.4563 23.9175Z" fill="white"/>
<path opacity="0.1" d="M23.5159 26.1211C24.251 26.1211 24.8469 25.5251 24.8469 24.79C24.8469 24.0549 24.251 23.459 23.5159 23.459C22.7807 23.459 22.1848 24.0549 22.1848 24.79C22.1848 25.5251 22.7807 26.1211 23.5159 26.1211Z" fill="white"/>
<path d="M8.25183 29C9.11363 28.999 9.93981 28.6562 10.5489 28.0468C11.1579 27.4374 11.5 26.6113 11.5 25.75V25.5853C11.5 22.9722 8.61437 21.2813 6.76873 21.5229C5.12817 21.7315 5 22.7782 5 24.3337V25.75C5 26.612 5.3426 27.4386 5.95244 28.0481C6.56228 28.6576 7.38939 29 8.25183 29V29Z" fill="black"/>
<path d="M7.20996 23.9175C7.52587 23.9175 7.78197 23.6614 7.78197 23.3455C7.78197 23.0295 7.52587 22.7734 7.20996 22.7734C6.89404 22.7734 6.63794 23.0295 6.63794 23.3455C6.63794 23.6614 6.89404 23.9175 7.20996 23.9175Z" fill="white"/>
<path opacity="0.1" d="M8.26952 26.1211C9.00463 26.1211 9.60056 25.5251 9.60056 24.79C9.60056 24.0549 9.00463 23.459 8.26952 23.459C7.5344 23.459 6.93848 24.0549 6.93848 24.79C6.93848 25.5251 7.5344 26.1211 8.26952 26.1211Z" fill="white"/>
<circle cx="37.5" cy="13.5" r="13.5" fill="white"/>
<path d="M48.5121 13.3512C48.5121 14.8168 48.2234 16.2681 47.6626 17.6222C47.1017 18.9763 46.2796 20.2066 45.2432 21.243C44.2069 22.2793 42.9765 23.1014 41.6224 23.6623C40.2683 24.2232 38.817 24.5119 37.3514 24.5119C34.3914 24.5119 31.5526 23.336 29.4595 21.243C27.3665 19.1499 26.1907 16.3112 26.1907 13.3512C26.1907 10.3911 27.3665 7.55237 29.4595 5.45933C31.5526 3.36629 34.3914 2.19043 37.3514 2.19043C38.817 2.19043 40.2683 2.47911 41.6224 3.03999C42.9765 3.60087 44.2069 4.42296 45.2432 5.45933C46.2796 6.4957 47.1017 7.72605 47.6626 9.08013C48.2234 10.4342 48.5121 11.8855 48.5121 13.3512ZM33.274 12.8485C33.274 12.4485 33.1151 12.0649 32.8323 11.7821C32.5495 11.4993 32.1659 11.3404 31.7659 11.3404C31.5679 11.3404 31.3718 11.3794 31.1888 11.4552C31.0059 11.531 30.8396 11.6421 30.6996 11.7821C30.5596 11.9221 30.4485 12.0884 30.3727 12.2714C30.2969 12.4543 30.2579 12.6504 30.2579 12.8485C30.2579 13.0465 30.2969 13.2426 30.3727 13.4256C30.4485 13.6085 30.5596 13.7748 30.6996 13.9148C30.8396 14.0549 31.0059 14.166 31.1888 14.2417C31.3718 14.3175 31.5679 14.3565 31.7659 14.3565C32.1659 14.3565 32.5495 14.1976 32.8323 13.9148C33.1151 13.632 33.274 13.2484 33.274 12.8485ZM44.4449 12.8485C44.4449 12.4485 44.286 12.0649 44.0032 11.7821C43.7204 11.4993 43.3368 11.3404 42.9368 11.3404C42.5369 11.3404 42.1533 11.4993 41.8705 11.7821C41.5876 12.0649 41.4288 12.4485 41.4288 12.8485C41.4288 13.2484 41.5876 13.632 41.8705 13.9148C42.1533 14.1976 42.5369 14.3565 42.9368 14.3565C43.3368 14.3565 43.7204 14.1976 44.0032 13.9148C44.286 13.632 44.4449 13.2484 44.4449 12.8485ZM35.9499 20.7646C36.9452 20.3313 37.9827 20.3566 39.0626 20.8407C39.4722 21.0235 39.8225 20.944 40.1136 20.6021C40.1983 20.5039 40.2609 20.3956 40.3015 20.2771C40.5283 19.6136 40.3151 19.1566 39.6617 18.9061C37.9387 18.2426 36.3443 18.2782 34.8786 19.0128C34.4487 19.226 34.2625 19.6102 34.32 20.1654C34.3573 20.5208 34.7364 20.7442 35.4574 20.8356C35.6232 20.8589 35.7939 20.8342 35.9499 20.7646Z" fill="#FF9A1C"/>
<path d="M31.7659 14.3565C32.5987 14.3565 33.2739 13.6813 33.2739 12.8484C33.2739 12.0155 32.5987 11.3403 31.7659 11.3403C30.933 11.3403 30.2578 12.0155 30.2578 12.8484C30.2578 13.6813 30.933 14.3565 31.7659 14.3565Z" fill="#020202"/>
<path d="M42.9368 14.3565C43.7696 14.3565 44.4448 13.6813 44.4448 12.8484C44.4448 12.0155 43.7696 11.3403 42.9368 11.3403C42.1039 11.3403 41.4287 12.0155 41.4287 12.8484C41.4287 13.6813 42.1039 14.3565 42.9368 14.3565Z" fill="#020202"/>
<path d="M35.9499 20.7643C35.7938 20.834 35.6232 20.8586 35.4574 20.8354C34.7364 20.744 34.3572 20.5206 34.32 20.1652C34.2625 19.61 34.4486 19.2258 34.8785 19.0125C36.3443 18.278 37.9387 18.2424 39.6617 18.9059C40.315 19.1564 40.5283 19.6134 40.3015 20.2769C40.2609 20.3954 40.1982 20.5037 40.1136 20.6018C39.8225 20.9437 39.4721 21.0233 39.0625 20.8405C37.9827 20.3564 36.9451 20.331 35.9499 20.7643Z" fill="#020202"/>
<defs>
<filter id="filter0_i_115_8992" x="0" y="12" width="32" height="32" filterUnits="userSpaceOnUse" color-interpolation-filters="sRGB">
<feFlood flood-opacity="0" result="BackgroundImageFix"/>
<feBlend mode="normal" in="SourceGraphic" in2="BackgroundImageFix" result="shape"/>
<feColorMatrix in="SourceAlpha" type="matrix" values="0 0 0 0 0 0 0 0 0 0 0 0 0 0 0 0 0 0 127 0" result="hardAlpha"/>
<feOffset dx="-6" dy="-6"/>
<feComposite in2="hardAlpha" operator="arithmetic" k2="-1" k3="1"/>
<feColorMatrix type="matrix" values="0 0 0 0 0 0 0 0 0 0 0 0 0 0 0 0 0 0 0.04 0"/>
<feBlend mode="normal" in2="shape" result="effect1_innerShadow_115_8992"/>
</filter>
</defs>
</svg>
