<svg width="142" height="142" viewBox="0 0 142 142" fill="none" xmlns="http://www.w3.org/2000/svg">
<g filter="url(#filter0_i_56_2159)">
<g filter="url(#filter1_i_56_2159)">
<path d="M142 33.5515V108.4C142.004 112.811 141.139 117.179 139.454 121.256C137.769 125.332 135.297 129.036 132.18 132.157C129.062 135.277 125.36 137.753 121.286 139.442C117.211 141.131 112.843 142 108.432 142H33.5841C24.6812 141.996 16.1439 138.458 9.84706 132.164C3.55023 125.871 0.00863741 117.335 1.57874e-05 108.432V33.5841C-0.00426228 29.1739 0.860955 24.8062 2.54618 20.7307C4.2314 16.6552 6.70356 12.952 9.82126 9.83276C12.939 6.71355 16.641 4.23959 20.7157 2.5524C24.7903 0.865198 29.1576 -0.0021369 33.5678 3.95355e-06H108.416C112.824 -0.00213335 117.19 0.864007 121.263 2.54897C125.336 4.23394 129.038 6.70473 132.157 9.82027C135.275 12.9358 137.75 16.6351 139.439 20.7069C141.127 24.7787 141.998 29.1433 142 33.5515V33.5515Z" fill="#FF7878"/>
</g>
<path fill-rule="evenodd" clip-rule="evenodd" d="M49.9219 110.938C55.6906 87.2226 87.4508 87.3192 93.1875 110.938C82.4031 102.276 59.4563 102.678 49.9219 110.938Z" fill="#2B1607"/>
<path d="M49.456 111.536C49.3393 111.536 49.2251 111.503 49.1279 111.44C49.0079 111.369 48.9145 111.263 48.8614 111.136C48.8082 111.01 48.7981 110.871 48.8326 110.738C51.5888 99.7646 60.5303 92.7466 71.5881 92.7466C82.6624 92.7466 91.571 99.8603 94.2781 110.802C94.3104 110.93 94.3009 111.065 94.2509 111.188C94.2009 111.311 94.113 111.416 93.9992 111.488C93.8862 111.565 93.7516 111.606 93.6136 111.606C93.4757 111.606 93.3411 111.565 93.2281 111.488C82.7937 103.242 59.6772 103.242 49.8334 111.488C49.7152 111.54 49.5839 111.556 49.456 111.536ZM71.3585 103.991C79.2007 103.991 87.1249 105.762 92.5554 109.287C91.2744 104.857 88.5351 100.958 84.7569 98.1867C80.9788 95.4153 76.3702 93.9246 71.6374 93.9428C66.91 93.9243 62.3057 95.4066 58.5242 98.1646C54.7427 100.923 51.9907 104.805 50.6865 109.223C55.7725 105.73 63.5655 103.991 71.3585 103.991Z" fill="black"/>
<path d="M104.281 75.4375C100.456 75.4375 96.7881 73.9181 94.0834 71.2135C91.3788 68.5089 89.8594 64.8407 89.8594 61.0158V60.285C89.8594 48.6892 102.673 41.186 110.859 42.2579C118.118 43.1836 118.703 47.8284 118.703 54.7307V61.0158C118.699 64.8394 117.178 68.5051 114.474 71.2087C111.771 73.9124 108.105 75.4332 104.281 75.4375Z" fill="black"/>
<path d="M99.6494 52.8832C101.051 52.8832 102.188 51.7468 102.188 50.3449C102.188 48.943 101.051 47.8066 99.6494 47.8066C98.2475 47.8066 97.1111 48.943 97.1111 50.3449C97.1111 51.7468 98.2475 52.8832 99.6494 52.8832Z" fill="white"/>
<path opacity="0.1" d="M104.352 62.6623C107.614 62.6623 110.258 60.0179 110.258 56.7558C110.258 53.4937 107.614 50.8493 104.352 50.8493C101.09 50.8493 98.4453 53.4937 98.4453 56.7558C98.4453 60.0179 101.09 62.6623 104.352 62.6623Z" fill="white"/>
<path d="M36.6175 75.4375C40.4418 75.4332 44.1079 73.9119 46.8105 71.2077C49.5132 68.5036 51.0312 64.8379 51.0312 61.0158V60.285C51.0312 48.6892 38.2262 41.186 30.0362 42.2579C22.7563 43.1836 22.1875 47.8284 22.1875 54.7307V61.0158C22.1875 64.8407 23.7078 68.5089 26.4139 71.2135C29.1201 73.9181 32.7904 75.4375 36.6175 75.4375Z" fill="black"/>
<path d="M31.9938 52.8832C33.3957 52.8832 34.5321 51.7468 34.5321 50.3449C34.5321 48.943 33.3957 47.8066 31.9938 47.8066C30.5919 47.8066 29.4554 48.943 29.4554 50.3449C29.4554 51.7468 30.5919 52.8832 31.9938 52.8832Z" fill="white"/>
<path opacity="0.1" d="M36.6962 62.6623C39.9582 62.6623 42.6027 60.0179 42.6027 56.7558C42.6027 53.4937 39.9582 50.8493 36.6962 50.8493C33.4341 50.8493 30.7897 53.4937 30.7897 56.7558C30.7897 60.0179 33.4341 62.6623 36.6962 62.6623Z" fill="white"/>
</g>
<defs>
<filter id="filter0_i_56_2159" x="0" y="0" width="142" height="146" filterUnits="userSpaceOnUse" color-interpolation-filters="sRGB">
<feFlood flood-opacity="0" result="BackgroundImageFix"/>
<feBlend mode="normal" in="SourceGraphic" in2="BackgroundImageFix" result="shape"/>
<feColorMatrix in="SourceAlpha" type="matrix" values="0 0 0 0 0 0 0 0 0 0 0 0 0 0 0 0 0 0 127 0" result="hardAlpha"/>
<feOffset dy="4"/>
<feGaussianBlur stdDeviation="2"/>
<feComposite in2="hardAlpha" operator="arithmetic" k2="-1" k3="1"/>
<feColorMatrix type="matrix" values="0 0 0 0 0 0 0 0 0 0 0 0 0 0 0 0 0 0 0.25 0"/>
<feBlend mode="normal" in2="shape" result="effect1_innerShadow_56_2159"/>
</filter>
<filter id="filter1_i_56_2159" x="0" y="0" width="142" height="142" filterUnits="userSpaceOnUse" color-interpolation-filters="sRGB">
<feFlood flood-opacity="0" result="BackgroundImageFix"/>
<feBlend mode="normal" in="SourceGraphic" in2="BackgroundImageFix" result="shape"/>
<feColorMatrix in="SourceAlpha" type="matrix" values="0 0 0 0 0 0 0 0 0 0 0 0 0 0 0 0 0 0 127 0" result="hardAlpha"/>
<feOffset dx="-6" dy="-6"/>
<feComposite in2="hardAlpha" operator="arithmetic" k2="-1" k3="1"/>
<feColorMatrix type="matrix" values="0 0 0 0 0 0 0 0 0 0 0 0 0 0 0 0 0 0 0.04 0"/>
<feBlend mode="normal" in2="shape" result="effect1_innerShadow_56_2159"/>
</filter>
</defs>
</svg>
