<svg width="51" height="44" viewBox="0 0 51 44" fill="none" xmlns="http://www.w3.org/2000/svg">
<g filter="url(#filter0_i_115_9001)">
<path d="M32 19.5609V36.4281C32.001 37.4221 31.806 38.4066 31.4263 39.3252C31.0466 40.2438 30.4895 41.0786 29.787 41.7818C29.0844 42.485 28.2502 43.0429 27.332 43.4235C26.4137 43.8041 25.4294 44 24.4354 44H7.56824C5.56195 43.999 3.63806 43.2019 2.21906 41.7835C0.800053 40.3652 0.00194646 38.4417 3.55772e-06 36.4354V19.5682C-0.000960514 18.5744 0.194018 17.5901 0.573787 16.6717C0.953555 15.7533 1.51066 14.9188 2.21324 14.2158C2.91582 13.5129 3.75009 12.9554 4.66832 12.5752C5.58655 12.195 6.57073 11.9995 7.56457 12H24.4318C25.4252 11.9995 26.4089 12.1947 27.3269 12.5744C28.2448 12.9541 29.079 13.5109 29.7818 14.213C30.4846 14.9151 31.0422 15.7488 31.4228 16.6663C31.8034 17.5839 31.9995 18.5675 32 19.5609V19.5609Z" fill="#FF7878"/>
</g>
<path fill-rule="evenodd" clip-rule="evenodd" d="M11.25 37C12.55 31.6558 19.7072 31.6776 21 37C18.5697 35.0481 13.3986 35.1388 11.25 37Z" fill="#2B1607"/>
<path d="M11.145 37.1346C11.1187 37.1346 11.093 37.1271 11.0711 37.113C11.044 37.097 11.023 37.073 11.011 37.0446C10.999 37.0161 10.9968 36.9847 11.0045 36.9548C11.6257 34.4819 13.6406 32.9004 16.1325 32.9004C18.6281 32.9004 20.6357 34.5035 21.2458 36.9692C21.253 36.9981 21.2509 37.0285 21.2396 37.0562C21.2284 37.0839 21.2086 37.1075 21.1829 37.1238C21.1574 37.1411 21.1271 37.1504 21.096 37.1504C21.0649 37.1504 21.0346 37.1411 21.0091 37.1238C18.6577 35.2655 13.4484 35.2655 11.2301 37.1238C11.2034 37.1355 11.1738 37.1392 11.145 37.1346V37.1346ZM16.0808 35.4344C17.848 35.4344 19.6338 35.8334 20.8576 36.6278C20.5689 35.6295 19.9516 34.7509 19.1002 34.1263C18.2487 33.5018 17.2102 33.1659 16.1436 33.17V33.17C15.0783 33.1658 14.0407 33.4998 13.1886 34.1214C12.3364 34.7429 11.7162 35.6179 11.4223 36.6134C12.5684 35.8262 14.3246 35.4344 16.0808 35.4344Z" fill="black"/>
<path d="M23.5 29C22.638 29 21.8114 28.6576 21.2019 28.0481C20.5924 27.4386 20.25 26.612 20.25 25.75V25.5853C20.25 22.9722 23.1377 21.2813 24.9823 21.5229C26.6182 21.7315 26.75 22.7782 26.75 24.3337V25.75C26.749 26.6117 26.4063 27.4378 25.797 28.047C25.1877 28.6563 24.3617 28.999 23.5 29Z" fill="black"/>
<path d="M22.4563 23.9175C22.7722 23.9175 23.0283 23.6614 23.0283 23.3455C23.0283 23.0295 22.7722 22.7734 22.4563 22.7734C22.1404 22.7734 21.8843 23.0295 21.8843 23.3455C21.8843 23.6614 22.1404 23.9175 22.4563 23.9175Z" fill="white"/>
<path opacity="0.1" d="M23.5159 26.1211C24.251 26.1211 24.8469 25.5251 24.8469 24.79C24.8469 24.0549 24.251 23.459 23.5159 23.459C22.7807 23.459 22.1848 24.0549 22.1848 24.79C22.1848 25.5251 22.7807 26.1211 23.5159 26.1211Z" fill="white"/>
<path d="M8.25183 29C9.11363 28.999 9.93981 28.6562 10.5489 28.0468C11.1579 27.4374 11.5 26.6113 11.5 25.75V25.5853C11.5 22.9722 8.61437 21.2813 6.76873 21.5229C5.12817 21.7315 5 22.7782 5 24.3337V25.75C5 26.612 5.3426 27.4386 5.95244 28.0481C6.56228 28.6576 7.38939 29 8.25183 29V29Z" fill="black"/>
<path d="M7.20996 23.9175C7.52587 23.9175 7.78197 23.6614 7.78197 23.3455C7.78197 23.0295 7.52587 22.7734 7.20996 22.7734C6.89404 22.7734 6.63794 23.0295 6.63794 23.3455C6.63794 23.6614 6.89404 23.9175 7.20996 23.9175Z" fill="white"/>
<path opacity="0.1" d="M8.26952 26.1211C9.00463 26.1211 9.60056 25.5251 9.60056 24.79C9.60056 24.0549 9.00463 23.459 8.26952 23.459C7.5344 23.459 6.93848 24.0549 6.93848 24.79C6.93848 25.5251 7.5344 26.1211 8.26952 26.1211Z" fill="white"/>
<circle cx="37.5" cy="13.5" r="13.5" fill="white"/>
<path d="M48.5119 13.3511C48.5119 14.8168 48.2232 16.2681 47.6623 17.6222C47.1014 18.9762 46.2793 20.2066 45.243 21.243C44.2066 22.2793 42.9762 23.1014 41.6222 23.6623C40.2681 24.2232 38.8168 24.5119 37.3511 24.5119C34.3911 24.5119 31.5524 23.336 29.4593 21.243C27.3663 19.1499 26.1904 16.3111 26.1904 13.3511C26.1904 10.3911 27.3663 7.55237 29.4593 5.45933C31.5524 3.36629 34.3911 2.19043 37.3511 2.19043C38.8168 2.19043 40.2681 2.47911 41.6222 3.03999C42.9762 3.60087 44.2066 4.42296 45.243 5.45933C46.2793 6.4957 47.1014 7.72604 47.6623 9.08012C48.2232 10.4342 48.5119 11.8855 48.5119 13.3511ZM31.7657 12.9754L31.0041 13.3664C30.5064 13.6236 30.261 14.0316 30.2678 14.5901C30.2712 14.7695 30.3355 14.9168 30.4607 15.0319C30.8771 15.4144 31.3392 15.4787 31.847 15.2248L34.8225 13.7269C34.9867 13.6435 35.1246 13.5161 35.2207 13.3589C35.3169 13.2017 35.3675 13.021 35.367 12.8367C35.3664 12.6525 35.3148 12.472 35.2177 12.3154C35.1207 12.1588 34.9821 12.0322 34.8174 11.9497L31.5474 10.335C31.4403 10.2818 31.323 10.2524 31.2035 10.2489C31.0839 10.2454 30.9651 10.2678 30.8551 10.3146C30.745 10.3614 30.6465 10.4315 30.5661 10.5201C30.4858 10.6086 30.4256 10.7135 30.3897 10.8275L30.2932 11.1271C30.1375 11.6214 30.2915 11.9819 30.7553 12.2087L31.7606 12.7063C31.9367 12.7943 31.9383 12.884 31.7657 12.9754ZM42.9417 12.7114L43.8049 12.2899C44.3736 12.0123 44.5767 11.5672 44.4142 10.9545C44.3262 10.6363 44.0266 10.4247 43.5154 10.3198C43.3474 10.2868 43.1742 10.3101 43.0229 10.3858L39.8798 11.9599C39.714 12.042 39.5745 12.1689 39.4772 12.3262C39.3798 12.4835 39.3285 12.665 39.329 12.85C39.3295 13.0351 39.3819 13.2162 39.4802 13.373C39.5784 13.5298 39.7186 13.6559 39.8849 13.737L43.1498 15.3517C43.6711 15.609 44.0452 15.4702 44.272 14.9354L44.3786 14.6866C44.619 14.1179 44.4599 13.7032 43.9013 13.4425L42.9417 12.9906C42.7453 12.8992 42.7453 12.8061 42.9417 12.7114ZM37.1277 18.6573L35.0459 16.2353C34.9549 16.1286 34.8419 16.0431 34.7145 15.9846C34.5872 15.926 34.4486 15.896 34.3084 15.8965C34.1683 15.897 34.0299 15.928 33.903 15.9874C33.776 16.0467 33.6636 16.1331 33.5734 16.2403L32.3852 17.6519C32.2362 17.8246 32.0721 17.8398 31.8927 17.6976C30.8213 16.8446 29.8057 18.1241 30.4557 19.0381C31.0074 19.8235 31.632 20.3042 32.3293 20.4802C32.4234 20.5046 32.5227 20.5013 32.6154 20.4707C32.7081 20.4401 32.7903 20.3835 32.8523 20.3075L34.2131 18.6624C34.3012 18.5541 34.3926 18.5524 34.4873 18.6573L36.6453 21.1758C36.7335 21.2786 36.8427 21.3612 36.9655 21.4181C37.0883 21.4749 37.2218 21.5046 37.3568 21.505C37.4919 21.5055 37.6252 21.4768 37.7478 21.4209C37.8704 21.3649 37.9793 21.2831 38.0671 21.1809L40.1489 18.769C40.3148 18.5761 40.4739 18.5794 40.6262 18.7792C40.9072 19.1448 41.1865 19.5137 41.4641 19.8861C42.4796 21.2571 43.6525 19.8353 44.272 18.9975C44.3502 18.8925 44.4065 18.7729 44.4376 18.6458C44.4688 18.5188 44.4741 18.3869 44.4532 18.258C44.4324 18.1291 44.3858 18.0059 44.3163 17.8956C44.2468 17.7854 44.1557 17.6904 44.0486 17.6164C43.6085 17.3117 43.1701 17.3422 42.7335 17.7078C42.5744 17.8432 42.4288 17.8296 42.2968 17.6672L41.2051 16.3063C41.1089 16.1867 40.9876 16.0896 40.8498 16.0219C40.7121 15.9542 40.5613 15.9176 40.4081 15.9147C40.255 15.9118 40.1032 15.9427 39.9637 16.0051C39.8241 16.0675 39.7001 16.16 39.6006 16.2759L37.5543 18.6573C37.4121 18.8232 37.2699 18.8232 37.1277 18.6573Z" fill="#F54334"/>
<path d="M31.7605 12.7063L30.7552 12.2086C30.2914 11.9818 30.1374 11.6213 30.2931 11.1271L30.3896 10.8275C30.4255 10.7135 30.4857 10.6086 30.566 10.52C30.6464 10.4315 30.7449 10.3614 30.855 10.3146C30.965 10.2678 31.0838 10.2454 31.2034 10.2489C31.3229 10.2524 31.4402 10.2818 31.5473 10.335L34.8173 11.9497C34.982 12.0322 35.1206 12.1588 35.2177 12.3154C35.3147 12.472 35.3663 12.6525 35.3669 12.8367C35.3674 13.021 35.3168 13.2017 35.2206 13.3589C35.1245 13.516 34.9866 13.6434 34.8224 13.7269L31.8469 15.2248C31.3391 15.4787 30.877 15.4143 30.4607 15.0318C30.3354 14.9167 30.2711 14.7695 30.2677 14.5901C30.2609 14.0315 30.5064 13.6236 31.004 13.3664L31.7656 12.9754C31.9383 12.884 31.9366 12.7943 31.7605 12.7063Z" fill="#020202"/>
<path d="M42.9418 12.9906L43.9014 13.4425C44.46 13.7032 44.6191 14.1179 44.3787 14.6866L44.2721 14.9354C44.0453 15.4702 43.6712 15.609 43.1499 15.3517L39.885 13.737C39.7187 13.6559 39.5785 13.5298 39.4802 13.373C39.382 13.2162 39.3296 13.035 39.3291 12.85C39.3286 12.665 39.3799 12.4835 39.4773 12.3262C39.5746 12.1689 39.7141 12.0419 39.8799 11.9598L43.023 10.3858C43.1743 10.31 43.3475 10.2868 43.5155 10.3198C44.0267 10.4247 44.3263 10.6363 44.4143 10.9545C44.5768 11.5672 44.3737 12.0123 43.805 12.2899L42.9418 12.7113C42.7454 12.8061 42.7454 12.8992 42.9418 12.9906Z" fill="#020202"/>
<path d="M37.5543 18.6573L39.6006 16.2759C39.7002 16.16 39.8242 16.0675 39.9637 16.0051C40.1033 15.9427 40.2551 15.9118 40.4082 15.9147C40.5614 15.9176 40.7122 15.9542 40.8499 16.0219C40.9876 16.0896 41.1089 16.1867 41.2052 16.3064L42.2969 17.6672C42.4289 17.8297 42.5745 17.8432 42.7336 17.7078C43.1702 17.3422 43.6086 17.3117 44.0487 17.6164C44.1558 17.6904 44.2468 17.7854 44.3164 17.8956C44.3859 18.0059 44.4325 18.1291 44.4533 18.258C44.4742 18.3869 44.4689 18.5188 44.4377 18.6459C44.4066 18.7729 44.3503 18.8925 44.2721 18.9975C43.6526 19.8353 42.4797 21.2571 41.4641 19.8861C41.1866 19.5138 40.9073 19.1448 40.6263 18.7792C40.474 18.5795 40.3149 18.5761 40.149 18.769L38.0672 21.1809C37.9794 21.2831 37.8705 21.3649 37.7479 21.4209C37.6253 21.4768 37.4919 21.5055 37.3569 21.5051C37.2219 21.5046 37.0884 21.4749 36.9656 21.4181C36.8428 21.3613 36.7336 21.2786 36.6454 21.1758L34.4874 18.6573C34.3926 18.5524 34.3012 18.5541 34.2132 18.6624L32.8524 20.3076C32.7904 20.3835 32.7081 20.4401 32.6154 20.4707C32.5227 20.5013 32.4235 20.5046 32.3294 20.4802C31.6321 20.3042 31.0075 19.8235 30.4558 19.0381C29.8058 18.1242 30.8213 16.8446 31.8927 17.6976C32.0721 17.8398 32.2363 17.8246 32.3853 17.6519L33.5734 16.2404C33.6636 16.1331 33.7761 16.0468 33.9031 15.9874C34.03 15.928 34.1684 15.897 34.3085 15.8965C34.4487 15.896 34.5872 15.9261 34.7146 15.9846C34.842 16.0431 34.955 16.1286 35.046 16.2353L37.1278 18.6573C37.27 18.8232 37.4122 18.8232 37.5543 18.6573Z" fill="#020202"/>
<defs>
<filter id="filter0_i_115_9001" x="0" y="12" width="32" height="32" filterUnits="userSpaceOnUse" color-interpolation-filters="sRGB">
<feFlood flood-opacity="0" result="BackgroundImageFix"/>
<feBlend mode="normal" in="SourceGraphic" in2="BackgroundImageFix" result="shape"/>
<feColorMatrix in="SourceAlpha" type="matrix" values="0 0 0 0 0 0 0 0 0 0 0 0 0 0 0 0 0 0 127 0" result="hardAlpha"/>
<feOffset dx="-6" dy="-6"/>
<feComposite in2="hardAlpha" operator="arithmetic" k2="-1" k3="1"/>
<feColorMatrix type="matrix" values="0 0 0 0 0 0 0 0 0 0 0 0 0 0 0 0 0 0 0.04 0"/>
<feBlend mode="normal" in2="shape" result="effect1_innerShadow_115_9001"/>
</filter>
</defs>
</svg>
