<svg width="51" height="44" viewBox="0 0 51 44" fill="none" xmlns="http://www.w3.org/2000/svg">
<g filter="url(#filter0_i_115_8974)">
<path d="M32 19.5609V36.4281C32.001 37.4221 31.806 38.4066 31.4263 39.3252C31.0466 40.2438 30.4895 41.0786 29.787 41.7818C29.0844 42.485 28.2502 43.0429 27.332 43.4235C26.4137 43.8041 25.4294 44 24.4354 44H7.56824C5.56195 43.999 3.63806 43.2019 2.21906 41.7835C0.800053 40.3652 0.00194646 38.4417 3.55772e-06 36.4354V19.5682C-0.000960514 18.5744 0.194018 17.5901 0.573787 16.6717C0.953555 15.7533 1.51066 14.9188 2.21324 14.2158C2.91582 13.5129 3.75009 12.9554 4.66832 12.5752C5.58655 12.195 6.57073 11.9995 7.56457 12H24.4318C25.4252 11.9995 26.4089 12.1947 27.3269 12.5744C28.2448 12.9541 29.079 13.5109 29.7818 14.213C30.4846 14.9151 31.0422 15.7488 31.4228 16.6663C31.8034 17.5839 31.9995 18.5675 32 19.5609V19.5609Z" fill="#FF7878"/>
</g>
<path fill-rule="evenodd" clip-rule="evenodd" d="M11.25 37C12.55 31.6558 19.7072 31.6776 21 37C18.5697 35.0481 13.3986 35.1388 11.25 37Z" fill="#2B1607"/>
<path d="M11.145 37.1346C11.1187 37.1346 11.093 37.1271 11.0711 37.113C11.044 37.097 11.023 37.073 11.011 37.0446C10.999 37.0161 10.9968 36.9847 11.0045 36.9548C11.6257 34.4819 13.6406 32.9004 16.1325 32.9004C18.6281 32.9004 20.6357 34.5035 21.2458 36.9692C21.253 36.9981 21.2509 37.0285 21.2396 37.0562C21.2284 37.0839 21.2086 37.1075 21.1829 37.1238C21.1574 37.1411 21.1271 37.1504 21.096 37.1504C21.0649 37.1504 21.0346 37.1411 21.0091 37.1238C18.6577 35.2655 13.4484 35.2655 11.2301 37.1238C11.2034 37.1355 11.1738 37.1392 11.145 37.1346V37.1346ZM16.0808 35.4344C17.848 35.4344 19.6338 35.8334 20.8576 36.6278C20.5689 35.6295 19.9516 34.7509 19.1002 34.1263C18.2487 33.5018 17.2102 33.1659 16.1436 33.17V33.17C15.0783 33.1658 14.0407 33.4998 13.1886 34.1214C12.3364 34.7429 11.7162 35.6179 11.4223 36.6134C12.5684 35.8262 14.3246 35.4344 16.0808 35.4344Z" fill="black"/>
<path d="M23.5 29C22.638 29 21.8114 28.6576 21.2019 28.0481C20.5924 27.4386 20.25 26.612 20.25 25.75V25.5853C20.25 22.9722 23.1377 21.2813 24.9823 21.5229C26.6182 21.7315 26.75 22.7782 26.75 24.3337V25.75C26.749 26.6117 26.4063 27.4378 25.797 28.047C25.1877 28.6563 24.3617 28.999 23.5 29Z" fill="black"/>
<path d="M22.4563 23.9175C22.7722 23.9175 23.0283 23.6614 23.0283 23.3455C23.0283 23.0295 22.7722 22.7734 22.4563 22.7734C22.1404 22.7734 21.8843 23.0295 21.8843 23.3455C21.8843 23.6614 22.1404 23.9175 22.4563 23.9175Z" fill="white"/>
<path opacity="0.1" d="M23.5159 26.1211C24.251 26.1211 24.8469 25.5251 24.8469 24.79C24.8469 24.0549 24.251 23.459 23.5159 23.459C22.7807 23.459 22.1848 24.0549 22.1848 24.79C22.1848 25.5251 22.7807 26.1211 23.5159 26.1211Z" fill="white"/>
<path d="M8.25183 29C9.11363 28.999 9.93981 28.6562 10.5489 28.0468C11.1579 27.4374 11.5 26.6113 11.5 25.75V25.5853C11.5 22.9722 8.61437 21.2813 6.76873 21.5229C5.12817 21.7315 5 22.7782 5 24.3337V25.75C5 26.612 5.3426 27.4386 5.95244 28.0481C6.56228 28.6576 7.38939 29 8.25183 29V29Z" fill="black"/>
<path d="M7.20996 23.9175C7.52587 23.9175 7.78197 23.6614 7.78197 23.3455C7.78197 23.0295 7.52587 22.7734 7.20996 22.7734C6.89404 22.7734 6.63794 23.0295 6.63794 23.3455C6.63794 23.6614 6.89404 23.9175 7.20996 23.9175Z" fill="white"/>
<path opacity="0.1" d="M8.26952 26.1211C9.00463 26.1211 9.60056 25.5251 9.60056 24.79C9.60056 24.0549 9.00463 23.459 8.26952 23.459C7.5344 23.459 6.93848 24.0549 6.93848 24.79C6.93848 25.5251 7.5344 26.1211 8.26952 26.1211Z" fill="white"/>
<circle cx="37.5" cy="13.5" r="13.5" fill="white"/>
<path d="M49.3928 13.39C49.3928 14.9729 49.081 16.5403 48.4753 18.0027C47.8695 19.4651 46.9817 20.7939 45.8624 21.9132C44.7431 23.0325 43.4143 23.9203 41.9519 24.5261C40.4895 25.1318 38.9221 25.4436 37.3392 25.4436C34.1424 25.4436 31.0765 24.1737 28.816 21.9132C26.5555 19.6527 25.2856 16.5868 25.2856 13.39C25.2856 10.1932 26.5555 7.12732 28.816 4.86684C31.0765 2.60635 34.1424 1.33643 37.3392 1.33643C40.536 1.33643 43.6019 2.60635 45.8624 4.86684C48.1229 7.12732 49.3928 10.1932 49.3928 13.39ZM31.3309 14.4976C31.5469 14.4958 31.7603 14.4228 31.9587 14.283C32.157 14.1432 32.3366 13.9393 32.4872 13.6828C32.6377 13.4264 32.7562 13.1225 32.836 12.7884C32.9158 12.4544 32.9552 12.0967 32.952 11.736C32.9457 11.0073 32.7663 10.3101 32.4533 9.79753C32.1402 9.285 31.7193 8.9992 31.283 9.00301C31.0669 9.00489 30.8536 9.07782 30.6552 9.21762C30.4568 9.35743 30.2773 9.56138 30.1267 9.81783C29.9762 10.0743 29.8577 10.3782 29.7779 10.7122C29.6981 11.0463 29.6587 11.4039 29.6618 11.7647C29.6682 12.4933 29.8476 13.1906 30.1606 13.7031C30.4736 14.2157 30.8946 14.5014 31.3309 14.4976ZM43.3955 14.4976C43.6115 14.4958 43.8248 14.4228 44.0232 14.283C44.2216 14.1432 44.4012 13.9393 44.5517 13.6828C44.7023 13.4264 44.8208 13.1225 44.9005 12.7884C44.9803 12.4544 45.0197 12.0967 45.0166 11.736C45.0102 11.0073 44.8308 10.3101 44.5178 9.79753C44.2048 9.285 43.7838 8.9992 43.3475 9.00301C43.1315 9.00489 42.9182 9.07782 42.7198 9.21762C42.5214 9.35743 42.3418 9.56138 42.1913 9.81783C42.0407 10.0743 41.9222 10.3782 41.8424 10.7122C41.7627 11.0463 41.7232 11.4039 41.7264 11.7647C41.7328 12.4933 41.9122 13.1906 42.2252 13.7031C42.5382 14.2157 42.9592 14.5014 43.3955 14.4976ZM42.3789 18.0842C43.2783 16.4171 42.781 15.5836 40.8873 15.5836H33.1111C32.9133 15.5833 32.7183 15.6301 32.542 15.7199C32.3657 15.8097 32.2131 15.9401 32.0966 16.1005C31.98 16.2608 31.9029 16.4466 31.8715 16.6426C31.84 16.8387 31.8552 17.0395 31.9156 17.2287C32.7273 19.7513 35.1786 21.2045 37.8108 21.04C38.893 20.9742 39.8655 20.6141 40.7283 19.9597C41.4448 19.4186 41.995 18.7935 42.3789 18.0842Z" fill="white"/>
<path d="M48.5121 13.3511C48.5121 16.3112 47.3363 19.1499 45.2432 21.243C43.1502 23.336 40.3114 24.5119 37.3514 24.5119C34.3914 24.5119 31.5526 23.336 29.4596 21.243C27.3665 19.1499 26.1907 16.3112 26.1907 13.3511C26.1907 10.3911 27.3665 7.55237 29.4596 5.45933C31.5526 3.36629 34.3914 2.19043 37.3514 2.19043C40.3114 2.19043 43.1502 3.36629 45.2432 5.45933C47.3363 7.55237 48.5121 10.3911 48.5121 13.3511ZM33.274 12.8485C33.274 12.6504 33.235 12.4543 33.1592 12.2713C33.0834 12.0884 32.9724 11.9221 32.8323 11.7821C32.6923 11.6421 32.526 11.531 32.3431 11.4552C32.1601 11.3794 31.964 11.3404 31.766 11.3404C31.366 11.3404 30.9824 11.4993 30.6996 11.7821C30.4168 12.0649 30.2579 12.4485 30.2579 12.8485C30.2579 13.2484 30.4168 13.632 30.6996 13.9148C30.9824 14.1976 31.366 14.3565 31.766 14.3565C31.964 14.3565 32.1601 14.3175 32.3431 14.2417C32.526 14.1659 32.6923 14.0549 32.8323 13.9148C32.9724 13.7748 33.0834 13.6085 33.1592 13.4256C33.235 13.2426 33.274 13.0465 33.274 12.8485ZM44.4449 12.8485C44.4449 12.4485 44.286 12.0649 44.0032 11.7821C43.7204 11.4993 43.3368 11.3404 42.9368 11.3404C42.5369 11.3404 42.1533 11.4993 41.8705 11.7821C41.5877 12.0649 41.4288 12.4485 41.4288 12.8485C41.4288 13.2484 41.5877 13.632 41.8705 13.9148C42.1533 14.1976 42.5369 14.3565 42.9368 14.3565C43.3368 14.3565 43.7204 14.1976 44.0032 13.9148C44.286 13.632 44.4449 13.2484 44.4449 12.8485ZM40.4691 15.697C38.8747 17.7433 35.95 18.1749 34.4216 15.9001C34.0898 15.4059 33.6464 15.2637 33.0912 15.4736C32.9964 15.5075 32.9169 15.5667 32.8526 15.6513C32.4396 16.1896 32.4514 16.7193 32.8881 17.2406C35.4016 20.2517 39.7734 20.2111 42.0025 16.936C42.4121 16.3368 42.2937 15.8748 41.6471 15.5498L41.4846 15.4685C41.0818 15.2654 40.7433 15.3416 40.4691 15.697Z" fill="#8DC255"/>
<path d="M31.7659 14.3565C32.5988 14.3565 33.2739 13.6813 33.2739 12.8484C33.2739 12.0155 32.5988 11.3403 31.7659 11.3403C30.933 11.3403 30.2578 12.0155 30.2578 12.8484C30.2578 13.6813 30.933 14.3565 31.7659 14.3565Z" fill="#020202"/>
<path d="M42.9368 14.3565C43.7696 14.3565 44.4448 13.6813 44.4448 12.8484C44.4448 12.0155 43.7696 11.3403 42.9368 11.3403C42.1039 11.3403 41.4287 12.0155 41.4287 12.8484C41.4287 13.6813 42.1039 14.3565 42.9368 14.3565Z" fill="#020202"/>
<path d="M34.4216 15.8998C35.95 18.1746 38.8747 17.743 40.4691 15.6967C40.7433 15.3413 41.0818 15.2651 41.4847 15.4682L41.6471 15.5495C42.2937 15.8744 42.4122 16.3365 42.0026 16.9357C39.7735 20.2107 35.4016 20.2514 32.8882 17.2403C32.4515 16.719 32.4396 16.1892 32.8526 15.651C32.9169 15.5664 32.9965 15.5071 33.0913 15.4733C33.6464 15.2634 34.0899 15.4056 34.4216 15.8998Z" fill="#020202"/>
<defs>
<filter id="filter0_i_115_8974" x="0" y="12" width="32" height="32" filterUnits="userSpaceOnUse" color-interpolation-filters="sRGB">
<feFlood flood-opacity="0" result="BackgroundImageFix"/>
<feBlend mode="normal" in="SourceGraphic" in2="BackgroundImageFix" result="shape"/>
<feColorMatrix in="SourceAlpha" type="matrix" values="0 0 0 0 0 0 0 0 0 0 0 0 0 0 0 0 0 0 127 0" result="hardAlpha"/>
<feOffset dx="-6" dy="-6"/>
<feComposite in2="hardAlpha" operator="arithmetic" k2="-1" k3="1"/>
<feColorMatrix type="matrix" values="0 0 0 0 0 0 0 0 0 0 0 0 0 0 0 0 0 0 0.04 0"/>
<feBlend mode="normal" in2="shape" result="effect1_innerShadow_115_8974"/>
</filter>
</defs>
</svg>
