<svg width="51" height="44" viewBox="0 0 51 44" fill="none" xmlns="http://www.w3.org/2000/svg">
<g filter="url(#filter0_i_115_8965)">
<path d="M32 19.5609V36.4281C32.001 37.4221 31.806 38.4066 31.4263 39.3252C31.0466 40.2438 30.4895 41.0786 29.787 41.7818C29.0844 42.485 28.2502 43.0429 27.332 43.4235C26.4137 43.8041 25.4294 44 24.4354 44H7.56824C5.56195 43.999 3.63806 43.2019 2.21906 41.7835C0.800053 40.3652 0.00194646 38.4417 3.55772e-06 36.4354V19.5682C-0.000960514 18.5744 0.194018 17.5901 0.573787 16.6717C0.953555 15.7533 1.51066 14.9188 2.21324 14.2158C2.91582 13.5129 3.75009 12.9554 4.66832 12.5752C5.58655 12.195 6.57073 11.9995 7.56457 12H24.4318C25.4252 11.9995 26.4089 12.1947 27.3269 12.5744C28.2448 12.9541 29.079 13.5109 29.7818 14.213C30.4846 14.9151 31.0422 15.7488 31.4228 16.6663C31.8034 17.5839 31.9995 18.5675 32 19.5609V19.5609Z" fill="#FF7878"/>
</g>
<path fill-rule="evenodd" clip-rule="evenodd" d="M11.25 37C12.55 31.6558 19.7072 31.6776 21 37C18.5697 35.0481 13.3986 35.1388 11.25 37Z" fill="#2B1607"/>
<path d="M11.145 37.1346C11.1187 37.1346 11.093 37.1271 11.0711 37.113C11.044 37.097 11.023 37.073 11.011 37.0446C10.999 37.0161 10.9968 36.9847 11.0045 36.9548C11.6257 34.4819 13.6406 32.9004 16.1325 32.9004C18.6281 32.9004 20.6357 34.5035 21.2458 36.9692C21.253 36.9981 21.2509 37.0285 21.2396 37.0562C21.2284 37.0839 21.2086 37.1075 21.1829 37.1238C21.1574 37.1411 21.1271 37.1504 21.096 37.1504C21.0649 37.1504 21.0346 37.1411 21.0091 37.1238C18.6577 35.2655 13.4484 35.2655 11.2301 37.1238C11.2034 37.1355 11.1738 37.1392 11.145 37.1346V37.1346ZM16.0808 35.4344C17.848 35.4344 19.6338 35.8334 20.8576 36.6278C20.5689 35.6295 19.9516 34.7509 19.1002 34.1263C18.2487 33.5018 17.2102 33.1659 16.1436 33.17V33.17C15.0783 33.1658 14.0407 33.4998 13.1886 34.1214C12.3364 34.7429 11.7162 35.6179 11.4223 36.6134C12.5684 35.8262 14.3246 35.4344 16.0808 35.4344Z" fill="black"/>
<path d="M23.5 29C22.638 29 21.8114 28.6576 21.2019 28.0481C20.5924 27.4386 20.25 26.612 20.25 25.75V25.5853C20.25 22.9722 23.1377 21.2813 24.9823 21.5229C26.6182 21.7315 26.75 22.7782 26.75 24.3337V25.75C26.749 26.6117 26.4063 27.4378 25.797 28.047C25.1877 28.6563 24.3617 28.999 23.5 29Z" fill="black"/>
<path d="M22.4563 23.9175C22.7722 23.9175 23.0283 23.6614 23.0283 23.3455C23.0283 23.0295 22.7722 22.7734 22.4563 22.7734C22.1404 22.7734 21.8843 23.0295 21.8843 23.3455C21.8843 23.6614 22.1404 23.9175 22.4563 23.9175Z" fill="white"/>
<path opacity="0.1" d="M23.5159 26.1211C24.251 26.1211 24.8469 25.5251 24.8469 24.79C24.8469 24.0549 24.251 23.459 23.5159 23.459C22.7807 23.459 22.1848 24.0549 22.1848 24.79C22.1848 25.5251 22.7807 26.1211 23.5159 26.1211Z" fill="white"/>
<path d="M8.25183 29C9.11363 28.999 9.93981 28.6562 10.5489 28.0468C11.1579 27.4374 11.5 26.6113 11.5 25.75V25.5853C11.5 22.9722 8.61437 21.2813 6.76873 21.5229C5.12817 21.7315 5 22.7782 5 24.3337V25.75C5 26.612 5.3426 27.4386 5.95244 28.0481C6.56228 28.6576 7.38939 29 8.25183 29V29Z" fill="black"/>
<path d="M7.20996 23.9175C7.52587 23.9175 7.78197 23.6614 7.78197 23.3455C7.78197 23.0295 7.52587 22.7734 7.20996 22.7734C6.89404 22.7734 6.63794 23.0295 6.63794 23.3455C6.63794 23.6614 6.89404 23.9175 7.20996 23.9175Z" fill="white"/>
<path opacity="0.1" d="M8.26952 26.1211C9.00463 26.1211 9.60056 25.5251 9.60056 24.79C9.60056 24.0549 9.00463 23.459 8.26952 23.459C7.5344 23.459 6.93848 24.0549 6.93848 24.79C6.93848 25.5251 7.5344 26.1211 8.26952 26.1211Z" fill="white"/>
<circle cx="37.5" cy="13.5" r="13.5" fill="white"/>
<path d="M48.6608 13.398C48.6608 14.8637 48.3721 16.315 47.8112 17.6691C47.2504 19.0231 46.4283 20.2535 45.3919 21.2899C44.3555 22.3262 43.1252 23.1483 41.7711 23.7092C40.417 24.2701 38.9657 24.5588 37.5001 24.5588C34.5401 24.5588 31.7013 23.3829 29.6082 21.2899C27.5152 19.1968 26.3394 16.358 26.3394 13.398C26.3394 10.438 27.5152 7.59925 29.6082 5.50621C31.7013 3.41316 34.5401 2.2373 37.5001 2.2373C40.4601 2.2373 43.2989 3.41316 45.3919 5.50621C47.485 7.59925 48.6608 10.438 48.6608 13.398ZM31.9368 14.4236C32.1369 14.4219 32.3344 14.3544 32.5181 14.2249C32.7018 14.0955 32.868 13.9066 33.0074 13.6692C33.1468 13.4317 33.2566 13.1503 33.3304 12.841C33.4043 12.5317 33.4408 12.2006 33.4379 11.8665C33.432 11.1918 33.2659 10.5462 32.976 10.0717C32.6862 9.59709 32.2964 9.33247 31.8924 9.33599C31.6924 9.33773 31.4949 9.40526 31.3112 9.53471C31.1275 9.66416 30.9612 9.853 30.8218 10.0905C30.6824 10.3279 30.5727 10.6093 30.4988 10.9186C30.425 11.2279 30.3885 11.559 30.3914 11.8931C30.3973 12.5678 30.5634 13.2134 30.8532 13.688C31.1431 14.1625 31.5328 14.4271 31.9368 14.4236ZM43.1077 14.4236C43.3077 14.4219 43.5053 14.3544 43.6889 14.2249C43.8726 14.0955 44.0389 13.9066 44.1783 13.6692C44.3177 13.4317 44.4274 13.1503 44.5013 12.841C44.5752 12.5317 44.6117 12.2006 44.6088 11.8665C44.6029 11.1918 44.4367 10.5462 44.1469 10.0717C43.8571 9.59709 43.4673 9.33247 43.0633 9.33599C42.8633 9.33773 42.6658 9.40526 42.4821 9.53471C42.2984 9.66416 42.1321 9.853 41.9927 10.0905C41.8533 10.3279 41.7436 10.6093 41.6697 10.9186C41.5959 11.2279 41.5594 11.559 41.5623 11.8931C41.5682 12.5678 41.7343 13.2134 42.0241 13.688C42.3139 14.1625 42.7037 14.4271 43.1077 14.4236ZM42.1665 17.7445C42.9992 16.2009 42.5388 15.4291 40.7853 15.4291H33.5852C33.402 15.4289 33.2215 15.4721 33.0582 15.5553C32.895 15.6385 32.7536 15.7592 32.6458 15.9077C32.5379 16.0562 32.4664 16.2282 32.4373 16.4097C32.4082 16.5913 32.4222 16.7772 32.4782 16.9524C33.2297 19.2881 35.4995 20.6337 37.9367 20.4814C38.9387 20.4204 39.8392 20.087 40.6381 19.4811C41.3016 18.9801 41.811 18.4012 42.1665 17.7445Z" fill="#4AAF57"/>
<path d="M30.3912 11.8932C30.4035 13.2981 31.0954 14.431 31.9367 14.4237C32.7779 14.4163 33.45 13.2715 33.4377 11.8666C33.4255 10.4617 32.7335 9.32871 31.8923 9.33605C31.051 9.34339 30.379 10.4882 30.3912 11.8932Z" fill="#020202"/>
<path d="M41.5621 11.8932C41.5744 13.2981 42.2663 14.431 43.1076 14.4237C43.9488 14.4163 44.6209 13.2715 44.6086 11.8666C44.5964 10.4617 43.9044 9.32871 43.0632 9.33605C42.2219 9.34339 41.5499 10.4882 41.5621 11.8932Z" fill="#020202"/>
<path d="M42.1663 17.7446C41.8108 18.4013 41.3014 18.9802 40.6379 19.4812C39.839 20.0871 38.9385 20.4206 37.9365 20.4815C35.4993 20.6338 33.2295 19.2882 32.4781 16.9525C32.4221 16.7773 32.408 16.5914 32.4371 16.4098C32.4662 16.2283 32.5377 16.0563 32.6456 15.9078C32.7535 15.7593 32.8948 15.6386 33.058 15.5554C33.2213 15.4722 33.4018 15.429 33.585 15.4292H40.7851C42.5386 15.4292 42.999 16.201 42.1663 17.7446Z" fill="#020202"/>
<defs>
<filter id="filter0_i_115_8965" x="0" y="12" width="32" height="32" filterUnits="userSpaceOnUse" color-interpolation-filters="sRGB">
<feFlood flood-opacity="0" result="BackgroundImageFix"/>
<feBlend mode="normal" in="SourceGraphic" in2="BackgroundImageFix" result="shape"/>
<feColorMatrix in="SourceAlpha" type="matrix" values="0 0 0 0 0 0 0 0 0 0 0 0 0 0 0 0 0 0 127 0" result="hardAlpha"/>
<feOffset dx="-6" dy="-6"/>
<feComposite in2="hardAlpha" operator="arithmetic" k2="-1" k3="1"/>
<feColorMatrix type="matrix" values="0 0 0 0 0 0 0 0 0 0 0 0 0 0 0 0 0 0 0.04 0"/>
<feBlend mode="normal" in2="shape" result="effect1_innerShadow_115_8965"/>
</filter>
</defs>
</svg>
