<svg width="27" height="27" viewBox="0 0 27 27" fill="none" xmlns="http://www.w3.org/2000/svg">
<circle cx="13.5" cy="13.5" r="13.5" fill="white"/>
<path d="M24.5119 13.3511C24.5119 14.8168 24.2232 16.2681 23.6623 17.6222C23.1014 18.9762 22.2793 20.2066 21.243 21.243C20.2066 22.2793 18.9762 23.1014 17.6222 23.6623C16.2681 24.2232 14.8168 24.5119 13.3511 24.5119C10.3911 24.5119 7.55237 23.336 5.45933 21.243C3.36629 19.1499 2.19043 16.3111 2.19043 13.3511C2.19043 10.3911 3.36629 7.55237 5.45933 5.45933C7.55237 3.36629 10.3911 2.19043 13.3511 2.19043C14.8168 2.19043 16.2681 2.47911 17.6222 3.03999C18.9762 3.60087 20.2066 4.42296 21.243 5.45933C22.2793 6.4957 23.1014 7.72604 23.6623 9.08012C24.2232 10.4342 24.5119 11.8855 24.5119 13.3511ZM7.76571 12.9754L7.00406 13.3664C6.50645 13.6236 6.26103 14.0316 6.2678 14.5901C6.27118 14.7695 6.3355 14.9168 6.46075 15.0318C6.87712 15.4144 7.33918 15.4787 7.84695 15.2248L10.8225 13.7269C10.9867 13.6435 11.1246 13.5161 11.2207 13.3589C11.3169 13.2017 11.3675 13.021 11.367 12.8367C11.3664 12.6525 11.3148 12.472 11.2177 12.3154C11.1207 12.1588 10.9821 12.0322 10.8174 11.9497L7.54737 10.335C7.44029 10.2818 7.32296 10.2524 7.20345 10.2489C7.08394 10.2454 6.96509 10.2678 6.85507 10.3146C6.74505 10.3614 6.64647 10.4315 6.56613 10.5201C6.48579 10.6086 6.42558 10.7135 6.38966 10.8275L6.29318 11.1271C6.13747 11.6214 6.29149 11.9819 6.75525 12.2087L7.76063 12.7063C7.93666 12.7943 7.93835 12.884 7.76571 12.9754ZM18.9417 12.7114L19.8049 12.2899C20.3736 12.0123 20.5767 11.5672 20.4142 10.9545C20.3262 10.6363 20.0266 10.4247 19.5154 10.3198C19.3474 10.2868 19.1742 10.3101 19.0229 10.3858L15.8798 11.9599C15.714 12.042 15.5745 12.1689 15.4772 12.3262C15.3798 12.4835 15.3285 12.665 15.329 12.85C15.3295 13.0351 15.3819 13.2162 15.4802 13.373C15.5784 13.5298 15.7186 13.6559 15.8849 13.737L19.1498 15.3517C19.6711 15.609 20.0452 15.4702 20.272 14.9354L20.3786 14.6866C20.619 14.1179 20.4599 13.7032 19.9013 13.4425L18.9417 12.9906C18.7453 12.8992 18.7453 12.8061 18.9417 12.7114ZM13.1277 18.6573L11.0459 16.2353C10.9549 16.1286 10.8419 16.0431 10.7145 15.9846C10.5872 15.926 10.4486 15.896 10.3084 15.8965C10.1683 15.897 10.0299 15.928 9.90299 15.9874C9.77604 16.0467 9.66355 16.1331 9.57336 16.2403L8.38518 17.6519C8.23624 17.8246 8.07206 17.8398 7.89265 17.6976C6.82126 16.8446 5.80573 18.1241 6.45567 19.0381C7.00744 19.8235 7.632 20.3042 8.32933 20.4802C8.42339 20.5046 8.52266 20.5013 8.61536 20.4707C8.70806 20.4401 8.7903 20.3835 8.85233 20.3075L10.2131 18.6624C10.3012 18.5541 10.3926 18.5524 10.4873 18.6573L12.6453 21.1758C12.7335 21.2786 12.8427 21.3612 12.9655 21.4181C13.0883 21.4749 13.2218 21.5046 13.3568 21.505C13.4919 21.5055 13.6252 21.4768 13.7478 21.4209C13.8704 21.3649 13.9793 21.2831 14.0671 21.1809L16.1489 18.769C16.3148 18.5761 16.4739 18.5795 16.6262 18.7792C16.9072 19.1448 17.1865 19.5137 17.4641 19.8861C18.4796 21.2571 19.6525 19.8353 20.272 18.9975C20.3502 18.8925 20.4065 18.7729 20.4376 18.6458C20.4688 18.5188 20.4741 18.3869 20.4532 18.258C20.4324 18.1291 20.3858 18.0059 20.3163 17.8956C20.2468 17.7854 20.1557 17.6904 20.0486 17.6164C19.6085 17.3117 19.1702 17.3422 18.7335 17.7078C18.5744 17.8432 18.4288 17.8296 18.2968 17.6672L17.2051 16.3063C17.1089 16.1867 16.9876 16.0896 16.8498 16.0219C16.7121 15.9542 16.5613 15.9176 16.4081 15.9147C16.255 15.9118 16.1032 15.9427 15.9637 16.0051C15.8241 16.0675 15.7001 16.16 15.6006 16.2759L13.5543 18.6573C13.4121 18.8232 13.2699 18.8232 13.1277 18.6573Z" fill="#F54334"/>
<path d="M7.76053 12.7063L6.75515 12.2086C6.29139 11.9818 6.13737 11.6213 6.29309 11.1271L6.38956 10.8275C6.42549 10.7135 6.48569 10.6086 6.56603 10.52C6.64637 10.4315 6.74495 10.3614 6.85497 10.3146C6.96499 10.2678 7.08384 10.2454 7.20336 10.2489C7.32287 10.2524 7.4402 10.2818 7.54727 10.335L10.8173 11.9497C10.982 12.0322 11.1206 12.1588 11.2177 12.3154C11.3147 12.472 11.3663 12.6525 11.3669 12.8367C11.3674 13.021 11.3168 13.2017 11.2206 13.3589C11.1245 13.516 10.9866 13.6434 10.8224 13.7269L7.84685 15.2248C7.33909 15.4787 6.87702 15.4143 6.46065 15.0318C6.3354 14.9167 6.27108 14.7695 6.2677 14.5901C6.26093 14.0315 6.50635 13.6236 7.00396 13.3664L7.76561 12.9754C7.93825 12.884 7.93656 12.7943 7.76053 12.7063Z" fill="#020202"/>
<path d="M18.9418 12.9906L19.9014 13.4425C20.46 13.7032 20.6191 14.1179 20.3787 14.6866L20.2721 14.9354C20.0453 15.4702 19.6712 15.609 19.1499 15.3517L15.885 13.737C15.7187 13.6559 15.5785 13.5298 15.4802 13.373C15.382 13.2162 15.3296 13.035 15.3291 12.85C15.3286 12.665 15.3799 12.4835 15.4773 12.3262C15.5746 12.1689 15.7141 12.0419 15.8799 11.9598L19.023 10.3858C19.1743 10.31 19.3475 10.2868 19.5155 10.3198C20.0267 10.4247 20.3263 10.6363 20.4143 10.9545C20.5768 11.5672 20.3737 12.0123 19.805 12.2899L18.9418 12.7113C18.7454 12.8061 18.7454 12.8992 18.9418 12.9906Z" fill="#020202"/>
<path d="M13.5543 18.6574L15.6006 16.276C15.7002 16.1601 15.8242 16.0676 15.9637 16.0052C16.1033 15.9428 16.2551 15.912 16.4082 15.9149C16.5614 15.9178 16.7122 15.9544 16.8499 16.022C16.9876 16.0897 17.1089 16.1868 17.2052 16.3065L18.2969 17.6673C18.4289 17.8298 18.5745 17.8433 18.7336 17.7079C19.1702 17.3423 19.6086 17.3119 20.0487 17.6165C20.1558 17.6906 20.2468 17.7855 20.3164 17.8958C20.3859 18.006 20.4325 18.1292 20.4533 18.2581C20.4742 18.387 20.4689 18.5189 20.4377 18.646C20.4066 18.773 20.3503 18.8926 20.2721 18.9976C19.6526 19.8355 18.4797 21.2572 17.4641 19.8862C17.1866 19.5139 16.9073 19.1449 16.6263 18.7793C16.474 18.5796 16.3149 18.5762 16.149 18.7692L14.0672 21.181C13.9794 21.2832 13.8705 21.3651 13.7479 21.421C13.6253 21.4769 13.4919 21.5057 13.3569 21.5052C13.2219 21.5047 13.0884 21.475 12.9656 21.4182C12.8428 21.3614 12.7336 21.2787 12.6454 21.176L10.4874 18.6574C10.3926 18.5525 10.3012 18.5542 10.2132 18.6625L8.85241 20.3077C8.79038 20.3836 8.70814 20.4403 8.61544 20.4709C8.52274 20.5015 8.42347 20.5048 8.32941 20.4803C7.63208 20.3043 7.00753 19.8236 6.45575 19.0383C5.80581 18.1243 6.82135 16.8447 7.89273 17.6978C8.07214 17.8399 8.23632 17.8247 8.38527 17.6521L9.57344 16.2405C9.66364 16.1332 9.77612 16.0469 9.90307 15.9875C10.03 15.9281 10.1684 15.8971 10.3085 15.8966C10.4487 15.8961 10.5872 15.9262 10.7146 15.9847C10.842 16.0432 10.955 16.1288 11.046 16.2354L13.1278 18.6574C13.27 18.8233 13.4122 18.8233 13.5543 18.6574Z" fill="#020202"/>
</svg>
