<svg width="27" height="27" viewBox="0 0 27 27" fill="none" xmlns="http://www.w3.org/2000/svg">
<circle cx="13.5" cy="13.5" r="13.5" fill="white"/>
<path d="M24.512 13.3513C24.512 14.8169 24.2233 16.2682 23.6624 17.6223C23.1016 18.9764 22.2795 20.2067 21.2431 21.2431C20.2067 22.2795 18.9764 23.1016 17.6223 23.6624C16.2682 24.2233 14.8169 24.512 13.3513 24.512C10.3913 24.512 7.55247 23.3361 5.45943 21.2431C3.36639 19.1501 2.19055 16.3113 2.19055 13.3513C2.19055 10.3913 3.36639 7.5525 5.45943 5.45945C7.55247 3.36641 10.3913 2.19055 13.3513 2.19055C14.8169 2.19055 16.2682 2.47924 17.6223 3.04011C18.9764 3.60099 20.2067 4.42309 21.2431 5.45945C22.2795 6.49582 23.1016 7.72617 23.6624 9.08025C24.2233 10.4343 24.512 11.8856 24.512 13.3513ZM9.27388 12.8486C9.27388 12.4486 9.11501 12.065 8.83219 11.7822C8.54937 11.4994 8.16579 11.3405 7.76583 11.3405C7.56778 11.3405 7.37167 11.3795 7.1887 11.4553C7.00573 11.5311 6.8395 11.6422 6.69947 11.7822C6.55943 11.9223 6.44835 12.0885 6.37257 12.2715C6.29678 12.4544 6.25777 12.6505 6.25777 12.8486C6.25777 13.0466 6.29678 13.2427 6.37257 13.4257C6.44835 13.6087 6.55943 13.7749 6.69947 13.915C6.8395 14.055 7.00573 14.1661 7.1887 14.2419C7.37167 14.3176 7.56778 14.3567 7.76583 14.3567C8.16579 14.3567 8.54937 14.1978 8.83219 13.915C9.11501 13.6321 9.27388 13.2486 9.27388 12.8486ZM20.4448 12.8486C20.4448 12.4486 20.2859 12.065 20.0031 11.7822C19.7202 11.4994 19.3367 11.3405 18.9367 11.3405C18.5367 11.3405 18.1532 11.4994 17.8703 11.7822C17.5875 12.065 17.4287 12.4486 17.4287 12.8486C17.4287 13.2486 17.5875 13.6321 17.8703 13.915C18.1532 14.1978 18.5367 14.3567 18.9367 14.3567C19.3367 14.3567 19.7202 14.1978 20.0031 13.915C20.2859 13.6321 20.4448 13.2486 20.4448 12.8486ZM11.9498 20.7647C12.945 20.3314 13.9826 20.3568 15.0624 20.8408C15.472 21.0236 15.8224 20.9441 16.1135 20.6022C16.1981 20.504 16.2608 20.3957 16.3014 20.2772C16.5282 19.6137 16.3149 19.1567 15.6616 18.9062C13.9386 18.2428 12.3442 18.2783 10.8784 19.0129C10.4485 19.2261 10.2624 19.6104 10.3199 20.1655C10.3571 20.5209 10.7363 20.7444 11.4573 20.8358C11.6231 20.859 11.7937 20.8344 11.9498 20.7647Z" fill="#FF9A1C"/>
<path d="M7.76574 14.3566C8.59863 14.3566 9.2738 13.6814 9.2738 12.8485C9.2738 12.0156 8.59863 11.3405 7.76574 11.3405C6.93286 11.3405 6.25769 12.0156 6.25769 12.8485C6.25769 13.6814 6.93286 14.3566 7.76574 14.3566Z" fill="#020202"/>
<path d="M18.9368 14.3566C19.7696 14.3566 20.4448 13.6814 20.4448 12.8485C20.4448 12.0156 19.7696 11.3405 18.9368 11.3405C18.1039 11.3405 17.4287 12.0156 17.4287 12.8485C17.4287 13.6814 18.1039 14.3566 18.9368 14.3566Z" fill="#020202"/>
<path d="M11.9497 20.7646C11.7936 20.8343 11.6229 20.8589 11.4572 20.8357C10.7361 20.7443 10.357 20.5208 10.3198 20.1654C10.2622 19.6103 10.4484 19.226 10.8783 19.0128C12.344 18.2782 13.9384 18.2427 15.6615 18.9061C16.3148 19.1566 16.528 19.6136 16.3012 20.2771C16.2606 20.3956 16.198 20.5039 16.1134 20.6021C15.8223 20.944 15.4719 21.0235 15.0623 20.8407C13.9824 20.3567 12.9449 20.3313 11.9497 20.7646Z" fill="#020202"/>
</svg>
