<svg width="124" height="124" viewBox="0 0 124 124" fill="none" xmlns="http://www.w3.org/2000/svg">
<g opacity="0.08" filter="url(#filter0_f_84_2382)">
<g filter="url(#filter1_i_84_2382)">
<path d="M120 31.4083V92.5519C120.003 96.1551 119.297 99.7238 117.92 103.054C116.544 106.384 114.524 109.41 111.978 111.959C109.431 114.508 106.407 116.53 103.078 117.91C99.7497 119.29 96.1817 120 92.5784 120H31.4349C24.1621 119.996 17.188 117.107 12.0441 111.965C6.90019 106.824 4.00706 99.8512 4.00001 92.5784V31.4349C3.99652 27.8322 4.70332 24.2642 6.07998 20.9349C7.45664 17.6057 9.47615 14.5805 12.023 12.0324C14.5698 9.48431 17.5941 7.46333 20.9227 6.08506C24.2512 4.70678 27.8189 3.99825 31.4216 4H92.5651C96.1662 3.99826 99.7323 4.70581 103.06 6.08226C106.388 7.45871 109.411 9.4771 111.959 12.0222C114.507 14.5673 116.528 17.5892 117.908 20.9155C119.287 24.2418 119.998 27.8072 120 31.4083V31.4083Z" fill="#A45EFF"/>
</g>
<g opacity="0.4" style="mix-blend-mode:soft-light">
<path d="M62.2749 49.2173L59.1113 65.8457L62.2749 68.3712V49.2173Z" fill="black"/>
</g>
<g filter="url(#filter2_f_84_2382)" style="mix-blend-mode:soft-light">
<path d="M38.3364 63.8125H28.5698C24.5099 63.8125 21.2188 67.0584 21.2188 71.0625C21.2188 75.0666 24.5099 78.3125 28.5698 78.3125H38.3364C42.3963 78.3125 45.6875 75.0666 45.6875 71.0625C45.6875 67.0584 42.3963 63.8125 38.3364 63.8125Z" fill="#A45EFF"/>
</g>
<g filter="url(#filter3_f_84_2382)" style="mix-blend-mode:soft-light">
<path d="M94.5383 63.8125H84.743C80.691 63.8125 77.4062 67.0555 77.4062 71.056V71.069C77.4062 75.0695 80.691 78.3125 84.743 78.3125H94.5383C98.5902 78.3125 101.875 75.0695 101.875 71.069V71.056C101.875 67.0555 98.5902 63.8125 94.5383 63.8125Z" fill="#A45EFF"/>
</g>
<path fill-rule="evenodd" clip-rule="evenodd" d="M94.625 69.25C94.625 69.3967 94.625 69.5433 94.625 69.69C94.6124 72.0555 94.3362 74.4121 93.8017 76.716C92.9521 80.3525 91.3698 83.7757 89.1524 86.7748C86.935 89.774 84.1294 92.2854 80.9084 94.1544C69.5422 100.967 53.5285 100.82 42.4012 93.7144C39.2769 91.7811 36.5754 89.232 34.4598 86.221C32.3441 83.21 30.8584 79.7997 30.0922 76.196C29.6082 73.9128 29.3678 71.5843 29.3752 69.25C50.0894 77.2493 71.109 77.2493 92.3942 70.0633L94.625 69.25Z" fill="#2B1607" stroke="black" stroke-width="1.48" stroke-linecap="round" stroke-linejoin="round"/>
<path fill-rule="evenodd" clip-rule="evenodd" d="M94.625 69.6824C94.6124 72.0072 94.3363 74.3233 93.802 76.5875C74.9279 88.8124 48.9793 88.4586 30.0919 76.0765C29.6081 73.8326 29.3678 71.5442 29.3752 69.25C50.081 77.1117 71.092 77.1117 92.3686 70.0493L94.625 69.6824Z" fill="white"/>
<path fill-rule="evenodd" clip-rule="evenodd" d="M81.9375 94.1584C70.1675 100.966 53.585 100.819 42.0625 93.7188C55.2319 96.0582 68.7165 96.2069 81.9375 94.1584V94.1584Z" fill="white"/>
<path fill-rule="evenodd" clip-rule="evenodd" d="M95.1379 68.5119C95.3844 68.6856 95.5312 68.9692 95.5312 69.2717C95.5312 79.5094 91.3268 87.2388 84.9991 92.3899C78.6943 97.5224 70.3269 100.063 62 100.063C53.6731 100.063 45.3057 97.5224 39.0008 92.3899C32.6732 87.2388 28.4688 79.5094 28.4688 69.2717C28.4688 68.9663 28.6184 68.6804 28.8688 68.5072C29.1192 68.3341 29.4384 68.2959 29.7223 68.4051C50.9746 76.5792 72.4439 76.3612 94.2929 68.3993C94.576 68.2962 94.8913 68.3382 95.1379 68.5119ZM30.3417 70.6205C30.6915 79.615 34.5408 86.3706 40.1635 90.9478C46.0865 95.7695 54.023 98.2066 62 98.2066C69.977 98.2066 77.9134 95.7695 83.8365 90.9478C89.4642 86.3665 93.3154 79.6028 93.6592 70.5961C72.2911 78.1 51.2077 78.3186 30.3417 70.6205Z" fill="black"/>
<g opacity="0.4" style="mix-blend-mode:soft-light">
<path d="M47.512 101.01C51.5921 105.688 70.1969 105.997 74.6995 101.01C65.746 103.034 56.4656 103.034 47.512 101.01Z" fill="black"/>
</g>
<path d="M92.3071 61.9269H86.3256C77.513 61.9269 77.513 61.9934 77.513 53.1143V50.1236C77.5165 46.9942 78.7612 43.994 80.974 41.7812C83.1868 39.5684 86.187 38.3237 89.3164 38.3202V38.3202C92.4457 38.3237 95.4459 39.5684 97.6587 41.7812C99.8715 43.994 101.116 46.9942 101.12 50.1236V53.1807C101.093 61.9934 101.093 61.9269 92.3071 61.9269Z" fill="black"/>
<path d="M85.3533 47.0612C86.4964 47.0612 87.423 46.1346 87.423 44.9916C87.423 43.8485 86.4964 42.9219 85.3533 42.9219C84.2103 42.9219 83.2836 43.8485 83.2836 44.9916C83.2836 46.1346 84.2103 47.0612 85.3533 47.0612Z" fill="white"/>
<path opacity="0.1" d="M89.1874 55.0348C91.8472 55.0348 94.0034 52.8786 94.0034 50.2188C94.0034 47.559 91.8472 45.4028 89.1874 45.4028C86.5276 45.4028 84.3715 47.559 84.3715 50.2188C84.3715 52.8786 86.5276 55.0348 89.1874 55.0348Z" fill="white"/>
<path d="M37.0258 61.9269H31.0444C22.2318 61.9269 22.2318 61.9934 22.2318 53.1143V50.1236C22.2353 46.9942 23.48 43.994 25.6928 41.7812C27.9056 39.5684 30.9058 38.3237 34.0351 38.3202V38.3202C37.1645 38.3237 40.1647 39.5684 42.3775 41.7812C44.5903 43.994 45.835 46.9942 45.8385 50.1236V53.1807C45.8119 61.9934 45.8119 61.9269 37.0258 61.9269Z" fill="black"/>
<path d="M30.1668 47.0774C31.312 47.0774 32.2403 46.1491 32.2403 45.0039C32.2403 43.8587 31.312 42.9303 30.1668 42.9303C29.0216 42.9303 28.0932 43.8587 28.0932 45.0039C28.0932 46.1491 29.0216 47.0774 30.1668 47.0774Z" fill="white"/>
<path opacity="0.1" d="M34.0082 55.0659C36.673 55.0659 38.8332 52.9057 38.8332 50.2409C38.8332 47.5761 36.673 45.4159 34.0082 45.4159C31.3434 45.4159 29.1832 47.5761 29.1832 50.2409C29.1832 52.9057 31.3434 55.0659 34.0082 55.0659Z" fill="white"/>
</g>
<defs>
<filter id="filter0_f_84_2382" x="0" y="0" width="124" height="124" filterUnits="userSpaceOnUse" color-interpolation-filters="sRGB">
<feFlood flood-opacity="0" result="BackgroundImageFix"/>
<feBlend mode="normal" in="SourceGraphic" in2="BackgroundImageFix" result="shape"/>
<feGaussianBlur stdDeviation="2" result="effect1_foregroundBlur_84_2382"/>
</filter>
<filter id="filter1_i_84_2382" x="4" y="4" width="116" height="116" filterUnits="userSpaceOnUse" color-interpolation-filters="sRGB">
<feFlood flood-opacity="0" result="BackgroundImageFix"/>
<feBlend mode="normal" in="SourceGraphic" in2="BackgroundImageFix" result="shape"/>
<feColorMatrix in="SourceAlpha" type="matrix" values="0 0 0 0 0 0 0 0 0 0 0 0 0 0 0 0 0 0 127 0" result="hardAlpha"/>
<feOffset dx="-6" dy="-6"/>
<feComposite in2="hardAlpha" operator="arithmetic" k2="-1" k3="1"/>
<feColorMatrix type="matrix" values="0 0 0 0 0 0 0 0 0 0 0 0 0 0 0 0 0 0 0.04 0"/>
<feBlend mode="normal" in2="shape" result="effect1_innerShadow_84_2382"/>
</filter>
<filter id="filter2_f_84_2382" x="11.2188" y="53.8125" width="44.4688" height="34.5" filterUnits="userSpaceOnUse" color-interpolation-filters="sRGB">
<feFlood flood-opacity="0" result="BackgroundImageFix"/>
<feBlend mode="normal" in="SourceGraphic" in2="BackgroundImageFix" result="shape"/>
<feGaussianBlur stdDeviation="5" result="effect1_foregroundBlur_84_2382"/>
</filter>
<filter id="filter3_f_84_2382" x="67.4062" y="53.8125" width="44.4688" height="34.5" filterUnits="userSpaceOnUse" color-interpolation-filters="sRGB">
<feFlood flood-opacity="0" result="BackgroundImageFix"/>
<feBlend mode="normal" in="SourceGraphic" in2="BackgroundImageFix" result="shape"/>
<feGaussianBlur stdDeviation="5" result="effect1_foregroundBlur_84_2382"/>
</filter>
</defs>
</svg>
