<svg width="508" height="506" viewBox="0 0 508 506" fill="none" xmlns="http://www.w3.org/2000/svg">
<path d="M136.347 449.377C130.868 458.968 118.598 462.366 109.471 456.146C78.5194 435.052 52.5758 407.284 33.6083 374.793C14.6409 342.301 3.21673 306.058 0.0660893 268.735C-0.863043 257.728 8.12858 248.715 19.1741 248.659L217.014 247.668C232.413 247.591 242.119 264.216 234.48 277.588L136.347 449.377Z" fill="#FF73D5"/>
<path d="M106.332 332.889C106.45 333.073 106.484 333.3 106.427 333.52C106.37 333.739 106.226 333.933 106.028 334.06C105.83 334.186 105.594 334.234 105.371 334.192C105.148 334.151 104.956 334.025 104.839 333.84C103.548 331.814 102.05 331.092 100.731 331.85C99.2242 332.728 98.3318 335.281 99.3951 337.401C99.4854 337.591 99.4943 337.812 99.42 338.019C99.3456 338.225 99.1938 338.401 98.996 338.509C98.8043 338.616 98.5843 338.656 98.3747 338.622C98.1651 338.588 97.9794 338.482 97.8503 338.324C96.463 336.441 94.0052 336.156 92.6374 337.079C91.3956 337.87 91.4445 339.577 92.6981 341.545C92.7397 341.724 92.7209 341.915 92.6444 342.091C92.5679 342.267 92.4376 342.418 92.272 342.523C92.1065 342.629 91.9143 342.683 91.7226 342.678C91.531 342.673 91.3498 342.609 91.2049 342.496C89.0937 339.182 90.0791 336.827 91.7047 335.719C92.5369 335.226 93.475 334.948 94.4232 334.913C95.3714 334.877 96.2959 335.087 97.1024 335.52C97.0767 334.546 97.3147 333.566 97.7929 332.677C98.271 331.787 98.9728 331.02 99.8285 330.451C101.629 329.427 104.212 329.561 106.332 332.889Z" fill="black"/>
<path fill-rule="evenodd" clip-rule="evenodd" d="M69.3178 305.443C69.6149 305.318 69.9201 305.215 70.231 305.133C76.834 303.1 84.6117 308.299 89.1301 311.085C87.8009 316.53 85.7762 326.376 78.9602 329.208C78.0609 329.59 77.0987 329.796 76.127 329.817C71.2118 329.948 67.4083 324.989 69.9974 319.045C62.9288 316.232 63.2029 307.98 69.3178 305.443Z" fill="#CE0F0F"/>
<path opacity="0.2" fill-rule="evenodd" clip-rule="evenodd" d="M69.3179 305.443C69.615 305.318 69.9202 305.215 70.2312 305.133C76.2738 304.696 82.8325 309.063 86.8113 311.507C85.5463 316.966 83.5335 326.761 76.686 329.613C76.5279 329.714 76.3384 329.747 76.1637 329.804C71.2485 329.935 67.445 324.977 70.034 319.033C62.9289 316.232 63.203 307.98 69.3179 305.443Z" fill="white"/>
<path opacity="0.4" fill-rule="evenodd" clip-rule="evenodd" d="M69.111 306.879C66.9279 308.683 67.0028 315.408 68.8507 317.036C65.2476 313.874 65.3987 309.962 69.111 306.879Z" fill="white"/>
<g clip-path="url(#clip0_52_1419)">
<path d="M71.4756 339.83C71.5283 339.915 71.5664 340.008 71.5886 340.106C71.6216 340.232 71.6284 340.365 71.6087 340.496C71.5889 340.628 71.543 340.755 71.4736 340.872C71.4041 340.988 71.3125 341.091 71.2039 341.174C71.0954 341.257 70.9721 341.319 70.8411 341.356C69.1462 341.874 67.3496 341.84 65.7266 341.26C64.1036 340.68 62.7438 339.585 61.8555 338.144C60.9334 336.728 60.5211 335.034 60.6809 333.32C60.8407 331.606 61.564 329.965 62.7414 328.643C62.9241 328.437 63.1796 328.306 63.452 328.28C63.7244 328.253 63.9916 328.333 64.1954 328.501C64.2976 328.584 64.381 328.686 64.4409 328.802C64.5007 328.918 64.5357 329.045 64.5438 329.177C64.5519 329.309 64.533 329.442 64.4881 329.569C64.4432 329.696 64.3733 329.814 64.2824 329.916C63.3978 330.91 62.8546 332.144 62.7347 333.433C62.6148 334.722 62.9247 335.996 63.6177 337.061C64.2942 338.131 65.3162 338.942 66.531 339.372C67.7457 339.803 69.088 339.83 70.3572 339.45C70.566 339.391 70.7857 339.396 70.986 339.464C71.1862 339.532 71.3573 339.66 71.4756 339.83Z" fill="black"/>
<path d="M90.5845 369.823C90.639 369.907 90.6772 370 90.6974 370.099C90.7316 370.225 90.7395 370.359 90.7205 370.49C90.7016 370.622 90.6563 370.751 90.5872 370.868C90.5181 370.985 90.4265 371.088 90.3179 371.172C90.2093 371.256 90.0857 371.318 89.9543 371.356C88.2594 371.871 86.464 371.836 84.8419 371.256C83.2198 370.677 81.86 369.585 80.9698 368.146C80.0452 366.731 79.6315 365.037 79.7916 363.323C79.9517 361.608 80.6768 359.967 81.8569 358.647C81.9455 358.543 82.0537 358.457 82.175 358.393C82.2963 358.329 82.4283 358.289 82.5634 358.275C82.6984 358.261 82.8336 358.274 82.9612 358.312C83.0888 358.35 83.2061 358.413 83.3063 358.498C83.5115 358.666 83.6363 358.91 83.6534 359.176C83.6706 359.443 83.5786 359.71 83.3977 359.919C82.514 360.912 81.9709 362.145 81.85 363.432C81.7292 364.719 82.0371 365.991 82.7275 367.056C83.403 368.128 84.4251 368.94 85.6408 369.372C86.8564 369.803 88.2001 369.831 89.4707 369.451C89.6781 369.39 89.8967 369.394 90.0963 369.46C90.2958 369.527 90.4664 369.654 90.5845 369.823Z" fill="black"/>
</g>
<path d="M24.8489 248.363C13.8053 248.15 4.94358 239.009 6.03012 228.017C9.71454 190.743 21.6562 154.666 41.0867 122.449C60.5171 90.2329 86.8554 62.8393 118.105 42.1905C127.321 36.1012 139.541 39.6745 144.882 49.3431L240.547 222.518C247.993 235.998 238.051 252.483 222.654 252.186L24.8489 248.363Z" fill="#7392D5"/>
<g filter="url(#filter0_f_52_1419)" style="mix-blend-mode:soft-light">
<path d="M78.8066 169.087L76.1758 173.859C75.0822 175.843 75.764 178.315 77.6986 179.382C79.6332 180.449 82.0881 179.705 83.1816 177.721L85.8124 172.95C86.906 170.966 86.2242 168.493 84.2896 167.427C82.355 166.36 79.9002 167.104 78.8066 169.087Z" fill="#C140A3"/>
</g>
<g filter="url(#filter1_f_52_1419)" style="mix-blend-mode:soft-light">
<path d="M96.9453 129.627L94.3068 134.413C93.2154 136.393 93.8975 138.862 95.8304 139.927L95.8366 139.931C97.7695 140.996 100.221 140.255 101.313 138.276L103.951 133.49C105.043 131.51 104.361 129.041 102.428 127.976L102.421 127.972C100.488 126.907 98.0368 127.648 96.9453 129.627Z" fill="#C140A3"/>
</g>
<path d="M103.683 159.311L103.451 159.731C100.586 165.216 100.015 172.975 105.205 177.954C105.286 178.047 105.385 178.122 105.496 178.174C105.608 178.226 105.729 178.254 105.852 178.256C105.975 178.258 106.098 178.234 106.212 178.185C106.326 178.137 106.429 178.066 106.514 177.975C106.6 177.885 106.666 177.778 106.708 177.661C106.75 177.544 106.768 177.42 106.76 177.296C106.751 177.172 106.718 177.052 106.661 176.942C106.603 176.833 106.524 176.737 106.428 176.661C101.911 172.311 102.463 165.433 105.017 160.551C107.464 155.901 113.029 151.11 120.095 152.511C120.292 152.489 120.478 152.405 120.626 152.269C120.773 152.134 120.874 151.956 120.915 151.76C120.955 151.564 120.933 151.361 120.851 151.181C120.768 151 120.631 150.851 120.458 150.755C113.991 149.48 107.301 152.747 103.683 159.311Z" fill="black"/>
<path d="M98.9429 135.356C99.9897 133.457 100.235 131.218 99.626 129.131C99.0166 127.045 97.602 125.281 95.6934 124.229L95.3287 124.028C89.5423 120.838 82.2913 125.135 80.586 129.493C79.0611 133.351 81.2189 134.92 84.6632 136.818L87.7995 138.547C89.7086 139.597 91.954 139.851 94.0431 139.252C96.1322 138.654 97.8943 137.253 98.9429 135.356Z" fill="black"/>
<path d="M86.4206 131.45C86.8043 130.754 86.5482 129.878 85.8486 129.492C85.1491 129.106 84.271 129.358 83.8873 130.054C83.5036 130.75 83.7597 131.626 84.4593 132.012C85.1588 132.398 86.0369 132.146 86.4206 131.45Z" fill="white"/>
<path opacity="0.1" d="M92.5873 131.806C93.48 130.187 92.8842 128.147 91.2564 127.249C89.6286 126.352 87.5853 126.937 86.6925 128.556C85.7998 130.176 86.3956 132.216 88.0234 133.113C89.6512 134.011 91.6945 133.425 92.5873 131.806Z" fill="white"/>
<path d="M80.4204 168.953C79.3717 170.85 77.6092 172.252 75.5202 172.849C73.4311 173.447 71.1864 173.192 69.2792 172.141L68.9145 171.94C63.1281 168.75 62.8885 160.329 65.6648 156.558C68.1191 153.199 70.5925 154.194 74.0368 156.093L77.1731 157.822C79.0817 158.875 80.4961 160.638 81.1051 162.726C81.7141 164.813 81.4678 167.053 80.4204 168.953Z" fill="black"/>
<path d="M67.9047 165.036C68.2884 164.34 68.0323 163.463 67.3328 163.077C66.6332 162.692 65.7551 162.943 65.3714 163.639C64.9878 164.335 65.2439 165.212 65.9434 165.597C66.6429 165.983 67.5211 165.731 67.9047 165.036Z" fill="white"/>
<path opacity="0.1" d="M74.0715 165.391C74.9643 163.772 74.3684 161.732 72.7406 160.834C71.1128 159.937 69.0695 160.522 68.1768 162.142C67.284 163.761 67.8799 165.801 69.5077 166.699C71.1355 167.596 73.1788 167.011 74.0715 165.391Z" fill="white"/>
<path d="M366.214 452.863C371.615 462.499 368.211 474.767 358.178 479.388C324.159 495.06 286.997 503.004 249.377 502.534C211.758 502.065 174.805 493.197 141.188 476.68C131.274 471.81 128.177 459.461 133.817 449.963L234.832 279.853C242.695 266.612 261.945 266.852 269.475 280.286L366.214 452.863Z" fill="#FCBC34"/>
<path fill-rule="evenodd" clip-rule="evenodd" d="M273.664 415.345C274.474 446.055 229.864 447.231 229.055 416.521L273.664 415.345Z" fill="#2B1607"/>
<path fill-rule="evenodd" clip-rule="evenodd" d="M267.025 431.724C259.688 440.487 244.977 440.808 236.435 432.53L267.025 431.724Z" fill="white"/>
<path d="M273.158 419.998L229.845 421.14C229.602 419.663 229.47 418.168 229.45 416.669L273.419 415.509C273.463 417.012 273.376 418.515 273.158 419.998Z" fill="white"/>
<path d="M229.077 415.91L273.648 414.735C273.822 414.73 273.991 414.795 274.117 414.915C274.243 415.036 274.317 415.202 274.322 415.377C274.749 431.6 263.056 439.342 251.999 439.634C240.942 439.925 228.866 432.809 228.439 416.614C228.432 416.525 228.443 416.435 228.471 416.351C228.5 416.266 228.546 416.188 228.605 416.122C228.665 416.056 228.738 416.003 228.819 415.966C228.9 415.93 228.988 415.91 229.077 415.91V415.91ZM273.018 416.071L229.814 417.21C230.127 423.818 232.601 429.3 236.981 433.106C241.171 436.654 246.527 438.501 252 438.286C262.235 438.007 273.086 430.937 273.018 416.071Z" fill="black"/>
<path d="M233.745 445.153C231.577 445.21 229.522 446.131 228.03 447.712C226.538 449.293 225.732 451.405 225.789 453.584L225.8 454C225.975 460.605 233.349 464.687 237.971 463.954C242.071 463.318 242.332 460.664 242.228 456.732L242.134 453.152C242.074 450.974 241.157 448.909 239.584 447.409C238.012 445.91 235.912 445.098 233.745 445.153Z" fill="black"/>
<path d="M236.708 457.931C235.914 457.952 235.287 458.616 235.308 459.415C235.329 460.213 235.99 460.844 236.785 460.823C237.579 460.802 238.206 460.137 238.185 459.339C238.164 458.54 237.503 457.91 236.708 457.931Z" fill="white"/>
<path opacity="0.1" d="M233.897 452.431C232.048 452.48 230.59 454.026 230.639 455.884C230.688 457.742 232.226 459.209 234.074 459.16C235.923 459.111 237.382 457.565 237.333 455.707C237.284 453.849 235.745 452.382 233.897 452.431Z" fill="white"/>
<path d="M272.096 444.141C274.264 444.086 276.364 444.898 277.936 446.398C279.508 447.898 280.423 449.963 280.481 452.14L280.492 452.556C280.666 459.162 273.523 463.627 268.866 463.139C264.727 462.721 264.335 460.083 264.231 456.152L264.136 452.572C264.079 450.393 264.885 448.281 266.378 446.7C267.871 445.118 269.928 444.198 272.096 444.141V444.141Z" fill="black"/>
<path d="M275.046 456.919C274.252 456.94 273.625 457.605 273.646 458.403C273.667 459.202 274.328 459.832 275.123 459.811C275.917 459.79 276.544 459.126 276.523 458.327C276.502 457.529 275.841 456.898 275.046 456.919Z" fill="white"/>
<path opacity="0.1" d="M272.235 451.419C270.386 451.468 268.927 453.014 268.976 454.872C269.025 456.73 270.564 458.197 272.412 458.148C274.261 458.099 275.719 456.553 275.67 454.695C275.621 452.837 274.083 451.37 272.235 451.419Z" fill="white"/>
<path d="M282.241 467.03C282.138 465.694 282.568 464.372 283.436 463.352C284.304 462.331 285.54 461.695 286.875 461.582C288.214 461.602 289.491 462.151 290.426 463.11C291.361 464.069 291.879 465.359 291.866 466.698C291.967 470.555 288.952 472.459 287.472 478.696C285.892 472.696 282.398 471.3 282.241 467.03Z" fill="#4ABCF4"/>
<path d="M488.372 257.188C499.453 257.492 508.253 266.768 507.021 277.784C502.833 315.224 490.388 351.393 470.489 383.622C450.593 415.845 423.841 443.165 392.259 463.667C382.958 469.705 370.719 465.985 365.488 456.208L271.84 281.168C264.598 267.631 274.677 251.319 290.024 251.74L488.372 257.188Z" fill="#FF7878"/>
<path fill-rule="evenodd" clip-rule="evenodd" d="M406.563 331.328C416.852 340.974 407.772 356.923 394.26 353.092C401.684 350.13 408.007 338.473 406.563 331.328Z" fill="#2B1607"/>
<path d="M406.395 330.924C406.428 330.865 406.477 330.817 406.536 330.786C406.606 330.746 406.686 330.729 406.765 330.738C406.844 330.747 406.917 330.782 406.973 330.837C411.71 335.344 412.697 341.837 409.553 347.4C406.404 352.971 400.292 355.429 394.018 353.679C393.944 353.659 393.879 353.616 393.832 353.556C393.784 353.496 393.756 353.422 393.752 353.344C393.746 353.265 393.763 353.186 393.803 353.116C393.842 353.047 393.901 352.991 393.972 352.956C401.087 350.052 407.661 338.424 406.312 331.127C406.319 331.053 406.348 330.982 406.395 330.924ZM403.962 344.087C401.732 348.032 398.588 351.514 395.27 353.244C397.863 353.859 400.603 353.59 403.072 352.477C405.54 351.365 407.6 349.47 408.937 347.084C410.291 344.712 410.854 341.974 410.542 339.288C410.23 336.601 409.06 334.113 407.208 332.2C407.519 335.752 406.178 340.167 403.962 344.087Z" fill="black"/>
<path d="M411.677 370.238C412.751 368.339 414.535 366.944 416.637 366.36C418.739 365.776 420.987 366.051 422.886 367.125L423.249 367.33C429.007 370.585 429.136 379.054 426.306 382.817C423.809 386.162 421.338 385.149 417.911 383.211L414.79 381.447C412.893 380.372 411.5 378.588 410.916 376.486C410.332 374.385 410.606 372.138 411.677 370.238Z" fill="black"/>
<path d="M424.176 374.269C423.783 374.965 424.028 375.848 424.724 376.242C425.42 376.635 426.304 376.39 426.697 375.694C427.091 374.998 426.845 374.114 426.149 373.721C425.453 373.327 424.57 373.573 424.176 374.269Z" fill="white"/>
<path opacity="0.1" d="M418.001 373.859C417.085 375.479 417.656 377.534 419.276 378.45C420.895 379.365 422.951 378.794 423.866 377.175C424.782 375.555 424.211 373.5 422.592 372.584C420.972 371.668 418.916 372.239 418.001 373.859Z" fill="white"/>
<path d="M430.67 336.641C429.599 338.541 429.325 340.788 429.909 342.889C430.493 344.99 431.887 346.773 433.785 347.846L434.148 348.051C439.906 351.306 447.225 347.054 448.992 342.686C450.576 338.811 448.429 337.225 445.002 335.288L441.881 333.524C439.982 332.45 437.734 332.175 435.631 332.76C433.529 333.344 431.744 334.74 430.67 336.641Z" fill="black"/>
<path d="M443.167 340.676C442.773 341.372 443.019 342.255 443.715 342.648C444.411 343.042 445.294 342.797 445.687 342.101C446.081 341.404 445.836 340.521 445.14 340.128C444.444 339.734 443.56 339.98 443.167 340.676Z" fill="white"/>
<path opacity="0.1" d="M436.991 340.266C436.076 341.885 436.646 343.941 438.266 344.856C439.886 345.772 441.941 345.201 442.857 343.581C443.772 341.962 443.202 339.906 441.582 338.991C439.962 338.075 437.907 338.646 436.991 340.266Z" fill="white"/>
<path d="M372.978 55.4668C378.559 45.9346 390.864 42.6673 399.925 48.9848C430.65 70.407 456.296 98.4494 474.916 131.141C493.537 163.832 504.574 200.196 507.327 237.55C508.139 248.566 499.052 257.483 488.007 257.421L290.168 256.305C274.768 256.218 265.24 239.491 273.021 226.201L372.978 55.4668Z" fill="#D77C1B"/>
<path fill-rule="evenodd" clip-rule="evenodd" d="M390.001 156.83C416.084 140.6 439.66 178.489 413.577 194.719L390.001 156.83Z" fill="#2B1607"/>
<path fill-rule="evenodd" clip-rule="evenodd" d="M407.488 154.275C418.758 156.172 426.476 168.701 423.655 180.256L407.488 154.275Z" fill="white"/>
<path d="M394.271 154.914L417.162 191.702C416.01 192.658 414.787 193.528 413.505 194.304L390.267 156.959C391.541 156.161 392.881 155.476 394.271 154.914Z" fill="white"/>
<path d="M413.038 195.009L389.482 157.153C389.39 157.005 389.361 156.827 389.401 156.657C389.441 156.487 389.547 156.34 389.696 156.247C403.475 147.674 416.068 153.845 421.912 163.237C427.755 172.628 427.724 186.644 413.968 195.203C413.895 195.255 413.812 195.291 413.725 195.309C413.638 195.327 413.547 195.327 413.46 195.309C413.373 195.291 413.29 195.255 413.218 195.203C413.145 195.152 413.084 195.086 413.038 195.009ZM390.954 157.021L413.787 193.716C419.33 190.104 422.808 185.197 423.876 179.493C424.818 174.085 423.702 168.529 420.748 163.917C415.331 155.228 403.744 149.443 390.954 157.021Z" fill="black"/>
<g clip-path="url(#clip1_52_1419)">
<path d="M449.306 177.484C453.183 175.071 454.392 170.008 452.006 166.174C449.621 162.341 444.544 161.189 440.667 163.601L438.557 164.915C434.68 167.327 433.47 172.391 435.856 176.224C438.241 180.058 443.318 181.209 447.195 178.797L449.306 177.484Z" fill="black"/>
<path d="M445.474 167.118C445.894 167.793 446.785 167.996 447.466 167.573C448.146 167.15 448.357 166.26 447.937 165.585C447.518 164.91 446.626 164.706 445.945 165.13C445.265 165.553 445.054 166.443 445.474 167.118Z" fill="white"/>
<path opacity="0.1" d="M442.136 172.334C443.113 173.904 445.189 174.378 446.772 173.393C448.355 172.408 448.846 170.337 447.869 168.767C446.892 167.197 444.817 166.723 443.234 167.708C441.651 168.693 441.16 170.764 442.136 172.334Z" fill="white"/>
<path d="M429.039 144.914C432.916 142.501 434.126 137.438 431.74 133.605C429.355 129.771 424.278 128.619 420.401 131.032L418.29 132.345C414.413 134.757 413.204 139.821 415.589 143.654C417.975 147.488 423.051 148.64 426.928 146.227L429.039 144.914Z" fill="black"/>
<path d="M425.207 134.548C425.627 135.223 426.519 135.427 427.199 135.003C427.88 134.58 428.091 133.69 427.671 133.015C427.251 132.34 426.359 132.137 425.679 132.56C424.999 132.983 424.788 133.873 425.207 134.548Z" fill="white"/>
<path opacity="0.1" d="M421.87 139.764C422.847 141.334 424.922 141.808 426.505 140.823C428.088 139.838 428.58 137.767 427.603 136.197C426.626 134.627 424.551 134.153 422.968 135.138C421.385 136.123 420.893 138.194 421.87 139.764Z" fill="white"/>
</g>
<path d="M143.913 49.6903C138.512 40.0552 141.917 27.7872 151.949 23.1655C185.968 7.49328 223.13 -0.449804 260.75 0.019662C298.369 0.489128 335.322 9.35711 368.939 25.8733C378.853 30.744 381.95 43.0931 376.311 52.5905L275.295 222.7C267.432 235.941 248.182 235.701 240.652 222.268L143.913 49.6903Z" fill="#48C887"/>
<path fill-rule="evenodd" clip-rule="evenodd" d="M283.444 62.8921C283.447 62.9957 283.45 63.0992 283.452 63.2027C283.487 64.8729 283.337 66.5418 283.004 68.1781C282.475 70.7611 281.426 73.2071 279.922 75.3656C278.419 77.524 276.493 79.349 274.263 80.7282C266.397 85.7487 255.133 85.9423 247.176 81.1322C244.943 79.8254 242.996 78.0759 241.452 75.9896C239.908 73.9032 238.8 71.5232 238.194 68.9934C237.811 67.3905 237.598 65.7511 237.56 64.103C252.276 69.3658 267.057 68.9757 281.891 63.5077L283.444 62.8921Z" fill="#2B1607" stroke="black" stroke-width="1.48" stroke-linecap="round" stroke-linejoin="round"/>
<path fill-rule="evenodd" clip-rule="evenodd" d="M283.452 63.1974C283.487 64.8388 283.336 66.4791 283.002 68.0874C269.958 77.068 251.704 77.2998 238.191 68.909C237.809 67.3339 237.598 65.7228 237.56 64.103C252.267 69.2688 267.042 68.8789 281.872 63.4983L283.452 63.1974Z" fill="white"/>
<path fill-rule="evenodd" clip-rule="evenodd" d="M274.986 80.7119C266.836 85.7361 255.173 85.9403 246.938 81.1416C256.242 82.5488 265.727 82.4035 274.986 80.7119Z" fill="white"/>
<path fill-rule="evenodd" clip-rule="evenodd" d="M283.791 62.3615C283.968 62.4796 284.076 62.6771 284.082 62.8907C284.272 70.1181 281.46 75.6527 277.106 79.4066C272.768 83.147 266.932 85.0955 261.076 85.25C255.221 85.4046 249.289 83.7666 244.76 80.2603C240.215 76.7412 237.114 71.3626 236.923 64.1352C236.917 63.9196 237.017 63.7149 237.19 63.5881C237.363 63.4612 237.587 63.4283 237.789 63.5001C252.886 68.8763 267.979 68.324 283.195 62.2978C283.392 62.2197 283.614 62.2435 283.791 62.3615ZM238.265 65.0526C238.679 71.3959 241.512 76.0937 245.551 79.2206C249.806 82.5147 255.432 84.0878 261.042 83.9398C266.651 83.7918 272.187 81.924 276.262 78.4101C280.134 75.0715 282.716 70.2251 282.79 63.8604C267.904 69.5544 253.082 70.1 238.265 65.0526Z" fill="black"/>
<g opacity="0.4" style="mix-blend-mode:soft-light">
<path d="M250.906 86.1881C253.862 89.4146 266.951 89.2876 270.024 85.6836C263.766 87.2779 257.24 87.4502 250.906 86.1881Z" fill="black"/>
</g>
<path d="M281.477 54.6858L277.328 54.7953C271.215 54.9566 271.216 55.003 271.053 48.8116L270.998 46.7262C270.943 44.5441 271.751 42.4293 273.245 40.8458C274.739 39.2624 276.797 38.3395 278.968 38.2798C281.139 38.225 283.243 39.038 284.819 40.5404C286.394 42.0429 287.313 44.1121 287.373 46.2941L287.429 48.4258C287.573 54.5713 287.572 54.5249 281.477 54.6858Z" fill="black"/>
<path d="M276.38 44.4474C277.173 44.4265 277.799 43.7634 277.778 42.9663C277.757 42.1693 277.097 41.5401 276.304 41.5611C275.511 41.582 274.885 42.2451 274.906 43.0421C274.927 43.8392 275.587 44.4683 276.38 44.4474Z" fill="white"/>
<path opacity="0.1" d="M279.186 49.9371C281.031 49.8884 282.487 48.3454 282.438 46.4908C282.389 44.6361 280.854 43.1721 279.009 43.2208C277.164 43.2695 275.708 44.8125 275.757 46.6671C275.806 48.5218 277.341 49.9858 279.186 49.9371Z" fill="white"/>
<path d="M243.13 55.6978L238.981 55.8073C232.868 55.9686 232.869 56.015 232.706 49.8236L232.651 47.7383C232.596 45.5561 233.404 43.4413 234.898 41.8579C236.392 40.2744 238.45 39.3516 240.621 39.2918C242.792 39.237 244.896 40.05 246.472 41.5524C248.047 43.0549 248.966 45.1241 249.026 47.3061L249.082 49.4378C249.226 55.5833 249.225 55.5369 243.13 55.6978Z" fill="black"/>
<path d="M238.099 45.4689C238.893 45.448 239.52 44.7836 239.499 43.9851C239.478 43.1866 238.817 42.5562 238.023 42.5772C237.228 42.5981 236.601 43.2625 236.622 44.061C236.643 44.8596 237.305 45.4899 238.099 45.4689Z" fill="white"/>
<path opacity="0.1" d="M240.911 50.9689C242.759 50.9202 244.218 49.3743 244.169 47.5162C244.12 45.658 242.581 44.1913 240.733 44.2401C238.884 44.2888 237.426 45.8347 237.475 47.6928C237.524 49.551 239.062 51.0177 240.911 50.9689Z" fill="white"/>
<circle cx="254.475" cy="252.504" r="132" fill="#F2F5FD" stroke="#D7D7D7" stroke-width="11"/>
<defs>
<filter id="filter0_f_52_1419" x="65.6542" y="156.94" width="30.6799" height="32.9293" filterUnits="userSpaceOnUse" color-interpolation-filters="sRGB">
<feFlood flood-opacity="0" result="BackgroundImageFix"/>
<feBlend mode="normal" in="SourceGraphic" in2="BackgroundImageFix" result="shape"/>
<feGaussianBlur stdDeviation="5" result="effect1_foregroundBlur_52_1419"/>
</filter>
<filter id="filter1_f_52_1419" x="83.7867" y="117.485" width="30.6846" height="32.9328" filterUnits="userSpaceOnUse" color-interpolation-filters="sRGB">
<feFlood flood-opacity="0" result="BackgroundImageFix"/>
<feBlend mode="normal" in="SourceGraphic" in2="BackgroundImageFix" result="shape"/>
<feGaussianBlur stdDeviation="5" result="effect1_foregroundBlur_52_1419"/>
</filter>
<clipPath id="clip0_52_1419">
<rect width="51" height="18" fill="white" transform="translate(81.4955 376.798) rotate(-122.502)"/>
</clipPath>
<clipPath id="clip1_52_1419">
<rect width="55" height="19" fill="white" transform="translate(427.421 126.663) rotate(58.1084)"/>
</clipPath>
</defs>
</svg>
