<svg width="142" height="142" viewBox="0 0 142 142" fill="none" xmlns="http://www.w3.org/2000/svg">
<g filter="url(#filter0_i_56_2351)">
<g filter="url(#filter1_i_56_2351)">
<path d="M142 33.5515V108.4C142.004 112.811 141.139 117.179 139.454 121.256C137.769 125.332 135.297 129.036 132.18 132.157C129.062 135.277 125.36 137.753 121.286 139.442C117.211 141.131 112.843 142 108.432 142H33.5841C24.6812 141.996 16.1439 138.458 9.84706 132.164C3.55023 125.871 0.00863741 117.335 1.57874e-05 108.432V33.5841C-0.00426228 29.1739 0.860955 24.8062 2.54618 20.7307C4.2314 16.6552 6.70356 12.952 9.82126 9.83276C12.939 6.71355 16.641 4.23959 20.7157 2.5524C24.7903 0.865198 29.1576 -0.0021369 33.5678 3.95355e-06H108.416C112.824 -0.00213335 117.19 0.864007 121.263 2.54897C125.336 4.23394 129.038 6.70473 132.157 9.82027C135.275 12.9358 137.75 16.6351 139.439 20.7069C141.127 24.7787 141.998 29.1433 142 33.5515V33.5515Z" fill="#FCBC34"/>
</g>
<path d="M35.0926 29.3861C35.1903 31.3325 34.5149 33.2387 33.2136 34.6894C31.9122 36.1401 30.0903 37.0178 28.1447 37.1312C26.198 37.0508 24.3624 36.2028 23.0391 34.7728C21.7158 33.3428 21.0125 31.447 21.083 29.5C21.083 23.8863 25.5413 21.2341 27.9332 12.2198C29.9996 21.0063 35.0275 23.1704 35.0926 29.3861Z" fill="#4ABCF4"/>
<path fill-rule="evenodd" clip-rule="evenodd" d="M33.3135 119.863C33.3135 66.6125 110.97 66.6125 110.97 119.863H33.3135Z" fill="#2B1607"/>
<path fill-rule="evenodd" clip-rule="evenodd" d="M45.6152 91.7856C58.7794 76.9363 84.3862 77.0518 98.8652 91.7856H45.6152Z" fill="white"/>
<path d="M34.4082 111.824H109.807C110.162 114.394 110.323 116.991 110.29 119.589H33.7478C33.7401 116.984 33.9612 114.384 34.4082 111.824Z" fill="white"/>
<path d="M110.903 120.922H33.3136C33.0108 120.922 32.7204 120.801 32.5063 120.587C32.2922 120.372 32.1719 120.082 32.1719 119.778C32.1719 91.6476 52.8678 78.7656 72.1165 78.7656C91.3651 78.7656 112.045 91.6476 112.045 119.73C112.054 119.885 112.031 120.04 111.977 120.185C111.924 120.331 111.841 120.463 111.733 120.575C111.626 120.687 111.497 120.775 111.354 120.835C111.212 120.895 111.058 120.924 110.903 120.922V120.922ZM34.4714 118.635H109.681C109.44 107.17 105.388 97.5571 97.9422 90.7619C90.8163 84.423 81.583 80.9774 72.0522 81.1005C54.2347 81.1166 35.0343 92.8713 34.4714 118.635Z" fill="black"/>
<path d="M104.281 75.4375C108.106 75.4375 111.774 73.9181 114.479 71.2135C117.184 68.5089 118.703 64.8407 118.703 61.0158V60.285C118.703 48.6892 105.889 41.186 97.7037 42.2579C90.4441 43.1836 89.8594 47.8284 89.8594 54.7307V61.0158C89.8637 64.8394 91.3845 68.5051 94.0882 71.2087C96.7919 73.9124 100.458 75.4332 104.281 75.4375Z" fill="black"/>
<path d="M99.6494 52.8832C101.051 52.8832 102.188 51.7468 102.188 50.3449C102.188 48.943 101.051 47.8066 99.6494 47.8066C98.2475 47.8066 97.1111 48.943 97.1111 50.3449C97.1111 51.7468 98.2475 52.8832 99.6494 52.8832Z" fill="white"/>
<path opacity="0.1" d="M104.352 62.6623C107.614 62.6623 110.258 60.0179 110.258 56.7558C110.258 53.4937 107.614 50.8493 104.352 50.8493C101.09 50.8493 98.4453 53.4937 98.4453 56.7558C98.4453 60.0179 101.09 62.6623 104.352 62.6623Z" fill="white"/>
<path d="M36.6013 75.4375C32.777 75.4332 29.1108 73.9119 26.4082 71.2077C23.7056 68.5036 22.1875 64.8379 22.1875 61.0158V60.285C22.1875 48.6892 34.9925 41.186 43.1825 42.2579C50.4625 43.1836 51.0312 47.8284 51.0312 54.7307V61.0158C51.0312 64.8407 49.511 68.5089 46.8048 71.2135C44.0987 73.9181 40.4283 75.4375 36.6013 75.4375V75.4375Z" fill="black"/>
<path d="M31.9937 52.8832C33.3955 52.8832 34.532 51.7468 34.532 50.3449C34.532 48.943 33.3955 47.8066 31.9937 47.8066C30.5918 47.8066 29.4553 48.943 29.4553 50.3449C29.4553 51.7468 30.5918 52.8832 31.9937 52.8832Z" fill="white"/>
<path opacity="0.1" d="M36.6963 62.6623C39.9584 62.6623 42.6028 60.0179 42.6028 56.7558C42.6028 53.4937 39.9584 50.8493 36.6963 50.8493C33.4342 50.8493 30.7898 53.4937 30.7898 56.7558C30.7898 60.0179 33.4342 62.6623 36.6963 62.6623Z" fill="white"/>
</g>
<defs>
<filter id="filter0_i_56_2351" x="0" y="0" width="142" height="146" filterUnits="userSpaceOnUse" color-interpolation-filters="sRGB">
<feFlood flood-opacity="0" result="BackgroundImageFix"/>
<feBlend mode="normal" in="SourceGraphic" in2="BackgroundImageFix" result="shape"/>
<feColorMatrix in="SourceAlpha" type="matrix" values="0 0 0 0 0 0 0 0 0 0 0 0 0 0 0 0 0 0 127 0" result="hardAlpha"/>
<feOffset dy="4"/>
<feGaussianBlur stdDeviation="2"/>
<feComposite in2="hardAlpha" operator="arithmetic" k2="-1" k3="1"/>
<feColorMatrix type="matrix" values="0 0 0 0 0 0 0 0 0 0 0 0 0 0 0 0 0 0 0.25 0"/>
<feBlend mode="normal" in2="shape" result="effect1_innerShadow_56_2351"/>
</filter>
<filter id="filter1_i_56_2351" x="0" y="0" width="142" height="142" filterUnits="userSpaceOnUse" color-interpolation-filters="sRGB">
<feFlood flood-opacity="0" result="BackgroundImageFix"/>
<feBlend mode="normal" in="SourceGraphic" in2="BackgroundImageFix" result="shape"/>
<feColorMatrix in="SourceAlpha" type="matrix" values="0 0 0 0 0 0 0 0 0 0 0 0 0 0 0 0 0 0 127 0" result="hardAlpha"/>
<feOffset dx="-6" dy="-6"/>
<feComposite in2="hardAlpha" operator="arithmetic" k2="-1" k3="1"/>
<feColorMatrix type="matrix" values="0 0 0 0 0 0 0 0 0 0 0 0 0 0 0 0 0 0 0.04 0"/>
<feBlend mode="normal" in2="shape" result="effect1_innerShadow_56_2351"/>
</filter>
</defs>
</svg>
