<svg width="27" height="27" viewBox="0 0 27 27" fill="none" xmlns="http://www.w3.org/2000/svg">
<circle cx="13.5" cy="13.5" r="13.5" fill="white"/>
<path d="M24.549 13.3511C24.549 16.3111 23.3731 19.1499 21.2801 21.243C19.187 23.336 16.3483 24.5118 13.3883 24.5118C10.4282 24.5118 7.58948 23.336 5.49644 21.243C3.4034 19.1499 2.22754 16.3111 2.22754 13.3511C2.22754 10.3911 3.4034 7.55237 5.49644 5.45933C7.58948 3.36629 10.4282 2.19043 13.3883 2.19043C16.3483 2.19043 19.187 3.36629 21.2801 5.45933C23.3731 7.55237 24.549 10.3911 24.549 13.3511ZM9.31089 12.8485C9.31089 12.4485 9.152 12.0649 8.86918 11.7821C8.58636 11.4993 8.20279 11.3404 7.80282 11.3404C7.60478 11.3404 7.40868 11.3794 7.22571 11.4552C7.04274 11.531 6.8765 11.642 6.73646 11.7821C6.59643 11.9221 6.48533 12.0884 6.40955 12.2713C6.33376 12.4543 6.29475 12.6504 6.29475 12.8485C6.29475 13.0465 6.33376 13.2426 6.40955 13.4256C6.48533 13.6085 6.59643 13.7748 6.73646 13.9148C6.8765 14.0549 7.04274 14.1659 7.22571 14.2417C7.40868 14.3175 7.60478 14.3565 7.80282 14.3565C8.20279 14.3565 8.58636 14.1976 8.86918 13.9148C9.152 13.632 9.31089 13.2484 9.31089 12.8485ZM20.4818 12.8485C20.4818 12.4485 20.3229 12.0649 20.04 11.7821C19.7572 11.4993 19.3736 11.3404 18.9737 11.3404C18.5737 11.3404 18.1901 11.4993 17.9073 11.7821C17.6245 12.0649 17.4656 12.4485 17.4656 12.8485C17.4656 13.2484 17.6245 13.632 17.9073 13.9148C18.1901 14.1976 18.5737 14.3565 18.9737 14.3565C19.3736 14.3565 19.7572 14.1976 20.04 13.9148C20.3229 13.632 20.4818 13.2484 20.4818 12.8485ZM18.4457 17.3561C18.4459 17.2314 18.4216 17.1079 18.3741 16.9926C18.3266 16.8773 18.2568 16.7725 18.1688 16.6842C18.0808 16.5959 17.9762 16.5257 17.8611 16.4778C17.746 16.4299 17.6226 16.4051 17.4979 16.4049L9.27204 16.3906C9.14735 16.3904 9.02384 16.4147 8.90856 16.4622C8.79327 16.5097 8.68847 16.5795 8.60014 16.6675C8.51182 16.7555 8.44169 16.8601 8.39377 16.9752C8.34585 17.0903 8.32107 17.2137 8.32085 17.3384L8.32064 17.4704C8.32042 17.5951 8.34477 17.7187 8.39228 17.8339C8.4398 17.9492 8.50955 18.054 8.59757 18.1424C8.68559 18.2307 8.79014 18.3008 8.90525 18.3487C9.02037 18.3966 9.1438 18.4214 9.26849 18.4216L17.4943 18.436C17.619 18.4362 17.7425 18.4118 17.8578 18.3643C17.9731 18.3168 18.0779 18.2471 18.1662 18.159C18.2545 18.071 18.3247 17.9665 18.3726 17.8514C18.4205 17.7362 18.4453 17.6128 18.4455 17.4881L18.4457 17.3561Z" fill="#FFC22D"/>
<path d="M7.80262 14.3565C8.63551 14.3565 9.31069 13.6813 9.31069 12.8484C9.31069 12.0155 8.63551 11.3403 7.80262 11.3403C6.96974 11.3403 6.29456 12.0155 6.29456 12.8484C6.29456 13.6813 6.96974 14.3565 7.80262 14.3565Z" fill="#020202"/>
<path d="M18.9736 14.3565C19.8065 14.3565 20.4817 13.6813 20.4817 12.8484C20.4817 12.0155 19.8065 11.3403 18.9736 11.3403C18.1408 11.3403 17.4656 12.0155 17.4656 12.8484C17.4656 13.6813 18.1408 14.3565 18.9736 14.3565Z" fill="#020202"/>
<path d="M17.4978 16.4048L9.27203 16.3905C8.74763 16.3895 8.32177 16.8139 8.32085 17.3383L8.32062 17.4703C8.31971 17.9947 8.74408 18.4206 9.26849 18.4215L17.4943 18.4359C18.0187 18.4368 18.4446 18.0124 18.4455 17.488L18.4457 17.356C18.4466 16.8316 18.0222 16.4057 17.4978 16.4048Z" fill="#020202"/>
</svg>
