<svg width="27" height="27" viewBox="0 0 27 27" fill="none" xmlns="http://www.w3.org/2000/svg">
<circle cx="13.5" cy="13.5" r="13.5" fill="white"/>
<path d="M25.3928 13.3899C25.3928 14.9728 25.081 16.5402 24.4753 18.0026C23.8695 19.465 22.9817 20.7938 21.8624 21.9131C20.7431 23.0323 19.4143 23.9202 17.9519 24.5259C16.4895 25.1317 14.9221 25.4435 13.3392 25.4435C10.1424 25.4435 7.07652 24.1735 4.81603 21.9131C2.55555 19.6526 1.28564 16.5867 1.28564 13.3899C1.28564 10.1931 2.55555 7.1272 4.81603 4.86672C7.07652 2.60623 10.1424 1.3363 13.3392 1.3363C16.536 1.3363 19.6019 2.60623 21.8624 4.86672C24.1229 7.1272 25.3928 10.1931 25.3928 13.3899ZM7.33091 14.4975C7.54695 14.4956 7.76027 14.4227 7.95866 14.2829C8.15705 14.1431 8.33662 13.9392 8.48716 13.6827C8.6377 13.4263 8.75623 13.1223 8.836 12.7883C8.91576 12.4542 8.95519 12.0966 8.95204 11.7358C8.94568 11.0072 8.76627 10.3099 8.45326 9.7974C8.14024 9.28488 7.71928 8.99908 7.28298 9.00289C7.06694 9.00477 6.85362 9.0777 6.65523 9.2175C6.45684 9.35731 6.27726 9.56126 6.12672 9.8177C5.97618 10.0742 5.85765 10.3781 5.77789 10.7121C5.69812 11.0462 5.65869 11.4038 5.66184 11.7646C5.6682 12.4932 5.84762 13.1905 6.16063 13.703C6.47364 14.2155 6.8946 14.5013 7.33091 14.4975ZM19.3955 14.4975C19.6115 14.4956 19.8248 14.4227 20.0232 14.2829C20.2216 14.1431 20.4012 13.9392 20.5517 13.6827C20.7023 13.4263 20.8208 13.1223 20.9005 12.7883C20.9803 12.4542 21.0197 12.0966 21.0166 11.7358C21.0102 11.0072 20.8308 10.3099 20.5178 9.7974C20.2048 9.28488 19.7838 8.99908 19.3475 9.00289C19.1315 9.00477 18.9182 9.0777 18.7198 9.2175C18.5214 9.35731 18.3418 9.56126 18.1913 9.8177C18.0407 10.0742 17.9222 10.3781 17.8424 10.7121C17.7627 11.0462 17.7232 11.4038 17.7264 11.7646C17.7328 12.4932 17.9122 13.1905 18.2252 13.703C18.5382 14.2155 18.9592 14.5013 19.3955 14.4975ZM18.3789 18.0841C19.2783 16.417 18.781 15.5834 16.8873 15.5834H9.11113C8.91332 15.5832 8.71833 15.6299 8.54202 15.7198C8.36571 15.8096 8.21308 15.94 8.09656 16.1003C7.98003 16.2607 7.9029 16.4465 7.87146 16.6425C7.84003 16.8386 7.85516 17.0394 7.91565 17.2286C8.72726 19.7512 11.1786 21.2044 13.8108 21.0399C14.893 20.9741 15.8655 20.614 16.7283 19.9596C17.4448 19.4185 17.995 18.7933 18.3789 18.0841Z" fill="white"/>
<path d="M24.512 13.3511C24.512 16.3112 23.3361 19.1499 21.2431 21.243C19.1501 23.336 16.3113 24.5119 13.3513 24.5119C10.3913 24.5119 7.5525 23.336 5.45946 21.243C3.36642 19.1499 2.19055 16.3112 2.19055 13.3511C2.19055 10.3911 3.36642 7.55237 5.45946 5.45933C7.5525 3.36629 10.3913 2.19043 13.3513 2.19043C16.3113 2.19043 19.1501 3.36629 21.2431 5.45933C23.3361 7.55237 24.512 10.3911 24.512 13.3511ZM9.27391 12.8485C9.27391 12.6504 9.2349 12.4543 9.15911 12.2713C9.08333 12.0884 8.97224 11.9221 8.8322 11.7821C8.69216 11.6421 8.52592 11.531 8.34295 11.4552C8.15998 11.3794 7.96388 11.3404 7.76584 11.3404C7.36587 11.3404 6.9823 11.4993 6.69948 11.7821C6.41666 12.0649 6.25777 12.4485 6.25777 12.8485C6.25777 13.2484 6.41666 13.632 6.69948 13.9148C6.9823 14.1976 7.36587 14.3565 7.76584 14.3565C7.96388 14.3565 8.15998 14.3175 8.34295 14.2417C8.52592 14.1659 8.69216 14.0549 8.8322 13.9148C8.97224 13.7748 9.08333 13.6085 9.15911 13.4256C9.2349 13.2426 9.27391 13.0465 9.27391 12.8485ZM20.4448 12.8485C20.4448 12.4485 20.2859 12.0649 20.0031 11.7821C19.7203 11.4993 19.3367 11.3404 18.9367 11.3404C18.5367 11.3404 18.1532 11.4993 17.8703 11.7821C17.5875 12.0649 17.4287 12.4485 17.4287 12.8485C17.4287 13.2484 17.5875 13.632 17.8703 13.9148C18.1532 14.1976 18.5367 14.3565 18.9367 14.3565C19.3367 14.3565 19.7203 14.1976 20.0031 13.9148C20.2859 13.632 20.4448 13.2484 20.4448 12.8485ZM16.469 15.697C14.8746 17.7433 11.9498 18.1749 10.4215 15.9001C10.0897 15.4059 9.64626 15.2637 9.0911 15.4736C8.99632 15.5075 8.91678 15.5667 8.85247 15.6513C8.43948 16.1896 8.45132 16.7193 8.888 17.2406C11.4014 20.2517 15.7733 20.2111 18.0024 16.936C18.412 16.3368 18.2935 15.8748 17.647 15.5498L17.4845 15.4685C17.0817 15.2654 16.7432 15.3416 16.469 15.697Z" fill="#8DC255"/>
<path d="M7.76576 14.3563C8.59864 14.3563 9.27383 13.6812 9.27383 12.8483C9.27383 12.0154 8.59864 11.3402 7.76576 11.3402C6.93288 11.3402 6.25769 12.0154 6.25769 12.8483C6.25769 13.6812 6.93288 14.3563 7.76576 14.3563Z" fill="#020202"/>
<path d="M18.9368 14.3563C19.7696 14.3563 20.4448 13.6812 20.4448 12.8483C20.4448 12.0154 19.7696 11.3402 18.9368 11.3402C18.1039 11.3402 17.4287 12.0154 17.4287 12.8483C17.4287 13.6812 18.1039 14.3563 18.9368 14.3563Z" fill="#020202"/>
<path d="M10.4215 15.9001C11.9499 18.1748 14.8746 17.7432 16.469 15.6969C16.7432 15.3415 17.0817 15.2653 17.4845 15.4685L17.647 15.5497C18.2936 15.8747 18.412 16.3367 18.0024 16.9359C15.7733 20.211 11.4015 20.2516 8.88803 17.2406C8.45135 16.7193 8.43951 16.1895 8.8525 15.6512C8.91681 15.5666 8.99635 15.5074 9.09113 15.4735C9.64629 15.2637 10.0898 15.4058 10.4215 15.9001Z" fill="#020202"/>
</svg>
