<svg width="50" height="51" viewBox="0 0 50 51" fill="none" xmlns="http://www.w3.org/2000/svg">
<path d="M46.0938 11.1563C43.9359 11.1563 42.1875 12.9413 42.1875 15.1407C42.1875 15.5933 42.2781 16.0188 42.4125 16.4236L32.8906 24.786C32.2234 24.2426 31.3891 23.9047 30.4688 23.9047C29.4062 23.9047 28.4469 24.3398 27.7438 25.041L20.2844 21.232C20.1391 19.1665 18.4688 17.5297 16.4062 17.5297C14.25 17.5297 12.5 19.3147 12.5 21.5141C12.5 22.1165 12.6406 22.6807 12.875 23.1923L5.27031 32.1364C4.84375 31.9738 4.38906 31.8718 3.90625 31.8718C1.74844 31.8718 0 33.6552 0 35.8562C0 38.0572 1.74844 39.8406 3.90625 39.8406C6.06406 39.8406 7.8125 38.0572 7.8125 35.8562C7.8125 35.3271 7.70625 34.8219 7.52188 34.3597L15.25 25.2992C15.6188 25.4156 16 25.4968 16.4062 25.4968C17.5422 25.4968 18.5578 24.9932 19.2719 24.2011L26.5672 27.9321C26.5938 30.1107 28.3281 31.8702 30.4688 31.8702C32.6266 31.8702 34.375 30.0868 34.375 27.8859C34.375 27.8157 34.3578 27.7488 34.3547 27.6787L44.5156 18.7744C44.9984 18.9927 45.5297 19.1187 46.0938 19.1187C48.2516 19.1187 50 17.3352 50 15.1343C50 12.9333 48.2516 11.1499 46.0938 11.1499V11.1563Z" fill="#B8B8B8"/>
</svg>
