<svg width="27" height="27" viewBox="0 0 27 27" fill="none" xmlns="http://www.w3.org/2000/svg">
<circle cx="13.5" cy="13.5" r="13.5" fill="white"/>
<path d="M24.6607 13.3981C24.6607 14.8637 24.372 16.315 23.8111 17.6691C23.2502 19.0232 22.4282 20.2535 21.3918 21.2899C20.3554 22.3263 19.1251 23.1484 17.771 23.7093C16.4169 24.2701 14.9656 24.5588 13.4999 24.5588C10.5399 24.5588 7.70115 23.383 5.60811 21.2899C3.51507 19.1969 2.33923 16.3581 2.33923 13.3981C2.33923 10.4381 3.51507 7.59931 5.60811 5.50627C7.70115 3.41322 10.5399 2.23737 13.4999 2.23737C16.46 2.23737 19.2987 3.41322 21.3918 5.50627C23.4848 7.59931 24.6607 10.4381 24.6607 13.3981ZM7.9367 14.4237C8.13674 14.4219 8.33425 14.3544 8.51795 14.225C8.70164 14.0955 8.86792 13.9067 9.00731 13.6692C9.14669 13.4318 9.25644 13.1504 9.3303 12.8411C9.40416 12.5318 9.44066 12.2006 9.43775 11.8666C9.43186 11.1919 9.26574 10.5463 8.97591 10.0717C8.68608 9.59716 8.29631 9.33253 7.89232 9.33605C7.69228 9.33779 7.49476 9.40532 7.31107 9.53477C7.12738 9.66422 6.9611 9.85306 6.82171 10.0905C6.68233 10.328 6.57257 10.6094 6.49872 10.9187C6.42486 11.228 6.38835 11.5591 6.39127 11.8932C6.39716 12.5678 6.56328 13.2135 6.85311 13.688C7.14293 14.1626 7.53271 14.4272 7.9367 14.4237ZM19.1076 14.4237C19.3076 14.4219 19.5051 14.3544 19.6888 14.225C19.8725 14.0955 20.0388 13.9067 20.1782 13.6692C20.3176 13.4318 20.4273 13.1504 20.5012 12.8411C20.575 12.5318 20.6115 12.2006 20.6086 11.8666C20.6027 11.1919 20.4366 10.5463 20.1468 10.0717C19.857 9.59716 19.4672 9.33253 19.0632 9.33605C18.8632 9.33779 18.6656 9.40532 18.482 9.53477C18.2983 9.66422 18.132 9.85306 17.9926 10.0905C17.8532 10.328 17.7435 10.6094 17.6696 10.9187C17.5957 11.228 17.5592 11.5591 17.5621 11.8932C17.568 12.5678 17.7342 13.2135 18.024 13.688C18.3138 14.1626 18.7036 14.4272 19.1076 14.4237ZM18.1663 17.7446C18.9991 16.201 18.5387 15.4292 16.7852 15.4292H9.58505C9.40189 15.429 9.22135 15.4722 9.0581 15.5554C8.89485 15.6385 8.75353 15.7593 8.64563 15.9078C8.53774 16.0562 8.46632 16.2283 8.43721 16.4098C8.40811 16.5913 8.42212 16.7773 8.47812 16.9525C9.22962 19.2882 11.4993 20.6338 13.9366 20.4814C14.9386 20.4205 15.8391 20.0871 16.6379 19.4811C17.3014 18.9801 17.8109 18.4013 18.1663 17.7446Z" fill="#4AAF57"/>
<path d="M6.39124 11.8932C6.4035 13.2981 7.09542 14.4311 7.93668 14.4237C8.77795 14.4164 9.44999 13.2715 9.43773 11.8666C9.42547 10.4617 8.73355 9.32877 7.89228 9.33611C7.05102 9.34345 6.37898 10.4883 6.39124 11.8932Z" fill="#020202"/>
<path d="M17.5621 11.8932C17.5744 13.2981 18.2663 14.4311 19.1076 14.4237C19.9488 14.4164 20.6209 13.2715 20.6086 11.8666C20.5964 10.4617 19.9044 9.32877 19.0632 9.33611C18.2219 9.34345 17.5499 10.4883 17.5621 11.8932Z" fill="#020202"/>
<path d="M18.1663 17.7446C17.8108 18.4013 17.3014 18.9801 16.6379 19.4811C15.839 20.0871 14.9385 20.4205 13.9365 20.4814C11.4993 20.6338 9.22955 19.2882 8.47805 16.9524C8.42205 16.7773 8.40804 16.5913 8.43714 16.4098C8.46625 16.2282 8.53767 16.0562 8.64556 15.9077C8.75345 15.7593 8.89478 15.6385 9.05803 15.5554C9.22128 15.4722 9.40182 15.4289 9.58498 15.4291H16.7851C18.5386 15.4291 18.999 16.2009 18.1663 17.7446Z" fill="#020202"/>
</svg>
