<svg width="124" height="124" viewBox="0 0 124 124" fill="none" xmlns="http://www.w3.org/2000/svg">
<g opacity="0.08" filter="url(#filter0_f_84_2346)">
<g filter="url(#filter1_i_84_2346)">
<path d="M120 31.4083V92.5519C120.003 96.1551 119.297 99.7238 117.92 103.054C116.544 106.384 114.524 109.41 111.978 111.959C109.431 114.508 106.407 116.53 103.078 117.91C99.7497 119.29 96.1817 120 92.5784 120H31.4349C24.1621 119.996 17.188 117.107 12.0441 111.965C6.90019 106.824 4.00706 99.8512 4.00001 92.5784V31.4349C3.99652 27.8322 4.70332 24.2642 6.07998 20.9349C7.45664 17.6057 9.47615 14.5805 12.023 12.0324C14.5698 9.48431 17.5941 7.46333 20.9227 6.08506C24.2512 4.70678 27.8189 3.99825 31.4216 4H92.5651C96.1662 3.99826 99.7323 4.70581 103.06 6.08226C106.388 7.45871 109.411 9.4771 111.959 12.0222C114.507 14.5673 116.528 17.5892 117.908 20.9155C119.287 24.2418 119.998 27.8072 120 31.4083V31.4083Z" fill="#FF7DC7"/>
</g>
<g opacity="0.4" style="mix-blend-mode:soft-light">
<path d="M62.2749 49.2173L59.1113 65.8457L62.2749 68.3712V49.2173Z" fill="black"/>
</g>
<path d="M62.6958 96.4375C47.7502 96.4375 31.009 88.094 29.385 69.8236C29.343 69.4901 29.4342 69.1534 29.6384 68.8876C29.8427 68.6218 30.1434 68.4487 30.4743 68.4064C30.8052 68.364 31.1392 68.4559 31.4029 68.6618C31.6666 68.8677 31.8383 69.1707 31.8804 69.5042C33.3327 86.2444 48.8592 93.8693 62.6958 93.8693C82.2491 93.8693 92.0324 81.6136 93.0623 69.5042C93.0859 69.1746 93.2381 68.8678 93.4855 68.6509C93.7329 68.434 94.0554 68.3246 94.3825 68.3465C94.7022 68.3887 94.9954 68.5474 95.207 68.7925C95.4186 69.0376 95.5339 69.3523 95.5312 69.6772C94.0261 88.134 77.4829 96.4242 62.7222 96.4375H62.6958Z" fill="black"/>
<path d="M92.307 61.9269H86.3256C77.5129 61.9269 77.5129 61.9934 77.5129 53.1143V50.1236C77.5165 46.9942 78.7612 43.994 80.974 41.7812C83.1868 39.5684 86.1869 38.3237 89.3163 38.3202V38.3202C92.4457 38.3237 95.4459 39.5684 97.6587 41.7812C99.8715 43.994 101.116 46.9942 101.12 50.1236V53.1807C101.093 61.9934 101.093 61.9269 92.307 61.9269Z" fill="black"/>
<path d="M85.3532 47.0612C86.4963 47.0612 87.4229 46.1346 87.4229 44.9916C87.4229 43.8485 86.4963 42.9219 85.3532 42.9219C84.2102 42.9219 83.2836 43.8485 83.2836 44.9916C83.2836 46.1346 84.2102 47.0612 85.3532 47.0612Z" fill="white"/>
<path opacity="0.1" d="M89.1874 55.0348C91.8472 55.0348 94.0034 52.8786 94.0034 50.2188C94.0034 47.559 91.8472 45.4028 89.1874 45.4028C86.5276 45.4028 84.3715 47.559 84.3715 50.2188C84.3715 52.8786 86.5276 55.0348 89.1874 55.0348Z" fill="white"/>
<path d="M37.0259 61.9269H31.0445C22.2318 61.9269 22.2318 61.9934 22.2318 53.1143V50.1236C22.2353 46.9942 23.48 43.994 25.6928 41.7812C27.9056 39.5684 30.9058 38.3237 34.0352 38.3202V38.3202C37.1645 38.3237 40.1647 39.5684 42.3775 41.7812C44.5903 43.994 45.835 46.9942 45.8385 50.1236V53.1807C45.812 61.9934 45.812 61.9269 37.0259 61.9269Z" fill="black"/>
<path d="M30.1668 47.0774C31.312 47.0774 32.2404 46.1491 32.2404 45.0039C32.2404 43.8587 31.312 42.9303 30.1668 42.9303C29.0216 42.9303 28.0933 43.8587 28.0933 45.0039C28.0933 46.1491 29.0216 47.0774 30.1668 47.0774Z" fill="white"/>
<path opacity="0.1" d="M34.0083 55.0659C36.673 55.0659 38.8333 52.9057 38.8333 50.2409C38.8333 47.5761 36.673 45.4159 34.0083 45.4159C31.3435 45.4159 29.1832 47.5761 29.1832 50.2409C29.1832 52.9057 31.3435 55.0659 34.0083 55.0659Z" fill="white"/>
</g>
<defs>
<filter id="filter0_f_84_2346" x="0" y="0" width="124" height="124" filterUnits="userSpaceOnUse" color-interpolation-filters="sRGB">
<feFlood flood-opacity="0" result="BackgroundImageFix"/>
<feBlend mode="normal" in="SourceGraphic" in2="BackgroundImageFix" result="shape"/>
<feGaussianBlur stdDeviation="2" result="effect1_foregroundBlur_84_2346"/>
</filter>
<filter id="filter1_i_84_2346" x="4" y="4" width="116" height="116" filterUnits="userSpaceOnUse" color-interpolation-filters="sRGB">
<feFlood flood-opacity="0" result="BackgroundImageFix"/>
<feBlend mode="normal" in="SourceGraphic" in2="BackgroundImageFix" result="shape"/>
<feColorMatrix in="SourceAlpha" type="matrix" values="0 0 0 0 0 0 0 0 0 0 0 0 0 0 0 0 0 0 127 0" result="hardAlpha"/>
<feOffset dx="-6" dy="-6"/>
<feComposite in2="hardAlpha" operator="arithmetic" k2="-1" k3="1"/>
<feColorMatrix type="matrix" values="0 0 0 0 0 0 0 0 0 0 0 0 0 0 0 0 0 0 0.04 0"/>
<feBlend mode="normal" in2="shape" result="effect1_innerShadow_84_2346"/>
</filter>
</defs>
</svg>
