<svg width="57" height="44" viewBox="0 0 57 44" fill="none" xmlns="http://www.w3.org/2000/svg">
<g filter="url(#filter0_i_115_7946)">
<path d="M37.25 19.5609V36.4281C37.251 37.4221 37.056 38.4066 36.6763 39.3252C36.2966 40.2438 35.7395 41.0786 35.037 41.7818C34.3344 42.485 33.5002 43.0429 32.582 43.4235C31.6637 43.8041 30.6794 44 29.6854 44H12.8182C10.812 43.999 8.88806 43.2019 7.46906 41.7835C6.05005 40.3652 5.25195 38.4417 5.25 36.4354V19.5682C5.24904 18.5744 5.44402 17.5901 5.82379 16.6717C6.20356 15.7533 6.76066 14.9188 7.46324 14.2158C8.16582 13.5129 9.00009 12.9554 9.91832 12.5752C10.8366 12.195 11.8207 11.9995 12.8146 12H29.6818C30.6752 11.9995 31.6589 12.1947 32.5769 12.5744C33.4948 12.9541 34.329 13.5109 35.0318 14.213C35.7346 14.9151 36.2922 15.7488 36.6728 16.6663C37.0534 17.5839 37.2495 18.5675 37.25 19.5609V19.5609Z" fill="#48C786"/>
</g>
<g filter="url(#filter1_f_115_7946)" style="mix-blend-mode:soft-light">
<path d="M14.7221 28.5H12.0279C10.9079 28.5 10 29.3954 10 30.5C10 31.6046 10.9079 32.5 12.0279 32.5H14.7221C15.8421 32.5 16.75 31.6046 16.75 30.5C16.75 29.3954 15.8421 28.5 14.7221 28.5Z" fill="#C140A3"/>
</g>
<g filter="url(#filter2_f_115_7946)" style="mix-blend-mode:soft-light">
<path d="M30.2261 28.5H27.5239C26.4061 28.5 25.5 29.3946 25.5 30.4982V30.5018C25.5 31.6054 26.4061 32.5 27.5239 32.5H30.2261C31.3439 32.5 32.25 31.6054 32.25 30.5018V30.4982C32.25 29.3946 31.3439 28.5 30.2261 28.5Z" fill="#C140A3"/>
</g>
<path fill-rule="evenodd" clip-rule="evenodd" d="M30.25 30C30.25 30.0405 30.25 30.0809 30.25 30.1214C30.2465 30.7739 30.1703 31.424 30.0229 32.0596C29.7885 33.0627 29.352 34.0071 28.7403 34.8344C28.1286 35.6618 27.3546 36.3546 26.4661 36.8702C23.3306 38.7495 18.913 38.7091 15.8434 36.7488C14.9816 36.2155 14.2363 35.5123 13.6527 34.6817C13.0691 33.851 12.6592 32.9103 12.4478 31.9161C12.3143 31.2863 12.248 30.644 12.25 30C17.9643 32.2067 23.7628 32.2067 29.6346 30.2243L30.25 30Z" fill="#2B1607" stroke="black" stroke-width="1.48" stroke-linecap="round" stroke-linejoin="round"/>
<path fill-rule="evenodd" clip-rule="evenodd" d="M30.25 30.1193C30.2465 30.7606 30.1704 31.3995 30.023 32.0241C24.8163 35.3965 17.6581 35.2989 12.4478 31.8832C12.3143 31.2642 12.248 30.6329 12.25 30C17.962 32.1687 23.7581 32.1687 29.6275 30.2205L30.25 30.1193Z" fill="white"/>
<path fill-rule="evenodd" clip-rule="evenodd" d="M26.75 36.8713C23.5031 38.7491 18.9286 38.7087 15.75 36.75C19.3829 37.3954 23.1028 37.4364 26.75 36.8713V36.8713Z" fill="white"/>
<path fill-rule="evenodd" clip-rule="evenodd" d="M30.3915 29.7964C30.4595 29.8443 30.5 29.9225 30.5 30.006C30.5 32.8302 29.3401 34.9624 27.5946 36.3834C25.8553 37.7993 23.5471 38.5 21.25 38.5C18.9529 38.5 16.6447 37.7993 14.9054 36.3834C13.1599 34.9624 12 32.8302 12 30.006C12 29.9217 12.0413 29.8429 12.1104 29.7951C12.1794 29.7473 12.2675 29.7368 12.3458 29.7669C18.2085 32.0218 24.1311 31.9617 30.1584 29.7653C30.2365 29.7369 30.3235 29.7485 30.3915 29.7964ZM12.5167 30.3781C12.6132 32.8593 13.6751 34.7229 15.2261 35.9856C16.8601 37.3157 19.0494 37.988 21.25 37.988C23.4506 37.988 25.6399 37.3157 27.2739 35.9856C28.8263 34.7218 29.8887 32.8559 29.9836 30.3713C24.0889 32.4414 18.2728 32.5017 12.5167 30.3781Z" fill="black"/>
<g opacity="0.4" style="mix-blend-mode:soft-light">
<path d="M17.2534 38.7617C18.379 40.0521 23.5113 40.1374 24.7534 38.7617C22.2835 39.3198 19.7234 39.3198 17.2534 38.7617Z" fill="black"/>
</g>
<path d="M29.6107 27.98H27.9606C25.5295 27.98 25.5295 27.9983 25.5295 25.5489V24.7239C25.5305 23.8606 25.8739 23.033 26.4843 22.4225C27.0947 21.8121 27.9224 21.4687 28.7856 21.4678V21.4678C29.6489 21.4687 30.4766 21.8121 31.087 22.4225C31.6974 23.033 32.0408 23.8606 32.0417 24.7239V25.5672C32.0344 27.9983 32.0344 27.98 29.6107 27.98Z" fill="black"/>
<path d="M27.6923 23.8792C28.0076 23.8792 28.2632 23.6236 28.2632 23.3082C28.2632 22.9929 28.0076 22.7373 27.6923 22.7373C27.377 22.7373 27.1213 22.9929 27.1213 23.3082C27.1213 23.6236 27.377 23.8792 27.6923 23.8792Z" fill="white"/>
<path opacity="0.1" d="M28.7502 26.0785C29.4839 26.0785 30.0787 25.4837 30.0787 24.7499C30.0787 24.0162 29.4839 23.4214 28.7502 23.4214C28.0164 23.4214 27.4216 24.0162 27.4216 24.7499C27.4216 25.4837 28.0164 26.0785 28.7502 26.0785Z" fill="white"/>
<path d="M14.3607 27.98H12.7106C10.2795 27.98 10.2795 27.9983 10.2795 25.5489V24.7239C10.2805 23.8606 10.6239 23.033 11.2343 22.4225C11.8447 21.8121 12.6724 21.4687 13.5356 21.4678V21.4678C14.3989 21.4687 15.2266 21.8121 15.837 22.4225C16.4474 23.033 16.7908 23.8606 16.7917 24.7239V25.5672C16.7844 27.9983 16.7844 27.98 14.3607 27.98Z" fill="black"/>
<path d="M12.4685 23.8838C12.7844 23.8838 13.0405 23.6277 13.0405 23.3118C13.0405 22.9958 12.7844 22.7397 12.4685 22.7397C12.1526 22.7397 11.8965 22.9958 11.8965 23.3118C11.8965 23.6277 12.1526 23.8838 12.4685 23.8838Z" fill="white"/>
<path opacity="0.1" d="M13.5283 26.0874C14.2634 26.0874 14.8593 25.4914 14.8593 24.7563C14.8593 24.0212 14.2634 23.4253 13.5283 23.4253C12.7932 23.4253 12.1973 24.0212 12.1973 24.7563C12.1973 25.4914 12.7932 26.0874 13.5283 26.0874Z" fill="white"/>
<circle cx="42.75" cy="13.5" r="13.5" fill="white"/>
<path d="M53.9108 13.398C53.9108 14.8637 53.6221 16.315 53.0612 17.6691C52.5004 19.0231 51.6783 20.2535 50.6419 21.2899C49.6055 22.3262 48.3752 23.1483 47.0211 23.7092C45.667 24.2701 44.2157 24.5588 42.7501 24.5588C39.7901 24.5588 36.9513 23.3829 34.8582 21.2899C32.7652 19.1968 31.5894 16.358 31.5894 13.398C31.5894 10.438 32.7652 7.59925 34.8582 5.50621C36.9513 3.41316 39.7901 2.2373 42.7501 2.2373C45.7101 2.2373 48.5489 3.41316 50.6419 5.50621C52.735 7.59925 53.9108 10.438 53.9108 13.398ZM37.1868 14.4236C37.3869 14.4219 37.5844 14.3544 37.7681 14.2249C37.9518 14.0955 38.118 13.9066 38.2574 13.6692C38.3968 13.4317 38.5066 13.1503 38.5804 12.841C38.6543 12.5317 38.6908 12.2006 38.6879 11.8665C38.682 11.1918 38.5159 10.5462 38.226 10.0717C37.9362 9.59709 37.5464 9.33247 37.1424 9.33599C36.9424 9.33773 36.7449 9.40526 36.5612 9.53471C36.3775 9.66416 36.2112 9.853 36.0718 10.0905C35.9324 10.3279 35.8227 10.6093 35.7488 10.9186C35.675 11.2279 35.6385 11.559 35.6414 11.8931C35.6473 12.5678 35.8134 13.2134 36.1032 13.688C36.3931 14.1625 36.7828 14.4271 37.1868 14.4236ZM48.3577 14.4236C48.5577 14.4219 48.7553 14.3544 48.9389 14.2249C49.1226 14.0955 49.2889 13.9066 49.4283 13.6692C49.5677 13.4317 49.6774 13.1503 49.7513 12.841C49.8252 12.5317 49.8617 12.2006 49.8588 11.8665C49.8529 11.1918 49.6867 10.5462 49.3969 10.0717C49.1071 9.59709 48.7173 9.33247 48.3133 9.33599C48.1133 9.33773 47.9158 9.40526 47.7321 9.53471C47.5484 9.66416 47.3821 9.853 47.2427 10.0905C47.1033 10.3279 46.9936 10.6093 46.9197 10.9186C46.8459 11.2279 46.8094 11.559 46.8123 11.8931C46.8182 12.5678 46.9843 13.2134 47.2741 13.688C47.5639 14.1625 47.9537 14.4271 48.3577 14.4236ZM47.4165 17.7445C48.2492 16.2009 47.7888 15.4291 46.0353 15.4291H38.8352C38.652 15.4289 38.4715 15.4721 38.3082 15.5553C38.145 15.6385 38.0036 15.7592 37.8958 15.9077C37.7879 16.0562 37.7164 16.2282 37.6873 16.4097C37.6582 16.5913 37.6722 16.7772 37.7282 16.9524C38.4797 19.2881 40.7495 20.6337 43.1867 20.4814C44.1887 20.4204 45.0892 20.087 45.8881 19.4811C46.5516 18.9801 47.061 18.4012 47.4165 17.7445Z" fill="#4AAF57"/>
<path d="M35.6412 11.8932C35.6535 13.2981 36.3454 14.431 37.1867 14.4237C38.0279 14.4163 38.7 13.2715 38.6877 11.8666C38.6755 10.4617 37.9835 9.32871 37.1423 9.33605C36.301 9.34339 35.629 10.4882 35.6412 11.8932Z" fill="#020202"/>
<path d="M46.8121 11.8932C46.8244 13.2981 47.5163 14.431 48.3576 14.4237C49.1988 14.4163 49.8709 13.2715 49.8586 11.8666C49.8464 10.4617 49.1544 9.32871 48.3132 9.33605C47.4719 9.34339 46.7999 10.4882 46.8121 11.8932Z" fill="#020202"/>
<path d="M47.4163 17.7446C47.0608 18.4013 46.5514 18.9802 45.8879 19.4812C45.089 20.0871 44.1885 20.4206 43.1865 20.4815C40.7493 20.6338 38.4795 19.2882 37.7281 16.9525C37.6721 16.7773 37.658 16.5914 37.6871 16.4098C37.7162 16.2283 37.7877 16.0563 37.8956 15.9078C38.0035 15.7593 38.1448 15.6386 38.308 15.5554C38.4713 15.4722 38.6518 15.429 38.835 15.4292H46.0351C47.7886 15.4292 48.249 16.201 47.4163 17.7446Z" fill="#020202"/>
<defs>
<filter id="filter0_i_115_7946" x="5.25" y="12" width="32" height="32" filterUnits="userSpaceOnUse" color-interpolation-filters="sRGB">
<feFlood flood-opacity="0" result="BackgroundImageFix"/>
<feBlend mode="normal" in="SourceGraphic" in2="BackgroundImageFix" result="shape"/>
<feColorMatrix in="SourceAlpha" type="matrix" values="0 0 0 0 0 0 0 0 0 0 0 0 0 0 0 0 0 0 127 0" result="hardAlpha"/>
<feOffset dx="-6" dy="-6"/>
<feComposite in2="hardAlpha" operator="arithmetic" k2="-1" k3="1"/>
<feColorMatrix type="matrix" values="0 0 0 0 0 0 0 0 0 0 0 0 0 0 0 0 0 0 0.04 0"/>
<feBlend mode="normal" in2="shape" result="effect1_innerShadow_115_7946"/>
</filter>
<filter id="filter1_f_115_7946" x="0" y="18.5" width="26.75" height="24" filterUnits="userSpaceOnUse" color-interpolation-filters="sRGB">
<feFlood flood-opacity="0" result="BackgroundImageFix"/>
<feBlend mode="normal" in="SourceGraphic" in2="BackgroundImageFix" result="shape"/>
<feGaussianBlur stdDeviation="5" result="effect1_foregroundBlur_115_7946"/>
</filter>
<filter id="filter2_f_115_7946" x="15.5" y="18.5" width="26.75" height="24" filterUnits="userSpaceOnUse" color-interpolation-filters="sRGB">
<feFlood flood-opacity="0" result="BackgroundImageFix"/>
<feBlend mode="normal" in="SourceGraphic" in2="BackgroundImageFix" result="shape"/>
<feGaussianBlur stdDeviation="5" result="effect1_foregroundBlur_115_7946"/>
</filter>
</defs>
</svg>
