<svg width="57" height="44" viewBox="0 0 57 44" fill="none" xmlns="http://www.w3.org/2000/svg">
<g filter="url(#filter0_i_115_8113)">
<path d="M37.25 19.5609V36.4281C37.251 37.4221 37.056 38.4066 36.6763 39.3252C36.2966 40.2438 35.7395 41.0786 35.037 41.7818C34.3344 42.485 33.5002 43.0429 32.582 43.4235C31.6637 43.8041 30.6794 44 29.6854 44H12.8182C10.812 43.999 8.88806 43.2019 7.46906 41.7835C6.05005 40.3652 5.25195 38.4417 5.25 36.4354V19.5682C5.24904 18.5744 5.44402 17.5901 5.82379 16.6717C6.20356 15.7533 6.76066 14.9188 7.46324 14.2158C8.16582 13.5129 9.00009 12.9554 9.91832 12.5752C10.8366 12.195 11.8207 11.9995 12.8146 12H29.6818C30.6752 11.9995 31.6589 12.1947 32.5769 12.5744C33.4948 12.9541 34.329 13.5109 35.0318 14.213C35.7346 14.9151 36.2922 15.7488 36.6728 16.6663C37.0534 17.5839 37.2495 18.5675 37.25 19.5609V19.5609Z" fill="#48C786"/>
</g>
<g filter="url(#filter1_f_115_8113)" style="mix-blend-mode:soft-light">
<path d="M14.7221 28.5H12.0279C10.9079 28.5 10 29.3954 10 30.5C10 31.6046 10.9079 32.5 12.0279 32.5H14.7221C15.8421 32.5 16.75 31.6046 16.75 30.5C16.75 29.3954 15.8421 28.5 14.7221 28.5Z" fill="#C140A3"/>
</g>
<g filter="url(#filter2_f_115_8113)" style="mix-blend-mode:soft-light">
<path d="M30.2261 28.5H27.5239C26.4061 28.5 25.5 29.3946 25.5 30.4982V30.5018C25.5 31.6054 26.4061 32.5 27.5239 32.5H30.2261C31.3439 32.5 32.25 31.6054 32.25 30.5018V30.4982C32.25 29.3946 31.3439 28.5 30.2261 28.5Z" fill="#C140A3"/>
</g>
<path fill-rule="evenodd" clip-rule="evenodd" d="M30.25 30C30.25 30.0405 30.25 30.0809 30.25 30.1214C30.2465 30.7739 30.1703 31.424 30.0229 32.0596C29.7885 33.0627 29.352 34.0071 28.7403 34.8344C28.1286 35.6618 27.3546 36.3546 26.4661 36.8702C23.3306 38.7495 18.913 38.7091 15.8434 36.7488C14.9816 36.2155 14.2363 35.5123 13.6527 34.6817C13.0691 33.851 12.6592 32.9103 12.4478 31.9161C12.3143 31.2863 12.248 30.644 12.25 30C17.9643 32.2067 23.7628 32.2067 29.6346 30.2243L30.25 30Z" fill="#2B1607" stroke="black" stroke-width="1.48" stroke-linecap="round" stroke-linejoin="round"/>
<path fill-rule="evenodd" clip-rule="evenodd" d="M30.25 30.1193C30.2465 30.7606 30.1704 31.3995 30.023 32.0241C24.8163 35.3965 17.6581 35.2989 12.4478 31.8832C12.3143 31.2642 12.248 30.6329 12.25 30C17.962 32.1687 23.7581 32.1687 29.6275 30.2205L30.25 30.1193Z" fill="white"/>
<path fill-rule="evenodd" clip-rule="evenodd" d="M26.75 36.8713C23.5031 38.7491 18.9286 38.7087 15.75 36.75C19.3829 37.3954 23.1028 37.4364 26.75 36.8713V36.8713Z" fill="white"/>
<path fill-rule="evenodd" clip-rule="evenodd" d="M30.3915 29.7964C30.4595 29.8443 30.5 29.9225 30.5 30.006C30.5 32.8302 29.3401 34.9624 27.5946 36.3834C25.8553 37.7993 23.5471 38.5 21.25 38.5C18.9529 38.5 16.6447 37.7993 14.9054 36.3834C13.1599 34.9624 12 32.8302 12 30.006C12 29.9217 12.0413 29.8429 12.1104 29.7951C12.1794 29.7473 12.2675 29.7368 12.3458 29.7669C18.2085 32.0218 24.1311 31.9617 30.1584 29.7653C30.2365 29.7369 30.3235 29.7485 30.3915 29.7964ZM12.5167 30.3781C12.6132 32.8593 13.6751 34.7229 15.2261 35.9856C16.8601 37.3157 19.0494 37.988 21.25 37.988C23.4506 37.988 25.6399 37.3157 27.2739 35.9856C28.8263 34.7218 29.8887 32.8559 29.9836 30.3713C24.0889 32.4414 18.2728 32.5017 12.5167 30.3781Z" fill="black"/>
<g opacity="0.4" style="mix-blend-mode:soft-light">
<path d="M17.2534 38.7617C18.379 40.0521 23.5113 40.1374 24.7534 38.7617C22.2835 39.3198 19.7234 39.3198 17.2534 38.7617Z" fill="black"/>
</g>
<path d="M29.6107 27.98H27.9606C25.5295 27.98 25.5295 27.9983 25.5295 25.5489V24.7239C25.5305 23.8606 25.8739 23.033 26.4843 22.4225C27.0947 21.8121 27.9224 21.4687 28.7856 21.4678V21.4678C29.6489 21.4687 30.4766 21.8121 31.087 22.4225C31.6974 23.033 32.0408 23.8606 32.0417 24.7239V25.5672C32.0344 27.9983 32.0344 27.98 29.6107 27.98Z" fill="black"/>
<path d="M27.6923 23.8792C28.0076 23.8792 28.2632 23.6236 28.2632 23.3082C28.2632 22.9929 28.0076 22.7373 27.6923 22.7373C27.377 22.7373 27.1213 22.9929 27.1213 23.3082C27.1213 23.6236 27.377 23.8792 27.6923 23.8792Z" fill="white"/>
<path opacity="0.1" d="M28.7502 26.0785C29.4839 26.0785 30.0787 25.4837 30.0787 24.7499C30.0787 24.0162 29.4839 23.4214 28.7502 23.4214C28.0164 23.4214 27.4216 24.0162 27.4216 24.7499C27.4216 25.4837 28.0164 26.0785 28.7502 26.0785Z" fill="white"/>
<path d="M14.3607 27.98H12.7106C10.2795 27.98 10.2795 27.9983 10.2795 25.5489V24.7239C10.2805 23.8606 10.6239 23.033 11.2343 22.4225C11.8447 21.8121 12.6724 21.4687 13.5356 21.4678V21.4678C14.3989 21.4687 15.2266 21.8121 15.837 22.4225C16.4474 23.033 16.7908 23.8606 16.7917 24.7239V25.5672C16.7844 27.9983 16.7844 27.98 14.3607 27.98Z" fill="black"/>
<path d="M12.4685 23.8838C12.7844 23.8838 13.0405 23.6277 13.0405 23.3118C13.0405 22.9958 12.7844 22.7397 12.4685 22.7397C12.1526 22.7397 11.8965 22.9958 11.8965 23.3118C11.8965 23.6277 12.1526 23.8838 12.4685 23.8838Z" fill="white"/>
<path opacity="0.1" d="M13.5283 26.0874C14.2634 26.0874 14.8593 25.4914 14.8593 24.7563C14.8593 24.0212 14.2634 23.4253 13.5283 23.4253C12.7932 23.4253 12.1973 24.0212 12.1973 24.7563C12.1973 25.4914 12.7932 26.0874 13.5283 26.0874Z" fill="white"/>
<circle cx="42.75" cy="13.5" r="13.5" fill="white"/>
<path d="M53.7619 13.3511C53.7619 14.8168 53.4732 16.2681 52.9123 17.6222C52.3514 18.9762 51.5293 20.2066 50.493 21.243C49.4566 22.2793 48.2262 23.1014 46.8722 23.6623C45.5181 24.2232 44.0668 24.5119 42.6011 24.5119C39.6411 24.5119 36.8024 23.336 34.7093 21.243C32.6163 19.1499 31.4404 16.3111 31.4404 13.3511C31.4404 10.3911 32.6163 7.55237 34.7093 5.45933C36.8024 3.36629 39.6411 2.19043 42.6011 2.19043C44.0668 2.19043 45.5181 2.47911 46.8722 3.03999C48.2262 3.60087 49.4566 4.42296 50.493 5.45933C51.5293 6.4957 52.3514 7.72604 52.9123 9.08012C53.4732 10.4342 53.7619 11.8855 53.7619 13.3511ZM37.0157 12.9754L36.2541 13.3664C35.7564 13.6236 35.511 14.0316 35.5178 14.5901C35.5212 14.7695 35.5855 14.9168 35.7107 15.0319C36.1271 15.4144 36.5892 15.4787 37.097 15.2248L40.0725 13.7269C40.2367 13.6435 40.3746 13.5161 40.4707 13.3589C40.5669 13.2017 40.6175 13.021 40.617 12.8367C40.6164 12.6525 40.5648 12.472 40.4677 12.3154C40.3707 12.1588 40.2321 12.0322 40.0674 11.9497L36.7974 10.335C36.6903 10.2818 36.573 10.2524 36.4535 10.2489C36.3339 10.2454 36.2151 10.2678 36.1051 10.3146C35.995 10.3614 35.8965 10.4315 35.8161 10.5201C35.7358 10.6086 35.6756 10.7135 35.6397 10.8275L35.5432 11.1271C35.3875 11.6214 35.5415 11.9819 36.0053 12.2087L37.0106 12.7063C37.1867 12.7943 37.1883 12.884 37.0157 12.9754ZM48.1917 12.7114L49.0549 12.2899C49.6236 12.0123 49.8267 11.5672 49.6642 10.9545C49.5762 10.6363 49.2766 10.4247 48.7654 10.3198C48.5974 10.2868 48.4242 10.3101 48.2729 10.3858L45.1298 11.9599C44.964 12.042 44.8245 12.1689 44.7272 12.3262C44.6298 12.4835 44.5785 12.665 44.579 12.85C44.5795 13.0351 44.6319 13.2162 44.7302 13.373C44.8284 13.5298 44.9686 13.6559 45.1349 13.737L48.3998 15.3517C48.9211 15.609 49.2952 15.4702 49.522 14.9354L49.6286 14.6866C49.869 14.1179 49.7099 13.7032 49.1513 13.4425L48.1917 12.9906C47.9953 12.8992 47.9953 12.8061 48.1917 12.7114ZM42.3777 18.6573L40.2959 16.2353C40.2049 16.1286 40.0919 16.0431 39.9645 15.9846C39.8372 15.926 39.6986 15.896 39.5584 15.8965C39.4183 15.897 39.2799 15.928 39.153 15.9874C39.026 16.0467 38.9136 16.1331 38.8234 16.2403L37.6352 17.6519C37.4862 17.8246 37.3221 17.8398 37.1427 17.6976C36.0713 16.8446 35.0557 18.1241 35.7057 19.0381C36.2574 19.8235 36.882 20.3042 37.5793 20.4802C37.6734 20.5046 37.7727 20.5013 37.8654 20.4707C37.9581 20.4401 38.0403 20.3835 38.1023 20.3075L39.4631 18.6624C39.5512 18.5541 39.6426 18.5524 39.7373 18.6573L41.8953 21.1758C41.9835 21.2786 42.0927 21.3612 42.2155 21.4181C42.3383 21.4749 42.4718 21.5046 42.6068 21.505C42.7419 21.5055 42.8752 21.4768 42.9978 21.4209C43.1204 21.3649 43.2293 21.2831 43.3171 21.1809L45.3989 18.769C45.5648 18.5761 45.7239 18.5794 45.8762 18.7792C46.1572 19.1448 46.4365 19.5137 46.7141 19.8861C47.7296 21.2571 48.9025 19.8353 49.522 18.9975C49.6002 18.8925 49.6565 18.7729 49.6876 18.6458C49.7188 18.5188 49.7241 18.3869 49.7032 18.258C49.6824 18.1291 49.6358 18.0059 49.5663 17.8956C49.4968 17.7854 49.4057 17.6904 49.2986 17.6164C48.8585 17.3117 48.4201 17.3422 47.9835 17.7078C47.8244 17.8432 47.6788 17.8296 47.5468 17.6672L46.4551 16.3063C46.3589 16.1867 46.2376 16.0896 46.0998 16.0219C45.9621 15.9542 45.8113 15.9176 45.6581 15.9147C45.505 15.9118 45.3532 15.9427 45.2137 16.0051C45.0741 16.0675 44.9501 16.16 44.8506 16.2759L42.8043 18.6573C42.6621 18.8232 42.5199 18.8232 42.3777 18.6573Z" fill="#F54334"/>
<path d="M37.0105 12.7063L36.0052 12.2086C35.5414 11.9818 35.3874 11.6213 35.5431 11.1271L35.6396 10.8275C35.6755 10.7135 35.7357 10.6086 35.816 10.52C35.8964 10.4315 35.9949 10.3614 36.105 10.3146C36.215 10.2678 36.3338 10.2454 36.4534 10.2489C36.5729 10.2524 36.6902 10.2818 36.7973 10.335L40.0673 11.9497C40.232 12.0322 40.3706 12.1588 40.4677 12.3154C40.5647 12.472 40.6163 12.6525 40.6169 12.8367C40.6174 13.021 40.5668 13.2017 40.4706 13.3589C40.3745 13.516 40.2366 13.6434 40.0724 13.7269L37.0969 15.2248C36.5891 15.4787 36.127 15.4143 35.7107 15.0318C35.5854 14.9167 35.5211 14.7695 35.5177 14.5901C35.5109 14.0315 35.7564 13.6236 36.254 13.3664L37.0156 12.9754C37.1883 12.884 37.1866 12.7943 37.0105 12.7063Z" fill="#020202"/>
<path d="M48.1918 12.9906L49.1514 13.4425C49.71 13.7032 49.8691 14.1179 49.6287 14.6866L49.5221 14.9354C49.2953 15.4702 48.9212 15.609 48.3999 15.3517L45.135 13.737C44.9687 13.6559 44.8285 13.5298 44.7302 13.373C44.632 13.2162 44.5796 13.035 44.5791 12.85C44.5786 12.665 44.6299 12.4835 44.7273 12.3262C44.8246 12.1689 44.9641 12.0419 45.1299 11.9598L48.273 10.3858C48.4243 10.31 48.5975 10.2868 48.7655 10.3198C49.2767 10.4247 49.5763 10.6363 49.6643 10.9545C49.8268 11.5672 49.6237 12.0123 49.055 12.2899L48.1918 12.7113C47.9954 12.8061 47.9954 12.8992 48.1918 12.9906Z" fill="#020202"/>
<path d="M42.8043 18.6573L44.8506 16.2759C44.9502 16.16 45.0742 16.0675 45.2137 16.0051C45.3533 15.9427 45.5051 15.9118 45.6582 15.9147C45.8114 15.9176 45.9622 15.9542 46.0999 16.0219C46.2376 16.0896 46.3589 16.1867 46.4552 16.3064L47.5469 17.6672C47.6789 17.8297 47.8245 17.8432 47.9836 17.7078C48.4202 17.3422 48.8586 17.3117 49.2987 17.6164C49.4058 17.6904 49.4968 17.7854 49.5664 17.8956C49.6359 18.0059 49.6825 18.1291 49.7033 18.258C49.7242 18.3869 49.7189 18.5188 49.6877 18.6459C49.6566 18.7729 49.6003 18.8925 49.5221 18.9975C48.9026 19.8353 47.7297 21.2571 46.7141 19.8861C46.4366 19.5138 46.1573 19.1448 45.8763 18.7792C45.724 18.5795 45.5649 18.5761 45.399 18.769L43.3172 21.1809C43.2294 21.2831 43.1205 21.3649 42.9979 21.4209C42.8753 21.4768 42.7419 21.5055 42.6069 21.5051C42.4719 21.5046 42.3384 21.4749 42.2156 21.4181C42.0928 21.3613 41.9836 21.2786 41.8954 21.1758L39.7374 18.6573C39.6426 18.5524 39.5512 18.5541 39.4632 18.6624L38.1024 20.3076C38.0404 20.3835 37.9581 20.4401 37.8654 20.4707C37.7727 20.5013 37.6735 20.5046 37.5794 20.4802C36.8821 20.3042 36.2575 19.8235 35.7058 19.0381C35.0558 18.1242 36.0713 16.8446 37.1427 17.6976C37.3221 17.8398 37.4863 17.8246 37.6353 17.6519L38.8234 16.2404C38.9136 16.1331 39.0261 16.0468 39.1531 15.9874C39.28 15.928 39.4184 15.897 39.5585 15.8965C39.6987 15.896 39.8372 15.9261 39.9646 15.9846C40.092 16.0431 40.205 16.1286 40.296 16.2353L42.3778 18.6573C42.52 18.8232 42.6622 18.8232 42.8043 18.6573Z" fill="#020202"/>
<defs>
<filter id="filter0_i_115_8113" x="5.25" y="12" width="32" height="32" filterUnits="userSpaceOnUse" color-interpolation-filters="sRGB">
<feFlood flood-opacity="0" result="BackgroundImageFix"/>
<feBlend mode="normal" in="SourceGraphic" in2="BackgroundImageFix" result="shape"/>
<feColorMatrix in="SourceAlpha" type="matrix" values="0 0 0 0 0 0 0 0 0 0 0 0 0 0 0 0 0 0 127 0" result="hardAlpha"/>
<feOffset dx="-6" dy="-6"/>
<feComposite in2="hardAlpha" operator="arithmetic" k2="-1" k3="1"/>
<feColorMatrix type="matrix" values="0 0 0 0 0 0 0 0 0 0 0 0 0 0 0 0 0 0 0.04 0"/>
<feBlend mode="normal" in2="shape" result="effect1_innerShadow_115_8113"/>
</filter>
<filter id="filter1_f_115_8113" x="0" y="18.5" width="26.75" height="24" filterUnits="userSpaceOnUse" color-interpolation-filters="sRGB">
<feFlood flood-opacity="0" result="BackgroundImageFix"/>
<feBlend mode="normal" in="SourceGraphic" in2="BackgroundImageFix" result="shape"/>
<feGaussianBlur stdDeviation="5" result="effect1_foregroundBlur_115_8113"/>
</filter>
<filter id="filter2_f_115_8113" x="15.5" y="18.5" width="26.75" height="24" filterUnits="userSpaceOnUse" color-interpolation-filters="sRGB">
<feFlood flood-opacity="0" result="BackgroundImageFix"/>
<feBlend mode="normal" in="SourceGraphic" in2="BackgroundImageFix" result="shape"/>
<feGaussianBlur stdDeviation="5" result="effect1_foregroundBlur_115_8113"/>
</filter>
</defs>
</svg>
