<svg width="142" height="142" viewBox="0 0 142 142" fill="none" xmlns="http://www.w3.org/2000/svg">
<g filter="url(#filter0_i_55_728)">
<g filter="url(#filter1_i_55_728)">
<path d="M142 33.5515V108.4C142.004 112.811 141.139 117.179 139.454 121.256C137.769 125.332 135.297 129.036 132.18 132.157C129.062 135.277 125.36 137.753 121.286 139.442C117.211 141.131 112.843 142 108.432 142H33.5841C24.6812 141.996 16.1439 138.458 9.84706 132.164C3.55023 125.871 0.00863741 117.335 1.57874e-05 108.432V33.5841C-0.00426228 29.1739 0.860955 24.8062 2.54618 20.7307C4.2314 16.6552 6.70356 12.952 9.82126 9.83276C12.939 6.71355 16.641 4.23959 20.7157 2.5524C24.7903 0.865198 29.1576 -0.0021369 33.5678 3.95355e-06H108.416C112.824 -0.00213335 117.19 0.864007 121.263 2.54897C125.336 4.23394 129.038 6.70473 132.157 9.82027C135.275 12.9358 137.75 16.6351 139.439 20.7069C141.127 24.7787 141.998 29.1433 142 33.5515V33.5515Z" fill="#48C786"/>
</g>
<g filter="url(#filter2_f_55_728)" style="mix-blend-mode:soft-light">
<path d="M42.0325 73.2188H30.0768C25.107 73.2188 21.0781 77.1922 21.0781 82.0938C21.0781 86.9953 25.107 90.9688 30.0768 90.9688H42.0325C47.0024 90.9688 51.0312 86.9953 51.0312 82.0938C51.0312 77.1922 47.0024 73.2188 42.0325 73.2188Z" fill="#C140A3"/>
</g>
<g filter="url(#filter3_f_55_728)" style="mix-blend-mode:soft-light">
<path d="M110.831 73.2188H98.8405C93.8804 73.2188 89.8594 77.1887 89.8594 82.0858V82.1017C89.8594 86.9988 93.8804 90.9688 98.8405 90.9688H110.831C115.792 90.9688 119.812 86.9988 119.812 82.1017V82.0858C119.812 77.1887 115.792 73.2188 110.831 73.2188Z" fill="#C140A3"/>
</g>
<path fill-rule="evenodd" clip-rule="evenodd" d="M110.937 79.875C110.937 80.0545 110.937 80.234 110.937 80.4136C110.922 83.3093 110.584 86.1942 109.93 89.0144C108.89 93.4659 106.953 97.6565 104.238 101.328C101.524 104.999 98.0894 108.074 94.1465 110.361C80.2327 118.701 60.6297 118.522 47.0084 109.823C43.1838 107.456 39.8767 104.336 37.2869 100.65C34.6971 96.964 32.8783 92.7893 31.9404 88.3779C31.3479 85.5829 31.0537 82.7326 31.0627 79.875C56.4198 89.6672 82.1507 89.6672 108.207 80.8705L110.937 79.875Z" fill="#2B1607" stroke="black" stroke-width="1.48" stroke-linecap="round" stroke-linejoin="round"/>
<path fill-rule="evenodd" clip-rule="evenodd" d="M110.937 80.4043C110.922 83.2502 110.584 86.0854 109.93 88.8572C86.8256 103.822 55.0609 103.389 31.9401 88.2316C31.3478 85.4847 31.0537 82.6834 31.0627 79.875C56.4095 89.4987 82.1299 89.4987 108.175 80.8534L110.937 80.4043Z" fill="white"/>
<path fill-rule="evenodd" clip-rule="evenodd" d="M95.4062 110.366C80.9981 118.699 60.6989 118.52 46.5938 109.828C62.715 112.692 79.2219 112.874 95.4062 110.366V110.366Z" fill="white"/>
<path fill-rule="evenodd" clip-rule="evenodd" d="M111.565 78.9715C111.867 79.1841 112.047 79.5312 112.047 79.9016C112.047 92.434 106.9 101.896 99.1541 108.201C91.4361 114.484 81.1932 117.594 71 117.594C60.8067 117.594 50.5638 114.484 42.8459 108.201C35.1 101.896 29.9531 92.434 29.9531 79.9016C29.9531 79.5277 30.1363 79.1777 30.4428 78.9657C30.7494 78.7538 31.1402 78.707 31.4877 78.8407C57.5034 88.8469 83.7848 88.5801 110.531 78.8337C110.878 78.7074 111.264 78.7588 111.565 78.9715ZM32.2459 81.5527C32.6741 92.5632 37.3862 100.833 44.2691 106.436C51.5197 112.339 61.235 115.322 71 115.322C80.7649 115.322 90.4802 112.339 97.7309 106.436C104.62 100.828 109.334 92.5483 109.755 81.5229C83.5977 90.7086 57.7887 90.9762 32.2459 81.5527Z" fill="black"/>
<g opacity="0.4" style="mix-blend-mode:soft-light">
<path d="M53.2648 118.754C58.2594 124.48 81.0342 124.859 86.546 118.754C75.5856 121.231 64.2251 121.231 53.2648 118.754Z" fill="black"/>
</g>
<path d="M108.1 70.9105H100.778C89.99 70.9105 89.99 70.9919 89.99 60.1226V56.4616C89.9943 52.6308 91.518 48.9581 94.2267 46.2494C96.9355 43.5406 100.608 42.0169 104.439 42.0126V42.0126C108.27 42.0169 111.942 43.5406 114.651 46.2494C117.36 48.9581 118.884 52.6308 118.888 56.4616V60.204C118.855 70.9919 118.855 70.9105 108.1 70.9105Z" fill="black"/>
<path d="M99.5876 52.7128C100.987 52.7128 102.121 51.5785 102.121 50.1793C102.121 48.78 100.987 47.6457 99.5876 47.6457C98.1884 47.6457 97.0541 48.78 97.0541 50.1793C97.0541 51.5785 98.1884 52.7128 99.5876 52.7128Z" fill="white"/>
<path opacity="0.1" d="M104.281 62.4736C107.537 62.4736 110.177 59.8341 110.177 56.5782C110.177 53.3222 107.537 50.6827 104.281 50.6827C101.025 50.6827 98.3857 53.3222 98.3857 56.5782C98.3857 59.8341 101.025 62.4736 104.281 62.4736Z" fill="white"/>
<path d="M40.4282 70.9105H33.1061C22.3182 70.9105 22.3182 70.9919 22.3182 60.1226V56.4616C22.3225 52.6308 23.8462 48.9581 26.555 46.2494C29.2638 43.5406 32.9364 42.0169 36.7672 42.0126V42.0126C40.598 42.0169 44.2706 43.5406 46.9794 46.2494C49.6882 48.9581 51.2118 52.6308 51.2161 56.4616V60.204C51.1836 70.9919 51.1836 70.9105 40.4282 70.9105Z" fill="black"/>
<path d="M32.0319 52.7326C33.4337 52.7326 34.5702 51.5962 34.5702 50.1943C34.5702 48.7924 33.4337 47.656 32.0319 47.656C30.63 47.656 29.4935 48.7924 29.4935 50.1943C29.4935 51.5962 30.63 52.7326 32.0319 52.7326Z" fill="white"/>
<path opacity="0.1" d="M36.7343 62.5117C39.9963 62.5117 42.6408 59.8673 42.6408 56.6052C42.6408 53.3431 39.9963 50.6987 36.7343 50.6987C33.4722 50.6987 30.8278 53.3431 30.8278 56.6052C30.8278 59.8673 33.4722 62.5117 36.7343 62.5117Z" fill="white"/>
</g>
<defs>
<filter id="filter0_i_55_728" x="0" y="0" width="142" height="146" filterUnits="userSpaceOnUse" color-interpolation-filters="sRGB">
<feFlood flood-opacity="0" result="BackgroundImageFix"/>
<feBlend mode="normal" in="SourceGraphic" in2="BackgroundImageFix" result="shape"/>
<feColorMatrix in="SourceAlpha" type="matrix" values="0 0 0 0 0 0 0 0 0 0 0 0 0 0 0 0 0 0 127 0" result="hardAlpha"/>
<feOffset dy="4"/>
<feGaussianBlur stdDeviation="2"/>
<feComposite in2="hardAlpha" operator="arithmetic" k2="-1" k3="1"/>
<feColorMatrix type="matrix" values="0 0 0 0 0 0 0 0 0 0 0 0 0 0 0 0 0 0 0.25 0"/>
<feBlend mode="normal" in2="shape" result="effect1_innerShadow_55_728"/>
</filter>
<filter id="filter1_i_55_728" x="0" y="0" width="142" height="142" filterUnits="userSpaceOnUse" color-interpolation-filters="sRGB">
<feFlood flood-opacity="0" result="BackgroundImageFix"/>
<feBlend mode="normal" in="SourceGraphic" in2="BackgroundImageFix" result="shape"/>
<feColorMatrix in="SourceAlpha" type="matrix" values="0 0 0 0 0 0 0 0 0 0 0 0 0 0 0 0 0 0 127 0" result="hardAlpha"/>
<feOffset dx="-6" dy="-6"/>
<feComposite in2="hardAlpha" operator="arithmetic" k2="-1" k3="1"/>
<feColorMatrix type="matrix" values="0 0 0 0 0 0 0 0 0 0 0 0 0 0 0 0 0 0 0.04 0"/>
<feBlend mode="normal" in2="shape" result="effect1_innerShadow_55_728"/>
</filter>
<filter id="filter2_f_55_728" x="11.0781" y="63.2188" width="49.9531" height="37.75" filterUnits="userSpaceOnUse" color-interpolation-filters="sRGB">
<feFlood flood-opacity="0" result="BackgroundImageFix"/>
<feBlend mode="normal" in="SourceGraphic" in2="BackgroundImageFix" result="shape"/>
<feGaussianBlur stdDeviation="5" result="effect1_foregroundBlur_55_728"/>
</filter>
<filter id="filter3_f_55_728" x="79.8594" y="63.2188" width="49.9531" height="37.75" filterUnits="userSpaceOnUse" color-interpolation-filters="sRGB">
<feFlood flood-opacity="0" result="BackgroundImageFix"/>
<feBlend mode="normal" in="SourceGraphic" in2="BackgroundImageFix" result="shape"/>
<feGaussianBlur stdDeviation="5" result="effect1_foregroundBlur_55_728"/>
</filter>
</defs>
</svg>
