<svg width="57" height="44" viewBox="0 0 57 44" fill="none" xmlns="http://www.w3.org/2000/svg">
<g filter="url(#filter0_i_115_8722)">
<path d="M37.25 19.5609V36.4281C37.251 37.4221 37.056 38.4066 36.6763 39.3252C36.2966 40.2438 35.7395 41.0786 35.037 41.7818C34.3344 42.485 33.5002 43.0429 32.582 43.4235C31.6637 43.8041 30.6794 44 29.6854 44H12.8182C10.812 43.999 8.88806 43.2019 7.46906 41.7835C6.05005 40.3652 5.25195 38.4417 5.25 36.4354V19.5682C5.24904 18.5744 5.44402 17.5901 5.82379 16.6717C6.20356 15.7533 6.76066 14.9188 7.46324 14.2158C8.16582 13.5129 9.00009 12.9554 9.91832 12.5752C10.8366 12.195 11.8207 11.9995 12.8146 12H29.6818C30.6752 11.9995 31.6589 12.1947 32.5769 12.5744C33.4948 12.9541 34.329 13.5109 35.0318 14.213C35.7346 14.9151 36.2922 15.7488 36.6728 16.6663C37.0534 17.5839 37.2495 18.5675 37.25 19.5609V19.5609Z" fill="#FF73D5"/>
</g>
<g filter="url(#filter1_f_115_8722)" style="mix-blend-mode:soft-light">
<path d="M14.7221 28.5H12.0279C10.9079 28.5 10 29.3954 10 30.5C10 31.6046 10.9079 32.5 12.0279 32.5H14.7221C15.8421 32.5 16.75 31.6046 16.75 30.5C16.75 29.3954 15.8421 28.5 14.7221 28.5Z" fill="#C140A3"/>
</g>
<g filter="url(#filter2_f_115_8722)" style="mix-blend-mode:soft-light">
<path d="M30.2261 28.5H27.5239C26.4061 28.5 25.5 29.3946 25.5 30.4982V30.5018C25.5 31.6054 26.4061 32.5 27.5239 32.5H30.2261C31.3439 32.5 32.25 31.6054 32.25 30.5018V30.4982C32.25 29.3946 31.3439 28.5 30.2261 28.5Z" fill="#C140A3"/>
</g>
<path d="M21.3231 38.75C21.2374 38.75 21.1552 38.7136 21.0946 38.6487C21.034 38.5839 21 38.4959 21 38.4042C21 38.3125 21.034 38.2245 21.0946 38.1597C21.1552 38.0948 21.2374 38.0584 21.3231 38.0584C22.2653 38.0584 22.8197 37.7162 22.8469 37.1229C22.8741 36.4421 22.2177 35.6122 21.2925 35.5176C21.2107 35.5075 21.1357 35.464 21.0831 35.3962C21.0305 35.3284 21.0044 35.2414 21.0102 35.1535C21.0153 35.068 21.0485 34.9871 21.1039 34.9252C21.1593 34.8633 21.2333 34.8243 21.3129 34.815C22.2279 34.7531 22.8401 34.0033 22.8231 33.3589C22.8231 32.7838 22.2483 32.4416 21.3333 32.4416C21.2653 32.4177 21.206 32.3714 21.164 32.3093C21.122 32.2472 21.0994 32.1725 21.0994 32.0958C21.0994 32.0192 21.122 31.9444 21.164 31.8824C21.206 31.8203 21.2653 31.7739 21.3333 31.75C22.8741 31.75 23.4456 32.569 23.4694 33.3371C23.4571 33.7148 23.3515 34.0822 23.1633 34.402C22.9751 34.7217 22.711 34.9823 22.398 35.1572C22.7255 35.3531 22.9995 35.6372 23.1928 35.9814C23.3861 36.3255 23.492 36.7178 23.5 37.1192C23.4592 37.9273 22.8707 38.75 21.3231 38.75Z" fill="black"/>
<path fill-rule="evenodd" clip-rule="evenodd" d="M38.2001 32.3168C38.1786 32.4408 38.1486 32.5631 38.1102 32.6828C37.3911 35.2847 34.0327 36.7558 32.1594 37.6597C30.6384 36.0788 27.8086 33.3452 28.3084 30.5054C28.3716 30.129 28.5059 29.7686 28.7039 29.4442C29.6963 27.7974 32.1378 27.5852 33.5581 29.6857C35.978 27.9474 38.6496 29.7699 38.2001 32.3168Z" fill="#CE0F0F"/>
<path opacity="0.2" fill-rule="evenodd" clip-rule="evenodd" d="M38.2001 32.3169C38.1786 32.4408 38.1486 32.5631 38.1103 32.6828C36.9812 34.765 34.155 36.0093 32.5082 36.807C30.9692 35.2444 28.1538 32.5254 28.6536 29.6711C28.6536 29.5979 28.6824 29.5283 28.7004 29.4588C29.6928 27.8121 32.1342 27.5998 33.5545 29.7003C35.978 27.9475 38.6496 29.7699 38.2001 32.3169Z" fill="white"/>
<path opacity="0.4" fill-rule="evenodd" clip-rule="evenodd" d="M37.7685 31.9473C37.6319 30.8494 35.3918 29.4625 34.4641 29.7296C36.2691 29.2063 37.5312 30.0773 37.7685 31.9473Z" fill="white"/>
<g clip-path="url(#clip0_115_8722)">
<path d="M25.925 26.25C25.8822 26.2495 25.8398 26.2421 25.7993 26.228C25.746 26.2113 25.6964 26.184 25.6534 26.1477C25.6104 26.1114 25.5749 26.0667 25.5489 26.0164C25.5228 25.966 25.5068 25.9109 25.5018 25.8542C25.4967 25.7975 25.5026 25.7403 25.5193 25.686C25.7226 24.9753 26.1488 24.3523 26.7324 23.9124C27.316 23.4725 28.025 23.2399 28.7506 23.2503V23.2503C29.4754 23.2435 30.1826 23.4775 30.7655 23.9169C31.3485 24.3563 31.7754 24.9772 31.9819 25.686C32.0144 25.7962 32.0028 25.9151 31.9497 26.0167C31.8965 26.1182 31.8061 26.1942 31.6983 26.228C31.645 26.2455 31.5889 26.252 31.5331 26.247C31.4774 26.2421 31.4232 26.2258 31.3737 26.1992C31.3242 26.1726 31.2804 26.1362 31.2449 26.0921C31.2094 26.048 31.1829 25.997 31.1669 25.9423C31.0112 25.4095 30.6899 24.9427 30.2515 24.6124C29.8131 24.2821 29.2813 24.1061 28.7362 24.111C28.1937 24.1093 27.6651 24.2868 27.2296 24.6168C26.7941 24.9469 26.4749 25.4119 26.3199 25.9423C26.2933 26.0289 26.241 26.105 26.1703 26.1601C26.0996 26.2152 26.0139 26.2466 25.925 26.25V26.25Z" fill="black"/>
<path d="M10.6782 26.25C10.6353 26.2504 10.5928 26.2429 10.5525 26.228C10.4989 26.2117 10.4489 26.1847 10.4055 26.1485C10.3622 26.1123 10.3263 26.0678 10.2999 26.0174C10.2735 25.9669 10.2572 25.9117 10.2519 25.8548C10.2466 25.7979 10.2524 25.7405 10.269 25.6859C10.4733 24.9759 10.8996 24.3536 11.4828 23.9138C12.0661 23.4741 12.7743 23.2411 13.4994 23.2503V23.2503C14.2242 23.2423 14.9318 23.4758 15.5148 23.9153C16.0978 24.3549 16.5244 24.9766 16.7298 25.6859C16.7469 25.7403 16.7533 25.7975 16.7484 25.8544C16.7436 25.9113 16.7276 25.9666 16.7016 26.0171C16.6755 26.0676 16.6398 26.1122 16.5965 26.1485C16.5533 26.1847 16.5034 26.2117 16.4498 26.228C16.3418 26.2624 16.2248 26.2517 16.1245 26.1981C16.0242 26.1445 15.9489 26.0525 15.915 25.9423C15.7595 25.4101 15.4389 24.9438 15.0013 24.6135C14.5637 24.2832 14.0329 24.1069 13.4886 24.111V24.111C12.9456 24.1085 12.4164 24.2856 11.9802 24.6157C11.5441 24.9458 11.2245 25.4113 11.0694 25.9423C11.0434 26.0286 10.9919 26.1046 10.9218 26.1597C10.8517 26.2148 10.7666 26.2464 10.6782 26.25V26.25Z" fill="black"/>
</g>
<circle cx="42.75" cy="13.5" r="13.5" fill="white"/>
<path d="M53.7619 13.3511C53.7619 14.8168 53.4732 16.2681 52.9123 17.6222C52.3514 18.9762 51.5293 20.2066 50.493 21.243C49.4566 22.2793 48.2262 23.1014 46.8722 23.6623C45.5181 24.2232 44.0668 24.5119 42.6011 24.5119C39.6411 24.5119 36.8024 23.336 34.7093 21.243C32.6163 19.1499 31.4404 16.3111 31.4404 13.3511C31.4404 10.3911 32.6163 7.55237 34.7093 5.45933C36.8024 3.36629 39.6411 2.19043 42.6011 2.19043C44.0668 2.19043 45.5181 2.47911 46.8722 3.03999C48.2262 3.60087 49.4566 4.42296 50.493 5.45933C51.5293 6.4957 52.3514 7.72604 52.9123 9.08012C53.4732 10.4342 53.7619 11.8855 53.7619 13.3511ZM37.0157 12.9754L36.2541 13.3664C35.7564 13.6236 35.511 14.0316 35.5178 14.5901C35.5212 14.7695 35.5855 14.9168 35.7107 15.0319C36.1271 15.4144 36.5892 15.4787 37.097 15.2248L40.0725 13.7269C40.2367 13.6435 40.3746 13.5161 40.4707 13.3589C40.5669 13.2017 40.6175 13.021 40.617 12.8367C40.6164 12.6525 40.5648 12.472 40.4677 12.3154C40.3707 12.1588 40.2321 12.0322 40.0674 11.9497L36.7974 10.335C36.6903 10.2818 36.573 10.2524 36.4535 10.2489C36.3339 10.2454 36.2151 10.2678 36.1051 10.3146C35.995 10.3614 35.8965 10.4315 35.8161 10.5201C35.7358 10.6086 35.6756 10.7135 35.6397 10.8275L35.5432 11.1271C35.3875 11.6214 35.5415 11.9819 36.0053 12.2087L37.0106 12.7063C37.1867 12.7943 37.1883 12.884 37.0157 12.9754ZM48.1917 12.7114L49.0549 12.2899C49.6236 12.0123 49.8267 11.5672 49.6642 10.9545C49.5762 10.6363 49.2766 10.4247 48.7654 10.3198C48.5974 10.2868 48.4242 10.3101 48.2729 10.3858L45.1298 11.9599C44.964 12.042 44.8245 12.1689 44.7272 12.3262C44.6298 12.4835 44.5785 12.665 44.579 12.85C44.5795 13.0351 44.6319 13.2162 44.7302 13.373C44.8284 13.5298 44.9686 13.6559 45.1349 13.737L48.3998 15.3517C48.9211 15.609 49.2952 15.4702 49.522 14.9354L49.6286 14.6866C49.869 14.1179 49.7099 13.7032 49.1513 13.4425L48.1917 12.9906C47.9953 12.8992 47.9953 12.8061 48.1917 12.7114ZM42.3777 18.6573L40.2959 16.2353C40.2049 16.1286 40.0919 16.0431 39.9645 15.9846C39.8372 15.926 39.6986 15.896 39.5584 15.8965C39.4183 15.897 39.2799 15.928 39.153 15.9874C39.026 16.0467 38.9136 16.1331 38.8234 16.2403L37.6352 17.6519C37.4862 17.8246 37.3221 17.8398 37.1427 17.6976C36.0713 16.8446 35.0557 18.1241 35.7057 19.0381C36.2574 19.8235 36.882 20.3042 37.5793 20.4802C37.6734 20.5046 37.7727 20.5013 37.8654 20.4707C37.9581 20.4401 38.0403 20.3835 38.1023 20.3075L39.4631 18.6624C39.5512 18.5541 39.6426 18.5524 39.7373 18.6573L41.8953 21.1758C41.9835 21.2786 42.0927 21.3612 42.2155 21.4181C42.3383 21.4749 42.4718 21.5046 42.6068 21.505C42.7419 21.5055 42.8752 21.4768 42.9978 21.4209C43.1204 21.3649 43.2293 21.2831 43.3171 21.1809L45.3989 18.769C45.5648 18.5761 45.7239 18.5794 45.8762 18.7792C46.1572 19.1448 46.4365 19.5137 46.7141 19.8861C47.7296 21.2571 48.9025 19.8353 49.522 18.9975C49.6002 18.8925 49.6565 18.7729 49.6876 18.6458C49.7188 18.5188 49.7241 18.3869 49.7032 18.258C49.6824 18.1291 49.6358 18.0059 49.5663 17.8956C49.4968 17.7854 49.4057 17.6904 49.2986 17.6164C48.8585 17.3117 48.4201 17.3422 47.9835 17.7078C47.8244 17.8432 47.6788 17.8296 47.5468 17.6672L46.4551 16.3063C46.3589 16.1867 46.2376 16.0896 46.0998 16.0219C45.9621 15.9542 45.8113 15.9176 45.6581 15.9147C45.505 15.9118 45.3532 15.9427 45.2137 16.0051C45.0741 16.0675 44.9501 16.16 44.8506 16.2759L42.8043 18.6573C42.6621 18.8232 42.5199 18.8232 42.3777 18.6573Z" fill="#F54334"/>
<path d="M37.0105 12.7063L36.0052 12.2086C35.5414 11.9818 35.3874 11.6213 35.5431 11.1271L35.6396 10.8275C35.6755 10.7135 35.7357 10.6086 35.816 10.52C35.8964 10.4315 35.9949 10.3614 36.105 10.3146C36.215 10.2678 36.3338 10.2454 36.4534 10.2489C36.5729 10.2524 36.6902 10.2818 36.7973 10.335L40.0673 11.9497C40.232 12.0322 40.3706 12.1588 40.4677 12.3154C40.5647 12.472 40.6163 12.6525 40.6169 12.8367C40.6174 13.021 40.5668 13.2017 40.4706 13.3589C40.3745 13.516 40.2366 13.6434 40.0724 13.7269L37.0969 15.2248C36.5891 15.4787 36.127 15.4143 35.7107 15.0318C35.5854 14.9167 35.5211 14.7695 35.5177 14.5901C35.5109 14.0315 35.7564 13.6236 36.254 13.3664L37.0156 12.9754C37.1883 12.884 37.1866 12.7943 37.0105 12.7063Z" fill="#020202"/>
<path d="M48.1918 12.9906L49.1514 13.4425C49.71 13.7032 49.8691 14.1179 49.6287 14.6866L49.5221 14.9354C49.2953 15.4702 48.9212 15.609 48.3999 15.3517L45.135 13.737C44.9687 13.6559 44.8285 13.5298 44.7302 13.373C44.632 13.2162 44.5796 13.035 44.5791 12.85C44.5786 12.665 44.6299 12.4835 44.7273 12.3262C44.8246 12.1689 44.9641 12.0419 45.1299 11.9598L48.273 10.3858C48.4243 10.31 48.5975 10.2868 48.7655 10.3198C49.2767 10.4247 49.5763 10.6363 49.6643 10.9545C49.8268 11.5672 49.6237 12.0123 49.055 12.2899L48.1918 12.7113C47.9954 12.8061 47.9954 12.8992 48.1918 12.9906Z" fill="#020202"/>
<path d="M42.8043 18.6573L44.8506 16.2759C44.9502 16.16 45.0742 16.0675 45.2137 16.0051C45.3533 15.9427 45.5051 15.9118 45.6582 15.9147C45.8114 15.9176 45.9622 15.9542 46.0999 16.0219C46.2376 16.0896 46.3589 16.1867 46.4552 16.3064L47.5469 17.6672C47.6789 17.8297 47.8245 17.8432 47.9836 17.7078C48.4202 17.3422 48.8586 17.3117 49.2987 17.6164C49.4058 17.6904 49.4968 17.7854 49.5664 17.8956C49.6359 18.0059 49.6825 18.1291 49.7033 18.258C49.7242 18.3869 49.7189 18.5188 49.6877 18.6459C49.6566 18.7729 49.6003 18.8925 49.5221 18.9975C48.9026 19.8353 47.7297 21.2571 46.7141 19.8861C46.4366 19.5138 46.1573 19.1448 45.8763 18.7792C45.724 18.5795 45.5649 18.5761 45.399 18.769L43.3172 21.1809C43.2294 21.2831 43.1205 21.3649 42.9979 21.4209C42.8753 21.4768 42.7419 21.5055 42.6069 21.5051C42.4719 21.5046 42.3384 21.4749 42.2156 21.4181C42.0928 21.3613 41.9836 21.2786 41.8954 21.1758L39.7374 18.6573C39.6426 18.5524 39.5512 18.5541 39.4632 18.6624L38.1024 20.3076C38.0404 20.3835 37.9581 20.4401 37.8654 20.4707C37.7727 20.5013 37.6735 20.5046 37.5794 20.4802C36.8821 20.3042 36.2575 19.8235 35.7058 19.0381C35.0558 18.1242 36.0713 16.8446 37.1427 17.6976C37.3221 17.8398 37.4863 17.8246 37.6353 17.6519L38.8234 16.2404C38.9136 16.1331 39.0261 16.0468 39.1531 15.9874C39.28 15.928 39.4184 15.897 39.5585 15.8965C39.6987 15.896 39.8372 15.9261 39.9646 15.9846C40.092 16.0431 40.205 16.1286 40.296 16.2353L42.3778 18.6573C42.52 18.8232 42.6622 18.8232 42.8043 18.6573Z" fill="#020202"/>
<defs>
<filter id="filter0_i_115_8722" x="5.25" y="12" width="32" height="32" filterUnits="userSpaceOnUse" color-interpolation-filters="sRGB">
<feFlood flood-opacity="0" result="BackgroundImageFix"/>
<feBlend mode="normal" in="SourceGraphic" in2="BackgroundImageFix" result="shape"/>
<feColorMatrix in="SourceAlpha" type="matrix" values="0 0 0 0 0 0 0 0 0 0 0 0 0 0 0 0 0 0 127 0" result="hardAlpha"/>
<feOffset dx="-6" dy="-6"/>
<feComposite in2="hardAlpha" operator="arithmetic" k2="-1" k3="1"/>
<feColorMatrix type="matrix" values="0 0 0 0 0 0 0 0 0 0 0 0 0 0 0 0 0 0 0.04 0"/>
<feBlend mode="normal" in2="shape" result="effect1_innerShadow_115_8722"/>
</filter>
<filter id="filter1_f_115_8722" x="0" y="18.5" width="26.75" height="24" filterUnits="userSpaceOnUse" color-interpolation-filters="sRGB">
<feFlood flood-opacity="0" result="BackgroundImageFix"/>
<feBlend mode="normal" in="SourceGraphic" in2="BackgroundImageFix" result="shape"/>
<feGaussianBlur stdDeviation="5" result="effect1_foregroundBlur_115_8722"/>
</filter>
<filter id="filter2_f_115_8722" x="15.5" y="18.5" width="26.75" height="24" filterUnits="userSpaceOnUse" color-interpolation-filters="sRGB">
<feFlood flood-opacity="0" result="BackgroundImageFix"/>
<feBlend mode="normal" in="SourceGraphic" in2="BackgroundImageFix" result="shape"/>
<feGaussianBlur stdDeviation="5" result="effect1_foregroundBlur_115_8722"/>
</filter>
<clipPath id="clip0_115_8722">
<rect width="21.865" height="7.49123" fill="white" transform="translate(10.25 21.5)"/>
</clipPath>
</defs>
</svg>
