<svg width="142" height="142" viewBox="0 0 142 142" fill="none" xmlns="http://www.w3.org/2000/svg">
<g filter="url(#filter0_i_56_2542)">
<g filter="url(#filter1_i_56_2542)">
<path d="M142 33.5515V108.4C142.004 112.811 141.139 117.179 139.454 121.256C137.769 125.332 135.297 129.036 132.18 132.157C129.062 135.277 125.36 137.753 121.286 139.442C117.211 141.131 112.843 142 108.432 142H33.5841C24.6812 141.996 16.1439 138.458 9.84706 132.164C3.55023 125.871 0.00863741 117.335 1.57874e-05 108.432V33.5841C-0.00426228 29.1739 0.860955 24.8062 2.54618 20.7307C4.2314 16.6552 6.70356 12.952 9.82126 9.83276C12.939 6.71355 16.641 4.23959 20.7157 2.5524C24.7903 0.865198 29.1576 -0.0021369 33.5678 3.95355e-06H108.416C112.824 -0.00213335 117.19 0.864007 121.263 2.54897C125.336 4.23394 129.038 6.70473 132.157 9.82027C135.275 12.9358 137.75 16.6351 139.439 20.7069C141.127 24.7787 141.998 29.1433 142 33.5515Z" fill="#FF73D5"/>
</g>
<g filter="url(#filter2_f_56_2542)" style="mix-blend-mode:soft-light">
<path d="M42.0325 73.2188H30.0768C25.107 73.2188 21.0781 77.1922 21.0781 82.0938C21.0781 86.9953 25.107 90.9688 30.0768 90.9688H42.0325C47.0024 90.9688 51.0312 86.9953 51.0312 82.0938C51.0312 77.1922 47.0024 73.2188 42.0325 73.2188Z" fill="#C140A3"/>
</g>
<g filter="url(#filter3_f_56_2542)" style="mix-blend-mode:soft-light">
<path d="M110.831 73.2188H98.8405C93.8804 73.2188 89.8594 77.1887 89.8594 82.0858V82.1017C89.8594 86.9988 93.8804 90.9688 98.8405 90.9688H110.831C115.792 90.9688 119.812 86.9988 119.812 82.1017V82.0858C119.812 77.1887 115.792 73.2188 110.831 73.2188Z" fill="#C140A3"/>
</g>
<path d="M68.8806 113.316C68.528 113.316 68.1898 113.166 67.9405 112.899C67.6911 112.632 67.551 112.27 67.551 111.893C67.551 111.515 67.6911 111.153 67.9405 110.887C68.1898 110.62 68.528 110.47 68.8806 110.47C72.7575 110.47 75.0388 109.062 75.1508 106.62C75.2627 103.819 72.5615 100.404 68.7547 100.015C68.4181 99.9733 68.1094 99.7944 67.893 99.5153C67.6766 99.2363 67.5692 98.8787 67.593 98.517C67.6142 98.165 67.7507 97.8323 67.9785 97.5775C68.2064 97.3227 68.511 97.1621 68.8386 97.124C72.6035 96.8694 75.1228 93.7838 75.0528 91.1326C75.0528 88.7661 72.6875 87.3581 68.9226 87.3581C68.6426 87.2596 68.3988 87.069 68.226 86.8135C68.0531 86.558 67.9601 86.2506 67.9601 85.9351C67.9601 85.6197 68.0531 85.3123 68.226 85.0568C68.3988 84.8013 68.6426 84.6107 68.9226 84.5122C75.2627 84.5122 77.614 87.8823 77.712 91.0428C77.6616 92.5968 77.227 94.1088 76.4525 95.4244C75.678 96.7401 74.5913 97.8124 73.3033 98.532C74.6509 99.3381 75.7783 100.507 76.5737 101.923C77.3691 103.339 77.8049 104.953 77.838 106.605C77.67 109.931 75.2487 113.316 68.8806 113.316Z" fill="black"/>
<path fill-rule="evenodd" clip-rule="evenodd" d="M138.326 86.8439C138.237 87.354 138.113 87.8572 137.956 88.3497C134.997 99.0558 121.178 105.109 113.469 108.828C107.211 102.323 95.5668 91.0751 97.6234 79.3902C97.8833 77.8412 98.436 76.3582 99.2509 75.0234C103.334 68.2474 113.38 67.374 119.225 76.0173C129.182 68.8648 140.175 76.3636 138.326 86.8439Z" fill="#CE0F0F"/>
<path opacity="0.2" fill-rule="evenodd" clip-rule="evenodd" d="M138.325 86.844C138.237 87.3541 138.113 87.8573 137.955 88.3498C133.31 96.9177 121.681 102.037 114.904 105.32C108.572 98.8903 96.987 87.7023 99.0436 75.9571C99.0436 75.656 99.1619 75.3699 99.2359 75.0838C103.319 68.3077 113.366 67.4344 119.21 76.0776C129.182 68.8649 140.175 76.3637 138.325 86.844Z" fill="white"/>
<path opacity="0.4" fill-rule="evenodd" clip-rule="evenodd" d="M136.55 85.3231C135.988 80.8057 126.77 75.0988 122.953 76.198C130.38 74.0447 135.574 77.6285 136.55 85.3231Z" fill="white"/>
<g clip-path="url(#clip0_56_2542)">
<path d="M81.5884 65.7803C81.4274 65.7786 81.2677 65.7506 81.1154 65.6976C80.9146 65.6347 80.7279 65.5319 80.5661 65.3952C80.4043 65.2585 80.2706 65.0905 80.1727 64.901C80.0747 64.7114 80.0145 64.5039 79.9954 64.2905C79.9763 64.0771 79.9987 63.8619 80.0614 63.6574C80.8267 60.9827 82.4306 58.6378 84.6273 56.982C86.824 55.3263 89.4923 54.4509 92.2234 54.4902C94.9512 54.4646 97.6132 55.3452 99.8072 56.999C102.001 58.6527 103.608 60.9898 104.385 63.6574C104.508 64.0723 104.464 64.5198 104.264 64.902C104.064 65.2843 103.724 65.5703 103.318 65.6976C103.117 65.7634 102.906 65.7878 102.696 65.7691C102.486 65.7505 102.282 65.6893 102.096 65.5892C101.91 65.489 101.745 65.3519 101.611 65.1859C101.478 65.0198 101.378 64.8282 101.318 64.6223C100.732 62.6169 99.5226 60.8601 97.8724 59.6168C96.2223 58.3736 94.2206 57.7113 92.1693 57.7297C90.1272 57.7232 88.1379 58.3911 86.4986 59.6334C84.8594 60.8758 83.6583 62.626 83.0748 64.6223C82.9746 64.9483 82.7779 65.2346 82.5117 65.442C82.2456 65.6493 81.923 65.7675 81.5884 65.7803Z" fill="black"/>
<path d="M24.2023 65.7802C24.0411 65.7817 23.881 65.7537 23.7295 65.6975C23.5275 65.6361 23.3394 65.5344 23.1762 65.3983C23.013 65.2622 22.8779 65.0944 22.7786 64.9047C22.6794 64.7149 22.618 64.507 22.598 64.2929C22.578 64.0787 22.5998 63.8627 22.6622 63.6573C23.4313 60.9849 25.0358 58.6426 27.231 56.9875C29.4262 55.3324 32.0916 54.4552 34.8208 54.4899C37.549 54.4598 40.2123 55.3387 42.4066 56.9931C44.6009 58.6476 46.2064 60.9873 46.9794 63.6573C47.0439 63.8618 47.0678 64.0774 47.0495 64.2914C47.0313 64.5054 46.9713 64.7136 46.8732 64.9036C46.775 65.0937 46.6406 65.2618 46.4779 65.3981C46.3152 65.5345 46.1275 65.6363 45.9257 65.6975C45.519 65.827 45.0786 65.7865 44.7012 65.5849C44.3238 65.3833 44.0402 65.0371 43.9128 64.6223C43.3275 62.619 42.1206 60.8639 40.4737 59.6208C38.8267 58.3778 36.8287 57.714 34.7803 57.7295C32.7364 57.72 30.7446 58.3865 29.1031 59.6291C27.4616 60.8717 26.2588 62.6236 25.6749 64.6223C25.5772 64.9471 25.383 65.233 25.1192 65.4405C24.8555 65.6479 24.5351 65.7666 24.2023 65.7802Z" fill="black"/>
</g>
</g>
<defs>
<filter id="filter0_i_56_2542" x="0" y="0" width="142" height="146" filterUnits="userSpaceOnUse" color-interpolation-filters="sRGB">
<feFlood flood-opacity="0" result="BackgroundImageFix"/>
<feBlend mode="normal" in="SourceGraphic" in2="BackgroundImageFix" result="shape"/>
<feColorMatrix in="SourceAlpha" type="matrix" values="0 0 0 0 0 0 0 0 0 0 0 0 0 0 0 0 0 0 127 0" result="hardAlpha"/>
<feOffset dy="4"/>
<feGaussianBlur stdDeviation="2"/>
<feComposite in2="hardAlpha" operator="arithmetic" k2="-1" k3="1"/>
<feColorMatrix type="matrix" values="0 0 0 0 0 0 0 0 0 0 0 0 0 0 0 0 0 0 0.25 0"/>
<feBlend mode="normal" in2="shape" result="effect1_innerShadow_56_2542"/>
</filter>
<filter id="filter1_i_56_2542" x="0" y="0" width="142" height="142" filterUnits="userSpaceOnUse" color-interpolation-filters="sRGB">
<feFlood flood-opacity="0" result="BackgroundImageFix"/>
<feBlend mode="normal" in="SourceGraphic" in2="BackgroundImageFix" result="shape"/>
<feColorMatrix in="SourceAlpha" type="matrix" values="0 0 0 0 0 0 0 0 0 0 0 0 0 0 0 0 0 0 127 0" result="hardAlpha"/>
<feOffset dx="-6" dy="-6"/>
<feComposite in2="hardAlpha" operator="arithmetic" k2="-1" k3="1"/>
<feColorMatrix type="matrix" values="0 0 0 0 0 0 0 0 0 0 0 0 0 0 0 0 0 0 0.04 0"/>
<feBlend mode="normal" in2="shape" result="effect1_innerShadow_56_2542"/>
</filter>
<filter id="filter2_f_56_2542" x="11.0781" y="63.2188" width="49.9531" height="37.75" filterUnits="userSpaceOnUse" color-interpolation-filters="sRGB">
<feFlood flood-opacity="0" result="BackgroundImageFix"/>
<feBlend mode="normal" in="SourceGraphic" in2="BackgroundImageFix" result="shape"/>
<feGaussianBlur stdDeviation="5" result="effect1_foregroundBlur_56_2542"/>
</filter>
<filter id="filter3_f_56_2542" x="79.8594" y="63.2188" width="49.9531" height="37.75" filterUnits="userSpaceOnUse" color-interpolation-filters="sRGB">
<feFlood flood-opacity="0" result="BackgroundImageFix"/>
<feBlend mode="normal" in="SourceGraphic" in2="BackgroundImageFix" result="shape"/>
<feGaussianBlur stdDeviation="5" result="effect1_foregroundBlur_56_2542"/>
</filter>
<clipPath id="clip0_56_2542">
<rect width="82.2955" height="28.1955" fill="white" transform="translate(22.5908 47.9023)"/>
</clipPath>
</defs>
</svg>
