<svg width="57" height="44" viewBox="0 0 57 44" fill="none" xmlns="http://www.w3.org/2000/svg">
<g filter="url(#filter0_i_115_8710)">
<path d="M37.25 19.5609V36.4281C37.251 37.4221 37.056 38.4066 36.6763 39.3252C36.2966 40.2438 35.7395 41.0786 35.037 41.7818C34.3344 42.485 33.5002 43.0429 32.582 43.4235C31.6637 43.8041 30.6794 44 29.6854 44H12.8182C10.812 43.999 8.88806 43.2019 7.46906 41.7835C6.05005 40.3652 5.25195 38.4417 5.25 36.4354V19.5682C5.24904 18.5744 5.44402 17.5901 5.82379 16.6717C6.20356 15.7533 6.76066 14.9188 7.46324 14.2158C8.16582 13.5129 9.00009 12.9554 9.91832 12.5752C10.8366 12.195 11.8207 11.9995 12.8146 12H29.6818C30.6752 11.9995 31.6589 12.1947 32.5769 12.5744C33.4948 12.9541 34.329 13.5109 35.0318 14.213C35.7346 14.9151 36.2922 15.7488 36.6728 16.6663C37.0534 17.5839 37.2495 18.5675 37.25 19.5609V19.5609Z" fill="#FF73D5"/>
</g>
<g filter="url(#filter1_f_115_8710)" style="mix-blend-mode:soft-light">
<path d="M14.7221 28.5H12.0279C10.9079 28.5 10 29.3954 10 30.5C10 31.6046 10.9079 32.5 12.0279 32.5H14.7221C15.8421 32.5 16.75 31.6046 16.75 30.5C16.75 29.3954 15.8421 28.5 14.7221 28.5Z" fill="#C140A3"/>
</g>
<g filter="url(#filter2_f_115_8710)" style="mix-blend-mode:soft-light">
<path d="M30.2261 28.5H27.5239C26.4061 28.5 25.5 29.3946 25.5 30.4982V30.5018C25.5 31.6054 26.4061 32.5 27.5239 32.5H30.2261C31.3439 32.5 32.25 31.6054 32.25 30.5018V30.4982C32.25 29.3946 31.3439 28.5 30.2261 28.5Z" fill="#C140A3"/>
</g>
<path d="M21.3231 38.75C21.2374 38.75 21.1552 38.7136 21.0946 38.6487C21.034 38.5839 21 38.4959 21 38.4042C21 38.3125 21.034 38.2245 21.0946 38.1597C21.1552 38.0948 21.2374 38.0584 21.3231 38.0584C22.2653 38.0584 22.8197 37.7162 22.8469 37.1229C22.8741 36.4421 22.2177 35.6122 21.2925 35.5176C21.2107 35.5075 21.1357 35.464 21.0831 35.3962C21.0305 35.3284 21.0044 35.2414 21.0102 35.1535C21.0153 35.068 21.0485 34.9871 21.1039 34.9252C21.1593 34.8633 21.2333 34.8243 21.3129 34.815C22.2279 34.7531 22.8401 34.0033 22.8231 33.3589C22.8231 32.7838 22.2483 32.4416 21.3333 32.4416C21.2653 32.4177 21.206 32.3714 21.164 32.3093C21.122 32.2472 21.0994 32.1725 21.0994 32.0958C21.0994 32.0192 21.122 31.9444 21.164 31.8824C21.206 31.8203 21.2653 31.7739 21.3333 31.75C22.8741 31.75 23.4456 32.569 23.4694 33.3371C23.4571 33.7148 23.3515 34.0822 23.1633 34.402C22.9751 34.7217 22.711 34.9823 22.398 35.1572C22.7255 35.3531 22.9995 35.6372 23.1928 35.9814C23.3861 36.3255 23.492 36.7178 23.5 37.1192C23.4592 37.9273 22.8707 38.75 21.3231 38.75Z" fill="black"/>
<path fill-rule="evenodd" clip-rule="evenodd" d="M38.2001 32.3168C38.1786 32.4408 38.1486 32.5631 38.1102 32.6828C37.3911 35.2847 34.0327 36.7558 32.1594 37.6597C30.6384 36.0788 27.8086 33.3452 28.3084 30.5054C28.3716 30.129 28.5059 29.7686 28.7039 29.4442C29.6963 27.7974 32.1378 27.5852 33.5581 29.6857C35.978 27.9474 38.6496 29.7699 38.2001 32.3168Z" fill="#CE0F0F"/>
<path opacity="0.2" fill-rule="evenodd" clip-rule="evenodd" d="M38.2001 32.3169C38.1786 32.4408 38.1486 32.5631 38.1103 32.6828C36.9812 34.765 34.155 36.0093 32.5082 36.807C30.9692 35.2444 28.1538 32.5254 28.6536 29.6711C28.6536 29.5979 28.6824 29.5283 28.7004 29.4588C29.6928 27.8121 32.1342 27.5998 33.5545 29.7003C35.978 27.9475 38.6496 29.7699 38.2001 32.3169Z" fill="white"/>
<path opacity="0.4" fill-rule="evenodd" clip-rule="evenodd" d="M37.7685 31.9473C37.6319 30.8494 35.3918 29.4625 34.4641 29.7296C36.2691 29.2063 37.5312 30.0773 37.7685 31.9473Z" fill="white"/>
<g clip-path="url(#clip0_115_8710)">
<path d="M25.925 26.25C25.8822 26.2495 25.8398 26.2421 25.7993 26.228C25.746 26.2113 25.6964 26.184 25.6534 26.1477C25.6104 26.1114 25.5749 26.0667 25.5489 26.0164C25.5228 25.966 25.5068 25.9109 25.5018 25.8542C25.4967 25.7975 25.5026 25.7403 25.5193 25.686C25.7226 24.9753 26.1488 24.3523 26.7324 23.9124C27.316 23.4725 28.025 23.2399 28.7506 23.2503V23.2503C29.4754 23.2435 30.1826 23.4775 30.7655 23.9169C31.3485 24.3563 31.7754 24.9772 31.9819 25.686C32.0144 25.7962 32.0028 25.9151 31.9497 26.0167C31.8965 26.1182 31.8061 26.1942 31.6983 26.228C31.645 26.2455 31.5889 26.252 31.5331 26.247C31.4774 26.2421 31.4232 26.2258 31.3737 26.1992C31.3242 26.1726 31.2804 26.1362 31.2449 26.0921C31.2094 26.048 31.1829 25.997 31.1669 25.9423C31.0112 25.4095 30.6899 24.9427 30.2515 24.6124C29.8131 24.2821 29.2813 24.1061 28.7362 24.111C28.1937 24.1093 27.6651 24.2868 27.2296 24.6168C26.7941 24.9469 26.4749 25.4119 26.3199 25.9423C26.2933 26.0289 26.241 26.105 26.1703 26.1601C26.0996 26.2152 26.0139 26.2466 25.925 26.25V26.25Z" fill="black"/>
<path d="M10.6782 26.25C10.6353 26.2504 10.5928 26.2429 10.5525 26.228C10.4989 26.2117 10.4489 26.1847 10.4055 26.1485C10.3622 26.1123 10.3263 26.0678 10.2999 26.0174C10.2735 25.9669 10.2572 25.9117 10.2519 25.8548C10.2466 25.7979 10.2524 25.7405 10.269 25.6859C10.4733 24.9759 10.8996 24.3536 11.4828 23.9138C12.0661 23.4741 12.7743 23.2411 13.4994 23.2503V23.2503C14.2242 23.2423 14.9318 23.4758 15.5148 23.9153C16.0978 24.3549 16.5244 24.9766 16.7298 25.6859C16.7469 25.7403 16.7533 25.7975 16.7484 25.8544C16.7436 25.9113 16.7276 25.9666 16.7016 26.0171C16.6755 26.0676 16.6398 26.1122 16.5965 26.1485C16.5533 26.1847 16.5034 26.2117 16.4498 26.228C16.3418 26.2624 16.2248 26.2517 16.1245 26.1981C16.0242 26.1445 15.9489 26.0525 15.915 25.9423C15.7595 25.4101 15.4389 24.9438 15.0013 24.6135C14.5637 24.2832 14.0329 24.1069 13.4886 24.111V24.111C12.9456 24.1085 12.4164 24.2856 11.9802 24.6157C11.5441 24.9458 11.2245 25.4113 11.0694 25.9423C11.0434 26.0286 10.9919 26.1046 10.9218 26.1597C10.8517 26.2148 10.7666 26.2464 10.6782 26.25V26.25Z" fill="black"/>
</g>
<circle cx="42.75" cy="13.5" r="13.5" fill="white"/>
<path d="M53.9108 13.398C53.9108 14.8637 53.6221 16.315 53.0612 17.6691C52.5004 19.0231 51.6783 20.2535 50.6419 21.2899C49.6055 22.3262 48.3752 23.1483 47.0211 23.7092C45.667 24.2701 44.2157 24.5588 42.7501 24.5588C39.7901 24.5588 36.9513 23.3829 34.8582 21.2899C32.7652 19.1968 31.5894 16.358 31.5894 13.398C31.5894 10.438 32.7652 7.59925 34.8582 5.50621C36.9513 3.41316 39.7901 2.2373 42.7501 2.2373C45.7101 2.2373 48.5489 3.41316 50.6419 5.50621C52.735 7.59925 53.9108 10.438 53.9108 13.398ZM37.1868 14.4236C37.3869 14.4219 37.5844 14.3544 37.7681 14.2249C37.9518 14.0955 38.118 13.9066 38.2574 13.6692C38.3968 13.4317 38.5066 13.1503 38.5804 12.841C38.6543 12.5317 38.6908 12.2006 38.6879 11.8665C38.682 11.1918 38.5159 10.5462 38.226 10.0717C37.9362 9.59709 37.5464 9.33247 37.1424 9.33599C36.9424 9.33773 36.7449 9.40526 36.5612 9.53471C36.3775 9.66416 36.2112 9.853 36.0718 10.0905C35.9324 10.3279 35.8227 10.6093 35.7488 10.9186C35.675 11.2279 35.6385 11.559 35.6414 11.8931C35.6473 12.5678 35.8134 13.2134 36.1032 13.688C36.3931 14.1625 36.7828 14.4271 37.1868 14.4236ZM48.3577 14.4236C48.5577 14.4219 48.7553 14.3544 48.9389 14.2249C49.1226 14.0955 49.2889 13.9066 49.4283 13.6692C49.5677 13.4317 49.6774 13.1503 49.7513 12.841C49.8252 12.5317 49.8617 12.2006 49.8588 11.8665C49.8529 11.1918 49.6867 10.5462 49.3969 10.0717C49.1071 9.59709 48.7173 9.33247 48.3133 9.33599C48.1133 9.33773 47.9158 9.40526 47.7321 9.53471C47.5484 9.66416 47.3821 9.853 47.2427 10.0905C47.1033 10.3279 46.9936 10.6093 46.9197 10.9186C46.8459 11.2279 46.8094 11.559 46.8123 11.8931C46.8182 12.5678 46.9843 13.2134 47.2741 13.688C47.5639 14.1625 47.9537 14.4271 48.3577 14.4236ZM47.4165 17.7445C48.2492 16.2009 47.7888 15.4291 46.0353 15.4291H38.8352C38.652 15.4289 38.4715 15.4721 38.3082 15.5553C38.145 15.6385 38.0036 15.7592 37.8958 15.9077C37.7879 16.0562 37.7164 16.2282 37.6873 16.4097C37.6582 16.5913 37.6722 16.7772 37.7282 16.9524C38.4797 19.2881 40.7495 20.6337 43.1867 20.4814C44.1887 20.4204 45.0892 20.087 45.8881 19.4811C46.5516 18.9801 47.061 18.4012 47.4165 17.7445Z" fill="#4AAF57"/>
<path d="M35.6412 11.8932C35.6535 13.2981 36.3454 14.431 37.1867 14.4237C38.0279 14.4163 38.7 13.2715 38.6877 11.8666C38.6755 10.4617 37.9835 9.32871 37.1423 9.33605C36.301 9.34339 35.629 10.4882 35.6412 11.8932Z" fill="#020202"/>
<path d="M46.8121 11.8932C46.8244 13.2981 47.5163 14.431 48.3576 14.4237C49.1988 14.4163 49.8709 13.2715 49.8586 11.8666C49.8464 10.4617 49.1544 9.32871 48.3132 9.33605C47.4719 9.34339 46.7999 10.4882 46.8121 11.8932Z" fill="#020202"/>
<path d="M47.4163 17.7446C47.0608 18.4013 46.5514 18.9802 45.8879 19.4812C45.089 20.0871 44.1885 20.4206 43.1865 20.4815C40.7493 20.6338 38.4795 19.2882 37.7281 16.9525C37.6721 16.7773 37.658 16.5914 37.6871 16.4098C37.7162 16.2283 37.7877 16.0563 37.8956 15.9078C38.0035 15.7593 38.1448 15.6386 38.308 15.5554C38.4713 15.4722 38.6518 15.429 38.835 15.4292H46.0351C47.7886 15.4292 48.249 16.201 47.4163 17.7446Z" fill="#020202"/>
<defs>
<filter id="filter0_i_115_8710" x="5.25" y="12" width="32" height="32" filterUnits="userSpaceOnUse" color-interpolation-filters="sRGB">
<feFlood flood-opacity="0" result="BackgroundImageFix"/>
<feBlend mode="normal" in="SourceGraphic" in2="BackgroundImageFix" result="shape"/>
<feColorMatrix in="SourceAlpha" type="matrix" values="0 0 0 0 0 0 0 0 0 0 0 0 0 0 0 0 0 0 127 0" result="hardAlpha"/>
<feOffset dx="-6" dy="-6"/>
<feComposite in2="hardAlpha" operator="arithmetic" k2="-1" k3="1"/>
<feColorMatrix type="matrix" values="0 0 0 0 0 0 0 0 0 0 0 0 0 0 0 0 0 0 0.04 0"/>
<feBlend mode="normal" in2="shape" result="effect1_innerShadow_115_8710"/>
</filter>
<filter id="filter1_f_115_8710" x="0" y="18.5" width="26.75" height="24" filterUnits="userSpaceOnUse" color-interpolation-filters="sRGB">
<feFlood flood-opacity="0" result="BackgroundImageFix"/>
<feBlend mode="normal" in="SourceGraphic" in2="BackgroundImageFix" result="shape"/>
<feGaussianBlur stdDeviation="5" result="effect1_foregroundBlur_115_8710"/>
</filter>
<filter id="filter2_f_115_8710" x="15.5" y="18.5" width="26.75" height="24" filterUnits="userSpaceOnUse" color-interpolation-filters="sRGB">
<feFlood flood-opacity="0" result="BackgroundImageFix"/>
<feBlend mode="normal" in="SourceGraphic" in2="BackgroundImageFix" result="shape"/>
<feGaussianBlur stdDeviation="5" result="effect1_foregroundBlur_115_8710"/>
</filter>
<clipPath id="clip0_115_8710">
<rect width="21.865" height="7.49123" fill="white" transform="translate(10.25 21.5)"/>
</clipPath>
</defs>
</svg>
