<svg width="57" height="44" viewBox="0 0 57 44" fill="none" xmlns="http://www.w3.org/2000/svg">
<g filter="url(#filter0_i_115_8719)">
<path d="M37.25 19.5609V36.4281C37.251 37.4221 37.056 38.4066 36.6763 39.3252C36.2966 40.2438 35.7395 41.0786 35.037 41.7818C34.3344 42.485 33.5002 43.0429 32.582 43.4235C31.6637 43.8041 30.6794 44 29.6854 44H12.8182C10.812 43.999 8.88806 43.2019 7.46906 41.7835C6.05005 40.3652 5.25195 38.4417 5.25 36.4354V19.5682C5.24904 18.5744 5.44402 17.5901 5.82379 16.6717C6.20356 15.7533 6.76066 14.9188 7.46324 14.2158C8.16582 13.5129 9.00009 12.9554 9.91832 12.5752C10.8366 12.195 11.8207 11.9995 12.8146 12H29.6818C30.6752 11.9995 31.6589 12.1947 32.5769 12.5744C33.4948 12.9541 34.329 13.5109 35.0318 14.213C35.7346 14.9151 36.2922 15.7488 36.6728 16.6663C37.0534 17.5839 37.2495 18.5675 37.25 19.5609V19.5609Z" fill="#FF73D5"/>
</g>
<g filter="url(#filter1_f_115_8719)" style="mix-blend-mode:soft-light">
<path d="M14.7221 28.5H12.0279C10.9079 28.5 10 29.3954 10 30.5C10 31.6046 10.9079 32.5 12.0279 32.5H14.7221C15.8421 32.5 16.75 31.6046 16.75 30.5C16.75 29.3954 15.8421 28.5 14.7221 28.5Z" fill="#C140A3"/>
</g>
<g filter="url(#filter2_f_115_8719)" style="mix-blend-mode:soft-light">
<path d="M30.2261 28.5H27.5239C26.4061 28.5 25.5 29.3946 25.5 30.4982V30.5018C25.5 31.6054 26.4061 32.5 27.5239 32.5H30.2261C31.3439 32.5 32.25 31.6054 32.25 30.5018V30.4982C32.25 29.3946 31.3439 28.5 30.2261 28.5Z" fill="#C140A3"/>
</g>
<path d="M21.3231 38.75C21.2374 38.75 21.1552 38.7136 21.0946 38.6487C21.034 38.5839 21 38.4959 21 38.4042C21 38.3125 21.034 38.2245 21.0946 38.1597C21.1552 38.0948 21.2374 38.0584 21.3231 38.0584C22.2653 38.0584 22.8197 37.7162 22.8469 37.1229C22.8741 36.4421 22.2177 35.6122 21.2925 35.5176C21.2107 35.5075 21.1357 35.464 21.0831 35.3962C21.0305 35.3284 21.0044 35.2414 21.0102 35.1535C21.0153 35.068 21.0485 34.9871 21.1039 34.9252C21.1593 34.8633 21.2333 34.8243 21.3129 34.815C22.2279 34.7531 22.8401 34.0033 22.8231 33.3589C22.8231 32.7838 22.2483 32.4416 21.3333 32.4416C21.2653 32.4177 21.206 32.3714 21.164 32.3093C21.122 32.2472 21.0994 32.1725 21.0994 32.0958C21.0994 32.0192 21.122 31.9444 21.164 31.8824C21.206 31.8203 21.2653 31.7739 21.3333 31.75C22.8741 31.75 23.4456 32.569 23.4694 33.3371C23.4571 33.7148 23.3515 34.0822 23.1633 34.402C22.9751 34.7217 22.711 34.9823 22.398 35.1572C22.7255 35.3531 22.9995 35.6372 23.1928 35.9814C23.3861 36.3255 23.492 36.7178 23.5 37.1192C23.4592 37.9273 22.8707 38.75 21.3231 38.75Z" fill="black"/>
<path fill-rule="evenodd" clip-rule="evenodd" d="M38.2001 32.3168C38.1786 32.4408 38.1486 32.5631 38.1102 32.6828C37.3911 35.2847 34.0327 36.7558 32.1594 37.6597C30.6384 36.0788 27.8086 33.3452 28.3084 30.5054C28.3716 30.129 28.5059 29.7686 28.7039 29.4442C29.6963 27.7974 32.1378 27.5852 33.5581 29.6857C35.978 27.9474 38.6496 29.7699 38.2001 32.3168Z" fill="#CE0F0F"/>
<path opacity="0.2" fill-rule="evenodd" clip-rule="evenodd" d="M38.2001 32.3169C38.1786 32.4408 38.1486 32.5631 38.1103 32.6828C36.9812 34.765 34.155 36.0093 32.5082 36.807C30.9692 35.2444 28.1538 32.5254 28.6536 29.6711C28.6536 29.5979 28.6824 29.5283 28.7004 29.4588C29.6928 27.8121 32.1342 27.5998 33.5545 29.7003C35.978 27.9475 38.6496 29.7699 38.2001 32.3169Z" fill="white"/>
<path opacity="0.4" fill-rule="evenodd" clip-rule="evenodd" d="M37.7685 31.9473C37.6319 30.8494 35.3918 29.4625 34.4641 29.7296C36.2691 29.2063 37.5312 30.0773 37.7685 31.9473Z" fill="white"/>
<g clip-path="url(#clip0_115_8719)">
<path d="M25.925 26.25C25.8822 26.2495 25.8398 26.2421 25.7993 26.228C25.746 26.2113 25.6964 26.184 25.6534 26.1477C25.6104 26.1114 25.5749 26.0667 25.5489 26.0164C25.5228 25.966 25.5068 25.9109 25.5018 25.8542C25.4967 25.7975 25.5026 25.7403 25.5193 25.686C25.7226 24.9753 26.1488 24.3523 26.7324 23.9124C27.316 23.4725 28.025 23.2399 28.7506 23.2503V23.2503C29.4754 23.2435 30.1826 23.4775 30.7655 23.9169C31.3485 24.3563 31.7754 24.9772 31.9819 25.686C32.0144 25.7962 32.0028 25.9151 31.9497 26.0167C31.8965 26.1182 31.8061 26.1942 31.6983 26.228C31.645 26.2455 31.5889 26.252 31.5331 26.247C31.4774 26.2421 31.4232 26.2258 31.3737 26.1992C31.3242 26.1726 31.2804 26.1362 31.2449 26.0921C31.2094 26.048 31.1829 25.997 31.1669 25.9423C31.0112 25.4095 30.6899 24.9427 30.2515 24.6124C29.8131 24.2821 29.2813 24.1061 28.7362 24.111C28.1937 24.1093 27.6651 24.2868 27.2296 24.6168C26.7941 24.9469 26.4749 25.4119 26.3199 25.9423C26.2933 26.0289 26.241 26.105 26.1703 26.1601C26.0996 26.2152 26.0139 26.2466 25.925 26.25V26.25Z" fill="black"/>
<path d="M10.6782 26.25C10.6353 26.2504 10.5928 26.2429 10.5525 26.228C10.4989 26.2117 10.4489 26.1847 10.4055 26.1485C10.3622 26.1123 10.3263 26.0678 10.2999 26.0174C10.2735 25.9669 10.2572 25.9117 10.2519 25.8548C10.2466 25.7979 10.2524 25.7405 10.269 25.6859C10.4733 24.9759 10.8996 24.3536 11.4828 23.9138C12.0661 23.4741 12.7743 23.2411 13.4994 23.2503V23.2503C14.2242 23.2423 14.9318 23.4758 15.5148 23.9153C16.0978 24.3549 16.5244 24.9766 16.7298 25.6859C16.7469 25.7403 16.7533 25.7975 16.7484 25.8544C16.7436 25.9113 16.7276 25.9666 16.7016 26.0171C16.6755 26.0676 16.6398 26.1122 16.5965 26.1485C16.5533 26.1847 16.5034 26.2117 16.4498 26.228C16.3418 26.2624 16.2248 26.2517 16.1245 26.1981C16.0242 26.1445 15.9489 26.0525 15.915 25.9423C15.7595 25.4101 15.4389 24.9438 15.0013 24.6135C14.5637 24.2832 14.0329 24.1069 13.4886 24.111V24.111C12.9456 24.1085 12.4164 24.2856 11.9802 24.6157C11.5441 24.9458 11.2245 25.4113 11.0694 25.9423C11.0434 26.0286 10.9919 26.1046 10.9218 26.1597C10.8517 26.2148 10.7666 26.2464 10.6782 26.25V26.25Z" fill="black"/>
</g>
<circle cx="42.75" cy="13.5" r="13.5" fill="white"/>
<path d="M53.7621 13.3512C53.7621 14.8168 53.4734 16.2681 52.9126 17.6222C52.3517 18.9763 51.5296 20.2066 50.4932 21.243C49.4569 22.2793 48.2265 23.1014 46.8724 23.6623C45.5183 24.2232 44.067 24.5119 42.6014 24.5119C39.6414 24.5119 36.8026 23.336 34.7095 21.243C32.6165 19.1499 31.4407 16.3112 31.4407 13.3512C31.4407 10.3911 32.6165 7.55237 34.7095 5.45933C36.8026 3.36629 39.6414 2.19043 42.6014 2.19043C44.067 2.19043 45.5183 2.47911 46.8724 3.03999C48.2265 3.60087 49.4569 4.42296 50.4932 5.45933C51.5296 6.4957 52.3517 7.72605 52.9126 9.08013C53.4734 10.4342 53.7621 11.8855 53.7621 13.3512ZM38.524 12.8485C38.524 12.4485 38.3651 12.0649 38.0823 11.7821C37.7995 11.4993 37.4159 11.3404 37.0159 11.3404C36.8179 11.3404 36.6218 11.3794 36.4388 11.4552C36.2559 11.531 36.0896 11.6421 35.9496 11.7821C35.8096 11.9221 35.6985 12.0884 35.6227 12.2714C35.5469 12.4543 35.5079 12.6504 35.5079 12.8485C35.5079 13.0465 35.5469 13.2426 35.6227 13.4256C35.6985 13.6085 35.8096 13.7748 35.9496 13.9148C36.0896 14.0549 36.2559 14.166 36.4388 14.2417C36.6218 14.3175 36.8179 14.3565 37.0159 14.3565C37.4159 14.3565 37.7995 14.1976 38.0823 13.9148C38.3651 13.632 38.524 13.2484 38.524 12.8485ZM49.6949 12.8485C49.6949 12.4485 49.536 12.0649 49.2532 11.7821C48.9704 11.4993 48.5868 11.3404 48.1868 11.3404C47.7869 11.3404 47.4033 11.4993 47.1205 11.7821C46.8376 12.0649 46.6788 12.4485 46.6788 12.8485C46.6788 13.2484 46.8376 13.632 47.1205 13.9148C47.4033 14.1976 47.7869 14.3565 48.1868 14.3565C48.5868 14.3565 48.9704 14.1976 49.2532 13.9148C49.536 13.632 49.6949 13.2484 49.6949 12.8485ZM41.1999 20.7646C42.1952 20.3313 43.2327 20.3566 44.3126 20.8407C44.7222 21.0235 45.0725 20.944 45.3636 20.6021C45.4483 20.5039 45.5109 20.3956 45.5515 20.2771C45.7783 19.6136 45.5651 19.1566 44.9117 18.9061C43.1887 18.2426 41.5943 18.2782 40.1286 19.0128C39.6987 19.226 39.5125 19.6102 39.57 20.1654C39.6073 20.5208 39.9864 20.7442 40.7074 20.8356C40.8732 20.8589 41.0439 20.8342 41.1999 20.7646Z" fill="#FF9A1C"/>
<path d="M37.0159 14.3565C37.8487 14.3565 38.5239 13.6813 38.5239 12.8484C38.5239 12.0155 37.8487 11.3403 37.0159 11.3403C36.183 11.3403 35.5078 12.0155 35.5078 12.8484C35.5078 13.6813 36.183 14.3565 37.0159 14.3565Z" fill="#020202"/>
<path d="M48.1868 14.3565C49.0196 14.3565 49.6948 13.6813 49.6948 12.8484C49.6948 12.0155 49.0196 11.3403 48.1868 11.3403C47.3539 11.3403 46.6787 12.0155 46.6787 12.8484C46.6787 13.6813 47.3539 14.3565 48.1868 14.3565Z" fill="#020202"/>
<path d="M41.1999 20.7643C41.0438 20.834 40.8732 20.8586 40.7074 20.8354C39.9864 20.744 39.6072 20.5206 39.57 20.1652C39.5125 19.61 39.6986 19.2258 40.1285 19.0125C41.5943 18.278 43.1887 18.2424 44.9117 18.9059C45.565 19.1564 45.7783 19.6134 45.5515 20.2769C45.5109 20.3954 45.4482 20.5037 45.3636 20.6018C45.0725 20.9437 44.7221 21.0233 44.3125 20.8405C43.2327 20.3564 42.1951 20.331 41.1999 20.7643Z" fill="#020202"/>
<defs>
<filter id="filter0_i_115_8719" x="5.25" y="12" width="32" height="32" filterUnits="userSpaceOnUse" color-interpolation-filters="sRGB">
<feFlood flood-opacity="0" result="BackgroundImageFix"/>
<feBlend mode="normal" in="SourceGraphic" in2="BackgroundImageFix" result="shape"/>
<feColorMatrix in="SourceAlpha" type="matrix" values="0 0 0 0 0 0 0 0 0 0 0 0 0 0 0 0 0 0 127 0" result="hardAlpha"/>
<feOffset dx="-6" dy="-6"/>
<feComposite in2="hardAlpha" operator="arithmetic" k2="-1" k3="1"/>
<feColorMatrix type="matrix" values="0 0 0 0 0 0 0 0 0 0 0 0 0 0 0 0 0 0 0.04 0"/>
<feBlend mode="normal" in2="shape" result="effect1_innerShadow_115_8719"/>
</filter>
<filter id="filter1_f_115_8719" x="0" y="18.5" width="26.75" height="24" filterUnits="userSpaceOnUse" color-interpolation-filters="sRGB">
<feFlood flood-opacity="0" result="BackgroundImageFix"/>
<feBlend mode="normal" in="SourceGraphic" in2="BackgroundImageFix" result="shape"/>
<feGaussianBlur stdDeviation="5" result="effect1_foregroundBlur_115_8719"/>
</filter>
<filter id="filter2_f_115_8719" x="15.5" y="18.5" width="26.75" height="24" filterUnits="userSpaceOnUse" color-interpolation-filters="sRGB">
<feFlood flood-opacity="0" result="BackgroundImageFix"/>
<feBlend mode="normal" in="SourceGraphic" in2="BackgroundImageFix" result="shape"/>
<feGaussianBlur stdDeviation="5" result="effect1_foregroundBlur_115_8719"/>
</filter>
<clipPath id="clip0_115_8719">
<rect width="21.865" height="7.49123" fill="white" transform="translate(10.25 21.5)"/>
</clipPath>
</defs>
</svg>
