<svg width="341" height="171" viewBox="0 0 341 171" fill="none" xmlns="http://www.w3.org/2000/svg">
<path d="M332.635 170.5C337.054 170.5 340.655 166.916 340.448 162.502C338.844 128.337 326.998 95.4369 306.454 68.0916C303.8 64.5592 298.741 64.0934 295.337 66.91L255.118 100.186C251.714 103.003 251.266 108.029 253.808 111.643C264.363 126.647 270.69 144.219 272.123 162.508C272.468 166.912 276.017 170.5 280.435 170.5H332.635Z" fill="#F54334"/>
<path d="M45.6044 66.1051C42.2185 63.2666 37.156 63.6998 34.4795 67.2151C14.238 93.7995 2.25236 125.753 0.0173031 159.092C-0.278241 163.5 3.25054 167.156 7.66793 167.244L59.8574 168.29C64.2748 168.379 67.8952 164.863 68.3285 160.466C70.0812 142.679 76.4661 125.657 86.8433 111.105C89.4086 107.508 88.9935 102.478 85.6076 99.6399L45.6044 66.1051Z" fill="#4AAF57"/>
<path d="M308.073 70.2827C286.909 41.1531 257.067 19.4714 222.823 8.34487L201.748 73.2069C222.294 79.8828 240.199 92.8919 252.898 110.37L308.073 70.2827Z" fill="#D9D9D9"/>
<path d="M308.073 70.2827C286.909 41.1531 257.067 19.4714 222.823 8.34487L201.748 73.2069C222.294 79.8828 240.199 92.8919 252.898 110.37L308.073 70.2827Z" fill="#FF9A1C"/>
<path d="M222.823 8.34487C188.579 -2.78162 151.692 -2.78162 117.448 8.34487L138.523 73.2069C159.069 66.531 181.201 66.531 201.748 73.2069L222.823 8.34487Z" fill="#FFC22D"/>
<path d="M117.448 8.34487C83.2041 19.4714 53.3617 41.1531 32.1979 70.2826L87.3729 110.37C100.071 92.8919 117.977 79.8828 138.523 73.2069L117.448 8.34487Z" fill="#8DC255"/>
<circle cx="39.6353" cy="130" r="21" fill="white"/>
<path d="M58.3853 129.829C58.3853 132.291 57.9003 134.729 56.958 137.004C56.0157 139.279 54.6346 141.346 52.8935 143.087C51.1524 144.828 49.0854 146.209 46.8106 147.152C44.5357 148.094 42.0975 148.579 39.6353 148.579C34.6624 148.579 29.8933 146.604 26.377 143.087C22.8607 139.571 20.8853 134.802 20.8853 129.829C20.8853 124.856 22.8607 120.087 26.377 116.571C29.8933 113.054 34.6624 111.079 39.6353 111.079C44.6081 111.079 49.3772 113.054 52.8935 116.571C56.4099 120.087 58.3853 124.856 58.3853 129.829ZM30.289 131.552C30.6251 131.549 30.9569 131.436 31.2655 131.218C31.5741 131.001 31.8534 130.683 32.0876 130.284C32.3218 129.886 32.5062 129.413 32.6302 128.893C32.7543 128.373 32.8157 127.817 32.8108 127.256C32.8009 126.123 32.5218 125.038 32.0349 124.241C31.548 123.443 30.8931 122.999 30.2144 123.005C29.8784 123.008 29.5465 123.121 29.2379 123.339C28.9293 123.556 28.65 123.873 28.4158 124.272C28.1816 124.671 27.9973 125.144 27.8732 125.664C27.7491 126.183 27.6878 126.739 27.6927 127.301C27.7026 128.434 27.9817 129.519 28.4686 130.316C28.9555 131.113 29.6103 131.558 30.289 131.552ZM49.0561 131.552C49.3921 131.549 49.724 131.436 50.0326 131.218C50.3412 131.001 50.6205 130.683 50.8547 130.284C51.0889 129.886 51.2732 129.413 51.3973 128.893C51.5214 128.373 51.5827 127.817 51.5778 127.256C51.5679 126.123 51.2889 125.038 50.802 124.241C50.315 123.443 49.6602 122.999 48.9815 123.005C48.6455 123.008 48.3136 123.121 48.005 123.339C47.6964 123.556 47.4171 123.873 47.1829 124.272C46.9487 124.671 46.7643 125.144 46.6403 125.664C46.5162 126.183 46.4549 126.739 46.4598 127.301C46.4696 128.434 46.7487 129.519 47.2356 130.316C47.7225 131.113 48.3774 131.558 49.0561 131.552ZM47.4748 137.131C48.8738 134.538 48.1003 133.241 45.1545 133.241H33.0582C32.7505 133.241 32.4472 133.313 32.173 133.453C31.8987 133.593 31.6613 133.796 31.48 134.045C31.2987 134.295 31.1788 134.584 31.1299 134.889C31.081 135.194 31.1045 135.506 31.1986 135.8C32.4611 139.724 36.2742 141.985 40.3689 141.729C42.0522 141.627 43.565 141.066 44.9071 140.048C46.0217 139.207 46.8776 138.234 47.4748 137.131Z" fill="#4AAF57"/>
<path d="M27.6926 127.301C27.7132 129.661 28.8757 131.564 30.289 131.552C31.7023 131.54 32.8313 129.616 32.8107 127.256C32.7901 124.896 31.6277 122.992 30.2144 123.005C28.8011 123.017 27.672 124.94 27.6926 127.301Z" fill="#020202"/>
<path d="M46.4597 127.301C46.4803 129.661 47.6427 131.564 49.0561 131.552C50.4694 131.54 51.5984 129.616 51.5778 127.256C51.5572 124.896 50.3948 122.992 48.9815 123.005C47.5682 123.017 46.4391 124.94 46.4597 127.301Z" fill="#020202"/>
<path d="M47.4747 137.131C46.8776 138.234 46.0217 139.207 44.907 140.048C43.5649 141.066 42.0522 141.627 40.3688 141.729C36.2742 141.985 32.461 139.724 31.1985 135.8C31.1045 135.506 31.0809 135.194 31.1298 134.889C31.1787 134.584 31.2987 134.295 31.48 134.045C31.6612 133.796 31.8986 133.593 32.1729 133.453C32.4472 133.313 32.7505 133.241 33.0582 133.241H45.1544C48.1003 133.241 48.8737 134.538 47.4747 137.131Z" fill="#020202"/>
<circle cx="170.635" cy="36" r="21" fill="white"/>
<path d="M189.198 35.75C189.198 40.7228 187.222 45.4919 183.706 49.0082C180.189 52.5245 175.42 54.5 170.448 54.5C165.475 54.5 160.706 52.5245 157.189 49.0082C153.673 45.4919 151.698 40.7228 151.698 35.75C151.698 30.7772 153.673 26.0081 157.189 22.4917C160.706 18.9754 165.475 17 170.448 17C175.42 17 180.189 18.9754 183.706 22.4917C187.222 26.0081 189.198 30.7772 189.198 35.75ZM163.598 34.9055C163.598 34.2335 163.331 33.5891 162.855 33.114C162.38 32.6388 161.736 32.3719 161.064 32.3719C160.731 32.3719 160.402 32.4375 160.094 32.5648C159.787 32.6921 159.508 32.8787 159.273 33.114C159.037 33.3492 158.851 33.6285 158.723 33.9359C158.596 34.2433 158.53 34.5728 158.53 34.9055C158.53 35.2382 158.596 35.5676 158.723 35.875C158.851 36.1824 159.037 36.4617 159.273 36.697C159.508 36.9322 159.787 37.1188 160.094 37.2462C160.402 37.3735 160.731 37.439 161.064 37.439C161.736 37.439 162.38 37.1721 162.855 36.697C163.331 36.2218 163.598 35.5774 163.598 34.9055ZM182.365 34.9055C182.365 34.2335 182.098 33.5891 181.623 33.114C181.147 32.6388 180.503 32.3719 179.831 32.3719C179.159 32.3719 178.515 32.6388 178.04 33.114C177.564 33.5891 177.297 34.2335 177.297 34.9055C177.297 35.5774 177.564 36.2218 178.04 36.697C178.515 37.1721 179.159 37.439 179.831 37.439C180.503 37.439 181.147 37.1721 181.623 36.697C182.098 36.2218 182.365 35.5774 182.365 34.9055ZM178.944 42.4783C178.944 42.2688 178.904 42.0613 178.824 41.8677C178.744 41.674 178.627 41.4979 178.479 41.3495C178.331 41.2011 178.155 41.0833 177.962 41.0028C177.768 40.9223 177.561 40.8807 177.352 40.8803L163.532 40.8563C163.323 40.8559 163.115 40.8968 162.922 40.9766C162.728 41.0564 162.552 41.1736 162.403 41.3215C162.255 41.4693 162.137 41.645 162.057 41.8384C161.976 42.0318 161.935 42.2392 161.934 42.4486L161.934 42.6704C161.934 42.8799 161.974 43.0874 162.054 43.2811C162.134 43.4748 162.251 43.6508 162.399 43.7992C162.547 43.9476 162.723 44.0654 162.916 44.1459C163.109 44.2264 163.317 44.2681 163.526 44.2684L177.346 44.2925C177.555 44.2929 177.763 44.252 177.956 44.1721C178.15 44.0923 178.326 43.9751 178.474 43.8273C178.623 43.6794 178.741 43.5038 178.821 43.3104C178.902 43.117 178.943 42.9096 178.944 42.7001L178.944 42.4783Z" fill="#FFC22D"/>
<path d="M161.064 37.4389C162.463 37.4389 163.598 36.3046 163.598 34.9054C163.598 33.5061 162.463 32.3718 161.064 32.3718C159.665 32.3718 158.53 33.5061 158.53 34.9054C158.53 36.3046 159.665 37.4389 161.064 37.4389Z" fill="#020202"/>
<path d="M179.831 37.4389C181.23 37.4389 182.364 36.3046 182.364 34.9054C182.364 33.5061 181.23 32.3718 179.831 32.3718C178.432 32.3718 177.297 33.5061 177.297 34.9054C177.297 36.3046 178.432 37.4389 179.831 37.4389Z" fill="#020202"/>
<path d="M177.352 40.8802L163.532 40.8561C162.651 40.8545 161.936 41.5675 161.934 42.4485L161.934 42.6703C161.932 43.5513 162.645 44.2667 163.526 44.2682L177.346 44.2924C178.227 44.2939 178.942 43.581 178.944 42.6999L178.944 42.4782C178.946 41.5972 178.233 40.8817 177.352 40.8802Z" fill="#020202"/>
<circle cx="88.6353" cy="60" r="21" fill="white"/>
<path d="M107.135 59.8289C107.135 62.2912 106.65 64.7294 105.708 67.0043C104.766 69.2791 103.385 71.3461 101.644 73.0872C99.9024 74.8283 97.8354 76.2094 95.5606 77.1517C93.2857 78.094 90.8475 78.579 88.3853 78.579C83.4124 78.579 78.6433 76.6035 75.127 73.0872C71.6107 69.5709 69.6353 64.8018 69.6353 59.8289C69.6353 54.8561 71.6107 50.087 75.127 46.5707C78.6433 43.0544 83.4124 41.0789 88.3853 41.0789C93.3581 41.0789 98.1272 43.0544 101.644 46.5707C105.16 50.087 107.135 54.8561 107.135 59.8289ZM79.039 61.5519C79.3751 61.549 79.7069 61.4356 80.0155 61.2181C80.3241 61.0006 80.6034 60.6834 80.8376 60.2844C81.0718 59.8855 81.2562 59.4127 81.3802 58.8931C81.5043 58.3735 81.5657 57.8172 81.5608 57.256C81.5509 56.1225 81.2718 55.0379 80.7849 54.2406C80.298 53.4434 79.6431 52.9988 78.9644 53.0047C78.6284 53.0076 78.2965 53.1211 77.9879 53.3386C77.6793 53.556 77.4 53.8733 77.1658 54.2722C76.9316 54.6711 76.7473 55.1439 76.6232 55.6635C76.4991 56.1831 76.4378 56.7394 76.4427 57.3007C76.4526 58.4341 76.7317 59.5187 77.2186 60.316C77.7055 61.1133 78.3603 61.5578 79.039 61.5519ZM97.8061 61.5519C98.1421 61.549 98.474 61.4356 98.7826 61.2181C99.0912 61.0006 99.3705 60.6834 99.6047 60.2844C99.8389 59.8855 100.023 59.4127 100.147 58.8931C100.271 58.3735 100.333 57.8172 100.328 57.256C100.318 56.1225 100.039 55.0379 99.552 54.2406C99.065 53.4434 98.4102 52.9988 97.7315 53.0047C97.3955 53.0076 97.0636 53.1211 96.755 53.3386C96.4464 53.556 96.1671 53.8733 95.9329 54.2722C95.6987 54.6711 95.5143 55.1439 95.3903 55.6635C95.2662 56.1831 95.2049 56.7394 95.2098 57.3007C95.2196 58.4341 95.4987 59.5187 95.9856 60.316C96.4725 61.1133 97.1274 61.5578 97.8061 61.5519ZM96.2248 67.131C97.6238 64.5378 96.8503 63.2411 93.9045 63.2411H81.8082C81.5005 63.2408 81.1972 63.3134 80.923 63.4532C80.6487 63.5929 80.4113 63.7957 80.23 64.0452C80.0487 64.2946 79.9288 64.5836 79.8799 64.8886C79.831 65.1936 79.8545 65.506 79.9486 65.8003C81.2111 69.7243 85.0242 71.9849 89.1189 71.729C90.8022 71.6266 92.315 71.0664 93.6571 70.0485C94.7717 69.2068 95.6276 68.2343 96.2248 67.131Z" fill="#4AAF57"/>
<path d="M107.135 59.75C107.135 64.7228 105.16 69.492 101.644 73.0083C98.1272 76.5246 93.3581 78.5 88.3853 78.5C83.4125 78.5 78.6433 76.5246 75.127 73.0083C71.6107 69.492 69.6353 64.7228 69.6353 59.75C69.6353 54.7772 71.6107 50.0081 75.127 46.4918C78.6433 42.9754 83.4125 41 88.3853 41C93.3581 41 98.1272 42.9754 101.644 46.4918C105.16 50.0081 107.135 54.7772 107.135 59.75ZM81.5353 58.9055C81.5353 58.5728 81.4698 58.2433 81.3424 57.9359C81.2151 57.6286 81.0285 57.3493 80.7932 57.114C80.558 56.8787 80.2787 56.6921 79.9713 56.5648C79.6639 56.4375 79.3344 56.3719 79.0017 56.3719C78.3298 56.3719 77.6854 56.6389 77.2102 57.114C76.7351 57.5891 76.4682 58.2336 76.4682 58.9055C76.4682 59.5774 76.7351 60.2218 77.2102 60.697C77.6854 61.1721 78.3298 61.439 79.0017 61.439C79.3344 61.439 79.6639 61.3735 79.9713 61.2462C80.2787 61.1189 80.558 60.9322 80.7932 60.697C81.0285 60.4617 81.2151 60.1824 81.3424 59.875C81.4698 59.5677 81.5353 59.2382 81.5353 58.9055ZM100.302 58.9055C100.302 58.2336 100.035 57.5891 99.5603 57.114C99.0852 56.6389 98.4407 56.3719 97.7688 56.3719C97.0969 56.3719 96.4524 56.6389 95.9773 57.114C95.5022 57.5891 95.2353 58.2336 95.2353 58.9055C95.2353 59.5774 95.5022 60.2218 95.9773 60.697C96.4524 61.1721 97.0969 61.439 97.7688 61.439C98.4407 61.439 99.0852 61.1721 99.5603 60.697C100.035 60.2218 100.302 59.5774 100.302 58.9055ZM93.623 63.6911C90.9444 67.1289 86.0309 67.854 83.4632 64.0323C82.9059 63.202 82.1608 62.9632 81.2282 63.3158C81.0689 63.3726 80.9353 63.4721 80.8273 63.6143C80.1335 64.5185 80.1533 65.4086 80.887 66.2844C85.1096 71.3429 92.4543 71.2747 96.1992 65.7725C96.8873 64.7659 96.6883 63.9897 95.6021 63.4437L95.3291 63.3072C94.6523 62.966 94.0836 63.094 93.623 63.6911Z" fill="#8DC255"/>
<path d="M79.0018 61.4388C80.4011 61.4388 81.5354 60.3045 81.5354 58.9053C81.5354 57.506 80.4011 56.3717 79.0018 56.3717C77.6026 56.3717 76.4683 57.506 76.4683 58.9053C76.4683 60.3045 77.6026 61.4388 79.0018 61.4388Z" fill="#020202"/>
<path d="M97.7688 61.4388C99.168 61.4388 100.302 60.3045 100.302 58.9053C100.302 57.506 99.168 56.3717 97.7688 56.3717C96.3695 56.3717 95.2352 57.506 95.2352 58.9053C95.2352 60.3045 96.3695 61.4388 97.7688 61.4388Z" fill="#020202"/>
<path d="M83.4633 64.0321C86.031 67.8537 90.9445 67.1286 93.6231 63.6908C94.0838 63.0937 94.6525 62.9657 95.3292 63.307L95.6022 63.4435C96.6884 63.9894 96.8874 64.7657 96.1993 65.7723C92.4544 71.2744 85.1097 71.3427 80.8871 66.2841C80.1535 65.4083 80.1336 64.5183 80.8274 63.6141C80.9354 63.4719 81.0691 63.3724 81.2283 63.3155C82.161 62.9629 82.906 63.2018 83.4633 64.0321Z" fill="#020202"/>
<circle cx="252.635" cy="60" r="21" fill="white"/>
<path d="M271.135 59.75C271.135 62.2123 270.65 64.6505 269.708 66.9253C268.766 69.2002 267.385 71.2672 265.644 73.0083C263.902 74.7494 261.835 76.1305 259.561 77.0728C257.286 78.015 254.848 78.5 252.385 78.5C247.412 78.5 242.643 76.5246 239.127 73.0083C235.611 69.492 233.635 64.7228 233.635 59.75C233.635 54.7772 235.611 50.0081 239.127 46.4918C242.643 42.9754 247.412 41 252.385 41C254.848 41 257.286 41.485 259.561 42.4273C261.835 43.3695 263.902 44.7507 265.644 46.4918C267.385 48.2329 268.766 50.2998 269.708 52.5747C270.65 54.8496 271.135 57.2877 271.135 59.75ZM245.535 58.9055C245.535 58.2336 245.268 57.5891 244.793 57.114C244.318 56.6389 243.674 56.3719 243.002 56.3719C242.669 56.3719 242.34 56.4375 242.032 56.5648C241.725 56.6921 241.445 56.8787 241.21 57.114C240.975 57.3493 240.788 57.6286 240.661 57.9359C240.534 58.2433 240.468 58.5728 240.468 58.9055C240.468 59.2382 240.534 59.5677 240.661 59.875C240.788 60.1824 240.975 60.4617 241.21 60.697C241.445 60.9323 241.725 61.1189 242.032 61.2462C242.34 61.3735 242.669 61.4391 243.002 61.4391C243.674 61.4391 244.318 61.1721 244.793 60.697C245.268 60.2219 245.535 59.5774 245.535 58.9055ZM264.302 58.9055C264.302 58.2336 264.035 57.5891 263.56 57.114C263.085 56.6389 262.441 56.3719 261.769 56.3719C261.097 56.3719 260.452 56.6389 259.977 57.114C259.502 57.5891 259.235 58.2336 259.235 58.9055C259.235 59.5774 259.502 60.2219 259.977 60.697C260.452 61.1721 261.097 61.4391 261.769 61.4391C262.441 61.4391 263.085 61.1721 263.56 60.697C264.035 60.2219 264.302 59.5774 264.302 58.9055ZM250.031 72.2045C251.703 71.4766 253.446 71.5192 255.26 72.3325C255.948 72.6396 256.537 72.5059 257.026 71.9316C257.168 71.7666 257.273 71.5846 257.341 71.3856C257.722 70.271 257.364 69.5032 256.267 69.0824C253.372 67.9677 250.693 68.0274 248.231 69.2615C247.509 69.6198 247.196 70.2653 247.293 71.1979C247.355 71.7951 247.992 72.1704 249.203 72.324C249.482 72.363 249.769 72.3216 250.031 72.2045Z" fill="#FF9A1C"/>
<path d="M243.002 61.4388C244.401 61.4388 245.535 60.3045 245.535 58.9053C245.535 57.506 244.401 56.3717 243.002 56.3717C241.603 56.3717 240.468 57.506 240.468 58.9053C240.468 60.3045 241.603 61.4388 243.002 61.4388Z" fill="#020202"/>
<path d="M261.769 61.4388C263.168 61.4388 264.302 60.3045 264.302 58.9053C264.302 57.506 263.168 56.3717 261.769 56.3717C260.37 56.3717 259.235 57.506 259.235 58.9053C259.235 60.3045 260.37 61.4388 261.769 61.4388Z" fill="#020202"/>
<path d="M250.031 72.2043C249.769 72.3214 249.482 72.3628 249.203 72.3238C247.992 72.1702 247.355 71.7949 247.293 71.1977C247.196 70.2651 247.509 69.6196 248.231 69.2613C250.693 68.0272 253.372 67.9675 256.267 69.0822C257.364 69.503 257.723 70.2708 257.342 71.3854C257.273 71.5845 257.168 71.7664 257.026 71.9314C256.537 72.5057 255.948 72.6394 255.26 72.3323C253.446 71.5191 251.703 71.4764 250.031 72.2043Z" fill="#020202"/>
<circle cx="298.635" cy="130" r="21" fill="white"/>
<path d="M317.135 129.75C317.135 132.212 316.65 134.65 315.708 136.925C314.766 139.2 313.385 141.267 311.644 143.008C309.902 144.749 307.835 146.13 305.561 147.073C303.286 148.015 300.848 148.5 298.385 148.5C293.412 148.5 288.643 146.525 285.127 143.008C281.611 139.492 279.635 134.723 279.635 129.75C279.635 124.777 281.611 120.008 285.127 116.492C288.643 112.975 293.412 111 298.385 111C300.848 111 303.286 111.485 305.561 112.427C307.835 113.37 309.902 114.751 311.644 116.492C313.385 118.233 314.766 120.3 315.708 122.575C316.65 124.85 317.135 127.288 317.135 129.75ZM289.002 129.119L287.722 129.776C286.886 130.208 286.474 130.893 286.485 131.831C286.491 132.133 286.599 132.38 286.809 132.574C287.509 133.216 288.285 133.324 289.138 132.898L294.137 130.381C294.413 130.241 294.645 130.027 294.806 129.763C294.968 129.499 295.053 129.195 295.052 128.886C295.051 128.576 294.964 128.273 294.801 128.01C294.638 127.747 294.405 127.534 294.129 127.396L288.635 124.683C288.455 124.594 288.258 124.544 288.057 124.538C287.856 124.532 287.657 124.57 287.472 124.649C287.287 124.727 287.121 124.845 286.986 124.994C286.851 125.143 286.75 125.319 286.69 125.51L286.528 126.014C286.266 126.844 286.525 127.45 287.304 127.831L288.993 128.667C289.289 128.814 289.292 128.965 289.002 129.119ZM307.777 128.675L309.227 127.967C310.183 127.501 310.524 126.753 310.251 125.724C310.103 125.189 309.6 124.834 308.741 124.657C308.459 124.602 308.168 124.641 307.914 124.768L302.633 127.413C302.355 127.551 302.121 127.764 301.957 128.028C301.793 128.292 301.707 128.597 301.708 128.908C301.709 129.219 301.797 129.523 301.962 129.787C302.127 130.05 302.363 130.262 302.642 130.398L308.127 133.111C309.003 133.543 309.631 133.31 310.012 132.412L310.191 131.994C310.595 131.038 310.328 130.341 309.39 129.904L307.777 129.144C307.447 128.991 307.447 128.834 307.777 128.675ZM298.01 138.664L294.512 134.595C294.36 134.416 294.17 134.272 293.956 134.174C293.742 134.076 293.509 134.025 293.274 134.026C293.038 134.027 292.806 134.079 292.592 134.179C292.379 134.279 292.19 134.424 292.039 134.604L290.042 136.975C289.792 137.265 289.516 137.291 289.215 137.052C287.415 135.619 285.709 137.769 286.801 139.304C287.728 140.624 288.777 141.431 289.949 141.727C290.107 141.768 290.273 141.762 290.429 141.711C290.585 141.659 290.723 141.564 290.827 141.437L293.113 138.673C293.261 138.491 293.415 138.488 293.574 138.664L297.2 142.895C297.348 143.068 297.531 143.207 297.737 143.302C297.944 143.398 298.168 143.448 298.395 143.449C298.622 143.449 298.846 143.401 299.052 143.307C299.258 143.213 299.441 143.076 299.588 142.904L303.086 138.852C303.364 138.528 303.631 138.534 303.887 138.869C304.359 139.483 304.829 140.103 305.295 140.729C307.001 143.032 308.972 140.643 310.012 139.236C310.144 139.059 310.238 138.859 310.291 138.645C310.343 138.432 310.352 138.21 310.317 137.993C310.282 137.777 310.203 137.57 310.087 137.385C309.97 137.2 309.817 137.04 309.637 136.916C308.898 136.404 308.161 136.455 307.428 137.069C307.16 137.297 306.916 137.274 306.694 137.001L304.86 134.715C304.698 134.514 304.494 134.351 304.263 134.237C304.032 134.123 303.778 134.062 303.521 134.057C303.264 134.052 303.009 134.104 302.774 134.209C302.54 134.313 302.332 134.469 302.164 134.664L298.726 138.664C298.488 138.943 298.249 138.943 298.01 138.664Z" fill="#F54334"/>
<path d="M288.993 128.667L287.304 127.831C286.525 127.45 286.266 126.844 286.528 126.014L286.69 125.51C286.75 125.319 286.852 125.143 286.987 124.994C287.121 124.845 287.287 124.727 287.472 124.649C287.657 124.57 287.856 124.532 288.057 124.538C288.258 124.544 288.455 124.594 288.635 124.683L294.129 127.396C294.405 127.534 294.638 127.747 294.801 128.01C294.964 128.273 295.051 128.576 295.052 128.886C295.053 129.195 294.968 129.499 294.806 129.763C294.645 130.027 294.413 130.241 294.137 130.381L289.138 132.898C288.285 133.324 287.509 133.216 286.809 132.574C286.599 132.38 286.491 132.133 286.485 131.831C286.474 130.893 286.886 130.208 287.722 129.776L289.002 129.119C289.292 128.965 289.289 128.815 288.993 128.667Z" fill="#020202"/>
<path d="M307.777 129.144L309.39 129.904C310.328 130.341 310.595 131.038 310.192 131.994L310.012 132.412C309.631 133.31 309.003 133.543 308.127 133.111L302.642 130.398C302.363 130.262 302.127 130.05 301.962 129.787C301.797 129.523 301.709 129.219 301.708 128.908C301.707 128.597 301.793 128.292 301.957 128.028C302.121 127.764 302.355 127.551 302.634 127.413L307.914 124.768C308.168 124.641 308.459 124.602 308.741 124.657C309.6 124.834 310.103 125.189 310.251 125.724C310.524 126.753 310.183 127.501 309.228 127.967L307.777 128.675C307.448 128.834 307.448 128.991 307.777 129.144Z" fill="#020202"/>
<path d="M298.726 138.664L302.164 134.664C302.332 134.469 302.54 134.314 302.774 134.209C303.009 134.104 303.264 134.052 303.521 134.057C303.778 134.062 304.032 134.123 304.263 134.237C304.494 134.351 304.698 134.514 304.86 134.715L306.694 137.001C306.916 137.274 307.16 137.297 307.428 137.069C308.161 136.455 308.898 136.404 309.637 136.916C309.817 137.04 309.97 137.2 310.087 137.385C310.203 137.57 310.282 137.777 310.317 137.994C310.352 138.21 310.343 138.432 310.291 138.645C310.238 138.859 310.144 139.06 310.012 139.236C308.972 140.644 307.001 143.032 305.295 140.729C304.829 140.103 304.359 139.483 303.887 138.869C303.631 138.534 303.364 138.528 303.086 138.852L299.588 142.904C299.441 143.076 299.258 143.213 299.052 143.307C298.846 143.401 298.622 143.449 298.395 143.449C298.168 143.448 297.944 143.398 297.737 143.303C297.531 143.207 297.348 143.068 297.2 142.896L293.574 138.664C293.415 138.488 293.261 138.491 293.113 138.673L290.827 141.437C290.723 141.564 290.585 141.66 290.429 141.711C290.273 141.762 290.107 141.768 289.949 141.727C288.777 141.431 287.728 140.624 286.801 139.304C285.709 137.769 287.415 135.619 289.215 137.052C289.516 137.291 289.792 137.265 290.042 136.975L292.039 134.604C292.19 134.424 292.379 134.279 292.592 134.179C292.806 134.079 293.038 134.027 293.274 134.026C293.509 134.025 293.742 134.076 293.956 134.174C294.17 134.273 294.36 134.416 294.512 134.595L298.01 138.664C298.249 138.943 298.488 138.943 298.726 138.664Z" fill="#020202"/>
</svg>
