<svg width="57" height="44" viewBox="0 0 57 44" fill="none" xmlns="http://www.w3.org/2000/svg">
<g filter="url(#filter0_i_115_8980)">
<path d="M37.25 19.5609V36.4281C37.251 37.4221 37.056 38.4066 36.6763 39.3252C36.2966 40.2438 35.7395 41.0786 35.037 41.7818C34.3344 42.485 33.5002 43.0429 32.582 43.4235C31.6637 43.8041 30.6794 44 29.6854 44H12.8182C10.812 43.999 8.88806 43.2019 7.46906 41.7835C6.05005 40.3652 5.25195 38.4417 5.25 36.4354V19.5682C5.24904 18.5744 5.44402 17.5901 5.82379 16.6717C6.20356 15.7533 6.76066 14.9188 7.46324 14.2158C8.16582 13.5129 9.00009 12.9554 9.91832 12.5752C10.8366 12.195 11.8207 11.9995 12.8146 12H29.6818C30.6752 11.9995 31.6589 12.1947 32.5769 12.5744C33.4948 12.9541 34.329 13.5109 35.0318 14.213C35.7346 14.9151 36.2922 15.7488 36.6728 16.6663C37.0534 17.5839 37.2495 18.5675 37.25 19.5609V19.5609Z" fill="#7392D5"/>
</g>
<g filter="url(#filter1_f_115_8980)" style="mix-blend-mode:soft-light">
<path d="M14.7221 28.5H12.0279C10.9079 28.5 10 29.3954 10 30.5C10 31.6046 10.9079 32.5 12.0279 32.5H14.7221C15.8421 32.5 16.75 31.6046 16.75 30.5C16.75 29.3954 15.8421 28.5 14.7221 28.5Z" fill="#C140A3"/>
</g>
<g filter="url(#filter2_f_115_8980)" style="mix-blend-mode:soft-light">
<path d="M30.2261 28.5H27.5239C26.4061 28.5 25.5 29.3946 25.5 30.4982V30.5018C25.5 31.6054 26.4061 32.5 27.5239 32.5H30.2261C31.3439 32.5 32.25 31.6054 32.25 30.5018V30.4982C32.25 29.3946 31.3439 28.5 30.2261 28.5Z" fill="#C140A3"/>
</g>
<path d="M21.3856 32.75H21.1973C18.7714 32.8045 15.9985 34.0726 15.2711 36.7868C15.2545 36.8319 15.2475 36.88 15.2508 36.9279C15.254 36.9758 15.2674 37.0225 15.2901 37.065C15.3127 37.1076 15.3441 37.145 15.3823 37.1749C15.4205 37.2048 15.4646 37.2265 15.5118 37.2387C15.559 37.2509 15.6082 37.2532 15.6564 37.2456C15.7046 37.238 15.7506 37.2206 15.7915 37.1945C15.8325 37.1684 15.8674 37.1341 15.8942 37.094C15.9209 37.0538 15.9388 37.0086 15.9468 36.9612C16.5856 34.5958 19.052 33.4876 21.212 33.4404C23.2723 33.4004 25.9714 34.4006 26.828 37.0821C26.8729 37.1455 26.9372 37.1931 27.0115 37.218C27.0858 37.243 27.1662 37.244 27.2411 37.2209C27.316 37.1978 27.3815 37.1518 27.4281 37.0896C27.4746 37.0274 27.4998 36.9522 27.5 36.875C26.7135 34.4224 24.3246 32.75 21.3856 32.75Z" fill="black"/>
<path d="M28.75 29C29.612 29 30.4386 28.6576 31.0481 28.0481C31.6576 27.4386 32 26.612 32 25.75V25.5853C32 22.9722 29.1123 21.2813 27.2677 21.5229C25.6318 21.7315 25.5 22.7782 25.5 24.3337V25.75C25.501 26.6117 25.8437 27.4378 26.453 28.047C27.0623 28.6563 27.8883 28.999 28.75 29Z" fill="black"/>
<path d="M27.7063 23.9175C28.0222 23.9175 28.2783 23.6614 28.2783 23.3455C28.2783 23.0295 28.0222 22.7734 27.7063 22.7734C27.3904 22.7734 27.1343 23.0295 27.1343 23.3455C27.1343 23.6614 27.3904 23.9175 27.7063 23.9175Z" fill="white"/>
<path opacity="0.1" d="M28.7659 26.1211C29.501 26.1211 30.0969 25.5251 30.0969 24.79C30.0969 24.0549 29.501 23.459 28.7659 23.459C28.0307 23.459 27.4348 24.0549 27.4348 24.79C27.4348 25.5251 28.0307 26.1211 28.7659 26.1211Z" fill="white"/>
<path d="M13.4982 29C12.6364 28.999 11.8102 28.6562 11.2011 28.0468C10.5921 27.4374 10.25 26.6113 10.25 25.75V25.5853C10.25 22.9722 13.1356 21.2813 14.9813 21.5229C16.6218 21.7315 16.75 22.7782 16.75 24.3337V25.75C16.75 26.612 16.4074 27.4386 15.7976 28.0481C15.1877 28.6576 14.3606 29 13.4982 29V29Z" fill="black"/>
<path d="M12.46 23.9175C12.7759 23.9175 13.032 23.6614 13.032 23.3455C13.032 23.0295 12.7759 22.7734 12.46 22.7734C12.144 22.7734 11.8879 23.0295 11.8879 23.3455C11.8879 23.6614 12.144 23.9175 12.46 23.9175Z" fill="white"/>
<path opacity="0.1" d="M13.5195 26.1211C14.2546 26.1211 14.8506 25.5251 14.8506 24.79C14.8506 24.0549 14.2546 23.459 13.5195 23.459C12.7844 23.459 12.1885 24.0549 12.1885 24.79C12.1885 25.5251 12.7844 26.1211 13.5195 26.1211Z" fill="white"/>
<circle cx="42.75" cy="13.5" r="13.5" fill="white"/>
<path d="M53.799 13.3511C53.799 16.3111 52.6231 19.1499 50.5301 21.243C48.437 23.336 45.5983 24.5118 42.6383 24.5118C39.6782 24.5118 36.8395 23.336 34.7464 21.243C32.6534 19.1499 31.4775 16.3111 31.4775 13.3511C31.4775 10.3911 32.6534 7.55237 34.7464 5.45933C36.8395 3.36629 39.6782 2.19043 42.6383 2.19043C45.5983 2.19043 48.437 3.36629 50.5301 5.45933C52.6231 7.55237 53.799 10.3911 53.799 13.3511ZM38.5609 12.8485C38.5609 12.4485 38.402 12.0649 38.1192 11.7821C37.8364 11.4993 37.4528 11.3404 37.0528 11.3404C36.8548 11.3404 36.6587 11.3794 36.4757 11.4552C36.2927 11.531 36.1265 11.642 35.9865 11.7821C35.8464 11.9221 35.7353 12.0884 35.6595 12.2713C35.5838 12.4543 35.5448 12.6504 35.5448 12.8485C35.5448 13.0465 35.5838 13.2426 35.6595 13.4256C35.7353 13.6085 35.8464 13.7748 35.9865 13.9148C36.1265 14.0549 36.2927 14.1659 36.4757 14.2417C36.6587 14.3175 36.8548 14.3565 37.0528 14.3565C37.4528 14.3565 37.8364 14.1976 38.1192 13.9148C38.402 13.632 38.5609 13.2484 38.5609 12.8485ZM49.7318 12.8485C49.7318 12.4485 49.5729 12.0649 49.29 11.7821C49.0072 11.4993 48.6236 11.3404 48.2237 11.3404C47.8237 11.3404 47.4401 11.4993 47.1573 11.7821C46.8745 12.0649 46.7156 12.4485 46.7156 12.8485C46.7156 13.2484 46.8745 13.632 47.1573 13.9148C47.4401 14.1976 47.8237 14.3565 48.2237 14.3565C48.6236 14.3565 49.0072 14.1976 49.29 13.9148C49.5729 13.632 49.7318 13.2484 49.7318 12.8485ZM47.6957 17.3561C47.6959 17.2314 47.6716 17.1079 47.6241 16.9926C47.5766 16.8773 47.5068 16.7725 47.4188 16.6842C47.3308 16.5959 47.2262 16.5257 47.1111 16.4778C46.996 16.4299 46.8726 16.4051 46.7479 16.4049L38.522 16.3906C38.3973 16.3904 38.2738 16.4147 38.1586 16.4622C38.0433 16.5097 37.9385 16.5795 37.8501 16.6675C37.7618 16.7555 37.6917 16.8601 37.6438 16.9752C37.5958 17.0903 37.5711 17.2137 37.5708 17.3384L37.5706 17.4704C37.5704 17.5951 37.5948 17.7187 37.6423 17.8339C37.6898 17.9492 37.7596 18.054 37.8476 18.1424C37.9356 18.2307 38.0401 18.3008 38.1553 18.3487C38.2704 18.3966 38.3938 18.4214 38.5185 18.4216L46.7443 18.436C46.869 18.4362 46.9925 18.4118 47.1078 18.3643C47.2231 18.3168 47.3279 18.2471 47.4162 18.159C47.5045 18.071 47.5747 17.9665 47.6226 17.8514C47.6705 17.7362 47.6953 17.6128 47.6955 17.4881L47.6957 17.3561Z" fill="#FFC22D"/>
<path d="M37.0527 14.3565C37.8856 14.3565 38.5608 13.6813 38.5608 12.8484C38.5608 12.0155 37.8856 11.3403 37.0527 11.3403C36.2199 11.3403 35.5447 12.0155 35.5447 12.8484C35.5447 13.6813 36.2199 14.3565 37.0527 14.3565Z" fill="#020202"/>
<path d="M48.2236 14.3565C49.0565 14.3565 49.7317 13.6813 49.7317 12.8484C49.7317 12.0155 49.0565 11.3403 48.2236 11.3403C47.3908 11.3403 46.7156 12.0155 46.7156 12.8484C46.7156 13.6813 47.3908 14.3565 48.2236 14.3565Z" fill="#020202"/>
<path d="M46.7478 16.4047L38.522 16.3903C37.9976 16.3894 37.5718 16.8138 37.5709 17.3382L37.5706 17.4702C37.5697 17.9946 37.9941 18.4205 38.5185 18.4214L46.7443 18.4357C47.2687 18.4367 47.6946 18.0123 47.6955 17.4879L47.6957 17.3559C47.6966 16.8315 47.2722 16.4056 46.7478 16.4047Z" fill="#020202"/>
<defs>
<filter id="filter0_i_115_8980" x="5.25" y="12" width="32" height="32" filterUnits="userSpaceOnUse" color-interpolation-filters="sRGB">
<feFlood flood-opacity="0" result="BackgroundImageFix"/>
<feBlend mode="normal" in="SourceGraphic" in2="BackgroundImageFix" result="shape"/>
<feColorMatrix in="SourceAlpha" type="matrix" values="0 0 0 0 0 0 0 0 0 0 0 0 0 0 0 0 0 0 127 0" result="hardAlpha"/>
<feOffset dx="-6" dy="-6"/>
<feComposite in2="hardAlpha" operator="arithmetic" k2="-1" k3="1"/>
<feColorMatrix type="matrix" values="0 0 0 0 0 0 0 0 0 0 0 0 0 0 0 0 0 0 0.04 0"/>
<feBlend mode="normal" in2="shape" result="effect1_innerShadow_115_8980"/>
</filter>
<filter id="filter1_f_115_8980" x="0" y="18.5" width="26.75" height="24" filterUnits="userSpaceOnUse" color-interpolation-filters="sRGB">
<feFlood flood-opacity="0" result="BackgroundImageFix"/>
<feBlend mode="normal" in="SourceGraphic" in2="BackgroundImageFix" result="shape"/>
<feGaussianBlur stdDeviation="5" result="effect1_foregroundBlur_115_8980"/>
</filter>
<filter id="filter2_f_115_8980" x="15.5" y="18.5" width="26.75" height="24" filterUnits="userSpaceOnUse" color-interpolation-filters="sRGB">
<feFlood flood-opacity="0" result="BackgroundImageFix"/>
<feBlend mode="normal" in="SourceGraphic" in2="BackgroundImageFix" result="shape"/>
<feGaussianBlur stdDeviation="5" result="effect1_foregroundBlur_115_8980"/>
</filter>
</defs>
</svg>
