<svg width="57" height="44" viewBox="0 0 57 44" fill="none" xmlns="http://www.w3.org/2000/svg">
<g filter="url(#filter0_i_115_8962)">
<path d="M37.25 19.5609V36.4281C37.251 37.4221 37.056 38.4066 36.6763 39.3252C36.2966 40.2438 35.7395 41.0786 35.037 41.7818C34.3344 42.485 33.5002 43.0429 32.582 43.4235C31.6637 43.8041 30.6794 44 29.6854 44H12.8182C10.812 43.999 8.88806 43.2019 7.46906 41.7835C6.05005 40.3652 5.25195 38.4417 5.25 36.4354V19.5682C5.24904 18.5744 5.44402 17.5901 5.82379 16.6717C6.20356 15.7533 6.76066 14.9188 7.46324 14.2158C8.16582 13.5129 9.00009 12.9554 9.91832 12.5752C10.8366 12.195 11.8207 11.9995 12.8146 12H29.6818C30.6752 11.9995 31.6589 12.1947 32.5769 12.5744C33.4948 12.9541 34.329 13.5109 35.0318 14.213C35.7346 14.9151 36.2922 15.7488 36.6728 16.6663C37.0534 17.5839 37.2495 18.5675 37.25 19.5609V19.5609Z" fill="#7392D5"/>
</g>
<g filter="url(#filter1_f_115_8962)" style="mix-blend-mode:soft-light">
<path d="M14.7221 28.5H12.0279C10.9079 28.5 10 29.3954 10 30.5C10 31.6046 10.9079 32.5 12.0279 32.5H14.7221C15.8421 32.5 16.75 31.6046 16.75 30.5C16.75 29.3954 15.8421 28.5 14.7221 28.5Z" fill="#C140A3"/>
</g>
<g filter="url(#filter2_f_115_8962)" style="mix-blend-mode:soft-light">
<path d="M30.2261 28.5H27.5239C26.4061 28.5 25.5 29.3946 25.5 30.4982V30.5018C25.5 31.6054 26.4061 32.5 27.5239 32.5H30.2261C31.3439 32.5 32.25 31.6054 32.25 30.5018V30.4982C32.25 29.3946 31.3439 28.5 30.2261 28.5Z" fill="#C140A3"/>
</g>
<path d="M21.3856 32.75H21.1973C18.7714 32.8045 15.9985 34.0726 15.2711 36.7868C15.2545 36.8319 15.2475 36.88 15.2508 36.9279C15.254 36.9758 15.2674 37.0225 15.2901 37.065C15.3127 37.1076 15.3441 37.145 15.3823 37.1749C15.4205 37.2048 15.4646 37.2265 15.5118 37.2387C15.559 37.2509 15.6082 37.2532 15.6564 37.2456C15.7046 37.238 15.7506 37.2206 15.7915 37.1945C15.8325 37.1684 15.8674 37.1341 15.8942 37.094C15.9209 37.0538 15.9388 37.0086 15.9468 36.9612C16.5856 34.5958 19.052 33.4876 21.212 33.4404C23.2723 33.4004 25.9714 34.4006 26.828 37.0821C26.8729 37.1455 26.9372 37.1931 27.0115 37.218C27.0858 37.243 27.1662 37.244 27.2411 37.2209C27.316 37.1978 27.3815 37.1518 27.4281 37.0896C27.4746 37.0274 27.4998 36.9522 27.5 36.875C26.7135 34.4224 24.3246 32.75 21.3856 32.75Z" fill="black"/>
<path d="M28.75 29C29.612 29 30.4386 28.6576 31.0481 28.0481C31.6576 27.4386 32 26.612 32 25.75V25.5853C32 22.9722 29.1123 21.2813 27.2677 21.5229C25.6318 21.7315 25.5 22.7782 25.5 24.3337V25.75C25.501 26.6117 25.8437 27.4378 26.453 28.047C27.0623 28.6563 27.8883 28.999 28.75 29Z" fill="black"/>
<path d="M27.7063 23.9175C28.0222 23.9175 28.2783 23.6614 28.2783 23.3455C28.2783 23.0295 28.0222 22.7734 27.7063 22.7734C27.3904 22.7734 27.1343 23.0295 27.1343 23.3455C27.1343 23.6614 27.3904 23.9175 27.7063 23.9175Z" fill="white"/>
<path opacity="0.1" d="M28.7659 26.1211C29.501 26.1211 30.0969 25.5251 30.0969 24.79C30.0969 24.0549 29.501 23.459 28.7659 23.459C28.0307 23.459 27.4348 24.0549 27.4348 24.79C27.4348 25.5251 28.0307 26.1211 28.7659 26.1211Z" fill="white"/>
<path d="M13.4982 29C12.6364 28.999 11.8102 28.6562 11.2011 28.0468C10.5921 27.4374 10.25 26.6113 10.25 25.75V25.5853C10.25 22.9722 13.1356 21.2813 14.9813 21.5229C16.6218 21.7315 16.75 22.7782 16.75 24.3337V25.75C16.75 26.612 16.4074 27.4386 15.7976 28.0481C15.1877 28.6576 14.3606 29 13.4982 29V29Z" fill="black"/>
<path d="M12.46 23.9175C12.7759 23.9175 13.032 23.6614 13.032 23.3455C13.032 23.0295 12.7759 22.7734 12.46 22.7734C12.144 22.7734 11.8879 23.0295 11.8879 23.3455C11.8879 23.6614 12.144 23.9175 12.46 23.9175Z" fill="white"/>
<path opacity="0.1" d="M13.5195 26.1211C14.2546 26.1211 14.8506 25.5251 14.8506 24.79C14.8506 24.0549 14.2546 23.459 13.5195 23.459C12.7844 23.459 12.1885 24.0549 12.1885 24.79C12.1885 25.5251 12.7844 26.1211 13.5195 26.1211Z" fill="white"/>
<circle cx="42.75" cy="13.5" r="13.5" fill="white"/>
<path d="M53.9108 13.398C53.9108 14.8637 53.6221 16.315 53.0612 17.6691C52.5004 19.0231 51.6783 20.2535 50.6419 21.2899C49.6055 22.3262 48.3752 23.1483 47.0211 23.7092C45.667 24.2701 44.2157 24.5588 42.7501 24.5588C39.7901 24.5588 36.9513 23.3829 34.8582 21.2899C32.7652 19.1968 31.5894 16.358 31.5894 13.398C31.5894 10.438 32.7652 7.59925 34.8582 5.50621C36.9513 3.41316 39.7901 2.2373 42.7501 2.2373C45.7101 2.2373 48.5489 3.41316 50.6419 5.50621C52.735 7.59925 53.9108 10.438 53.9108 13.398ZM37.1868 14.4236C37.3869 14.4219 37.5844 14.3544 37.7681 14.2249C37.9518 14.0955 38.118 13.9066 38.2574 13.6692C38.3968 13.4317 38.5066 13.1503 38.5804 12.841C38.6543 12.5317 38.6908 12.2006 38.6879 11.8665C38.682 11.1918 38.5159 10.5462 38.226 10.0717C37.9362 9.59709 37.5464 9.33247 37.1424 9.33599C36.9424 9.33773 36.7449 9.40526 36.5612 9.53471C36.3775 9.66416 36.2112 9.853 36.0718 10.0905C35.9324 10.3279 35.8227 10.6093 35.7488 10.9186C35.675 11.2279 35.6385 11.559 35.6414 11.8931C35.6473 12.5678 35.8134 13.2134 36.1032 13.688C36.3931 14.1625 36.7828 14.4271 37.1868 14.4236ZM48.3577 14.4236C48.5577 14.4219 48.7553 14.3544 48.9389 14.2249C49.1226 14.0955 49.2889 13.9066 49.4283 13.6692C49.5677 13.4317 49.6774 13.1503 49.7513 12.841C49.8252 12.5317 49.8617 12.2006 49.8588 11.8665C49.8529 11.1918 49.6867 10.5462 49.3969 10.0717C49.1071 9.59709 48.7173 9.33247 48.3133 9.33599C48.1133 9.33773 47.9158 9.40526 47.7321 9.53471C47.5484 9.66416 47.3821 9.853 47.2427 10.0905C47.1033 10.3279 46.9936 10.6093 46.9197 10.9186C46.8459 11.2279 46.8094 11.559 46.8123 11.8931C46.8182 12.5678 46.9843 13.2134 47.2741 13.688C47.5639 14.1625 47.9537 14.4271 48.3577 14.4236ZM47.4165 17.7445C48.2492 16.2009 47.7888 15.4291 46.0353 15.4291H38.8352C38.652 15.4289 38.4715 15.4721 38.3082 15.5553C38.145 15.6385 38.0036 15.7592 37.8958 15.9077C37.7879 16.0562 37.7164 16.2282 37.6873 16.4097C37.6582 16.5913 37.6722 16.7772 37.7282 16.9524C38.4797 19.2881 40.7495 20.6337 43.1867 20.4814C44.1887 20.4204 45.0892 20.087 45.8881 19.4811C46.5516 18.9801 47.061 18.4012 47.4165 17.7445Z" fill="#4AAF57"/>
<path d="M35.6412 11.8932C35.6535 13.2981 36.3454 14.431 37.1867 14.4237C38.0279 14.4163 38.7 13.2715 38.6877 11.8666C38.6755 10.4617 37.9835 9.32871 37.1423 9.33605C36.301 9.34339 35.629 10.4882 35.6412 11.8932Z" fill="#020202"/>
<path d="M46.8121 11.8932C46.8244 13.2981 47.5163 14.431 48.3576 14.4237C49.1988 14.4163 49.8709 13.2715 49.8586 11.8666C49.8464 10.4617 49.1544 9.32871 48.3132 9.33605C47.4719 9.34339 46.7999 10.4882 46.8121 11.8932Z" fill="#020202"/>
<path d="M47.4163 17.7446C47.0608 18.4013 46.5514 18.9802 45.8879 19.4812C45.089 20.0871 44.1885 20.4206 43.1865 20.4815C40.7493 20.6338 38.4795 19.2882 37.7281 16.9525C37.6721 16.7773 37.658 16.5914 37.6871 16.4098C37.7162 16.2283 37.7877 16.0563 37.8956 15.9078C38.0035 15.7593 38.1448 15.6386 38.308 15.5554C38.4713 15.4722 38.6518 15.429 38.835 15.4292H46.0351C47.7886 15.4292 48.249 16.201 47.4163 17.7446Z" fill="#020202"/>
<defs>
<filter id="filter0_i_115_8962" x="5.25" y="12" width="32" height="32" filterUnits="userSpaceOnUse" color-interpolation-filters="sRGB">
<feFlood flood-opacity="0" result="BackgroundImageFix"/>
<feBlend mode="normal" in="SourceGraphic" in2="BackgroundImageFix" result="shape"/>
<feColorMatrix in="SourceAlpha" type="matrix" values="0 0 0 0 0 0 0 0 0 0 0 0 0 0 0 0 0 0 127 0" result="hardAlpha"/>
<feOffset dx="-6" dy="-6"/>
<feComposite in2="hardAlpha" operator="arithmetic" k2="-1" k3="1"/>
<feColorMatrix type="matrix" values="0 0 0 0 0 0 0 0 0 0 0 0 0 0 0 0 0 0 0.04 0"/>
<feBlend mode="normal" in2="shape" result="effect1_innerShadow_115_8962"/>
</filter>
<filter id="filter1_f_115_8962" x="0" y="18.5" width="26.75" height="24" filterUnits="userSpaceOnUse" color-interpolation-filters="sRGB">
<feFlood flood-opacity="0" result="BackgroundImageFix"/>
<feBlend mode="normal" in="SourceGraphic" in2="BackgroundImageFix" result="shape"/>
<feGaussianBlur stdDeviation="5" result="effect1_foregroundBlur_115_8962"/>
</filter>
<filter id="filter2_f_115_8962" x="15.5" y="18.5" width="26.75" height="24" filterUnits="userSpaceOnUse" color-interpolation-filters="sRGB">
<feFlood flood-opacity="0" result="BackgroundImageFix"/>
<feBlend mode="normal" in="SourceGraphic" in2="BackgroundImageFix" result="shape"/>
<feGaussianBlur stdDeviation="5" result="effect1_foregroundBlur_115_8962"/>
</filter>
</defs>
</svg>
