<svg width="57" height="44" viewBox="0 0 57 44" fill="none" xmlns="http://www.w3.org/2000/svg">
<g filter="url(#filter0_i_115_8971)">
<path d="M37.25 19.5609V36.4281C37.251 37.4221 37.056 38.4066 36.6763 39.3252C36.2966 40.2438 35.7395 41.0786 35.037 41.7818C34.3344 42.485 33.5002 43.0429 32.582 43.4235C31.6637 43.8041 30.6794 44 29.6854 44H12.8182C10.812 43.999 8.88806 43.2019 7.46906 41.7835C6.05005 40.3652 5.25195 38.4417 5.25 36.4354V19.5682C5.24904 18.5744 5.44402 17.5901 5.82379 16.6717C6.20356 15.7533 6.76066 14.9188 7.46324 14.2158C8.16582 13.5129 9.00009 12.9554 9.91832 12.5752C10.8366 12.195 11.8207 11.9995 12.8146 12H29.6818C30.6752 11.9995 31.6589 12.1947 32.5769 12.5744C33.4948 12.9541 34.329 13.5109 35.0318 14.213C35.7346 14.9151 36.2922 15.7488 36.6728 16.6663C37.0534 17.5839 37.2495 18.5675 37.25 19.5609V19.5609Z" fill="#7392D5"/>
</g>
<g filter="url(#filter1_f_115_8971)" style="mix-blend-mode:soft-light">
<path d="M14.7221 28.5H12.0279C10.9079 28.5 10 29.3954 10 30.5C10 31.6046 10.9079 32.5 12.0279 32.5H14.7221C15.8421 32.5 16.75 31.6046 16.75 30.5C16.75 29.3954 15.8421 28.5 14.7221 28.5Z" fill="#C140A3"/>
</g>
<g filter="url(#filter2_f_115_8971)" style="mix-blend-mode:soft-light">
<path d="M30.2261 28.5H27.5239C26.4061 28.5 25.5 29.3946 25.5 30.4982V30.5018C25.5 31.6054 26.4061 32.5 27.5239 32.5H30.2261C31.3439 32.5 32.25 31.6054 32.25 30.5018V30.4982C32.25 29.3946 31.3439 28.5 30.2261 28.5Z" fill="#C140A3"/>
</g>
<path d="M21.3856 32.75H21.1973C18.7714 32.8045 15.9985 34.0726 15.2711 36.7868C15.2545 36.8319 15.2475 36.88 15.2508 36.9279C15.254 36.9758 15.2674 37.0225 15.2901 37.065C15.3127 37.1076 15.3441 37.145 15.3823 37.1749C15.4205 37.2048 15.4646 37.2265 15.5118 37.2387C15.559 37.2509 15.6082 37.2532 15.6564 37.2456C15.7046 37.238 15.7506 37.2206 15.7915 37.1945C15.8325 37.1684 15.8674 37.1341 15.8942 37.094C15.9209 37.0538 15.9388 37.0086 15.9468 36.9612C16.5856 34.5958 19.052 33.4876 21.212 33.4404C23.2723 33.4004 25.9714 34.4006 26.828 37.0821C26.8729 37.1455 26.9372 37.1931 27.0115 37.218C27.0858 37.243 27.1662 37.244 27.2411 37.2209C27.316 37.1978 27.3815 37.1518 27.4281 37.0896C27.4746 37.0274 27.4998 36.9522 27.5 36.875C26.7135 34.4224 24.3246 32.75 21.3856 32.75Z" fill="black"/>
<path d="M28.75 29C29.612 29 30.4386 28.6576 31.0481 28.0481C31.6576 27.4386 32 26.612 32 25.75V25.5853C32 22.9722 29.1123 21.2813 27.2677 21.5229C25.6318 21.7315 25.5 22.7782 25.5 24.3337V25.75C25.501 26.6117 25.8437 27.4378 26.453 28.047C27.0623 28.6563 27.8883 28.999 28.75 29Z" fill="black"/>
<path d="M27.7063 23.9175C28.0222 23.9175 28.2783 23.6614 28.2783 23.3455C28.2783 23.0295 28.0222 22.7734 27.7063 22.7734C27.3904 22.7734 27.1343 23.0295 27.1343 23.3455C27.1343 23.6614 27.3904 23.9175 27.7063 23.9175Z" fill="white"/>
<path opacity="0.1" d="M28.7659 26.1211C29.501 26.1211 30.0969 25.5251 30.0969 24.79C30.0969 24.0549 29.501 23.459 28.7659 23.459C28.0307 23.459 27.4348 24.0549 27.4348 24.79C27.4348 25.5251 28.0307 26.1211 28.7659 26.1211Z" fill="white"/>
<path d="M13.4982 29C12.6364 28.999 11.8102 28.6562 11.2011 28.0468C10.5921 27.4374 10.25 26.6113 10.25 25.75V25.5853C10.25 22.9722 13.1356 21.2813 14.9813 21.5229C16.6218 21.7315 16.75 22.7782 16.75 24.3337V25.75C16.75 26.612 16.4074 27.4386 15.7976 28.0481C15.1877 28.6576 14.3606 29 13.4982 29V29Z" fill="black"/>
<path d="M12.46 23.9175C12.7759 23.9175 13.032 23.6614 13.032 23.3455C13.032 23.0295 12.7759 22.7734 12.46 22.7734C12.144 22.7734 11.8879 23.0295 11.8879 23.3455C11.8879 23.6614 12.144 23.9175 12.46 23.9175Z" fill="white"/>
<path opacity="0.1" d="M13.5195 26.1211C14.2546 26.1211 14.8506 25.5251 14.8506 24.79C14.8506 24.0549 14.2546 23.459 13.5195 23.459C12.7844 23.459 12.1885 24.0549 12.1885 24.79C12.1885 25.5251 12.7844 26.1211 13.5195 26.1211Z" fill="white"/>
<circle cx="42.75" cy="13.5" r="13.5" fill="white"/>
<path d="M54.6428 13.39C54.6428 14.9729 54.331 16.5403 53.7253 18.0027C53.1195 19.4651 52.2317 20.7939 51.1124 21.9132C49.9931 23.0325 48.6643 23.9203 47.2019 24.5261C45.7395 25.1318 44.1721 25.4436 42.5892 25.4436C39.3924 25.4436 36.3265 24.1737 34.066 21.9132C31.8055 19.6527 30.5356 16.5868 30.5356 13.39C30.5356 10.1932 31.8055 7.12732 34.066 4.86684C36.3265 2.60635 39.3924 1.33643 42.5892 1.33643C45.786 1.33643 48.8519 2.60635 51.1124 4.86684C53.3729 7.12732 54.6428 10.1932 54.6428 13.39ZM36.5809 14.4976C36.7969 14.4958 37.0103 14.4228 37.2087 14.283C37.407 14.1432 37.5866 13.9393 37.7372 13.6828C37.8877 13.4264 38.0062 13.1225 38.086 12.7884C38.1658 12.4544 38.2052 12.0967 38.202 11.736C38.1957 11.0073 38.0163 10.3101 37.7033 9.79753C37.3902 9.285 36.9693 8.9992 36.533 9.00301C36.3169 9.00489 36.1036 9.07782 35.9052 9.21762C35.7068 9.35743 35.5273 9.56138 35.3767 9.81783C35.2262 10.0743 35.1077 10.3782 35.0279 10.7122C34.9481 11.0463 34.9087 11.4039 34.9118 11.7647C34.9182 12.4933 35.0976 13.1906 35.4106 13.7031C35.7236 14.2157 36.1446 14.5014 36.5809 14.4976ZM48.6455 14.4976C48.8615 14.4958 49.0748 14.4228 49.2732 14.283C49.4716 14.1432 49.6512 13.9393 49.8017 13.6828C49.9523 13.4264 50.0708 13.1225 50.1505 12.7884C50.2303 12.4544 50.2697 12.0967 50.2666 11.736C50.2602 11.0073 50.0808 10.3101 49.7678 9.79753C49.4548 9.285 49.0338 8.9992 48.5975 9.00301C48.3815 9.00489 48.1682 9.07782 47.9698 9.21762C47.7714 9.35743 47.5918 9.56138 47.4413 9.81783C47.2907 10.0743 47.1722 10.3782 47.0924 10.7122C47.0127 11.0463 46.9732 11.4039 46.9764 11.7647C46.9828 12.4933 47.1622 13.1906 47.4752 13.7031C47.7882 14.2157 48.2092 14.5014 48.6455 14.4976ZM47.6289 18.0842C48.5283 16.4171 48.031 15.5836 46.1373 15.5836H38.3611C38.1633 15.5833 37.9683 15.6301 37.792 15.7199C37.6157 15.8097 37.4631 15.9401 37.3466 16.1005C37.23 16.2608 37.1529 16.4466 37.1215 16.6426C37.09 16.8387 37.1052 17.0395 37.1656 17.2287C37.9773 19.7513 40.4286 21.2045 43.0608 21.04C44.143 20.9742 45.1155 20.6141 45.9783 19.9597C46.6948 19.4186 47.245 18.7935 47.6289 18.0842Z" fill="white"/>
<path d="M53.7621 13.3511C53.7621 16.3112 52.5863 19.1499 50.4932 21.243C48.4002 23.336 45.5614 24.5119 42.6014 24.5119C39.6414 24.5119 36.8026 23.336 34.7096 21.243C32.6165 19.1499 31.4407 16.3112 31.4407 13.3511C31.4407 10.3911 32.6165 7.55237 34.7096 5.45933C36.8026 3.36629 39.6414 2.19043 42.6014 2.19043C45.5614 2.19043 48.4002 3.36629 50.4932 5.45933C52.5863 7.55237 53.7621 10.3911 53.7621 13.3511ZM38.524 12.8485C38.524 12.6504 38.485 12.4543 38.4092 12.2713C38.3334 12.0884 38.2224 11.9221 38.0823 11.7821C37.9423 11.6421 37.776 11.531 37.5931 11.4552C37.4101 11.3794 37.214 11.3404 37.016 11.3404C36.616 11.3404 36.2324 11.4993 35.9496 11.7821C35.6668 12.0649 35.5079 12.4485 35.5079 12.8485C35.5079 13.2484 35.6668 13.632 35.9496 13.9148C36.2324 14.1976 36.616 14.3565 37.016 14.3565C37.214 14.3565 37.4101 14.3175 37.5931 14.2417C37.776 14.1659 37.9423 14.0549 38.0823 13.9148C38.2224 13.7748 38.3334 13.6085 38.4092 13.4256C38.485 13.2426 38.524 13.0465 38.524 12.8485ZM49.6949 12.8485C49.6949 12.4485 49.536 12.0649 49.2532 11.7821C48.9704 11.4993 48.5868 11.3404 48.1868 11.3404C47.7869 11.3404 47.4033 11.4993 47.1205 11.7821C46.8377 12.0649 46.6788 12.4485 46.6788 12.8485C46.6788 13.2484 46.8377 13.632 47.1205 13.9148C47.4033 14.1976 47.7869 14.3565 48.1868 14.3565C48.5868 14.3565 48.9704 14.1976 49.2532 13.9148C49.536 13.632 49.6949 13.2484 49.6949 12.8485ZM45.7191 15.697C44.1247 17.7433 41.2 18.1749 39.6716 15.9001C39.3398 15.4059 38.8964 15.2637 38.3412 15.4736C38.2464 15.5075 38.1669 15.5667 38.1026 15.6513C37.6896 16.1896 37.7014 16.7193 38.1381 17.2406C40.6516 20.2517 45.0234 20.2111 47.2525 16.936C47.6621 16.3368 47.5437 15.8748 46.8971 15.5498L46.7346 15.4685C46.3318 15.2654 45.9933 15.3416 45.7191 15.697Z" fill="#8DC255"/>
<path d="M37.0159 14.3565C37.8488 14.3565 38.5239 13.6813 38.5239 12.8484C38.5239 12.0155 37.8488 11.3403 37.0159 11.3403C36.183 11.3403 35.5078 12.0155 35.5078 12.8484C35.5078 13.6813 36.183 14.3565 37.0159 14.3565Z" fill="#020202"/>
<path d="M48.1868 14.3565C49.0196 14.3565 49.6948 13.6813 49.6948 12.8484C49.6948 12.0155 49.0196 11.3403 48.1868 11.3403C47.3539 11.3403 46.6787 12.0155 46.6787 12.8484C46.6787 13.6813 47.3539 14.3565 48.1868 14.3565Z" fill="#020202"/>
<path d="M39.6716 15.8998C41.2 18.1746 44.1247 17.743 45.7191 15.6967C45.9933 15.3413 46.3318 15.2651 46.7347 15.4682L46.8971 15.5495C47.5437 15.8744 47.6622 16.3365 47.2526 16.9357C45.0235 20.2107 40.6516 20.2514 38.1382 17.2403C37.7015 16.719 37.6896 16.1892 38.1026 15.651C38.1669 15.5664 38.2465 15.5071 38.3413 15.4733C38.8964 15.2634 39.3399 15.4056 39.6716 15.8998Z" fill="#020202"/>
<defs>
<filter id="filter0_i_115_8971" x="5.25" y="12" width="32" height="32" filterUnits="userSpaceOnUse" color-interpolation-filters="sRGB">
<feFlood flood-opacity="0" result="BackgroundImageFix"/>
<feBlend mode="normal" in="SourceGraphic" in2="BackgroundImageFix" result="shape"/>
<feColorMatrix in="SourceAlpha" type="matrix" values="0 0 0 0 0 0 0 0 0 0 0 0 0 0 0 0 0 0 127 0" result="hardAlpha"/>
<feOffset dx="-6" dy="-6"/>
<feComposite in2="hardAlpha" operator="arithmetic" k2="-1" k3="1"/>
<feColorMatrix type="matrix" values="0 0 0 0 0 0 0 0 0 0 0 0 0 0 0 0 0 0 0.04 0"/>
<feBlend mode="normal" in2="shape" result="effect1_innerShadow_115_8971"/>
</filter>
<filter id="filter1_f_115_8971" x="0" y="18.5" width="26.75" height="24" filterUnits="userSpaceOnUse" color-interpolation-filters="sRGB">
<feFlood flood-opacity="0" result="BackgroundImageFix"/>
<feBlend mode="normal" in="SourceGraphic" in2="BackgroundImageFix" result="shape"/>
<feGaussianBlur stdDeviation="5" result="effect1_foregroundBlur_115_8971"/>
</filter>
<filter id="filter2_f_115_8971" x="15.5" y="18.5" width="26.75" height="24" filterUnits="userSpaceOnUse" color-interpolation-filters="sRGB">
<feFlood flood-opacity="0" result="BackgroundImageFix"/>
<feBlend mode="normal" in="SourceGraphic" in2="BackgroundImageFix" result="shape"/>
<feGaussianBlur stdDeviation="5" result="effect1_foregroundBlur_115_8971"/>
</filter>
</defs>
</svg>
