<svg width="57" height="44" viewBox="0 0 57 44" fill="none" xmlns="http://www.w3.org/2000/svg">
<g filter="url(#filter0_i_115_8998)">
<path d="M37.25 19.5609V36.4281C37.251 37.4221 37.056 38.4066 36.6763 39.3252C36.2966 40.2438 35.7395 41.0786 35.037 41.7818C34.3344 42.485 33.5002 43.0429 32.582 43.4235C31.6637 43.8041 30.6794 44 29.6854 44H12.8182C10.812 43.999 8.88806 43.2019 7.46906 41.7835C6.05005 40.3652 5.25195 38.4417 5.25 36.4354V19.5682C5.24904 18.5744 5.44402 17.5901 5.82379 16.6717C6.20356 15.7533 6.76066 14.9188 7.46324 14.2158C8.16582 13.5129 9.00009 12.9554 9.91832 12.5752C10.8366 12.195 11.8207 11.9995 12.8146 12H29.6818C30.6752 11.9995 31.6589 12.1947 32.5769 12.5744C33.4948 12.9541 34.329 13.5109 35.0318 14.213C35.7346 14.9151 36.2922 15.7488 36.6728 16.6663C37.0534 17.5839 37.2495 18.5675 37.25 19.5609V19.5609Z" fill="#7392D5"/>
</g>
<g filter="url(#filter1_f_115_8998)" style="mix-blend-mode:soft-light">
<path d="M14.7221 28.5H12.0279C10.9079 28.5 10 29.3954 10 30.5C10 31.6046 10.9079 32.5 12.0279 32.5H14.7221C15.8421 32.5 16.75 31.6046 16.75 30.5C16.75 29.3954 15.8421 28.5 14.7221 28.5Z" fill="#C140A3"/>
</g>
<g filter="url(#filter2_f_115_8998)" style="mix-blend-mode:soft-light">
<path d="M30.2261 28.5H27.5239C26.4061 28.5 25.5 29.3946 25.5 30.4982V30.5018C25.5 31.6054 26.4061 32.5 27.5239 32.5H30.2261C31.3439 32.5 32.25 31.6054 32.25 30.5018V30.4982C32.25 29.3946 31.3439 28.5 30.2261 28.5Z" fill="#C140A3"/>
</g>
<path d="M21.3856 32.75H21.1973C18.7714 32.8045 15.9985 34.0726 15.2711 36.7868C15.2545 36.8319 15.2475 36.88 15.2508 36.9279C15.254 36.9758 15.2674 37.0225 15.2901 37.065C15.3127 37.1076 15.3441 37.145 15.3823 37.1749C15.4205 37.2048 15.4646 37.2265 15.5118 37.2387C15.559 37.2509 15.6082 37.2532 15.6564 37.2456C15.7046 37.238 15.7506 37.2206 15.7915 37.1945C15.8325 37.1684 15.8674 37.1341 15.8942 37.094C15.9209 37.0538 15.9388 37.0086 15.9468 36.9612C16.5856 34.5958 19.052 33.4876 21.212 33.4404C23.2723 33.4004 25.9714 34.4006 26.828 37.0821C26.8729 37.1455 26.9372 37.1931 27.0115 37.218C27.0858 37.243 27.1662 37.244 27.2411 37.2209C27.316 37.1978 27.3815 37.1518 27.4281 37.0896C27.4746 37.0274 27.4998 36.9522 27.5 36.875C26.7135 34.4224 24.3246 32.75 21.3856 32.75Z" fill="black"/>
<path d="M28.75 29C29.612 29 30.4386 28.6576 31.0481 28.0481C31.6576 27.4386 32 26.612 32 25.75V25.5853C32 22.9722 29.1123 21.2813 27.2677 21.5229C25.6318 21.7315 25.5 22.7782 25.5 24.3337V25.75C25.501 26.6117 25.8437 27.4378 26.453 28.047C27.0623 28.6563 27.8883 28.999 28.75 29Z" fill="black"/>
<path d="M27.7063 23.9175C28.0222 23.9175 28.2783 23.6614 28.2783 23.3455C28.2783 23.0295 28.0222 22.7734 27.7063 22.7734C27.3904 22.7734 27.1343 23.0295 27.1343 23.3455C27.1343 23.6614 27.3904 23.9175 27.7063 23.9175Z" fill="white"/>
<path opacity="0.1" d="M28.7659 26.1211C29.501 26.1211 30.0969 25.5251 30.0969 24.79C30.0969 24.0549 29.501 23.459 28.7659 23.459C28.0307 23.459 27.4348 24.0549 27.4348 24.79C27.4348 25.5251 28.0307 26.1211 28.7659 26.1211Z" fill="white"/>
<path d="M13.4982 29C12.6364 28.999 11.8102 28.6562 11.2011 28.0468C10.5921 27.4374 10.25 26.6113 10.25 25.75V25.5853C10.25 22.9722 13.1356 21.2813 14.9813 21.5229C16.6218 21.7315 16.75 22.7782 16.75 24.3337V25.75C16.75 26.612 16.4074 27.4386 15.7976 28.0481C15.1877 28.6576 14.3606 29 13.4982 29V29Z" fill="black"/>
<path d="M12.46 23.9175C12.7759 23.9175 13.032 23.6614 13.032 23.3455C13.032 23.0295 12.7759 22.7734 12.46 22.7734C12.144 22.7734 11.8879 23.0295 11.8879 23.3455C11.8879 23.6614 12.144 23.9175 12.46 23.9175Z" fill="white"/>
<path opacity="0.1" d="M13.5195 26.1211C14.2546 26.1211 14.8506 25.5251 14.8506 24.79C14.8506 24.0549 14.2546 23.459 13.5195 23.459C12.7844 23.459 12.1885 24.0549 12.1885 24.79C12.1885 25.5251 12.7844 26.1211 13.5195 26.1211Z" fill="white"/>
<circle cx="42.75" cy="13.5" r="13.5" fill="white"/>
<path d="M53.7619 13.3511C53.7619 14.8168 53.4732 16.2681 52.9123 17.6222C52.3514 18.9762 51.5293 20.2066 50.493 21.243C49.4566 22.2793 48.2262 23.1014 46.8722 23.6623C45.5181 24.2232 44.0668 24.5119 42.6011 24.5119C39.6411 24.5119 36.8024 23.336 34.7093 21.243C32.6163 19.1499 31.4404 16.3111 31.4404 13.3511C31.4404 10.3911 32.6163 7.55237 34.7093 5.45933C36.8024 3.36629 39.6411 2.19043 42.6011 2.19043C44.0668 2.19043 45.5181 2.47911 46.8722 3.03999C48.2262 3.60087 49.4566 4.42296 50.493 5.45933C51.5293 6.4957 52.3514 7.72604 52.9123 9.08012C53.4732 10.4342 53.7619 11.8855 53.7619 13.3511ZM37.0157 12.9754L36.2541 13.3664C35.7564 13.6236 35.511 14.0316 35.5178 14.5901C35.5212 14.7695 35.5855 14.9168 35.7107 15.0319C36.1271 15.4144 36.5892 15.4787 37.097 15.2248L40.0725 13.7269C40.2367 13.6435 40.3746 13.5161 40.4707 13.3589C40.5669 13.2017 40.6175 13.021 40.617 12.8367C40.6164 12.6525 40.5648 12.472 40.4677 12.3154C40.3707 12.1588 40.2321 12.0322 40.0674 11.9497L36.7974 10.335C36.6903 10.2818 36.573 10.2524 36.4535 10.2489C36.3339 10.2454 36.2151 10.2678 36.1051 10.3146C35.995 10.3614 35.8965 10.4315 35.8161 10.5201C35.7358 10.6086 35.6756 10.7135 35.6397 10.8275L35.5432 11.1271C35.3875 11.6214 35.5415 11.9819 36.0053 12.2087L37.0106 12.7063C37.1867 12.7943 37.1883 12.884 37.0157 12.9754ZM48.1917 12.7114L49.0549 12.2899C49.6236 12.0123 49.8267 11.5672 49.6642 10.9545C49.5762 10.6363 49.2766 10.4247 48.7654 10.3198C48.5974 10.2868 48.4242 10.3101 48.2729 10.3858L45.1298 11.9599C44.964 12.042 44.8245 12.1689 44.7272 12.3262C44.6298 12.4835 44.5785 12.665 44.579 12.85C44.5795 13.0351 44.6319 13.2162 44.7302 13.373C44.8284 13.5298 44.9686 13.6559 45.1349 13.737L48.3998 15.3517C48.9211 15.609 49.2952 15.4702 49.522 14.9354L49.6286 14.6866C49.869 14.1179 49.7099 13.7032 49.1513 13.4425L48.1917 12.9906C47.9953 12.8992 47.9953 12.8061 48.1917 12.7114ZM42.3777 18.6573L40.2959 16.2353C40.2049 16.1286 40.0919 16.0431 39.9645 15.9846C39.8372 15.926 39.6986 15.896 39.5584 15.8965C39.4183 15.897 39.2799 15.928 39.153 15.9874C39.026 16.0467 38.9136 16.1331 38.8234 16.2403L37.6352 17.6519C37.4862 17.8246 37.3221 17.8398 37.1427 17.6976C36.0713 16.8446 35.0557 18.1241 35.7057 19.0381C36.2574 19.8235 36.882 20.3042 37.5793 20.4802C37.6734 20.5046 37.7727 20.5013 37.8654 20.4707C37.9581 20.4401 38.0403 20.3835 38.1023 20.3075L39.4631 18.6624C39.5512 18.5541 39.6426 18.5524 39.7373 18.6573L41.8953 21.1758C41.9835 21.2786 42.0927 21.3612 42.2155 21.4181C42.3383 21.4749 42.4718 21.5046 42.6068 21.505C42.7419 21.5055 42.8752 21.4768 42.9978 21.4209C43.1204 21.3649 43.2293 21.2831 43.3171 21.1809L45.3989 18.769C45.5648 18.5761 45.7239 18.5794 45.8762 18.7792C46.1572 19.1448 46.4365 19.5137 46.7141 19.8861C47.7296 21.2571 48.9025 19.8353 49.522 18.9975C49.6002 18.8925 49.6565 18.7729 49.6876 18.6458C49.7188 18.5188 49.7241 18.3869 49.7032 18.258C49.6824 18.1291 49.6358 18.0059 49.5663 17.8956C49.4968 17.7854 49.4057 17.6904 49.2986 17.6164C48.8585 17.3117 48.4201 17.3422 47.9835 17.7078C47.8244 17.8432 47.6788 17.8296 47.5468 17.6672L46.4551 16.3063C46.3589 16.1867 46.2376 16.0896 46.0998 16.0219C45.9621 15.9542 45.8113 15.9176 45.6581 15.9147C45.505 15.9118 45.3532 15.9427 45.2137 16.0051C45.0741 16.0675 44.9501 16.16 44.8506 16.2759L42.8043 18.6573C42.6621 18.8232 42.5199 18.8232 42.3777 18.6573Z" fill="#F54334"/>
<path d="M37.0105 12.7063L36.0052 12.2086C35.5414 11.9818 35.3874 11.6213 35.5431 11.1271L35.6396 10.8275C35.6755 10.7135 35.7357 10.6086 35.816 10.52C35.8964 10.4315 35.9949 10.3614 36.105 10.3146C36.215 10.2678 36.3338 10.2454 36.4534 10.2489C36.5729 10.2524 36.6902 10.2818 36.7973 10.335L40.0673 11.9497C40.232 12.0322 40.3706 12.1588 40.4677 12.3154C40.5647 12.472 40.6163 12.6525 40.6169 12.8367C40.6174 13.021 40.5668 13.2017 40.4706 13.3589C40.3745 13.516 40.2366 13.6434 40.0724 13.7269L37.0969 15.2248C36.5891 15.4787 36.127 15.4143 35.7107 15.0318C35.5854 14.9167 35.5211 14.7695 35.5177 14.5901C35.5109 14.0315 35.7564 13.6236 36.254 13.3664L37.0156 12.9754C37.1883 12.884 37.1866 12.7943 37.0105 12.7063Z" fill="#020202"/>
<path d="M48.1918 12.9906L49.1514 13.4425C49.71 13.7032 49.8691 14.1179 49.6287 14.6866L49.5221 14.9354C49.2953 15.4702 48.9212 15.609 48.3999 15.3517L45.135 13.737C44.9687 13.6559 44.8285 13.5298 44.7302 13.373C44.632 13.2162 44.5796 13.035 44.5791 12.85C44.5786 12.665 44.6299 12.4835 44.7273 12.3262C44.8246 12.1689 44.9641 12.0419 45.1299 11.9598L48.273 10.3858C48.4243 10.31 48.5975 10.2868 48.7655 10.3198C49.2767 10.4247 49.5763 10.6363 49.6643 10.9545C49.8268 11.5672 49.6237 12.0123 49.055 12.2899L48.1918 12.7113C47.9954 12.8061 47.9954 12.8992 48.1918 12.9906Z" fill="#020202"/>
<path d="M42.8043 18.6573L44.8506 16.2759C44.9502 16.16 45.0742 16.0675 45.2137 16.0051C45.3533 15.9427 45.5051 15.9118 45.6582 15.9147C45.8114 15.9176 45.9622 15.9542 46.0999 16.0219C46.2376 16.0896 46.3589 16.1867 46.4552 16.3064L47.5469 17.6672C47.6789 17.8297 47.8245 17.8432 47.9836 17.7078C48.4202 17.3422 48.8586 17.3117 49.2987 17.6164C49.4058 17.6904 49.4968 17.7854 49.5664 17.8956C49.6359 18.0059 49.6825 18.1291 49.7033 18.258C49.7242 18.3869 49.7189 18.5188 49.6877 18.6459C49.6566 18.7729 49.6003 18.8925 49.5221 18.9975C48.9026 19.8353 47.7297 21.2571 46.7141 19.8861C46.4366 19.5138 46.1573 19.1448 45.8763 18.7792C45.724 18.5795 45.5649 18.5761 45.399 18.769L43.3172 21.1809C43.2294 21.2831 43.1205 21.3649 42.9979 21.4209C42.8753 21.4768 42.7419 21.5055 42.6069 21.5051C42.4719 21.5046 42.3384 21.4749 42.2156 21.4181C42.0928 21.3613 41.9836 21.2786 41.8954 21.1758L39.7374 18.6573C39.6426 18.5524 39.5512 18.5541 39.4632 18.6624L38.1024 20.3076C38.0404 20.3835 37.9581 20.4401 37.8654 20.4707C37.7727 20.5013 37.6735 20.5046 37.5794 20.4802C36.8821 20.3042 36.2575 19.8235 35.7058 19.0381C35.0558 18.1242 36.0713 16.8446 37.1427 17.6976C37.3221 17.8398 37.4863 17.8246 37.6353 17.6519L38.8234 16.2404C38.9136 16.1331 39.0261 16.0468 39.1531 15.9874C39.28 15.928 39.4184 15.897 39.5585 15.8965C39.6987 15.896 39.8372 15.9261 39.9646 15.9846C40.092 16.0431 40.205 16.1286 40.296 16.2353L42.3778 18.6573C42.52 18.8232 42.6622 18.8232 42.8043 18.6573Z" fill="#020202"/>
<defs>
<filter id="filter0_i_115_8998" x="5.25" y="12" width="32" height="32" filterUnits="userSpaceOnUse" color-interpolation-filters="sRGB">
<feFlood flood-opacity="0" result="BackgroundImageFix"/>
<feBlend mode="normal" in="SourceGraphic" in2="BackgroundImageFix" result="shape"/>
<feColorMatrix in="SourceAlpha" type="matrix" values="0 0 0 0 0 0 0 0 0 0 0 0 0 0 0 0 0 0 127 0" result="hardAlpha"/>
<feOffset dx="-6" dy="-6"/>
<feComposite in2="hardAlpha" operator="arithmetic" k2="-1" k3="1"/>
<feColorMatrix type="matrix" values="0 0 0 0 0 0 0 0 0 0 0 0 0 0 0 0 0 0 0.04 0"/>
<feBlend mode="normal" in2="shape" result="effect1_innerShadow_115_8998"/>
</filter>
<filter id="filter1_f_115_8998" x="0" y="18.5" width="26.75" height="24" filterUnits="userSpaceOnUse" color-interpolation-filters="sRGB">
<feFlood flood-opacity="0" result="BackgroundImageFix"/>
<feBlend mode="normal" in="SourceGraphic" in2="BackgroundImageFix" result="shape"/>
<feGaussianBlur stdDeviation="5" result="effect1_foregroundBlur_115_8998"/>
</filter>
<filter id="filter2_f_115_8998" x="15.5" y="18.5" width="26.75" height="24" filterUnits="userSpaceOnUse" color-interpolation-filters="sRGB">
<feFlood flood-opacity="0" result="BackgroundImageFix"/>
<feBlend mode="normal" in="SourceGraphic" in2="BackgroundImageFix" result="shape"/>
<feGaussianBlur stdDeviation="5" result="effect1_foregroundBlur_115_8998"/>
</filter>
</defs>
</svg>
