<svg width="124" height="124" viewBox="0 0 124 124" fill="none" xmlns="http://www.w3.org/2000/svg">
<g opacity="0.08" filter="url(#filter0_f_84_2370)">
<g filter="url(#filter1_i_84_2370)">
<path d="M120 31.4083V92.5519C120.003 96.1551 119.297 99.7238 117.92 103.054C116.544 106.384 114.524 109.41 111.978 111.959C109.431 114.508 106.407 116.53 103.078 117.91C99.7497 119.29 96.1817 120 92.5784 120H31.4349C24.1621 119.996 17.188 117.107 12.0441 111.965C6.90019 106.824 4.00706 99.8512 4.00001 92.5784V31.4349C3.99652 27.8322 4.70332 24.2642 6.07998 20.9349C7.45664 17.6057 9.47615 14.5805 12.023 12.0324C14.5698 9.48431 17.5941 7.46333 20.9227 6.08506C24.2512 4.70678 27.8189 3.99825 31.4216 4H92.5651C96.1662 3.99826 99.7323 4.70581 103.06 6.08226C106.388 7.45871 109.411 9.4771 111.959 12.0222C114.507 14.5673 116.528 17.5892 117.908 20.9155C119.287 24.2418 119.998 27.8072 120 31.4083V31.4083Z" fill="#A45EFF"/>
</g>
<g opacity="0.4" style="mix-blend-mode:soft-light">
<path d="M62.2749 49.2173L59.1113 65.8457L62.2749 68.3712V49.2173Z" fill="black"/>
</g>
<path d="M32.6672 28.0054C32.747 29.5955 32.1953 31.1527 31.1322 32.3377C30.0691 33.5228 28.5808 34.2398 26.9915 34.3325C25.4012 34.2668 23.9017 33.5741 22.8206 32.4059C21.7396 31.2377 21.1651 29.6891 21.2227 28.0985C21.2227 23.5127 24.8647 21.3461 26.8187 13.9823C28.5068 21.16 32.614 22.9279 32.6672 28.0054Z" fill="#A45EFF"/>
<path fill-rule="evenodd" clip-rule="evenodd" d="M44.7812 94.625C49.4937 75.2522 75.4387 75.3311 80.125 94.625C71.3152 87.5493 52.57 87.8781 44.7812 94.625Z" fill="#2B1607"/>
<path d="M44.4007 95.1137C44.3054 95.1139 44.2121 95.0867 44.1326 95.0355C44.0346 94.9776 43.9583 94.8906 43.9149 94.7874C43.8715 94.6843 43.8633 94.5702 43.8914 94.4622C46.143 85.4978 53.4473 79.7648 62.4805 79.7648C71.527 79.7648 78.8045 85.576 81.0159 94.5143C81.0423 94.6191 81.0345 94.7293 80.9937 94.8297C80.9529 94.93 80.881 95.0156 80.7881 95.0746C80.6957 95.1374 80.5858 95.171 80.4731 95.171C80.3604 95.171 80.2505 95.1374 80.1582 95.0746C71.6343 88.3383 52.7504 88.3383 44.7089 95.0746C44.6124 95.1169 44.5052 95.1305 44.4007 95.1137V95.1137ZM62.2928 88.9507C68.6991 88.9507 75.1725 90.3969 79.6087 93.2765C78.5622 89.658 76.3244 86.4728 73.238 84.2088C70.1517 81.9449 66.387 80.7271 62.5207 80.742V80.742C58.6589 80.7268 54.8976 81.9378 51.8085 84.1908C48.7194 86.4438 46.4713 89.6157 45.4059 93.2244C49.5606 90.3709 55.9267 88.9507 62.2928 88.9507Z" fill="black"/>
<path d="M89.1875 65.625C92.3121 65.625 95.3087 64.3838 97.5181 62.1744C99.7275 59.965 100.969 56.9684 100.969 53.8439V53.2469C100.969 43.7742 90.501 37.6449 83.8143 38.5205C77.8839 39.2767 77.4063 43.0711 77.4063 48.7096V53.8439C77.4098 56.9674 78.6521 59.9619 80.8608 62.1705C83.0694 64.3791 86.064 65.6215 89.1875 65.625Z" fill="black"/>
<path d="M85.4037 47.2003C86.5489 47.2003 87.4773 46.272 87.4773 45.1268C87.4773 43.9816 86.5489 43.0532 85.4037 43.0532C84.2585 43.0532 83.3301 43.9816 83.3301 45.1268C83.3301 46.272 84.2585 47.2003 85.4037 47.2003Z" fill="white"/>
<path opacity="0.1" d="M89.2451 55.189C91.9099 55.189 94.0702 53.0288 94.0702 50.364C94.0702 47.6992 91.9099 45.5389 89.2451 45.5389C86.5803 45.5389 84.4201 47.6992 84.4201 50.364C84.4201 53.0288 86.5803 55.189 89.2451 55.189Z" fill="white"/>
<path d="M33.8996 65.625C30.7756 65.6215 27.7807 64.3787 25.5729 62.1697C23.3651 59.9607 22.125 56.9661 22.125 53.8439V53.2469C22.125 43.7742 32.5854 37.6449 39.2758 38.5205C45.2229 39.2767 45.6875 43.0711 45.6875 48.7096V53.8439C45.6875 56.9684 44.4456 59.965 42.2349 62.1744C40.0243 64.3838 37.026 65.625 33.8996 65.625V65.625Z" fill="black"/>
<path d="M30.1358 47.2003C31.281 47.2003 32.2093 46.272 32.2093 45.1268C32.2093 43.9816 31.281 43.0532 30.1358 43.0532C28.9906 43.0532 28.0622 43.9816 28.0622 45.1268C28.0622 46.272 28.9906 47.2003 30.1358 47.2003Z" fill="white"/>
<path opacity="0.1" d="M33.9772 55.189C36.642 55.189 38.8022 53.0288 38.8022 50.364C38.8022 47.6992 36.642 45.5389 33.9772 45.5389C31.3124 45.5389 29.1522 47.6992 29.1522 50.364C29.1522 53.0288 31.3124 55.189 33.9772 55.189Z" fill="white"/>
</g>
<defs>
<filter id="filter0_f_84_2370" x="0" y="0" width="124" height="124" filterUnits="userSpaceOnUse" color-interpolation-filters="sRGB">
<feFlood flood-opacity="0" result="BackgroundImageFix"/>
<feBlend mode="normal" in="SourceGraphic" in2="BackgroundImageFix" result="shape"/>
<feGaussianBlur stdDeviation="2" result="effect1_foregroundBlur_84_2370"/>
</filter>
<filter id="filter1_i_84_2370" x="4" y="4" width="116" height="116" filterUnits="userSpaceOnUse" color-interpolation-filters="sRGB">
<feFlood flood-opacity="0" result="BackgroundImageFix"/>
<feBlend mode="normal" in="SourceGraphic" in2="BackgroundImageFix" result="shape"/>
<feColorMatrix in="SourceAlpha" type="matrix" values="0 0 0 0 0 0 0 0 0 0 0 0 0 0 0 0 0 0 127 0" result="hardAlpha"/>
<feOffset dx="-6" dy="-6"/>
<feComposite in2="hardAlpha" operator="arithmetic" k2="-1" k3="1"/>
<feColorMatrix type="matrix" values="0 0 0 0 0 0 0 0 0 0 0 0 0 0 0 0 0 0 0.04 0"/>
<feBlend mode="normal" in2="shape" result="effect1_innerShadow_84_2370"/>
</filter>
</defs>
</svg>
