<svg width="142" height="142" viewBox="0 0 142 142" fill="none" xmlns="http://www.w3.org/2000/svg">
<g filter="url(#filter0_i_56_2773)">
<g filter="url(#filter1_i_56_2773)">
<path d="M142 33.5515V108.4C142.004 112.811 141.139 117.179 139.454 121.256C137.769 125.332 135.297 129.036 132.18 132.157C129.062 135.277 125.36 137.753 121.286 139.442C117.211 141.131 112.843 142 108.432 142H33.5841C24.6812 141.996 16.1439 138.458 9.84706 132.164C3.55023 125.871 0.00863741 117.335 1.57874e-05 108.432V33.5841C-0.00426228 29.1739 0.860955 24.8062 2.54618 20.7307C4.2314 16.6552 6.70356 12.952 9.82126 9.83276C12.939 6.71355 16.641 4.23959 20.7157 2.5524C24.7903 0.865198 29.1576 -0.0021369 33.5678 3.95355e-06H108.416C112.824 -0.00213335 117.19 0.864007 121.263 2.54897C125.336 4.23394 129.038 6.70473 132.157 9.82027C135.275 12.9358 137.75 16.6351 139.439 20.7069C141.127 24.7787 141.998 29.1433 142 33.5515Z" fill="#7392D5"/>
</g>
<g filter="url(#filter2_f_56_2773)" style="mix-blend-mode:soft-light">
<path d="M42.0325 73.2188H30.0768C25.107 73.2188 21.0781 77.1922 21.0781 82.0938C21.0781 86.9953 25.107 90.9688 30.0768 90.9688H42.0325C47.0024 90.9688 51.0312 86.9953 51.0312 82.0938C51.0312 77.1922 47.0024 73.2188 42.0325 73.2188Z" fill="#C140A3"/>
</g>
<g filter="url(#filter3_f_56_2773)" style="mix-blend-mode:soft-light">
<path d="M110.831 73.2188H98.8405C93.8804 73.2188 89.8594 77.1887 89.8594 82.0858V82.1017C89.8594 86.9988 93.8804 90.9688 98.8405 90.9688H110.831C115.792 90.9688 119.812 86.9988 119.812 82.1017V82.0858C119.812 77.1887 115.792 73.2188 110.831 73.2188Z" fill="#C140A3"/>
</g>
<path d="M71.6016 92.0781H70.766C60.0013 92.32 47.6965 97.9471 44.4688 109.992C44.3948 110.192 44.364 110.405 44.3785 110.618C44.393 110.83 44.4524 111.037 44.5528 111.226C44.6533 111.415 44.7927 111.581 44.9621 111.714C45.1315 111.846 45.3272 111.943 45.5366 111.997C45.746 112.051 45.9646 112.061 46.1784 112.027C46.3922 111.994 46.5964 111.916 46.7781 111.801C46.9598 111.685 47.1149 111.533 47.2336 111.354C47.3522 111.176 47.4318 110.976 47.4671 110.765C50.3017 100.269 61.2465 95.3512 70.8315 95.1416C79.9741 94.9643 91.9512 99.4026 95.7524 111.302C95.9517 111.583 96.2369 111.794 96.5666 111.905C96.8963 112.016 97.2532 112.02 97.5856 111.918C97.918 111.815 98.2086 111.611 98.4151 111.335C98.6217 111.059 98.7335 110.726 98.7344 110.383C95.2444 99.4993 84.6437 92.0781 71.6016 92.0781Z" fill="black"/>
<path d="M104.281 75.4375C108.106 75.4375 111.774 73.9181 114.479 71.2135C117.184 68.5089 118.703 64.8407 118.703 61.0158V60.285C118.703 48.6892 105.889 41.186 97.7037 42.2579C90.4441 43.1836 89.8594 47.8284 89.8594 54.7307V61.0158C89.8637 64.8394 91.3845 68.5051 94.0882 71.2087C96.7919 73.9124 100.458 75.4332 104.281 75.4375Z" fill="black"/>
<path d="M99.6494 52.8832C101.051 52.8832 102.188 51.7468 102.188 50.3449C102.188 48.943 101.051 47.8066 99.6494 47.8066C98.2475 47.8066 97.1111 48.943 97.1111 50.3449C97.1111 51.7468 98.2475 52.8832 99.6494 52.8832Z" fill="white"/>
<path opacity="0.1" d="M104.352 62.6623C107.614 62.6623 110.258 60.0179 110.258 56.7558C110.258 53.4937 107.614 50.8493 104.352 50.8493C101.09 50.8493 98.4453 53.4937 98.4453 56.7558C98.4453 60.0179 101.09 62.6623 104.352 62.6623Z" fill="white"/>
<path d="M36.6013 75.4375C32.777 75.4332 29.1108 73.9119 26.4082 71.2077C23.7056 68.5036 22.1875 64.8379 22.1875 61.0158V60.285C22.1875 48.6892 34.9925 41.186 43.1825 42.2579C50.4625 43.1836 51.0312 47.8284 51.0312 54.7307V61.0158C51.0312 64.8407 49.511 68.5089 46.8048 71.2135C44.0987 73.9181 40.4283 75.4375 36.6013 75.4375Z" fill="black"/>
<path d="M31.9937 52.8832C33.3955 52.8832 34.532 51.7468 34.532 50.3449C34.532 48.943 33.3955 47.8066 31.9937 47.8066C30.5918 47.8066 29.4553 48.943 29.4553 50.3449C29.4553 51.7468 30.5918 52.8832 31.9937 52.8832Z" fill="white"/>
<path opacity="0.1" d="M36.6963 62.6623C39.9584 62.6623 42.6028 60.0179 42.6028 56.7558C42.6028 53.4937 39.9584 50.8493 36.6963 50.8493C33.4342 50.8493 30.7898 53.4937 30.7898 56.7558C30.7898 60.0179 33.4342 62.6623 36.6963 62.6623Z" fill="white"/>
</g>
<defs>
<filter id="filter0_i_56_2773" x="0" y="0" width="142" height="146" filterUnits="userSpaceOnUse" color-interpolation-filters="sRGB">
<feFlood flood-opacity="0" result="BackgroundImageFix"/>
<feBlend mode="normal" in="SourceGraphic" in2="BackgroundImageFix" result="shape"/>
<feColorMatrix in="SourceAlpha" type="matrix" values="0 0 0 0 0 0 0 0 0 0 0 0 0 0 0 0 0 0 127 0" result="hardAlpha"/>
<feOffset dy="4"/>
<feGaussianBlur stdDeviation="2"/>
<feComposite in2="hardAlpha" operator="arithmetic" k2="-1" k3="1"/>
<feColorMatrix type="matrix" values="0 0 0 0 0 0 0 0 0 0 0 0 0 0 0 0 0 0 0.25 0"/>
<feBlend mode="normal" in2="shape" result="effect1_innerShadow_56_2773"/>
</filter>
<filter id="filter1_i_56_2773" x="0" y="0" width="142" height="142" filterUnits="userSpaceOnUse" color-interpolation-filters="sRGB">
<feFlood flood-opacity="0" result="BackgroundImageFix"/>
<feBlend mode="normal" in="SourceGraphic" in2="BackgroundImageFix" result="shape"/>
<feColorMatrix in="SourceAlpha" type="matrix" values="0 0 0 0 0 0 0 0 0 0 0 0 0 0 0 0 0 0 127 0" result="hardAlpha"/>
<feOffset dx="-6" dy="-6"/>
<feComposite in2="hardAlpha" operator="arithmetic" k2="-1" k3="1"/>
<feColorMatrix type="matrix" values="0 0 0 0 0 0 0 0 0 0 0 0 0 0 0 0 0 0 0.04 0"/>
<feBlend mode="normal" in2="shape" result="effect1_innerShadow_56_2773"/>
</filter>
<filter id="filter2_f_56_2773" x="11.0781" y="63.2188" width="49.9531" height="37.75" filterUnits="userSpaceOnUse" color-interpolation-filters="sRGB">
<feFlood flood-opacity="0" result="BackgroundImageFix"/>
<feBlend mode="normal" in="SourceGraphic" in2="BackgroundImageFix" result="shape"/>
<feGaussianBlur stdDeviation="5" result="effect1_foregroundBlur_56_2773"/>
</filter>
<filter id="filter3_f_56_2773" x="79.8594" y="63.2188" width="49.9531" height="37.75" filterUnits="userSpaceOnUse" color-interpolation-filters="sRGB">
<feFlood flood-opacity="0" result="BackgroundImageFix"/>
<feBlend mode="normal" in="SourceGraphic" in2="BackgroundImageFix" result="shape"/>
<feGaussianBlur stdDeviation="5" result="effect1_foregroundBlur_56_2773"/>
</filter>
</defs>
</svg>
