<svg width="51" height="44" viewBox="0 0 51 44" fill="none" xmlns="http://www.w3.org/2000/svg">
<g filter="url(#filter0_i_115_8986)">
<path d="M32 19.5609V36.4281C32.001 37.4221 31.806 38.4066 31.4263 39.3252C31.0466 40.2438 30.4895 41.0786 29.787 41.7818C29.0844 42.485 28.2502 43.0429 27.332 43.4235C26.4137 43.8041 25.4294 44 24.4354 44H7.56824C5.56195 43.999 3.63806 43.2019 2.21906 41.7835C0.800053 40.3652 0.00194646 38.4417 3.55772e-06 36.4354V19.5682C-0.000960514 18.5744 0.194018 17.5901 0.573787 16.6717C0.953555 15.7533 1.51066 14.9188 2.21324 14.2158C2.91582 13.5129 3.75009 12.9554 4.66832 12.5752C5.58655 12.195 6.57073 11.9995 7.56457 12H24.4318C25.4252 11.9995 26.4089 12.1947 27.3269 12.5744C28.2448 12.9541 29.079 13.5109 29.7818 14.213C30.4846 14.9151 31.0422 15.7488 31.4228 16.6663C31.8034 17.5839 31.9995 18.5675 32 19.5609V19.5609Z" fill="#D77C1B"/>
</g>
<path fill-rule="evenodd" clip-rule="evenodd" d="M7.50732 39.0112C7.50732 27.0112 25.0073 27.0112 25.0073 39.0112H7.50732Z" fill="#2B1607"/>
<path fill-rule="evenodd" clip-rule="evenodd" d="M10.2795 32.6841C13.2461 29.3377 19.0167 29.3638 22.2795 32.6841H10.2795Z" fill="white"/>
<path d="M7.75385 37.1997H24.7451C24.8251 37.7789 24.8615 38.3642 24.854 38.9497H7.60502C7.6033 38.3626 7.65313 37.7767 7.75385 37.1997Z" fill="white"/>
<path d="M24.9923 39.25H7.50729C7.43905 39.25 7.37361 39.2228 7.32536 39.1745C7.27711 39.1262 7.25 39.0607 7.25 38.9923C7.25 32.653 11.9139 29.75 16.2516 29.75C20.5893 29.75 25.2496 32.653 25.2496 38.9814C25.2516 39.0163 25.2464 39.0512 25.2343 39.084C25.2222 39.1167 25.2035 39.1466 25.1794 39.1718C25.1552 39.197 25.1261 39.217 25.094 39.2304C25.0618 39.2439 25.0272 39.2505 24.9923 39.25V39.25ZM7.76821 38.7347H24.7169C24.6625 36.151 23.7493 33.9847 22.0715 32.4534C20.4656 31.0249 18.3849 30.2484 16.2371 30.2762C12.2219 30.2798 7.89504 32.9288 7.76821 38.7347Z" fill="black"/>
<g clip-path="url(#clip0_115_8986)">
<path d="M26.75 24.7599C26.75 22.9595 25.2949 21.5 23.5 21.5C21.7051 21.5 20.25 22.9595 20.25 24.7599V25.7401C20.25 27.5405 21.7051 29 23.5 29C25.2949 29 26.75 27.5405 26.75 25.7401V24.7599Z" fill="black"/>
<path d="M22.4465 23.8833C22.7624 23.8833 23.0185 23.6272 23.0185 23.3113C23.0185 22.9954 22.7624 22.7393 22.4465 22.7393C22.1306 22.7393 21.8745 22.9954 21.8745 23.3113C21.8745 23.6272 22.1306 23.8833 22.4465 23.8833Z" fill="white"/>
<path opacity="0.1" d="M23.5061 26.0874C24.2412 26.0874 24.8371 25.4914 24.8371 24.7563C24.8371 24.0212 24.2412 23.4253 23.5061 23.4253C22.771 23.4253 22.175 24.0212 22.175 24.7563C22.175 25.4914 22.771 26.0874 23.5061 26.0874Z" fill="white"/>
<path d="M11.5 24.7599C11.5 22.9595 10.0449 21.5 8.25 21.5C6.45507 21.5 5 22.9595 5 24.7599V25.7401C5 27.5405 6.45507 29 8.25 29C10.0449 29 11.5 27.5405 11.5 25.7401V24.7599Z" fill="black"/>
<path d="M7.19653 23.8833C7.51245 23.8833 7.76855 23.6272 7.76855 23.3113C7.76855 22.9954 7.51245 22.7393 7.19653 22.7393C6.88061 22.7393 6.62451 22.9954 6.62451 23.3113C6.62451 23.6272 6.88061 23.8833 7.19653 23.8833Z" fill="white"/>
<path opacity="0.1" d="M8.25609 26.0874C8.9912 26.0874 9.58713 25.4914 9.58713 24.7563C9.58713 24.0212 8.9912 23.4253 8.25609 23.4253C7.52098 23.4253 6.92505 24.0212 6.92505 24.7563C6.92505 25.4914 7.52098 26.0874 8.25609 26.0874Z" fill="white"/>
</g>
<circle cx="37.5" cy="13.5" r="13.5" fill="white"/>
<path d="M48.5121 13.3512C48.5121 14.8168 48.2234 16.2681 47.6626 17.6222C47.1017 18.9763 46.2796 20.2066 45.2432 21.243C44.2069 22.2793 42.9765 23.1014 41.6224 23.6623C40.2683 24.2232 38.817 24.5119 37.3514 24.5119C34.3914 24.5119 31.5526 23.336 29.4595 21.243C27.3665 19.1499 26.1907 16.3112 26.1907 13.3512C26.1907 10.3911 27.3665 7.55237 29.4595 5.45933C31.5526 3.36629 34.3914 2.19043 37.3514 2.19043C38.817 2.19043 40.2683 2.47911 41.6224 3.03999C42.9765 3.60087 44.2069 4.42296 45.2432 5.45933C46.2796 6.4957 47.1017 7.72605 47.6626 9.08013C48.2234 10.4342 48.5121 11.8855 48.5121 13.3512ZM33.274 12.8485C33.274 12.4485 33.1151 12.0649 32.8323 11.7821C32.5495 11.4993 32.1659 11.3404 31.7659 11.3404C31.5679 11.3404 31.3718 11.3794 31.1888 11.4552C31.0059 11.531 30.8396 11.6421 30.6996 11.7821C30.5596 11.9221 30.4485 12.0884 30.3727 12.2714C30.2969 12.4543 30.2579 12.6504 30.2579 12.8485C30.2579 13.0465 30.2969 13.2426 30.3727 13.4256C30.4485 13.6085 30.5596 13.7748 30.6996 13.9148C30.8396 14.0549 31.0059 14.166 31.1888 14.2417C31.3718 14.3175 31.5679 14.3565 31.7659 14.3565C32.1659 14.3565 32.5495 14.1976 32.8323 13.9148C33.1151 13.632 33.274 13.2484 33.274 12.8485ZM44.4449 12.8485C44.4449 12.4485 44.286 12.0649 44.0032 11.7821C43.7204 11.4993 43.3368 11.3404 42.9368 11.3404C42.5369 11.3404 42.1533 11.4993 41.8705 11.7821C41.5876 12.0649 41.4288 12.4485 41.4288 12.8485C41.4288 13.2484 41.5876 13.632 41.8705 13.9148C42.1533 14.1976 42.5369 14.3565 42.9368 14.3565C43.3368 14.3565 43.7204 14.1976 44.0032 13.9148C44.286 13.632 44.4449 13.2484 44.4449 12.8485ZM35.9499 20.7646C36.9452 20.3313 37.9827 20.3566 39.0626 20.8407C39.4722 21.0235 39.8225 20.944 40.1136 20.6021C40.1983 20.5039 40.2609 20.3956 40.3015 20.2771C40.5283 19.6136 40.3151 19.1566 39.6617 18.9061C37.9387 18.2426 36.3443 18.2782 34.8786 19.0128C34.4487 19.226 34.2625 19.6102 34.32 20.1654C34.3573 20.5208 34.7364 20.7442 35.4574 20.8356C35.6232 20.8589 35.7939 20.8342 35.9499 20.7646Z" fill="#FF9A1C"/>
<path d="M31.7659 14.3565C32.5987 14.3565 33.2739 13.6813 33.2739 12.8484C33.2739 12.0155 32.5987 11.3403 31.7659 11.3403C30.933 11.3403 30.2578 12.0155 30.2578 12.8484C30.2578 13.6813 30.933 14.3565 31.7659 14.3565Z" fill="#020202"/>
<path d="M42.9368 14.3565C43.7696 14.3565 44.4448 13.6813 44.4448 12.8484C44.4448 12.0155 43.7696 11.3403 42.9368 11.3403C42.1039 11.3403 41.4287 12.0155 41.4287 12.8484C41.4287 13.6813 42.1039 14.3565 42.9368 14.3565Z" fill="#020202"/>
<path d="M35.9499 20.7643C35.7938 20.834 35.6232 20.8586 35.4574 20.8354C34.7364 20.744 34.3572 20.5206 34.32 20.1652C34.2625 19.61 34.4486 19.2258 34.8785 19.0125C36.3443 18.278 37.9387 18.2424 39.6617 18.9059C40.315 19.1564 40.5283 19.6134 40.3015 20.2769C40.2609 20.3954 40.1982 20.5037 40.1136 20.6018C39.8225 20.9437 39.4721 21.0233 39.0625 20.8405C37.9827 20.3564 36.9451 20.331 35.9499 20.7643Z" fill="#020202"/>
<defs>
<filter id="filter0_i_115_8986" x="0" y="12" width="32" height="32" filterUnits="userSpaceOnUse" color-interpolation-filters="sRGB">
<feFlood flood-opacity="0" result="BackgroundImageFix"/>
<feBlend mode="normal" in="SourceGraphic" in2="BackgroundImageFix" result="shape"/>
<feColorMatrix in="SourceAlpha" type="matrix" values="0 0 0 0 0 0 0 0 0 0 0 0 0 0 0 0 0 0 127 0" result="hardAlpha"/>
<feOffset dx="-6" dy="-6"/>
<feComposite in2="hardAlpha" operator="arithmetic" k2="-1" k3="1"/>
<feColorMatrix type="matrix" values="0 0 0 0 0 0 0 0 0 0 0 0 0 0 0 0 0 0 0.04 0"/>
<feBlend mode="normal" in2="shape" result="effect1_innerShadow_115_8986"/>
</filter>
<clipPath id="clip0_115_8986">
<rect width="21.865" height="7.49123" fill="white" transform="translate(5 21.5)"/>
</clipPath>
</defs>
</svg>
