<svg width="142" height="142" viewBox="0 0 142 142" fill="none" xmlns="http://www.w3.org/2000/svg">
<g filter="url(#filter0_i_56_1963)">
<g filter="url(#filter1_i_56_1963)">
<path d="M142 33.5515V108.4C142.004 112.811 141.139 117.179 139.454 121.256C137.769 125.332 135.297 129.036 132.18 132.157C129.062 135.277 125.36 137.753 121.286 139.442C117.211 141.131 112.843 142 108.432 142H33.5841C24.6812 141.996 16.1439 138.458 9.84706 132.164C3.55023 125.871 0.00863741 117.335 1.57874e-05 108.432V33.5841C-0.00426228 29.1739 0.860955 24.8062 2.54618 20.7307C4.2314 16.6552 6.70356 12.952 9.82126 9.83276C12.939 6.71355 16.641 4.23959 20.7157 2.5524C24.7903 0.865198 29.1576 -0.0021369 33.5678 3.95355e-06H108.416C112.824 -0.00213335 117.19 0.864007 121.263 2.54897C125.336 4.23394 129.038 6.70473 132.157 9.82027C135.275 12.9358 137.75 16.6351 139.439 20.7069C141.127 24.7787 141.998 29.1433 142 33.5515V33.5515Z" fill="#D77C1B"/>
</g>
<path fill-rule="evenodd" clip-rule="evenodd" d="M33.3135 119.863C33.3135 66.6125 110.97 66.6125 110.97 119.863H33.3135Z" fill="#2B1607"/>
<path fill-rule="evenodd" clip-rule="evenodd" d="M45.6154 91.7856C58.7795 76.9363 84.3863 77.0518 98.8653 91.7856H45.6154Z" fill="white"/>
<path d="M34.4083 111.824H109.807C110.162 114.394 110.324 116.991 110.29 119.589H33.7479C33.7402 116.984 33.9613 114.384 34.4083 111.824Z" fill="white"/>
<path d="M110.903 120.922H33.3136C33.0108 120.922 32.7204 120.801 32.5063 120.587C32.2922 120.372 32.1719 120.082 32.1719 119.778C32.1719 91.6476 52.8678 78.7656 72.1165 78.7656C91.3651 78.7656 112.045 91.6476 112.045 119.73C112.054 119.885 112.031 120.04 111.977 120.185C111.924 120.331 111.841 120.463 111.733 120.575C111.626 120.687 111.497 120.775 111.354 120.835C111.212 120.895 111.058 120.924 110.903 120.922V120.922ZM34.4714 118.635H109.681C109.44 107.17 105.388 97.5571 97.9422 90.7619C90.8163 84.423 81.583 80.9774 72.0522 81.1005C54.2347 81.1166 35.0343 92.8713 34.4714 118.635Z" fill="black"/>
<g clip-path="url(#clip0_56_1963)">
<path d="M118.703 56.6221C118.703 48.6328 112.246 42.1562 104.281 42.1562C96.3163 42.1562 89.8594 48.6328 89.8594 56.6221V60.9716C89.8594 68.9609 96.3163 75.4375 104.281 75.4375C112.246 75.4375 118.703 68.9609 118.703 60.9716V56.6221Z" fill="black"/>
<path d="M99.606 52.7326C101.008 52.7326 102.144 51.5962 102.144 50.1943C102.144 48.7924 101.008 47.656 99.606 47.656C98.2041 47.656 97.0676 48.7924 97.0676 50.1943C97.0676 51.5962 98.2041 52.7326 99.606 52.7326Z" fill="white"/>
<path opacity="0.1" d="M104.308 62.5117C107.57 62.5117 110.215 59.8673 110.215 56.6052C110.215 53.3431 107.57 50.6987 104.308 50.6987C101.046 50.6987 98.4019 53.3431 98.4019 56.6052C98.4019 59.8673 101.046 62.5117 104.308 62.5117Z" fill="white"/>
<path d="M51.0312 56.6221C51.0312 48.6328 44.5744 42.1562 36.6094 42.1562C28.6444 42.1562 22.1875 48.6328 22.1875 56.6221V60.9716C22.1875 68.9609 28.6444 75.4375 36.6094 75.4375C44.5744 75.4375 51.0312 68.9609 51.0312 60.9716V56.6221Z" fill="black"/>
<path d="M31.9341 52.7326C33.336 52.7326 34.4724 51.5962 34.4724 50.1943C34.4724 48.7924 33.336 47.656 31.9341 47.656C30.5322 47.656 29.3958 48.7924 29.3958 50.1943C29.3958 51.5962 30.5322 52.7326 31.9341 52.7326Z" fill="white"/>
<path opacity="0.1" d="M36.6365 62.5117C39.8985 62.5117 42.543 59.8673 42.543 56.6052C42.543 53.3431 39.8985 50.6987 36.6365 50.6987C33.3744 50.6987 30.73 53.3431 30.73 56.6052C30.73 59.8673 33.3744 62.5117 36.6365 62.5117Z" fill="white"/>
</g>
</g>
<defs>
<filter id="filter0_i_56_1963" x="0" y="0" width="142" height="146" filterUnits="userSpaceOnUse" color-interpolation-filters="sRGB">
<feFlood flood-opacity="0" result="BackgroundImageFix"/>
<feBlend mode="normal" in="SourceGraphic" in2="BackgroundImageFix" result="shape"/>
<feColorMatrix in="SourceAlpha" type="matrix" values="0 0 0 0 0 0 0 0 0 0 0 0 0 0 0 0 0 0 127 0" result="hardAlpha"/>
<feOffset dy="4"/>
<feGaussianBlur stdDeviation="2"/>
<feComposite in2="hardAlpha" operator="arithmetic" k2="-1" k3="1"/>
<feColorMatrix type="matrix" values="0 0 0 0 0 0 0 0 0 0 0 0 0 0 0 0 0 0 0.25 0"/>
<feBlend mode="normal" in2="shape" result="effect1_innerShadow_56_1963"/>
</filter>
<filter id="filter1_i_56_1963" x="0" y="0" width="142" height="142" filterUnits="userSpaceOnUse" color-interpolation-filters="sRGB">
<feFlood flood-opacity="0" result="BackgroundImageFix"/>
<feBlend mode="normal" in="SourceGraphic" in2="BackgroundImageFix" result="shape"/>
<feColorMatrix in="SourceAlpha" type="matrix" values="0 0 0 0 0 0 0 0 0 0 0 0 0 0 0 0 0 0 127 0" result="hardAlpha"/>
<feOffset dx="-6" dy="-6"/>
<feComposite in2="hardAlpha" operator="arithmetic" k2="-1" k3="1"/>
<feColorMatrix type="matrix" values="0 0 0 0 0 0 0 0 0 0 0 0 0 0 0 0 0 0 0.04 0"/>
<feBlend mode="normal" in2="shape" result="effect1_innerShadow_56_1963"/>
</filter>
<clipPath id="clip0_56_1963">
<rect width="97.026" height="33.2424" fill="white" transform="translate(22.1875 42.1562)"/>
</clipPath>
</defs>
</svg>
