<svg width="51" height="44" viewBox="0 0 51 44" fill="none" xmlns="http://www.w3.org/2000/svg">
<g filter="url(#filter0_i_115_8968)">
<path d="M32 19.5609V36.4281C32.001 37.4221 31.806 38.4066 31.4263 39.3252C31.0466 40.2438 30.4895 41.0786 29.787 41.7818C29.0844 42.485 28.2502 43.0429 27.332 43.4235C26.4137 43.8041 25.4294 44 24.4354 44H7.56824C5.56195 43.999 3.63806 43.2019 2.21906 41.7835C0.800053 40.3652 0.00194646 38.4417 3.55772e-06 36.4354V19.5682C-0.000960514 18.5744 0.194018 17.5901 0.573787 16.6717C0.953555 15.7533 1.51066 14.9188 2.21324 14.2158C2.91582 13.5129 3.75009 12.9554 4.66832 12.5752C5.58655 12.195 6.57073 11.9995 7.56457 12H24.4318C25.4252 11.9995 26.4089 12.1947 27.3269 12.5744C28.2448 12.9541 29.079 13.5109 29.7818 14.213C30.4846 14.9151 31.0422 15.7488 31.4228 16.6663C31.8034 17.5839 31.9995 18.5675 32 19.5609V19.5609Z" fill="#D77C1B"/>
</g>
<path fill-rule="evenodd" clip-rule="evenodd" d="M7.50732 39.0112C7.50732 27.0112 25.0073 27.0112 25.0073 39.0112H7.50732Z" fill="#2B1607"/>
<path fill-rule="evenodd" clip-rule="evenodd" d="M10.2795 32.6841C13.2461 29.3377 19.0167 29.3638 22.2795 32.6841H10.2795Z" fill="white"/>
<path d="M7.75385 37.1997H24.7451C24.8251 37.7789 24.8615 38.3642 24.854 38.9497H7.60502C7.6033 38.3626 7.65313 37.7767 7.75385 37.1997Z" fill="white"/>
<path d="M24.9923 39.25H7.50729C7.43905 39.25 7.37361 39.2228 7.32536 39.1745C7.27711 39.1262 7.25 39.0607 7.25 38.9923C7.25 32.653 11.9139 29.75 16.2516 29.75C20.5893 29.75 25.2496 32.653 25.2496 38.9814C25.2516 39.0163 25.2464 39.0512 25.2343 39.084C25.2222 39.1167 25.2035 39.1466 25.1794 39.1718C25.1552 39.197 25.1261 39.217 25.094 39.2304C25.0618 39.2439 25.0272 39.2505 24.9923 39.25V39.25ZM7.76821 38.7347H24.7169C24.6625 36.151 23.7493 33.9847 22.0715 32.4534C20.4656 31.0249 18.3849 30.2484 16.2371 30.2762C12.2219 30.2798 7.89504 32.9288 7.76821 38.7347Z" fill="black"/>
<g clip-path="url(#clip0_115_8968)">
<path d="M26.75 24.7599C26.75 22.9595 25.2949 21.5 23.5 21.5C21.7051 21.5 20.25 22.9595 20.25 24.7599V25.7401C20.25 27.5405 21.7051 29 23.5 29C25.2949 29 26.75 27.5405 26.75 25.7401V24.7599Z" fill="black"/>
<path d="M22.4465 23.8833C22.7624 23.8833 23.0185 23.6272 23.0185 23.3113C23.0185 22.9954 22.7624 22.7393 22.4465 22.7393C22.1306 22.7393 21.8745 22.9954 21.8745 23.3113C21.8745 23.6272 22.1306 23.8833 22.4465 23.8833Z" fill="white"/>
<path opacity="0.1" d="M23.5061 26.0874C24.2412 26.0874 24.8371 25.4914 24.8371 24.7563C24.8371 24.0212 24.2412 23.4253 23.5061 23.4253C22.771 23.4253 22.175 24.0212 22.175 24.7563C22.175 25.4914 22.771 26.0874 23.5061 26.0874Z" fill="white"/>
<path d="M11.5 24.7599C11.5 22.9595 10.0449 21.5 8.25 21.5C6.45507 21.5 5 22.9595 5 24.7599V25.7401C5 27.5405 6.45507 29 8.25 29C10.0449 29 11.5 27.5405 11.5 25.7401V24.7599Z" fill="black"/>
<path d="M7.19653 23.8833C7.51245 23.8833 7.76855 23.6272 7.76855 23.3113C7.76855 22.9954 7.51245 22.7393 7.19653 22.7393C6.88061 22.7393 6.62451 22.9954 6.62451 23.3113C6.62451 23.6272 6.88061 23.8833 7.19653 23.8833Z" fill="white"/>
<path opacity="0.1" d="M8.25609 26.0874C8.9912 26.0874 9.58713 25.4914 9.58713 24.7563C9.58713 24.0212 8.9912 23.4253 8.25609 23.4253C7.52098 23.4253 6.92505 24.0212 6.92505 24.7563C6.92505 25.4914 7.52098 26.0874 8.25609 26.0874Z" fill="white"/>
</g>
<circle cx="37.5" cy="13.5" r="13.5" fill="white"/>
<path d="M49.3928 13.39C49.3928 14.9729 49.081 16.5403 48.4753 18.0027C47.8695 19.4651 46.9817 20.7939 45.8624 21.9132C44.7431 23.0325 43.4143 23.9203 41.9519 24.5261C40.4895 25.1318 38.9221 25.4436 37.3392 25.4436C34.1424 25.4436 31.0765 24.1737 28.816 21.9132C26.5555 19.6527 25.2856 16.5868 25.2856 13.39C25.2856 10.1932 26.5555 7.12732 28.816 4.86684C31.0765 2.60635 34.1424 1.33643 37.3392 1.33643C40.536 1.33643 43.6019 2.60635 45.8624 4.86684C48.1229 7.12732 49.3928 10.1932 49.3928 13.39ZM31.3309 14.4976C31.5469 14.4958 31.7603 14.4228 31.9587 14.283C32.157 14.1432 32.3366 13.9393 32.4872 13.6828C32.6377 13.4264 32.7562 13.1225 32.836 12.7884C32.9158 12.4544 32.9552 12.0967 32.952 11.736C32.9457 11.0073 32.7663 10.3101 32.4533 9.79753C32.1402 9.285 31.7193 8.9992 31.283 9.00301C31.0669 9.00489 30.8536 9.07782 30.6552 9.21762C30.4568 9.35743 30.2773 9.56138 30.1267 9.81783C29.9762 10.0743 29.8577 10.3782 29.7779 10.7122C29.6981 11.0463 29.6587 11.4039 29.6618 11.7647C29.6682 12.4933 29.8476 13.1906 30.1606 13.7031C30.4736 14.2157 30.8946 14.5014 31.3309 14.4976ZM43.3955 14.4976C43.6115 14.4958 43.8248 14.4228 44.0232 14.283C44.2216 14.1432 44.4012 13.9393 44.5517 13.6828C44.7023 13.4264 44.8208 13.1225 44.9005 12.7884C44.9803 12.4544 45.0197 12.0967 45.0166 11.736C45.0102 11.0073 44.8308 10.3101 44.5178 9.79753C44.2048 9.285 43.7838 8.9992 43.3475 9.00301C43.1315 9.00489 42.9182 9.07782 42.7198 9.21762C42.5214 9.35743 42.3418 9.56138 42.1913 9.81783C42.0407 10.0743 41.9222 10.3782 41.8424 10.7122C41.7627 11.0463 41.7232 11.4039 41.7264 11.7647C41.7328 12.4933 41.9122 13.1906 42.2252 13.7031C42.5382 14.2157 42.9592 14.5014 43.3955 14.4976ZM42.3789 18.0842C43.2783 16.4171 42.781 15.5836 40.8873 15.5836H33.1111C32.9133 15.5833 32.7183 15.6301 32.542 15.7199C32.3657 15.8097 32.2131 15.9401 32.0966 16.1005C31.98 16.2608 31.9029 16.4466 31.8715 16.6426C31.84 16.8387 31.8552 17.0395 31.9156 17.2287C32.7273 19.7513 35.1786 21.2045 37.8108 21.04C38.893 20.9742 39.8655 20.6141 40.7283 19.9597C41.4448 19.4186 41.995 18.7935 42.3789 18.0842Z" fill="white"/>
<path d="M48.5121 13.3511C48.5121 16.3112 47.3363 19.1499 45.2432 21.243C43.1502 23.336 40.3114 24.5119 37.3514 24.5119C34.3914 24.5119 31.5526 23.336 29.4596 21.243C27.3665 19.1499 26.1907 16.3112 26.1907 13.3511C26.1907 10.3911 27.3665 7.55237 29.4596 5.45933C31.5526 3.36629 34.3914 2.19043 37.3514 2.19043C40.3114 2.19043 43.1502 3.36629 45.2432 5.45933C47.3363 7.55237 48.5121 10.3911 48.5121 13.3511ZM33.274 12.8485C33.274 12.6504 33.235 12.4543 33.1592 12.2713C33.0834 12.0884 32.9724 11.9221 32.8323 11.7821C32.6923 11.6421 32.526 11.531 32.3431 11.4552C32.1601 11.3794 31.964 11.3404 31.766 11.3404C31.366 11.3404 30.9824 11.4993 30.6996 11.7821C30.4168 12.0649 30.2579 12.4485 30.2579 12.8485C30.2579 13.2484 30.4168 13.632 30.6996 13.9148C30.9824 14.1976 31.366 14.3565 31.766 14.3565C31.964 14.3565 32.1601 14.3175 32.3431 14.2417C32.526 14.1659 32.6923 14.0549 32.8323 13.9148C32.9724 13.7748 33.0834 13.6085 33.1592 13.4256C33.235 13.2426 33.274 13.0465 33.274 12.8485ZM44.4449 12.8485C44.4449 12.4485 44.286 12.0649 44.0032 11.7821C43.7204 11.4993 43.3368 11.3404 42.9368 11.3404C42.5369 11.3404 42.1533 11.4993 41.8705 11.7821C41.5877 12.0649 41.4288 12.4485 41.4288 12.8485C41.4288 13.2484 41.5877 13.632 41.8705 13.9148C42.1533 14.1976 42.5369 14.3565 42.9368 14.3565C43.3368 14.3565 43.7204 14.1976 44.0032 13.9148C44.286 13.632 44.4449 13.2484 44.4449 12.8485ZM40.4691 15.697C38.8747 17.7433 35.95 18.1749 34.4216 15.9001C34.0898 15.4059 33.6464 15.2637 33.0912 15.4736C32.9964 15.5075 32.9169 15.5667 32.8526 15.6513C32.4396 16.1896 32.4514 16.7193 32.8881 17.2406C35.4016 20.2517 39.7734 20.2111 42.0025 16.936C42.4121 16.3368 42.2937 15.8748 41.6471 15.5498L41.4846 15.4685C41.0818 15.2654 40.7433 15.3416 40.4691 15.697Z" fill="#8DC255"/>
<path d="M31.7659 14.3565C32.5988 14.3565 33.2739 13.6813 33.2739 12.8484C33.2739 12.0155 32.5988 11.3403 31.7659 11.3403C30.933 11.3403 30.2578 12.0155 30.2578 12.8484C30.2578 13.6813 30.933 14.3565 31.7659 14.3565Z" fill="#020202"/>
<path d="M42.9368 14.3565C43.7696 14.3565 44.4448 13.6813 44.4448 12.8484C44.4448 12.0155 43.7696 11.3403 42.9368 11.3403C42.1039 11.3403 41.4287 12.0155 41.4287 12.8484C41.4287 13.6813 42.1039 14.3565 42.9368 14.3565Z" fill="#020202"/>
<path d="M34.4216 15.8998C35.95 18.1746 38.8747 17.743 40.4691 15.6967C40.7433 15.3413 41.0818 15.2651 41.4847 15.4682L41.6471 15.5495C42.2937 15.8744 42.4122 16.3365 42.0026 16.9357C39.7735 20.2107 35.4016 20.2514 32.8882 17.2403C32.4515 16.719 32.4396 16.1892 32.8526 15.651C32.9169 15.5664 32.9965 15.5071 33.0913 15.4733C33.6464 15.2634 34.0899 15.4056 34.4216 15.8998Z" fill="#020202"/>
<defs>
<filter id="filter0_i_115_8968" x="0" y="12" width="32" height="32" filterUnits="userSpaceOnUse" color-interpolation-filters="sRGB">
<feFlood flood-opacity="0" result="BackgroundImageFix"/>
<feBlend mode="normal" in="SourceGraphic" in2="BackgroundImageFix" result="shape"/>
<feColorMatrix in="SourceAlpha" type="matrix" values="0 0 0 0 0 0 0 0 0 0 0 0 0 0 0 0 0 0 127 0" result="hardAlpha"/>
<feOffset dx="-6" dy="-6"/>
<feComposite in2="hardAlpha" operator="arithmetic" k2="-1" k3="1"/>
<feColorMatrix type="matrix" values="0 0 0 0 0 0 0 0 0 0 0 0 0 0 0 0 0 0 0.04 0"/>
<feBlend mode="normal" in2="shape" result="effect1_innerShadow_115_8968"/>
</filter>
<clipPath id="clip0_115_8968">
<rect width="21.865" height="7.49123" fill="white" transform="translate(5 21.5)"/>
</clipPath>
</defs>
</svg>
