<svg width="51" height="44" viewBox="0 0 51 44" fill="none" xmlns="http://www.w3.org/2000/svg">
<g filter="url(#filter0_i_115_8977)">
<path d="M32 19.5609V36.4281C32.001 37.4221 31.806 38.4066 31.4263 39.3252C31.0466 40.2438 30.4895 41.0786 29.787 41.7818C29.0844 42.485 28.2502 43.0429 27.332 43.4235C26.4137 43.8041 25.4294 44 24.4354 44H7.56824C5.56195 43.999 3.63806 43.2019 2.21906 41.7835C0.800053 40.3652 0.00194646 38.4417 3.55772e-06 36.4354V19.5682C-0.000960514 18.5744 0.194018 17.5901 0.573787 16.6717C0.953555 15.7533 1.51066 14.9188 2.21324 14.2158C2.91582 13.5129 3.75009 12.9554 4.66832 12.5752C5.58655 12.195 6.57073 11.9995 7.56457 12H24.4318C25.4252 11.9995 26.4089 12.1947 27.3269 12.5744C28.2448 12.9541 29.079 13.5109 29.7818 14.213C30.4846 14.9151 31.0422 15.7488 31.4228 16.6663C31.8034 17.5839 31.9995 18.5675 32 19.5609V19.5609Z" fill="#D77C1B"/>
</g>
<path fill-rule="evenodd" clip-rule="evenodd" d="M7.50732 39.0112C7.50732 27.0112 25.0073 27.0112 25.0073 39.0112H7.50732Z" fill="#2B1607"/>
<path fill-rule="evenodd" clip-rule="evenodd" d="M10.2795 32.6841C13.2461 29.3377 19.0167 29.3638 22.2795 32.6841H10.2795Z" fill="white"/>
<path d="M7.75385 37.1997H24.7451C24.8251 37.7789 24.8615 38.3642 24.854 38.9497H7.60502C7.6033 38.3626 7.65313 37.7767 7.75385 37.1997Z" fill="white"/>
<path d="M24.9923 39.25H7.50729C7.43905 39.25 7.37361 39.2228 7.32536 39.1745C7.27711 39.1262 7.25 39.0607 7.25 38.9923C7.25 32.653 11.9139 29.75 16.2516 29.75C20.5893 29.75 25.2496 32.653 25.2496 38.9814C25.2516 39.0163 25.2464 39.0512 25.2343 39.084C25.2222 39.1167 25.2035 39.1466 25.1794 39.1718C25.1552 39.197 25.1261 39.217 25.094 39.2304C25.0618 39.2439 25.0272 39.2505 24.9923 39.25V39.25ZM7.76821 38.7347H24.7169C24.6625 36.151 23.7493 33.9847 22.0715 32.4534C20.4656 31.0249 18.3849 30.2484 16.2371 30.2762C12.2219 30.2798 7.89504 32.9288 7.76821 38.7347Z" fill="black"/>
<g clip-path="url(#clip0_115_8977)">
<path d="M26.75 24.7599C26.75 22.9595 25.2949 21.5 23.5 21.5C21.7051 21.5 20.25 22.9595 20.25 24.7599V25.7401C20.25 27.5405 21.7051 29 23.5 29C25.2949 29 26.75 27.5405 26.75 25.7401V24.7599Z" fill="black"/>
<path d="M22.4465 23.8833C22.7624 23.8833 23.0185 23.6272 23.0185 23.3113C23.0185 22.9954 22.7624 22.7393 22.4465 22.7393C22.1306 22.7393 21.8745 22.9954 21.8745 23.3113C21.8745 23.6272 22.1306 23.8833 22.4465 23.8833Z" fill="white"/>
<path opacity="0.1" d="M23.5061 26.0874C24.2412 26.0874 24.8371 25.4914 24.8371 24.7563C24.8371 24.0212 24.2412 23.4253 23.5061 23.4253C22.771 23.4253 22.175 24.0212 22.175 24.7563C22.175 25.4914 22.771 26.0874 23.5061 26.0874Z" fill="white"/>
<path d="M11.5 24.7599C11.5 22.9595 10.0449 21.5 8.25 21.5C6.45507 21.5 5 22.9595 5 24.7599V25.7401C5 27.5405 6.45507 29 8.25 29C10.0449 29 11.5 27.5405 11.5 25.7401V24.7599Z" fill="black"/>
<path d="M7.19653 23.8833C7.51245 23.8833 7.76855 23.6272 7.76855 23.3113C7.76855 22.9954 7.51245 22.7393 7.19653 22.7393C6.88061 22.7393 6.62451 22.9954 6.62451 23.3113C6.62451 23.6272 6.88061 23.8833 7.19653 23.8833Z" fill="white"/>
<path opacity="0.1" d="M8.25609 26.0874C8.9912 26.0874 9.58713 25.4914 9.58713 24.7563C9.58713 24.0212 8.9912 23.4253 8.25609 23.4253C7.52098 23.4253 6.92505 24.0212 6.92505 24.7563C6.92505 25.4914 7.52098 26.0874 8.25609 26.0874Z" fill="white"/>
</g>
<circle cx="37.5" cy="13.5" r="13.5" fill="white"/>
<path d="M48.549 13.3511C48.549 16.3111 47.3731 19.1499 45.2801 21.243C43.187 23.336 40.3483 24.5118 37.3883 24.5118C34.4282 24.5118 31.5895 23.336 29.4964 21.243C27.4034 19.1499 26.2275 16.3111 26.2275 13.3511C26.2275 10.3911 27.4034 7.55237 29.4964 5.45933C31.5895 3.36629 34.4282 2.19043 37.3883 2.19043C40.3483 2.19043 43.187 3.36629 45.2801 5.45933C47.3731 7.55237 48.549 10.3911 48.549 13.3511ZM33.3109 12.8485C33.3109 12.4485 33.152 12.0649 32.8692 11.7821C32.5864 11.4993 32.2028 11.3404 31.8028 11.3404C31.6048 11.3404 31.4087 11.3794 31.2257 11.4552C31.0427 11.531 30.8765 11.642 30.7365 11.7821C30.5964 11.9221 30.4853 12.0884 30.4095 12.2713C30.3338 12.4543 30.2948 12.6504 30.2948 12.8485C30.2948 13.0465 30.3338 13.2426 30.4095 13.4256C30.4853 13.6085 30.5964 13.7748 30.7365 13.9148C30.8765 14.0549 31.0427 14.1659 31.2257 14.2417C31.4087 14.3175 31.6048 14.3565 31.8028 14.3565C32.2028 14.3565 32.5864 14.1976 32.8692 13.9148C33.152 13.632 33.3109 13.2484 33.3109 12.8485ZM44.4818 12.8485C44.4818 12.4485 44.3229 12.0649 44.04 11.7821C43.7572 11.4993 43.3736 11.3404 42.9737 11.3404C42.5737 11.3404 42.1901 11.4993 41.9073 11.7821C41.6245 12.0649 41.4656 12.4485 41.4656 12.8485C41.4656 13.2484 41.6245 13.632 41.9073 13.9148C42.1901 14.1976 42.5737 14.3565 42.9737 14.3565C43.3736 14.3565 43.7572 14.1976 44.04 13.9148C44.3229 13.632 44.4818 13.2484 44.4818 12.8485ZM42.4457 17.3561C42.4459 17.2314 42.4216 17.1079 42.3741 16.9926C42.3266 16.8773 42.2568 16.7725 42.1688 16.6842C42.0808 16.5959 41.9762 16.5257 41.8611 16.4778C41.746 16.4299 41.6226 16.4051 41.4979 16.4049L33.272 16.3906C33.1473 16.3904 33.0238 16.4147 32.9086 16.4622C32.7933 16.5097 32.6885 16.5795 32.6001 16.6675C32.5118 16.7555 32.4417 16.8601 32.3938 16.9752C32.3458 17.0903 32.3211 17.2137 32.3208 17.3384L32.3206 17.4704C32.3204 17.5951 32.3448 17.7187 32.3923 17.8339C32.4398 17.9492 32.5096 18.054 32.5976 18.1424C32.6856 18.2307 32.7901 18.3008 32.9053 18.3487C33.0204 18.3966 33.1438 18.4214 33.2685 18.4216L41.4943 18.436C41.619 18.4362 41.7425 18.4118 41.8578 18.3643C41.9731 18.3168 42.0779 18.2471 42.1662 18.159C42.2545 18.071 42.3247 17.9665 42.3726 17.8514C42.4205 17.7362 42.4453 17.6128 42.4455 17.4881L42.4457 17.3561Z" fill="#FFC22D"/>
<path d="M31.8027 14.3565C32.6356 14.3565 33.3108 13.6813 33.3108 12.8484C33.3108 12.0155 32.6356 11.3403 31.8027 11.3403C30.9699 11.3403 30.2947 12.0155 30.2947 12.8484C30.2947 13.6813 30.9699 14.3565 31.8027 14.3565Z" fill="#020202"/>
<path d="M42.9736 14.3565C43.8065 14.3565 44.4817 13.6813 44.4817 12.8484C44.4817 12.0155 43.8065 11.3403 42.9736 11.3403C42.1408 11.3403 41.4656 12.0155 41.4656 12.8484C41.4656 13.6813 42.1408 14.3565 42.9736 14.3565Z" fill="#020202"/>
<path d="M41.4978 16.4047L33.272 16.3903C32.7476 16.3894 32.3218 16.8138 32.3209 17.3382L32.3206 17.4702C32.3197 17.9946 32.7441 18.4205 33.2685 18.4214L41.4943 18.4357C42.0187 18.4367 42.4446 18.0123 42.4455 17.4879L42.4457 17.3559C42.4466 16.8315 42.0222 16.4056 41.4978 16.4047Z" fill="#020202"/>
<defs>
<filter id="filter0_i_115_8977" x="0" y="12" width="32" height="32" filterUnits="userSpaceOnUse" color-interpolation-filters="sRGB">
<feFlood flood-opacity="0" result="BackgroundImageFix"/>
<feBlend mode="normal" in="SourceGraphic" in2="BackgroundImageFix" result="shape"/>
<feColorMatrix in="SourceAlpha" type="matrix" values="0 0 0 0 0 0 0 0 0 0 0 0 0 0 0 0 0 0 127 0" result="hardAlpha"/>
<feOffset dx="-6" dy="-6"/>
<feComposite in2="hardAlpha" operator="arithmetic" k2="-1" k3="1"/>
<feColorMatrix type="matrix" values="0 0 0 0 0 0 0 0 0 0 0 0 0 0 0 0 0 0 0.04 0"/>
<feBlend mode="normal" in2="shape" result="effect1_innerShadow_115_8977"/>
</filter>
<clipPath id="clip0_115_8977">
<rect width="21.865" height="7.49123" fill="white" transform="translate(5 21.5)"/>
</clipPath>
</defs>
</svg>
