<svg width="51" height="44" viewBox="0 0 51 44" fill="none" xmlns="http://www.w3.org/2000/svg">
<g filter="url(#filter0_i_115_8959)">
<path d="M32 19.5609V36.4281C32.001 37.4221 31.806 38.4066 31.4263 39.3252C31.0466 40.2438 30.4895 41.0786 29.787 41.7818C29.0844 42.485 28.2502 43.0429 27.332 43.4235C26.4137 43.8041 25.4294 44 24.4354 44H7.56824C5.56195 43.999 3.63806 43.2019 2.21906 41.7835C0.800053 40.3652 0.00194646 38.4417 3.55772e-06 36.4354V19.5682C-0.000960514 18.5744 0.194018 17.5901 0.573787 16.6717C0.953555 15.7533 1.51066 14.9188 2.21324 14.2158C2.91582 13.5129 3.75009 12.9554 4.66832 12.5752C5.58655 12.195 6.57073 11.9995 7.56457 12H24.4318C25.4252 11.9995 26.4089 12.1947 27.3269 12.5744C28.2448 12.9541 29.079 13.5109 29.7818 14.213C30.4846 14.9151 31.0422 15.7488 31.4228 16.6663C31.8034 17.5839 31.9995 18.5675 32 19.5609V19.5609Z" fill="#D77C1B"/>
</g>
<path fill-rule="evenodd" clip-rule="evenodd" d="M7.50732 39.0112C7.50732 27.0112 25.0073 27.0112 25.0073 39.0112H7.50732Z" fill="#2B1607"/>
<path fill-rule="evenodd" clip-rule="evenodd" d="M10.2795 32.6841C13.2461 29.3377 19.0167 29.3638 22.2795 32.6841H10.2795Z" fill="white"/>
<path d="M7.75385 37.1997H24.7451C24.8251 37.7789 24.8615 38.3642 24.854 38.9497H7.60502C7.6033 38.3626 7.65313 37.7767 7.75385 37.1997Z" fill="white"/>
<path d="M24.9923 39.25H7.50729C7.43905 39.25 7.37361 39.2228 7.32536 39.1745C7.27711 39.1262 7.25 39.0607 7.25 38.9923C7.25 32.653 11.9139 29.75 16.2516 29.75C20.5893 29.75 25.2496 32.653 25.2496 38.9814C25.2516 39.0163 25.2464 39.0512 25.2343 39.084C25.2222 39.1167 25.2035 39.1466 25.1794 39.1718C25.1552 39.197 25.1261 39.217 25.094 39.2304C25.0618 39.2439 25.0272 39.2505 24.9923 39.25V39.25ZM7.76821 38.7347H24.7169C24.6625 36.151 23.7493 33.9847 22.0715 32.4534C20.4656 31.0249 18.3849 30.2484 16.2371 30.2762C12.2219 30.2798 7.89504 32.9288 7.76821 38.7347Z" fill="black"/>
<g clip-path="url(#clip0_115_8959)">
<path d="M26.75 24.7599C26.75 22.9595 25.2949 21.5 23.5 21.5C21.7051 21.5 20.25 22.9595 20.25 24.7599V25.7401C20.25 27.5405 21.7051 29 23.5 29C25.2949 29 26.75 27.5405 26.75 25.7401V24.7599Z" fill="black"/>
<path d="M22.4465 23.8833C22.7624 23.8833 23.0185 23.6272 23.0185 23.3113C23.0185 22.9954 22.7624 22.7393 22.4465 22.7393C22.1306 22.7393 21.8745 22.9954 21.8745 23.3113C21.8745 23.6272 22.1306 23.8833 22.4465 23.8833Z" fill="white"/>
<path opacity="0.1" d="M23.5061 26.0874C24.2412 26.0874 24.8371 25.4914 24.8371 24.7563C24.8371 24.0212 24.2412 23.4253 23.5061 23.4253C22.771 23.4253 22.175 24.0212 22.175 24.7563C22.175 25.4914 22.771 26.0874 23.5061 26.0874Z" fill="white"/>
<path d="M11.5 24.7599C11.5 22.9595 10.0449 21.5 8.25 21.5C6.45507 21.5 5 22.9595 5 24.7599V25.7401C5 27.5405 6.45507 29 8.25 29C10.0449 29 11.5 27.5405 11.5 25.7401V24.7599Z" fill="black"/>
<path d="M7.19653 23.8833C7.51245 23.8833 7.76855 23.6272 7.76855 23.3113C7.76855 22.9954 7.51245 22.7393 7.19653 22.7393C6.88061 22.7393 6.62451 22.9954 6.62451 23.3113C6.62451 23.6272 6.88061 23.8833 7.19653 23.8833Z" fill="white"/>
<path opacity="0.1" d="M8.25609 26.0874C8.9912 26.0874 9.58713 25.4914 9.58713 24.7563C9.58713 24.0212 8.9912 23.4253 8.25609 23.4253C7.52098 23.4253 6.92505 24.0212 6.92505 24.7563C6.92505 25.4914 7.52098 26.0874 8.25609 26.0874Z" fill="white"/>
</g>
<circle cx="37.5" cy="13.5" r="13.5" fill="white"/>
<path d="M48.6608 13.398C48.6608 14.8637 48.3721 16.315 47.8112 17.6691C47.2504 19.0231 46.4283 20.2535 45.3919 21.2899C44.3555 22.3262 43.1252 23.1483 41.7711 23.7092C40.417 24.2701 38.9657 24.5588 37.5001 24.5588C34.5401 24.5588 31.7013 23.3829 29.6082 21.2899C27.5152 19.1968 26.3394 16.358 26.3394 13.398C26.3394 10.438 27.5152 7.59925 29.6082 5.50621C31.7013 3.41316 34.5401 2.2373 37.5001 2.2373C40.4601 2.2373 43.2989 3.41316 45.3919 5.50621C47.485 7.59925 48.6608 10.438 48.6608 13.398ZM31.9368 14.4236C32.1369 14.4219 32.3344 14.3544 32.5181 14.2249C32.7018 14.0955 32.868 13.9066 33.0074 13.6692C33.1468 13.4317 33.2566 13.1503 33.3304 12.841C33.4043 12.5317 33.4408 12.2006 33.4379 11.8665C33.432 11.1918 33.2659 10.5462 32.976 10.0717C32.6862 9.59709 32.2964 9.33247 31.8924 9.33599C31.6924 9.33773 31.4949 9.40526 31.3112 9.53471C31.1275 9.66416 30.9612 9.853 30.8218 10.0905C30.6824 10.3279 30.5727 10.6093 30.4988 10.9186C30.425 11.2279 30.3885 11.559 30.3914 11.8931C30.3973 12.5678 30.5634 13.2134 30.8532 13.688C31.1431 14.1625 31.5328 14.4271 31.9368 14.4236ZM43.1077 14.4236C43.3077 14.4219 43.5053 14.3544 43.6889 14.2249C43.8726 14.0955 44.0389 13.9066 44.1783 13.6692C44.3177 13.4317 44.4274 13.1503 44.5013 12.841C44.5752 12.5317 44.6117 12.2006 44.6088 11.8665C44.6029 11.1918 44.4367 10.5462 44.1469 10.0717C43.8571 9.59709 43.4673 9.33247 43.0633 9.33599C42.8633 9.33773 42.6658 9.40526 42.4821 9.53471C42.2984 9.66416 42.1321 9.853 41.9927 10.0905C41.8533 10.3279 41.7436 10.6093 41.6697 10.9186C41.5959 11.2279 41.5594 11.559 41.5623 11.8931C41.5682 12.5678 41.7343 13.2134 42.0241 13.688C42.3139 14.1625 42.7037 14.4271 43.1077 14.4236ZM42.1665 17.7445C42.9992 16.2009 42.5388 15.4291 40.7853 15.4291H33.5852C33.402 15.4289 33.2215 15.4721 33.0582 15.5553C32.895 15.6385 32.7536 15.7592 32.6458 15.9077C32.5379 16.0562 32.4664 16.2282 32.4373 16.4097C32.4082 16.5913 32.4222 16.7772 32.4782 16.9524C33.2297 19.2881 35.4995 20.6337 37.9367 20.4814C38.9387 20.4204 39.8392 20.087 40.6381 19.4811C41.3016 18.9801 41.811 18.4012 42.1665 17.7445Z" fill="#4AAF57"/>
<path d="M30.3912 11.8932C30.4035 13.2981 31.0954 14.431 31.9367 14.4237C32.7779 14.4163 33.45 13.2715 33.4377 11.8666C33.4255 10.4617 32.7335 9.32871 31.8923 9.33605C31.051 9.34339 30.379 10.4882 30.3912 11.8932Z" fill="#020202"/>
<path d="M41.5621 11.8932C41.5744 13.2981 42.2663 14.431 43.1076 14.4237C43.9488 14.4163 44.6209 13.2715 44.6086 11.8666C44.5964 10.4617 43.9044 9.32871 43.0632 9.33605C42.2219 9.34339 41.5499 10.4882 41.5621 11.8932Z" fill="#020202"/>
<path d="M42.1663 17.7446C41.8108 18.4013 41.3014 18.9802 40.6379 19.4812C39.839 20.0871 38.9385 20.4206 37.9365 20.4815C35.4993 20.6338 33.2295 19.2882 32.4781 16.9525C32.4221 16.7773 32.408 16.5914 32.4371 16.4098C32.4662 16.2283 32.5377 16.0563 32.6456 15.9078C32.7535 15.7593 32.8948 15.6386 33.058 15.5554C33.2213 15.4722 33.4018 15.429 33.585 15.4292H40.7851C42.5386 15.4292 42.999 16.201 42.1663 17.7446Z" fill="#020202"/>
<defs>
<filter id="filter0_i_115_8959" x="0" y="12" width="32" height="32" filterUnits="userSpaceOnUse" color-interpolation-filters="sRGB">
<feFlood flood-opacity="0" result="BackgroundImageFix"/>
<feBlend mode="normal" in="SourceGraphic" in2="BackgroundImageFix" result="shape"/>
<feColorMatrix in="SourceAlpha" type="matrix" values="0 0 0 0 0 0 0 0 0 0 0 0 0 0 0 0 0 0 127 0" result="hardAlpha"/>
<feOffset dx="-6" dy="-6"/>
<feComposite in2="hardAlpha" operator="arithmetic" k2="-1" k3="1"/>
<feColorMatrix type="matrix" values="0 0 0 0 0 0 0 0 0 0 0 0 0 0 0 0 0 0 0.04 0"/>
<feBlend mode="normal" in2="shape" result="effect1_innerShadow_115_8959"/>
</filter>
<clipPath id="clip0_115_8959">
<rect width="21.865" height="7.49123" fill="white" transform="translate(5 21.5)"/>
</clipPath>
</defs>
</svg>
